%FSLAX45Y45*%
G04 Gerber Fmt 4.5, Leading zero omitted, Abs format (unit mm)*
G04 Created by KiCad (PCBNEW 5.0.2-bee76a0~70~ubuntu18.04.1) date Fr 23 Aug 2019 08:39:26 CEST*
%MOMM*%
%LPD*%
G01*
G04 APERTURE LIST*
%ADD10C,0.150000*%
%ADD11C,0.200000*%
%ADD12C,0.300000*%
G04 APERTURE END LIST*
D10*
X12300000Y-13000000D02*
X12300000Y-7700000D01*
X5100000Y-7700000D02*
X5100000Y-13000000D01*
X12300000Y-7700000D02*
X5100000Y-7700000D01*
X5100000Y-13000000D02*
X12300000Y-13000000D01*
D11*
X6708250Y-12587250D02*
X7025750Y-12904750D01*
X7025750Y-12587250D02*
X6708250Y-12904750D01*
X6835250Y-7761250D02*
X7152750Y-8078750D01*
X7152750Y-7761250D02*
X6835250Y-8078750D01*
X11915250Y-9285250D02*
X12232750Y-9602750D01*
X12232750Y-9285250D02*
X11915250Y-9602750D01*
X11915250Y-12079250D02*
X12232750Y-12396750D01*
X12232750Y-12079250D02*
X11915250Y-12396750D01*
D12*
X5378928Y-13473214D02*
X5378928Y-13173214D01*
X5450357Y-13173214D01*
X5493214Y-13187500D01*
X5521786Y-13216071D01*
X5536071Y-13244643D01*
X5550357Y-13301786D01*
X5550357Y-13344643D01*
X5536071Y-13401786D01*
X5521786Y-13430357D01*
X5493214Y-13458929D01*
X5450357Y-13473214D01*
X5378928Y-13473214D01*
X5678928Y-13473214D02*
X5678928Y-13273214D01*
X5678928Y-13330357D02*
X5693214Y-13301786D01*
X5707500Y-13287500D01*
X5736071Y-13273214D01*
X5764643Y-13273214D01*
X5864643Y-13473214D02*
X5864643Y-13273214D01*
X5864643Y-13173214D02*
X5850357Y-13187500D01*
X5864643Y-13201786D01*
X5878928Y-13187500D01*
X5864643Y-13173214D01*
X5864643Y-13201786D01*
X6050357Y-13473214D02*
X6021786Y-13458929D01*
X6007500Y-13430357D01*
X6007500Y-13173214D01*
X6207500Y-13473214D02*
X6178928Y-13458929D01*
X6164643Y-13430357D01*
X6164643Y-13173214D01*
X6550357Y-13473214D02*
X6550357Y-13173214D01*
X6650357Y-13387500D01*
X6750357Y-13173214D01*
X6750357Y-13473214D01*
X7021786Y-13473214D02*
X7021786Y-13316071D01*
X7007500Y-13287500D01*
X6978928Y-13273214D01*
X6921786Y-13273214D01*
X6893214Y-13287500D01*
X7021786Y-13458929D02*
X6993214Y-13473214D01*
X6921786Y-13473214D01*
X6893214Y-13458929D01*
X6878928Y-13430357D01*
X6878928Y-13401786D01*
X6893214Y-13373214D01*
X6921786Y-13358929D01*
X6993214Y-13358929D01*
X7021786Y-13344643D01*
X7164643Y-13273214D02*
X7164643Y-13573214D01*
X7164643Y-13287500D02*
X7193214Y-13273214D01*
X7250357Y-13273214D01*
X7278928Y-13287500D01*
X7293214Y-13301786D01*
X7307500Y-13330357D01*
X7307500Y-13416071D01*
X7293214Y-13444643D01*
X7278928Y-13458929D01*
X7250357Y-13473214D01*
X7193214Y-13473214D01*
X7164643Y-13458929D01*
X7436071Y-13444643D02*
X7450357Y-13458929D01*
X7436071Y-13473214D01*
X7421786Y-13458929D01*
X7436071Y-13444643D01*
X7436071Y-13473214D01*
X7436071Y-13287500D02*
X7450357Y-13301786D01*
X7436071Y-13316071D01*
X7421786Y-13301786D01*
X7436071Y-13287500D01*
X7436071Y-13316071D01*
X4775000Y-13808750D02*
X5092500Y-14126250D01*
X5092500Y-13808750D02*
X4775000Y-14126250D01*
X5350357Y-13803214D02*
X5536071Y-13803214D01*
X5436071Y-13917500D01*
X5478928Y-13917500D01*
X5507500Y-13931786D01*
X5521786Y-13946071D01*
X5536071Y-13974643D01*
X5536071Y-14046071D01*
X5521786Y-14074643D01*
X5507500Y-14088929D01*
X5478928Y-14103214D01*
X5393214Y-14103214D01*
X5364643Y-14088929D01*
X5350357Y-14074643D01*
X5664643Y-14074643D02*
X5678928Y-14088929D01*
X5664643Y-14103214D01*
X5650357Y-14088929D01*
X5664643Y-14074643D01*
X5664643Y-14103214D01*
X5964643Y-14103214D02*
X5793214Y-14103214D01*
X5878928Y-14103214D02*
X5878928Y-13803214D01*
X5850357Y-13846071D01*
X5821786Y-13874643D01*
X5793214Y-13888929D01*
X6064643Y-13803214D02*
X6264643Y-13803214D01*
X6136071Y-14103214D01*
X6378928Y-14103214D02*
X6378928Y-13903214D01*
X6378928Y-13931786D02*
X6393214Y-13917500D01*
X6421786Y-13903214D01*
X6464643Y-13903214D01*
X6493214Y-13917500D01*
X6507500Y-13946071D01*
X6507500Y-14103214D01*
X6507500Y-13946071D02*
X6521786Y-13917500D01*
X6550357Y-13903214D01*
X6593214Y-13903214D01*
X6621786Y-13917500D01*
X6636071Y-13946071D01*
X6636071Y-14103214D01*
X6778928Y-14103214D02*
X6778928Y-13903214D01*
X6778928Y-13931786D02*
X6793214Y-13917500D01*
X6821786Y-13903214D01*
X6864643Y-13903214D01*
X6893214Y-13917500D01*
X6907500Y-13946071D01*
X6907500Y-14103214D01*
X6907500Y-13946071D02*
X6921786Y-13917500D01*
X6950357Y-13903214D01*
X6993214Y-13903214D01*
X7021786Y-13917500D01*
X7036071Y-13946071D01*
X7036071Y-14103214D01*
X7621786Y-13788929D02*
X7364643Y-14174643D01*
X8007500Y-13803214D02*
X8036071Y-13803214D01*
X8064643Y-13817500D01*
X8078928Y-13831786D01*
X8093214Y-13860357D01*
X8107500Y-13917500D01*
X8107500Y-13988929D01*
X8093214Y-14046071D01*
X8078928Y-14074643D01*
X8064643Y-14088929D01*
X8036071Y-14103214D01*
X8007500Y-14103214D01*
X7978928Y-14088929D01*
X7964643Y-14074643D01*
X7950357Y-14046071D01*
X7936071Y-13988929D01*
X7936071Y-13917500D01*
X7950357Y-13860357D01*
X7964643Y-13831786D01*
X7978928Y-13817500D01*
X8007500Y-13803214D01*
X8236071Y-14074643D02*
X8250357Y-14088929D01*
X8236071Y-14103214D01*
X8221786Y-14088929D01*
X8236071Y-14074643D01*
X8236071Y-14103214D01*
X8536071Y-14103214D02*
X8364643Y-14103214D01*
X8450357Y-14103214D02*
X8450357Y-13803214D01*
X8421786Y-13846071D01*
X8393214Y-13874643D01*
X8364643Y-13888929D01*
X8650357Y-13831786D02*
X8664643Y-13817500D01*
X8693214Y-13803214D01*
X8764643Y-13803214D01*
X8793214Y-13817500D01*
X8807500Y-13831786D01*
X8821786Y-13860357D01*
X8821786Y-13888929D01*
X8807500Y-13931786D01*
X8636071Y-14103214D01*
X8821786Y-14103214D01*
X9093214Y-13803214D02*
X8950357Y-13803214D01*
X8936071Y-13946071D01*
X8950357Y-13931786D01*
X8978928Y-13917500D01*
X9050357Y-13917500D01*
X9078928Y-13931786D01*
X9093214Y-13946071D01*
X9107500Y-13974643D01*
X9107500Y-14046071D01*
X9093214Y-14074643D01*
X9078928Y-14088929D01*
X9050357Y-14103214D01*
X8978928Y-14103214D01*
X8950357Y-14088929D01*
X8936071Y-14074643D01*
X9221786Y-13803214D02*
X9221786Y-13860357D01*
X9336071Y-13803214D02*
X9336071Y-13860357D01*
X9778928Y-14217500D02*
X9764643Y-14203214D01*
X9736071Y-14160357D01*
X9721786Y-14131786D01*
X9707500Y-14088929D01*
X9693214Y-14017500D01*
X9693214Y-13960357D01*
X9707500Y-13888929D01*
X9721786Y-13846071D01*
X9736071Y-13817500D01*
X9764643Y-13774643D01*
X9778928Y-13760357D01*
X10021786Y-13903214D02*
X10021786Y-14103214D01*
X9950357Y-13788929D02*
X9878928Y-14003214D01*
X10064643Y-14003214D01*
X10407500Y-14103214D02*
X10407500Y-13803214D01*
X10536071Y-14103214D02*
X10536071Y-13946071D01*
X10521786Y-13917500D01*
X10493214Y-13903214D01*
X10450357Y-13903214D01*
X10421786Y-13917500D01*
X10407500Y-13931786D01*
X10721786Y-14103214D02*
X10693214Y-14088929D01*
X10678928Y-14074643D01*
X10664643Y-14046071D01*
X10664643Y-13960357D01*
X10678928Y-13931786D01*
X10693214Y-13917500D01*
X10721786Y-13903214D01*
X10764643Y-13903214D01*
X10793214Y-13917500D01*
X10807500Y-13931786D01*
X10821786Y-13960357D01*
X10821786Y-14046071D01*
X10807500Y-14074643D01*
X10793214Y-14088929D01*
X10764643Y-14103214D01*
X10721786Y-14103214D01*
X10993214Y-14103214D02*
X10964643Y-14088929D01*
X10950357Y-14060357D01*
X10950357Y-13803214D01*
X11221786Y-14088929D02*
X11193214Y-14103214D01*
X11136071Y-14103214D01*
X11107500Y-14088929D01*
X11093214Y-14060357D01*
X11093214Y-13946071D01*
X11107500Y-13917500D01*
X11136071Y-13903214D01*
X11193214Y-13903214D01*
X11221786Y-13917500D01*
X11236071Y-13946071D01*
X11236071Y-13974643D01*
X11093214Y-14003214D01*
X11350357Y-14088929D02*
X11378928Y-14103214D01*
X11436071Y-14103214D01*
X11464643Y-14088929D01*
X11478928Y-14060357D01*
X11478928Y-14046071D01*
X11464643Y-14017500D01*
X11436071Y-14003214D01*
X11393214Y-14003214D01*
X11364643Y-13988929D01*
X11350357Y-13960357D01*
X11350357Y-13946071D01*
X11364643Y-13917500D01*
X11393214Y-13903214D01*
X11436071Y-13903214D01*
X11464643Y-13917500D01*
X11578928Y-14217500D02*
X11593214Y-14203214D01*
X11621786Y-14160357D01*
X11636071Y-14131786D01*
X11650357Y-14088929D01*
X11664643Y-14017500D01*
X11664643Y-13960357D01*
X11650357Y-13888929D01*
X11636071Y-13846071D01*
X11621786Y-13817500D01*
X11593214Y-13774643D01*
X11578928Y-13760357D01*
X12121786Y-14217500D02*
X12107500Y-14203214D01*
X12078928Y-14160357D01*
X12064643Y-14131786D01*
X12050357Y-14088929D01*
X12036071Y-14017500D01*
X12036071Y-13960357D01*
X12050357Y-13888929D01*
X12064643Y-13846071D01*
X12078928Y-13817500D01*
X12107500Y-13774643D01*
X12121786Y-13760357D01*
X12236071Y-13903214D02*
X12236071Y-14103214D01*
X12236071Y-13931786D02*
X12250357Y-13917500D01*
X12278928Y-13903214D01*
X12321786Y-13903214D01*
X12350357Y-13917500D01*
X12364643Y-13946071D01*
X12364643Y-14103214D01*
X12550357Y-14103214D02*
X12521786Y-14088929D01*
X12507500Y-14074643D01*
X12493214Y-14046071D01*
X12493214Y-13960357D01*
X12507500Y-13931786D01*
X12521786Y-13917500D01*
X12550357Y-13903214D01*
X12593214Y-13903214D01*
X12621786Y-13917500D01*
X12636071Y-13931786D01*
X12650357Y-13960357D01*
X12650357Y-14046071D01*
X12636071Y-14074643D01*
X12621786Y-14088929D01*
X12593214Y-14103214D01*
X12550357Y-14103214D01*
X12736071Y-13903214D02*
X12850357Y-13903214D01*
X12778928Y-13803214D02*
X12778928Y-14060357D01*
X12793214Y-14088929D01*
X12821786Y-14103214D01*
X12850357Y-14103214D01*
X13178928Y-13903214D02*
X13178928Y-14203214D01*
X13178928Y-13917500D02*
X13207500Y-13903214D01*
X13264643Y-13903214D01*
X13293214Y-13917500D01*
X13307500Y-13931786D01*
X13321786Y-13960357D01*
X13321786Y-14046071D01*
X13307500Y-14074643D01*
X13293214Y-14088929D01*
X13264643Y-14103214D01*
X13207500Y-14103214D01*
X13178928Y-14088929D01*
X13493214Y-14103214D02*
X13464643Y-14088929D01*
X13450357Y-14060357D01*
X13450357Y-13803214D01*
X13736071Y-14103214D02*
X13736071Y-13946071D01*
X13721786Y-13917500D01*
X13693214Y-13903214D01*
X13636071Y-13903214D01*
X13607500Y-13917500D01*
X13736071Y-14088929D02*
X13707500Y-14103214D01*
X13636071Y-14103214D01*
X13607500Y-14088929D01*
X13593214Y-14060357D01*
X13593214Y-14031786D01*
X13607500Y-14003214D01*
X13636071Y-13988929D01*
X13707500Y-13988929D01*
X13736071Y-13974643D01*
X13836071Y-13903214D02*
X13950357Y-13903214D01*
X13878928Y-13803214D02*
X13878928Y-14060357D01*
X13893214Y-14088929D01*
X13921786Y-14103214D01*
X13950357Y-14103214D01*
X14164643Y-14088929D02*
X14136071Y-14103214D01*
X14078928Y-14103214D01*
X14050357Y-14088929D01*
X14036071Y-14060357D01*
X14036071Y-13946071D01*
X14050357Y-13917500D01*
X14078928Y-13903214D01*
X14136071Y-13903214D01*
X14164643Y-13917500D01*
X14178928Y-13946071D01*
X14178928Y-13974643D01*
X14036071Y-14003214D01*
X14436071Y-14103214D02*
X14436071Y-13803214D01*
X14436071Y-14088929D02*
X14407500Y-14103214D01*
X14350357Y-14103214D01*
X14321786Y-14088929D01*
X14307500Y-14074643D01*
X14293214Y-14046071D01*
X14293214Y-13960357D01*
X14307500Y-13931786D01*
X14321786Y-13917500D01*
X14350357Y-13903214D01*
X14407500Y-13903214D01*
X14436071Y-13917500D01*
X14550357Y-14217500D02*
X14564643Y-14203214D01*
X14593214Y-14160357D01*
X14607500Y-14131786D01*
X14621786Y-14088929D01*
X14636071Y-14017500D01*
X14636071Y-13960357D01*
X14621786Y-13888929D01*
X14607500Y-13846071D01*
X14593214Y-13817500D01*
X14564643Y-13774643D01*
X14550357Y-13760357D01*
M02*
