G04 #@! TF.GenerationSoftware,KiCad,Pcbnew,5.0.2-bee76a0~70~ubuntu18.04.1*
G04 #@! TF.CreationDate,2019-06-24T16:55:11+02:00*
G04 #@! TF.ProjectId,ArduHMIShield,41726475-484d-4495-9368-69656c642e6b,1.1*
G04 #@! TF.SameCoordinates,Original*
G04 #@! TF.FileFunction,Legend,Top*
G04 #@! TF.FilePolarity,Positive*
%FSLAX46Y46*%
G04 Gerber Fmt 4.6, Leading zero omitted, Abs format (unit mm)*
G04 Created by KiCad (PCBNEW 5.0.2-bee76a0~70~ubuntu18.04.1) date Mo 24 Jun 2019 16:55:11 CEST*
%MOMM*%
%LPD*%
G01*
G04 APERTURE LIST*
%ADD10C,0.300000*%
%ADD11C,0.150000*%
%ADD12C,0.010000*%
G04 APERTURE END LIST*
D10*
X92871428Y-99485714D02*
X93042857Y-99542857D01*
X93328571Y-99542857D01*
X93442857Y-99485714D01*
X93500000Y-99428571D01*
X93557142Y-99314285D01*
X93557142Y-99200000D01*
X93500000Y-99085714D01*
X93442857Y-99028571D01*
X93328571Y-98971428D01*
X93100000Y-98914285D01*
X92985714Y-98857142D01*
X92928571Y-98800000D01*
X92871428Y-98685714D01*
X92871428Y-98571428D01*
X92928571Y-98457142D01*
X92985714Y-98400000D01*
X93100000Y-98342857D01*
X93385714Y-98342857D01*
X93557142Y-98400000D01*
X93957142Y-98342857D02*
X94242857Y-99542857D01*
X94471428Y-98685714D01*
X94700000Y-99542857D01*
X94985714Y-98342857D01*
X92671428Y-101585714D02*
X92842857Y-101642857D01*
X93128571Y-101642857D01*
X93242857Y-101585714D01*
X93300000Y-101528571D01*
X93357142Y-101414285D01*
X93357142Y-101300000D01*
X93300000Y-101185714D01*
X93242857Y-101128571D01*
X93128571Y-101071428D01*
X92900000Y-101014285D01*
X92785714Y-100957142D01*
X92728571Y-100900000D01*
X92671428Y-100785714D01*
X92671428Y-100671428D01*
X92728571Y-100557142D01*
X92785714Y-100500000D01*
X92900000Y-100442857D01*
X93185714Y-100442857D01*
X93357142Y-100500000D01*
X93871428Y-101642857D02*
X93871428Y-100442857D01*
X94328571Y-100442857D01*
X94442857Y-100500000D01*
X94500000Y-100557142D01*
X94557142Y-100671428D01*
X94557142Y-100842857D01*
X94500000Y-100957142D01*
X94442857Y-101014285D01*
X94328571Y-101071428D01*
X93871428Y-101071428D01*
X95071428Y-101642857D02*
X95071428Y-100442857D01*
X86371428Y-99492857D02*
X86371428Y-98292857D01*
X86371428Y-98864285D02*
X87057142Y-98864285D01*
X87057142Y-99492857D02*
X87057142Y-98292857D01*
X87514285Y-98292857D02*
X87800000Y-99492857D01*
X88028571Y-98635714D01*
X88257142Y-99492857D01*
X88542857Y-98292857D01*
X86171428Y-101535714D02*
X86342857Y-101592857D01*
X86628571Y-101592857D01*
X86742857Y-101535714D01*
X86800000Y-101478571D01*
X86857142Y-101364285D01*
X86857142Y-101250000D01*
X86800000Y-101135714D01*
X86742857Y-101078571D01*
X86628571Y-101021428D01*
X86400000Y-100964285D01*
X86285714Y-100907142D01*
X86228571Y-100850000D01*
X86171428Y-100735714D01*
X86171428Y-100621428D01*
X86228571Y-100507142D01*
X86285714Y-100450000D01*
X86400000Y-100392857D01*
X86685714Y-100392857D01*
X86857142Y-100450000D01*
X87371428Y-101592857D02*
X87371428Y-100392857D01*
X87828571Y-100392857D01*
X87942857Y-100450000D01*
X88000000Y-100507142D01*
X88057142Y-100621428D01*
X88057142Y-100792857D01*
X88000000Y-100907142D01*
X87942857Y-100964285D01*
X87828571Y-101021428D01*
X87371428Y-101021428D01*
X88571428Y-101592857D02*
X88571428Y-100392857D01*
X73642857Y-115242857D02*
X73071428Y-115242857D01*
X73071428Y-114042857D01*
X74042857Y-115242857D02*
X74042857Y-114442857D01*
X74042857Y-114042857D02*
X73985714Y-114100000D01*
X74042857Y-114157142D01*
X74100000Y-114100000D01*
X74042857Y-114042857D01*
X74042857Y-114157142D01*
X75128571Y-115185714D02*
X75014285Y-115242857D01*
X74785714Y-115242857D01*
X74671428Y-115185714D01*
X74614285Y-115128571D01*
X74557142Y-115014285D01*
X74557142Y-114671428D01*
X74614285Y-114557142D01*
X74671428Y-114500000D01*
X74785714Y-114442857D01*
X75014285Y-114442857D01*
X75128571Y-114500000D01*
X76100000Y-115185714D02*
X75985714Y-115242857D01*
X75757142Y-115242857D01*
X75642857Y-115185714D01*
X75585714Y-115071428D01*
X75585714Y-114614285D01*
X75642857Y-114500000D01*
X75757142Y-114442857D01*
X75985714Y-114442857D01*
X76100000Y-114500000D01*
X76157142Y-114614285D01*
X76157142Y-114728571D01*
X75585714Y-114842857D01*
X76671428Y-114442857D02*
X76671428Y-115242857D01*
X76671428Y-114557142D02*
X76728571Y-114500000D01*
X76842857Y-114442857D01*
X77014285Y-114442857D01*
X77128571Y-114500000D01*
X77185714Y-114614285D01*
X77185714Y-115242857D01*
X77700000Y-115185714D02*
X77814285Y-115242857D01*
X78042857Y-115242857D01*
X78157142Y-115185714D01*
X78214285Y-115071428D01*
X78214285Y-115014285D01*
X78157142Y-114900000D01*
X78042857Y-114842857D01*
X77871428Y-114842857D01*
X77757142Y-114785714D01*
X77700000Y-114671428D01*
X77700000Y-114614285D01*
X77757142Y-114500000D01*
X77871428Y-114442857D01*
X78042857Y-114442857D01*
X78157142Y-114500000D01*
X79185714Y-115185714D02*
X79071428Y-115242857D01*
X78842857Y-115242857D01*
X78728571Y-115185714D01*
X78671428Y-115071428D01*
X78671428Y-114614285D01*
X78728571Y-114500000D01*
X78842857Y-114442857D01*
X79071428Y-114442857D01*
X79185714Y-114500000D01*
X79242857Y-114614285D01*
X79242857Y-114728571D01*
X78671428Y-114842857D01*
X80271428Y-115242857D02*
X80271428Y-114042857D01*
X80271428Y-115185714D02*
X80157142Y-115242857D01*
X79928571Y-115242857D01*
X79814285Y-115185714D01*
X79757142Y-115128571D01*
X79700000Y-115014285D01*
X79700000Y-114671428D01*
X79757142Y-114557142D01*
X79814285Y-114500000D01*
X79928571Y-114442857D01*
X80157142Y-114442857D01*
X80271428Y-114500000D01*
X82271428Y-114442857D02*
X82271428Y-115242857D01*
X81757142Y-114442857D02*
X81757142Y-115071428D01*
X81814285Y-115185714D01*
X81928571Y-115242857D01*
X82100000Y-115242857D01*
X82214285Y-115185714D01*
X82271428Y-115128571D01*
X82842857Y-114442857D02*
X82842857Y-115242857D01*
X82842857Y-114557142D02*
X82900000Y-114500000D01*
X83014285Y-114442857D01*
X83185714Y-114442857D01*
X83300000Y-114500000D01*
X83357142Y-114614285D01*
X83357142Y-115242857D01*
X84442857Y-115242857D02*
X84442857Y-114042857D01*
X84442857Y-115185714D02*
X84328571Y-115242857D01*
X84100000Y-115242857D01*
X83985714Y-115185714D01*
X83928571Y-115128571D01*
X83871428Y-115014285D01*
X83871428Y-114671428D01*
X83928571Y-114557142D01*
X83985714Y-114500000D01*
X84100000Y-114442857D01*
X84328571Y-114442857D01*
X84442857Y-114500000D01*
X85471428Y-115185714D02*
X85357142Y-115242857D01*
X85128571Y-115242857D01*
X85014285Y-115185714D01*
X84957142Y-115071428D01*
X84957142Y-114614285D01*
X85014285Y-114500000D01*
X85128571Y-114442857D01*
X85357142Y-114442857D01*
X85471428Y-114500000D01*
X85528571Y-114614285D01*
X85528571Y-114728571D01*
X84957142Y-114842857D01*
X86042857Y-115242857D02*
X86042857Y-114442857D01*
X86042857Y-114671428D02*
X86100000Y-114557142D01*
X86157142Y-114500000D01*
X86271428Y-114442857D01*
X86385714Y-114442857D01*
X88385714Y-115128571D02*
X88328571Y-115185714D01*
X88157142Y-115242857D01*
X88042857Y-115242857D01*
X87871428Y-115185714D01*
X87757142Y-115071428D01*
X87700000Y-114957142D01*
X87642857Y-114728571D01*
X87642857Y-114557142D01*
X87700000Y-114328571D01*
X87757142Y-114214285D01*
X87871428Y-114100000D01*
X88042857Y-114042857D01*
X88157142Y-114042857D01*
X88328571Y-114100000D01*
X88385714Y-114157142D01*
X88900000Y-114614285D02*
X89300000Y-114614285D01*
X89471428Y-115242857D02*
X88900000Y-115242857D01*
X88900000Y-114042857D01*
X89471428Y-114042857D01*
X90671428Y-115242857D02*
X90271428Y-114671428D01*
X89985714Y-115242857D02*
X89985714Y-114042857D01*
X90442857Y-114042857D01*
X90557142Y-114100000D01*
X90614285Y-114157142D01*
X90671428Y-114271428D01*
X90671428Y-114442857D01*
X90614285Y-114557142D01*
X90557142Y-114614285D01*
X90442857Y-114671428D01*
X89985714Y-114671428D01*
X91185714Y-115242857D02*
X91185714Y-114042857D01*
X91871428Y-115242857D01*
X91871428Y-114042857D01*
X93585714Y-114042857D02*
X93814285Y-114042857D01*
X93928571Y-114100000D01*
X94042857Y-114214285D01*
X94100000Y-114442857D01*
X94100000Y-114842857D01*
X94042857Y-115071428D01*
X93928571Y-115185714D01*
X93814285Y-115242857D01*
X93585714Y-115242857D01*
X93471428Y-115185714D01*
X93357142Y-115071428D01*
X93300000Y-114842857D01*
X93300000Y-114442857D01*
X93357142Y-114214285D01*
X93471428Y-114100000D01*
X93585714Y-114042857D01*
X94614285Y-115242857D02*
X94614285Y-114042857D01*
X94614285Y-114614285D02*
X95300000Y-114614285D01*
X95300000Y-115242857D02*
X95300000Y-114042857D01*
X96442857Y-115242857D02*
X95871428Y-115242857D01*
X95871428Y-114042857D01*
X97642857Y-114442857D02*
X97928571Y-115242857D01*
X98214285Y-114442857D01*
X98671428Y-115128571D02*
X98728571Y-115185714D01*
X98671428Y-115242857D01*
X98614285Y-115185714D01*
X98671428Y-115128571D01*
X98671428Y-115242857D01*
X99871428Y-115242857D02*
X99185714Y-115242857D01*
X99528571Y-115242857D02*
X99528571Y-114042857D01*
X99414285Y-114214285D01*
X99300000Y-114328571D01*
X99185714Y-114385714D01*
X100385714Y-115128571D02*
X100442857Y-115185714D01*
X100385714Y-115242857D01*
X100328571Y-115185714D01*
X100385714Y-115128571D01*
X100385714Y-115242857D01*
X100900000Y-114157142D02*
X100957142Y-114100000D01*
X101071428Y-114042857D01*
X101357142Y-114042857D01*
X101471428Y-114100000D01*
X101528571Y-114157142D01*
X101585714Y-114271428D01*
X101585714Y-114385714D01*
X101528571Y-114557142D01*
X100842857Y-115242857D01*
X101585714Y-115242857D01*
D11*
G04 #@! TO.C,U2*
X70625000Y-96725000D02*
X70960000Y-96725000D01*
X70625000Y-88975000D02*
X70960000Y-88975000D01*
X83775000Y-88975000D02*
X83440000Y-88975000D01*
X83775000Y-96725000D02*
X83440000Y-96725000D01*
X70625000Y-96725000D02*
X70625000Y-88975000D01*
X83775000Y-96725000D02*
X83775000Y-88975000D01*
X70960000Y-96725000D02*
X70960000Y-98525000D01*
G04 #@! TO.C,Q1*
X111450240Y-121799820D02*
X110749200Y-121799820D01*
X111450240Y-121599160D02*
X111450240Y-121799820D01*
X111450240Y-118800180D02*
X111450240Y-119049100D01*
X110749200Y-118800180D02*
X111450240Y-118800180D01*
X111450240Y-121599160D02*
X111450240Y-121550900D01*
G04 #@! TO.C,C1*
X108350000Y-85600000D02*
X108350000Y-84900000D01*
X109550000Y-84900000D02*
X109550000Y-85600000D01*
G04 #@! TO.C,C2*
X110900000Y-85700000D02*
X110900000Y-85000000D01*
X112100000Y-85000000D02*
X112100000Y-85700000D01*
G04 #@! TO.C,R1*
X82025000Y-122600000D02*
X82025000Y-121600000D01*
X83375000Y-121600000D02*
X83375000Y-122600000D01*
G04 #@! TO.C,R2*
X64625000Y-93500000D02*
X64625000Y-92500000D01*
X65975000Y-92500000D02*
X65975000Y-93500000D01*
G04 #@! TO.C,R3*
X53775000Y-89600000D02*
X53775000Y-90600000D01*
X52425000Y-90600000D02*
X52425000Y-89600000D01*
G04 #@! TO.C,R6*
X116925000Y-121550000D02*
X116925000Y-120550000D01*
X118275000Y-120550000D02*
X118275000Y-121550000D01*
G04 #@! TO.C,R7*
X115125000Y-121550000D02*
X115125000Y-120550000D01*
X116475000Y-120550000D02*
X116475000Y-121550000D01*
G04 #@! TO.C,R8*
X113325000Y-121600000D02*
X113325000Y-120600000D01*
X114675000Y-120600000D02*
X114675000Y-121600000D01*
G04 #@! TO.C,R9*
X107125000Y-120900000D02*
X107125000Y-119900000D01*
X108475000Y-119900000D02*
X108475000Y-120900000D01*
G04 #@! TO.C,R4*
X54800000Y-117075000D02*
X53800000Y-117075000D01*
X53800000Y-115725000D02*
X54800000Y-115725000D01*
G04 #@! TO.C,R5*
X53800000Y-117925000D02*
X54800000Y-117925000D01*
X54800000Y-119275000D02*
X53800000Y-119275000D01*
G04 #@! TO.C,C3*
X113450000Y-85600000D02*
X113450000Y-84900000D01*
X114650000Y-84900000D02*
X114650000Y-85600000D01*
G04 #@! TO.C,C4*
X116000000Y-85600000D02*
X116000000Y-84900000D01*
X117200000Y-84900000D02*
X117200000Y-85600000D01*
G04 #@! TO.C,C5*
X90450000Y-85900000D02*
X91150000Y-85900000D01*
X91150000Y-87100000D02*
X90450000Y-87100000D01*
G04 #@! TO.C,C6*
X118550000Y-85650000D02*
X118550000Y-84950000D01*
X119750000Y-84950000D02*
X119750000Y-85650000D01*
G04 #@! TO.C,C7*
X94750000Y-87100000D02*
X94050000Y-87100000D01*
X94050000Y-85900000D02*
X94750000Y-85900000D01*
G04 #@! TO.C,C8*
X97850000Y-87100000D02*
X97150000Y-87100000D01*
X97150000Y-85900000D02*
X97850000Y-85900000D01*
G04 #@! TO.C,C9*
X102150000Y-87100000D02*
X101450000Y-87100000D01*
X101450000Y-85900000D02*
X102150000Y-85900000D01*
G04 #@! TO.C,DIS1*
X67500000Y-125120000D02*
X67500000Y-81880000D01*
X122500000Y-125120000D02*
X67500000Y-125120000D01*
X122500000Y-81880000D02*
X122500000Y-125120000D01*
X67500000Y-81880000D02*
X122500000Y-81880000D01*
X67500000Y-90300000D02*
X122500000Y-90300000D01*
X122500000Y-121300000D02*
X67500000Y-121300000D01*
X70750000Y-119700000D02*
X70750000Y-91900000D01*
X119250000Y-119700000D02*
X70750000Y-119700000D01*
X119250000Y-91900000D02*
X119250000Y-119700000D01*
X70750000Y-91900000D02*
X119250000Y-91900000D01*
G04 #@! TO.C,DIS2*
X70750000Y-91630000D02*
X119250000Y-91630000D01*
X119250000Y-91630000D02*
X119250000Y-103630000D01*
X119250000Y-103630000D02*
X70750000Y-103630000D01*
X70750000Y-103630000D02*
X70750000Y-91630000D01*
X122500000Y-106380000D02*
X67500000Y-106380000D01*
X67500000Y-88880000D02*
X122500000Y-88880000D01*
X67500000Y-81880000D02*
X122500000Y-81880000D01*
X122500000Y-81880000D02*
X122500000Y-109880000D01*
X122500000Y-109880000D02*
X67500000Y-109880000D01*
X67500000Y-109880000D02*
X67500000Y-81880000D01*
G04 #@! TO.C,DIS3*
X70555000Y-94150000D02*
X104205000Y-94150000D01*
X104205000Y-94150000D02*
X104205000Y-116550000D01*
X104205000Y-116550000D02*
X70555000Y-116550000D01*
X70555000Y-116550000D02*
X70555000Y-94150000D01*
X106880000Y-117850000D02*
X67880000Y-117850000D01*
X67880000Y-92850000D02*
X106880000Y-92850000D01*
X67880000Y-84450000D02*
X106880000Y-84450000D01*
X106880000Y-84420000D02*
X106880000Y-122580000D01*
X106880000Y-122580000D02*
X67880000Y-122580000D01*
X67880000Y-122580000D02*
X67880000Y-84420000D01*
G04 #@! TO.C,C10*
X111950000Y-107500000D02*
X112650000Y-107500000D01*
X112650000Y-108700000D02*
X111950000Y-108700000D01*
G04 #@! TO.C,C11*
X112650000Y-107000000D02*
X111950000Y-107000000D01*
X111950000Y-105800000D02*
X112650000Y-105800000D01*
G04 #@! TO.C,U1*
X109744000Y-102024000D02*
X109744000Y-105072000D01*
X109744000Y-105072000D02*
X116856000Y-105072000D01*
X116856000Y-105072000D02*
X116856000Y-102024000D01*
X109744000Y-98976000D02*
X109744000Y-98214000D01*
X109744000Y-98214000D02*
X111268000Y-95928000D01*
X111268000Y-95928000D02*
X115332000Y-95928000D01*
X115332000Y-95928000D02*
X116856000Y-98214000D01*
X116856000Y-98214000D02*
X116856000Y-98976000D01*
G04 #@! TO.C,C12*
X68950000Y-88900000D02*
X68950000Y-88200000D01*
X70150000Y-88200000D02*
X70150000Y-88900000D01*
G04 #@! TO.C,R10*
X78925000Y-92100000D02*
X78925000Y-91100000D01*
X80275000Y-91100000D02*
X80275000Y-92100000D01*
G04 #@! TO.C,R11*
X78575000Y-91100000D02*
X78575000Y-92100000D01*
X77225000Y-92100000D02*
X77225000Y-91100000D01*
G04 #@! TO.C,R12*
X75525000Y-92100000D02*
X75525000Y-91100000D01*
X76875000Y-91100000D02*
X76875000Y-92100000D01*
G04 #@! TO.C,R13*
X73475000Y-91100000D02*
X73475000Y-92100000D01*
X72125000Y-92100000D02*
X72125000Y-91100000D01*
G04 #@! TO.C,R14*
X73825000Y-92050000D02*
X73825000Y-91050000D01*
X75175000Y-91050000D02*
X75175000Y-92050000D01*
G04 #@! TO.C,R15*
X94300000Y-97625000D02*
X93300000Y-97625000D01*
X93300000Y-96275000D02*
X94300000Y-96275000D01*
G04 #@! TO.C,R16*
X79250000Y-101725000D02*
X80250000Y-101725000D01*
X80250000Y-103075000D02*
X79250000Y-103075000D01*
G04 #@! TO.C,R17*
X94300000Y-95875000D02*
X93300000Y-95875000D01*
X93300000Y-94525000D02*
X94300000Y-94525000D01*
G04 #@! TO.C,R18*
X87900000Y-97625000D02*
X86900000Y-97625000D01*
X86900000Y-96275000D02*
X87900000Y-96275000D01*
G04 #@! TO.C,R19*
X79250000Y-100025000D02*
X80250000Y-100025000D01*
X80250000Y-101375000D02*
X79250000Y-101375000D01*
G04 #@! TO.C,R20*
X86900000Y-94525000D02*
X87900000Y-94525000D01*
X87900000Y-95875000D02*
X86900000Y-95875000D01*
G04 #@! TO.C,R21*
X66875000Y-120800000D02*
X66875000Y-121800000D01*
X65525000Y-121800000D02*
X65525000Y-120800000D01*
G04 #@! TO.C,D1*
X66750000Y-125800000D02*
X66750000Y-123900000D01*
X65650000Y-125800000D02*
X65650000Y-123900000D01*
X66200000Y-124900000D02*
X66200000Y-124450000D01*
X65950000Y-124950000D02*
X66450000Y-124950000D01*
X66200000Y-124950000D02*
X65950000Y-124700000D01*
X65950000Y-124700000D02*
X66450000Y-124700000D01*
X66450000Y-124700000D02*
X66200000Y-124950000D01*
G04 #@! TO.C,SW1*
X59900000Y-103100000D02*
X59900000Y-96900000D01*
X59900000Y-96900000D02*
X66100000Y-96900000D01*
X66100000Y-96900000D02*
X66100000Y-103100000D01*
X66100000Y-103100000D02*
X59900000Y-103100000D01*
X65404163Y-100000000D02*
G75*
G03X65404163Y-100000000I-2404163J0D01*
G01*
G04 #@! TO.C,SW2*
X55900000Y-86900000D02*
X62100000Y-86900000D01*
X62100000Y-86900000D02*
X62100000Y-93100000D01*
X62100000Y-93100000D02*
X55900000Y-93100000D01*
X55900000Y-93100000D02*
X55900000Y-86900000D01*
X61404163Y-90000000D02*
G75*
G03X61404163Y-90000000I-2404163J0D01*
G01*
G04 #@! TO.C,SW3*
X61404163Y-110000000D02*
G75*
G03X61404163Y-110000000I-2404163J0D01*
G01*
X55900000Y-113100000D02*
X55900000Y-106900000D01*
X62100000Y-113100000D02*
X55900000Y-113100000D01*
X62100000Y-106900000D02*
X62100000Y-113100000D01*
X55900000Y-106900000D02*
X62100000Y-106900000D01*
G04 #@! TO.C,SW4*
X58100000Y-96900000D02*
X58100000Y-103100000D01*
X58100000Y-103100000D02*
X51900000Y-103100000D01*
X51900000Y-103100000D02*
X51900000Y-96900000D01*
X51900000Y-96900000D02*
X58100000Y-96900000D01*
X57404163Y-100000000D02*
G75*
G03X57404163Y-100000000I-2404163J0D01*
G01*
G04 #@! TO.C,SW5*
X61404163Y-125000000D02*
G75*
G03X61404163Y-125000000I-2404163J0D01*
G01*
X62100000Y-121900000D02*
X62100000Y-128100000D01*
X55900000Y-121900000D02*
X62100000Y-121900000D01*
X55900000Y-128100000D02*
X55900000Y-121900000D01*
X62100000Y-128100000D02*
X55900000Y-128100000D01*
G04 #@! TO.C,SW6*
X55900000Y-77900000D02*
X62100000Y-77900000D01*
X62100000Y-77900000D02*
X62100000Y-84100000D01*
X62100000Y-84100000D02*
X55900000Y-84100000D01*
X55900000Y-84100000D02*
X55900000Y-77900000D01*
X61404163Y-81000000D02*
G75*
G03X61404163Y-81000000I-2404163J0D01*
G01*
D12*
G04 #@! TO.C,G\002A\002A\002A*
G36*
X100942000Y-109944800D02*
X76634200Y-109944800D01*
X76634200Y-106541200D01*
X76735800Y-106541200D01*
X76735800Y-109843200D01*
X92483800Y-109843200D01*
X92483800Y-107481000D01*
X92737800Y-107481000D01*
X92737800Y-108979600D01*
X93271200Y-108979600D01*
X93271341Y-108554150D01*
X93272962Y-108404479D01*
X93277349Y-108265673D01*
X93283940Y-108148715D01*
X93292174Y-108064590D01*
X93298001Y-108033209D01*
X93345009Y-107939271D01*
X93419120Y-107881207D01*
X93511257Y-107865926D01*
X93517020Y-107866504D01*
X93562854Y-107877521D01*
X93598406Y-107902641D01*
X93625110Y-107947709D01*
X93644400Y-108018568D01*
X93657713Y-108121065D01*
X93666481Y-108261042D01*
X93672141Y-108444346D01*
X93673347Y-108503350D01*
X93682358Y-108979600D01*
X94185600Y-108979600D01*
X94186110Y-108643050D01*
X94190268Y-108410237D01*
X94202680Y-108224017D01*
X94224423Y-108080690D01*
X94256576Y-107976557D01*
X94300217Y-107907920D01*
X94356424Y-107871079D01*
X94413772Y-107862000D01*
X94473939Y-107870673D01*
X94521565Y-107899846D01*
X94557944Y-107954250D01*
X94584374Y-108038616D01*
X94602149Y-108157676D01*
X94612565Y-108316160D01*
X94616919Y-108518799D01*
X94617252Y-108604950D01*
X94617400Y-108979600D01*
X95125400Y-108979600D01*
X95125400Y-108535100D01*
X95418593Y-108535100D01*
X95438166Y-108700793D01*
X95494213Y-108832492D01*
X95585718Y-108928838D01*
X95711667Y-108988469D01*
X95766001Y-109000818D01*
X95891443Y-109009753D01*
X96022003Y-108998150D01*
X96138601Y-108968935D01*
X96212705Y-108932285D01*
X96272540Y-108885143D01*
X96317023Y-108842500D01*
X96318215Y-108841085D01*
X96353286Y-108808250D01*
X96381666Y-108813012D01*
X96413039Y-108859732D01*
X96428384Y-108890700D01*
X96470778Y-108979600D01*
X96857498Y-108979600D01*
X97208200Y-108979600D01*
X97741600Y-108979600D01*
X97742038Y-108770050D01*
X97743076Y-108666605D01*
X97748287Y-108600943D01*
X97761610Y-108560047D01*
X97786988Y-108530901D01*
X97822388Y-108504659D01*
X97902298Y-108448818D01*
X98065173Y-108714209D01*
X98228047Y-108979600D01*
X98518223Y-108979600D01*
X98632815Y-108978266D01*
X98726059Y-108974644D01*
X98787896Y-108969297D01*
X98808400Y-108963292D01*
X98795253Y-108937865D01*
X98758626Y-108876651D01*
X98702736Y-108786449D01*
X98631800Y-108674056D01*
X98550035Y-108546270D01*
X98540715Y-108531805D01*
X98367042Y-108262438D01*
X98962710Y-108262438D01*
X98979531Y-108434072D01*
X98998649Y-108513633D01*
X99072723Y-108684653D01*
X99182651Y-108819699D01*
X99328364Y-108918717D01*
X99509794Y-108981653D01*
X99612000Y-108999340D01*
X99755043Y-109007942D01*
X99912790Y-109002587D01*
X100065300Y-108984955D01*
X100192633Y-108956728D01*
X100218100Y-108948247D01*
X100319700Y-108911159D01*
X100327162Y-108729479D01*
X100329162Y-108627704D01*
X100320158Y-108569760D01*
X100293166Y-108548839D01*
X100241203Y-108558133D01*
X100176751Y-108582832D01*
X100058822Y-108617289D01*
X99922792Y-108636437D01*
X99791315Y-108638269D01*
X99700914Y-108624946D01*
X99611399Y-108584136D01*
X99539727Y-108521123D01*
X99498971Y-108449033D01*
X99494200Y-108417374D01*
X99497113Y-108400506D01*
X99510429Y-108388190D01*
X99541013Y-108379715D01*
X99595729Y-108374371D01*
X99681442Y-108371444D01*
X99805017Y-108370225D01*
X99951400Y-108370000D01*
X100408600Y-108370000D01*
X100408600Y-108167314D01*
X100391645Y-107961936D01*
X100340117Y-107792718D01*
X100253020Y-107657695D01*
X100129360Y-107554908D01*
X100085427Y-107530290D01*
X100020467Y-107500652D01*
X99956616Y-107482144D01*
X99878867Y-107472287D01*
X99772213Y-107468604D01*
X99710100Y-107468300D01*
X99534711Y-107475930D01*
X99396349Y-107501499D01*
X99283184Y-107549022D01*
X99183387Y-107622515D01*
X99144264Y-107660389D01*
X99065984Y-107772251D01*
X99008153Y-107918539D01*
X98972990Y-108086264D01*
X98962710Y-108262438D01*
X98367042Y-108262438D01*
X98273030Y-108116626D01*
X98526819Y-107805163D01*
X98780607Y-107493700D01*
X98496053Y-107486314D01*
X98396139Y-107482672D01*
X98321090Y-107480973D01*
X98263326Y-107486111D01*
X98215271Y-107502981D01*
X98169346Y-107536477D01*
X98117972Y-107591494D01*
X98053573Y-107672928D01*
X97968569Y-107785672D01*
X97907517Y-107866448D01*
X97720703Y-108112196D01*
X97724801Y-107510848D01*
X97728900Y-106909500D01*
X97208200Y-106895022D01*
X97208200Y-108979600D01*
X96857498Y-108979600D01*
X96846878Y-108414450D01*
X96842441Y-108217260D01*
X96837109Y-108064272D01*
X96830366Y-107948886D01*
X96821694Y-107864506D01*
X96810577Y-107804532D01*
X96796496Y-107762368D01*
X96795609Y-107760400D01*
X96720718Y-107636547D01*
X96621994Y-107546799D01*
X96493795Y-107488338D01*
X96330481Y-107458344D01*
X96179998Y-107452849D01*
X95986569Y-107465355D01*
X95803092Y-107497192D01*
X95648930Y-107544968D01*
X95645006Y-107546593D01*
X95559813Y-107582189D01*
X95624039Y-107728444D01*
X95660801Y-107808430D01*
X95691890Y-107869528D01*
X95708296Y-107895494D01*
X95740564Y-107898600D01*
X95807523Y-107887781D01*
X95895729Y-107865343D01*
X95911496Y-107860652D01*
X96053268Y-107827159D01*
X96160238Y-107825121D01*
X96238170Y-107855415D01*
X96292598Y-107918509D01*
X96315064Y-107970151D01*
X96316307Y-108000351D01*
X96316127Y-108000539D01*
X96286180Y-108008932D01*
X96217276Y-108019833D01*
X96121086Y-108031557D01*
X96053255Y-108038464D01*
X95843358Y-108069877D01*
X95678466Y-108121278D01*
X95556099Y-108194608D01*
X95473776Y-108291810D01*
X95429015Y-108414824D01*
X95418593Y-108535100D01*
X95125400Y-108535100D01*
X95125400Y-108425324D01*
X95124168Y-108208908D01*
X95119614Y-108036547D01*
X95110451Y-107901536D01*
X95095393Y-107797171D01*
X95073153Y-107716747D01*
X95042443Y-107653559D01*
X95001976Y-107600904D01*
X94959244Y-107559680D01*
X94848898Y-107493908D01*
X94712428Y-107459228D01*
X94563979Y-107455763D01*
X94417698Y-107483638D01*
X94287729Y-107542976D01*
X94271850Y-107553654D01*
X94196085Y-107604818D01*
X94148237Y-107627634D01*
X94115854Y-107624595D01*
X94086485Y-107598193D01*
X94081119Y-107591829D01*
X93999980Y-107528105D01*
X93887905Y-107485284D01*
X93757055Y-107463151D01*
X93619591Y-107461493D01*
X93487674Y-107480097D01*
X93373464Y-107518748D01*
X93289121Y-107577232D01*
X93266465Y-107606142D01*
X93232386Y-107649497D01*
X93206116Y-107648909D01*
X93180814Y-107601819D01*
X93169600Y-107569900D01*
X93140260Y-107481000D01*
X92737800Y-107481000D01*
X92483800Y-107481000D01*
X92483800Y-106541200D01*
X76735800Y-106541200D01*
X76634200Y-106541200D01*
X76634200Y-106414200D01*
X100942000Y-106414200D01*
X100942000Y-109944800D01*
X100942000Y-109944800D01*
G37*
X100942000Y-109944800D02*
X76634200Y-109944800D01*
X76634200Y-106541200D01*
X76735800Y-106541200D01*
X76735800Y-109843200D01*
X92483800Y-109843200D01*
X92483800Y-107481000D01*
X92737800Y-107481000D01*
X92737800Y-108979600D01*
X93271200Y-108979600D01*
X93271341Y-108554150D01*
X93272962Y-108404479D01*
X93277349Y-108265673D01*
X93283940Y-108148715D01*
X93292174Y-108064590D01*
X93298001Y-108033209D01*
X93345009Y-107939271D01*
X93419120Y-107881207D01*
X93511257Y-107865926D01*
X93517020Y-107866504D01*
X93562854Y-107877521D01*
X93598406Y-107902641D01*
X93625110Y-107947709D01*
X93644400Y-108018568D01*
X93657713Y-108121065D01*
X93666481Y-108261042D01*
X93672141Y-108444346D01*
X93673347Y-108503350D01*
X93682358Y-108979600D01*
X94185600Y-108979600D01*
X94186110Y-108643050D01*
X94190268Y-108410237D01*
X94202680Y-108224017D01*
X94224423Y-108080690D01*
X94256576Y-107976557D01*
X94300217Y-107907920D01*
X94356424Y-107871079D01*
X94413772Y-107862000D01*
X94473939Y-107870673D01*
X94521565Y-107899846D01*
X94557944Y-107954250D01*
X94584374Y-108038616D01*
X94602149Y-108157676D01*
X94612565Y-108316160D01*
X94616919Y-108518799D01*
X94617252Y-108604950D01*
X94617400Y-108979600D01*
X95125400Y-108979600D01*
X95125400Y-108535100D01*
X95418593Y-108535100D01*
X95438166Y-108700793D01*
X95494213Y-108832492D01*
X95585718Y-108928838D01*
X95711667Y-108988469D01*
X95766001Y-109000818D01*
X95891443Y-109009753D01*
X96022003Y-108998150D01*
X96138601Y-108968935D01*
X96212705Y-108932285D01*
X96272540Y-108885143D01*
X96317023Y-108842500D01*
X96318215Y-108841085D01*
X96353286Y-108808250D01*
X96381666Y-108813012D01*
X96413039Y-108859732D01*
X96428384Y-108890700D01*
X96470778Y-108979600D01*
X96857498Y-108979600D01*
X97208200Y-108979600D01*
X97741600Y-108979600D01*
X97742038Y-108770050D01*
X97743076Y-108666605D01*
X97748287Y-108600943D01*
X97761610Y-108560047D01*
X97786988Y-108530901D01*
X97822388Y-108504659D01*
X97902298Y-108448818D01*
X98065173Y-108714209D01*
X98228047Y-108979600D01*
X98518223Y-108979600D01*
X98632815Y-108978266D01*
X98726059Y-108974644D01*
X98787896Y-108969297D01*
X98808400Y-108963292D01*
X98795253Y-108937865D01*
X98758626Y-108876651D01*
X98702736Y-108786449D01*
X98631800Y-108674056D01*
X98550035Y-108546270D01*
X98540715Y-108531805D01*
X98367042Y-108262438D01*
X98962710Y-108262438D01*
X98979531Y-108434072D01*
X98998649Y-108513633D01*
X99072723Y-108684653D01*
X99182651Y-108819699D01*
X99328364Y-108918717D01*
X99509794Y-108981653D01*
X99612000Y-108999340D01*
X99755043Y-109007942D01*
X99912790Y-109002587D01*
X100065300Y-108984955D01*
X100192633Y-108956728D01*
X100218100Y-108948247D01*
X100319700Y-108911159D01*
X100327162Y-108729479D01*
X100329162Y-108627704D01*
X100320158Y-108569760D01*
X100293166Y-108548839D01*
X100241203Y-108558133D01*
X100176751Y-108582832D01*
X100058822Y-108617289D01*
X99922792Y-108636437D01*
X99791315Y-108638269D01*
X99700914Y-108624946D01*
X99611399Y-108584136D01*
X99539727Y-108521123D01*
X99498971Y-108449033D01*
X99494200Y-108417374D01*
X99497113Y-108400506D01*
X99510429Y-108388190D01*
X99541013Y-108379715D01*
X99595729Y-108374371D01*
X99681442Y-108371444D01*
X99805017Y-108370225D01*
X99951400Y-108370000D01*
X100408600Y-108370000D01*
X100408600Y-108167314D01*
X100391645Y-107961936D01*
X100340117Y-107792718D01*
X100253020Y-107657695D01*
X100129360Y-107554908D01*
X100085427Y-107530290D01*
X100020467Y-107500652D01*
X99956616Y-107482144D01*
X99878867Y-107472287D01*
X99772213Y-107468604D01*
X99710100Y-107468300D01*
X99534711Y-107475930D01*
X99396349Y-107501499D01*
X99283184Y-107549022D01*
X99183387Y-107622515D01*
X99144264Y-107660389D01*
X99065984Y-107772251D01*
X99008153Y-107918539D01*
X98972990Y-108086264D01*
X98962710Y-108262438D01*
X98367042Y-108262438D01*
X98273030Y-108116626D01*
X98526819Y-107805163D01*
X98780607Y-107493700D01*
X98496053Y-107486314D01*
X98396139Y-107482672D01*
X98321090Y-107480973D01*
X98263326Y-107486111D01*
X98215271Y-107502981D01*
X98169346Y-107536477D01*
X98117972Y-107591494D01*
X98053573Y-107672928D01*
X97968569Y-107785672D01*
X97907517Y-107866448D01*
X97720703Y-108112196D01*
X97724801Y-107510848D01*
X97728900Y-106909500D01*
X97208200Y-106895022D01*
X97208200Y-108979600D01*
X96857498Y-108979600D01*
X96846878Y-108414450D01*
X96842441Y-108217260D01*
X96837109Y-108064272D01*
X96830366Y-107948886D01*
X96821694Y-107864506D01*
X96810577Y-107804532D01*
X96796496Y-107762368D01*
X96795609Y-107760400D01*
X96720718Y-107636547D01*
X96621994Y-107546799D01*
X96493795Y-107488338D01*
X96330481Y-107458344D01*
X96179998Y-107452849D01*
X95986569Y-107465355D01*
X95803092Y-107497192D01*
X95648930Y-107544968D01*
X95645006Y-107546593D01*
X95559813Y-107582189D01*
X95624039Y-107728444D01*
X95660801Y-107808430D01*
X95691890Y-107869528D01*
X95708296Y-107895494D01*
X95740564Y-107898600D01*
X95807523Y-107887781D01*
X95895729Y-107865343D01*
X95911496Y-107860652D01*
X96053268Y-107827159D01*
X96160238Y-107825121D01*
X96238170Y-107855415D01*
X96292598Y-107918509D01*
X96315064Y-107970151D01*
X96316307Y-108000351D01*
X96316127Y-108000539D01*
X96286180Y-108008932D01*
X96217276Y-108019833D01*
X96121086Y-108031557D01*
X96053255Y-108038464D01*
X95843358Y-108069877D01*
X95678466Y-108121278D01*
X95556099Y-108194608D01*
X95473776Y-108291810D01*
X95429015Y-108414824D01*
X95418593Y-108535100D01*
X95125400Y-108535100D01*
X95125400Y-108425324D01*
X95124168Y-108208908D01*
X95119614Y-108036547D01*
X95110451Y-107901536D01*
X95095393Y-107797171D01*
X95073153Y-107716747D01*
X95042443Y-107653559D01*
X95001976Y-107600904D01*
X94959244Y-107559680D01*
X94848898Y-107493908D01*
X94712428Y-107459228D01*
X94563979Y-107455763D01*
X94417698Y-107483638D01*
X94287729Y-107542976D01*
X94271850Y-107553654D01*
X94196085Y-107604818D01*
X94148237Y-107627634D01*
X94115854Y-107624595D01*
X94086485Y-107598193D01*
X94081119Y-107591829D01*
X93999980Y-107528105D01*
X93887905Y-107485284D01*
X93757055Y-107463151D01*
X93619591Y-107461493D01*
X93487674Y-107480097D01*
X93373464Y-107518748D01*
X93289121Y-107577232D01*
X93266465Y-107606142D01*
X93232386Y-107649497D01*
X93206116Y-107648909D01*
X93180814Y-107601819D01*
X93169600Y-107569900D01*
X93140260Y-107481000D01*
X92737800Y-107481000D01*
X92483800Y-107481000D01*
X92483800Y-106541200D01*
X76735800Y-106541200D01*
X76634200Y-106541200D01*
X76634200Y-106414200D01*
X100942000Y-106414200D01*
X100942000Y-109944800D01*
G36*
X77783960Y-107462490D02*
X77948495Y-107467951D01*
X77986750Y-107469327D01*
X78488400Y-107487476D01*
X78488400Y-107607172D01*
X78485991Y-107680496D01*
X78471028Y-107720481D01*
X78431903Y-107744582D01*
X78386418Y-107760525D01*
X78322426Y-107785900D01*
X78297698Y-107811636D01*
X78301350Y-107847141D01*
X78317533Y-107964558D01*
X78302496Y-108095766D01*
X78259129Y-108216912D01*
X78255756Y-108223219D01*
X78167251Y-108332374D01*
X78036739Y-108413748D01*
X77864985Y-108466973D01*
X77706807Y-108488411D01*
X77602721Y-108497892D01*
X77539702Y-108508554D01*
X77508048Y-108523308D01*
X77498055Y-108545063D01*
X77497800Y-108551080D01*
X77502910Y-108576948D01*
X77523301Y-108595770D01*
X77566562Y-108609289D01*
X77640284Y-108619249D01*
X77752054Y-108627393D01*
X77853400Y-108632771D01*
X77987285Y-108643897D01*
X78106749Y-108662152D01*
X78194650Y-108684834D01*
X78202326Y-108687750D01*
X78331917Y-108762572D01*
X78419786Y-108863926D01*
X78464441Y-108987329D01*
X78464390Y-109128295D01*
X78418140Y-109282338D01*
X78407687Y-109305125D01*
X78326054Y-109418297D01*
X78202203Y-109510004D01*
X78040791Y-109578359D01*
X77846475Y-109621476D01*
X77623912Y-109637469D01*
X77587249Y-109637400D01*
X77474466Y-109634052D01*
X77372559Y-109627383D01*
X77298455Y-109618624D01*
X77281900Y-109615210D01*
X77123747Y-109558206D01*
X77010699Y-109479339D01*
X76941308Y-109377083D01*
X76914128Y-109249914D01*
X76913600Y-109226961D01*
X76917810Y-109208669D01*
X77354079Y-109208669D01*
X77385078Y-109258254D01*
X77460864Y-109297804D01*
X77584141Y-109329444D01*
X77601085Y-109332600D01*
X77631874Y-109329750D01*
X77697191Y-109319714D01*
X77766185Y-109307666D01*
X77866322Y-109280288D01*
X77951940Y-109240584D01*
X78010908Y-109195551D01*
X78031200Y-109154786D01*
X78006715Y-109109692D01*
X77935630Y-109074224D01*
X77821501Y-109049935D01*
X77780347Y-109045154D01*
X77617999Y-109039735D01*
X77491177Y-109058098D01*
X77403710Y-109099305D01*
X77365166Y-109146921D01*
X77354079Y-109208669D01*
X76917810Y-109208669D01*
X76934783Y-109134941D01*
X76989638Y-109040994D01*
X77065122Y-108963150D01*
X77132589Y-108924224D01*
X77197929Y-108894222D01*
X77214691Y-108866539D01*
X77184651Y-108836783D01*
X77171083Y-108829064D01*
X77128112Y-108788298D01*
X77091802Y-108726570D01*
X77076463Y-108630036D01*
X77109395Y-108539644D01*
X77188071Y-108462222D01*
X77190094Y-108460852D01*
X77262375Y-108412273D01*
X77166826Y-108321286D01*
X77073793Y-108201286D01*
X77028013Y-108063110D01*
X77028818Y-107962737D01*
X77523200Y-107962737D01*
X77537826Y-108077814D01*
X77580433Y-108154532D01*
X77649111Y-108190020D01*
X77675600Y-108192200D01*
X77753509Y-108169830D01*
X77788459Y-108135748D01*
X77820315Y-108055851D01*
X77826551Y-107958131D01*
X77809426Y-107861000D01*
X77771202Y-107782875D01*
X77741647Y-107754438D01*
X77674034Y-107733677D01*
X77610780Y-107756089D01*
X77559756Y-107814171D01*
X77528832Y-107900418D01*
X77523200Y-107962737D01*
X77028818Y-107962737D01*
X77029274Y-107906031D01*
X77035932Y-107868437D01*
X77085519Y-107720114D01*
X77168273Y-107608282D01*
X77288880Y-107527368D01*
X77341320Y-107505164D01*
X77393574Y-107486665D01*
X77442886Y-107473363D01*
X77497918Y-107464775D01*
X77567334Y-107460421D01*
X77659793Y-107459819D01*
X77783960Y-107462490D01*
X77783960Y-107462490D01*
G37*
X77783960Y-107462490D02*
X77948495Y-107467951D01*
X77986750Y-107469327D01*
X78488400Y-107487476D01*
X78488400Y-107607172D01*
X78485991Y-107680496D01*
X78471028Y-107720481D01*
X78431903Y-107744582D01*
X78386418Y-107760525D01*
X78322426Y-107785900D01*
X78297698Y-107811636D01*
X78301350Y-107847141D01*
X78317533Y-107964558D01*
X78302496Y-108095766D01*
X78259129Y-108216912D01*
X78255756Y-108223219D01*
X78167251Y-108332374D01*
X78036739Y-108413748D01*
X77864985Y-108466973D01*
X77706807Y-108488411D01*
X77602721Y-108497892D01*
X77539702Y-108508554D01*
X77508048Y-108523308D01*
X77498055Y-108545063D01*
X77497800Y-108551080D01*
X77502910Y-108576948D01*
X77523301Y-108595770D01*
X77566562Y-108609289D01*
X77640284Y-108619249D01*
X77752054Y-108627393D01*
X77853400Y-108632771D01*
X77987285Y-108643897D01*
X78106749Y-108662152D01*
X78194650Y-108684834D01*
X78202326Y-108687750D01*
X78331917Y-108762572D01*
X78419786Y-108863926D01*
X78464441Y-108987329D01*
X78464390Y-109128295D01*
X78418140Y-109282338D01*
X78407687Y-109305125D01*
X78326054Y-109418297D01*
X78202203Y-109510004D01*
X78040791Y-109578359D01*
X77846475Y-109621476D01*
X77623912Y-109637469D01*
X77587249Y-109637400D01*
X77474466Y-109634052D01*
X77372559Y-109627383D01*
X77298455Y-109618624D01*
X77281900Y-109615210D01*
X77123747Y-109558206D01*
X77010699Y-109479339D01*
X76941308Y-109377083D01*
X76914128Y-109249914D01*
X76913600Y-109226961D01*
X76917810Y-109208669D01*
X77354079Y-109208669D01*
X77385078Y-109258254D01*
X77460864Y-109297804D01*
X77584141Y-109329444D01*
X77601085Y-109332600D01*
X77631874Y-109329750D01*
X77697191Y-109319714D01*
X77766185Y-109307666D01*
X77866322Y-109280288D01*
X77951940Y-109240584D01*
X78010908Y-109195551D01*
X78031200Y-109154786D01*
X78006715Y-109109692D01*
X77935630Y-109074224D01*
X77821501Y-109049935D01*
X77780347Y-109045154D01*
X77617999Y-109039735D01*
X77491177Y-109058098D01*
X77403710Y-109099305D01*
X77365166Y-109146921D01*
X77354079Y-109208669D01*
X76917810Y-109208669D01*
X76934783Y-109134941D01*
X76989638Y-109040994D01*
X77065122Y-108963150D01*
X77132589Y-108924224D01*
X77197929Y-108894222D01*
X77214691Y-108866539D01*
X77184651Y-108836783D01*
X77171083Y-108829064D01*
X77128112Y-108788298D01*
X77091802Y-108726570D01*
X77076463Y-108630036D01*
X77109395Y-108539644D01*
X77188071Y-108462222D01*
X77190094Y-108460852D01*
X77262375Y-108412273D01*
X77166826Y-108321286D01*
X77073793Y-108201286D01*
X77028013Y-108063110D01*
X77028818Y-107962737D01*
X77523200Y-107962737D01*
X77537826Y-108077814D01*
X77580433Y-108154532D01*
X77649111Y-108190020D01*
X77675600Y-108192200D01*
X77753509Y-108169830D01*
X77788459Y-108135748D01*
X77820315Y-108055851D01*
X77826551Y-107958131D01*
X77809426Y-107861000D01*
X77771202Y-107782875D01*
X77741647Y-107754438D01*
X77674034Y-107733677D01*
X77610780Y-107756089D01*
X77559756Y-107814171D01*
X77528832Y-107900418D01*
X77523200Y-107962737D01*
X77028818Y-107962737D01*
X77029274Y-107906031D01*
X77035932Y-107868437D01*
X77085519Y-107720114D01*
X77168273Y-107608282D01*
X77288880Y-107527368D01*
X77341320Y-107505164D01*
X77393574Y-107486665D01*
X77442886Y-107473363D01*
X77497918Y-107464775D01*
X77567334Y-107460421D01*
X77659793Y-107459819D01*
X77783960Y-107462490D01*
G36*
X79475937Y-107460658D02*
X79665984Y-107486718D01*
X79819439Y-107542724D01*
X79939160Y-107631762D01*
X80028008Y-107756918D01*
X80088842Y-107921280D01*
X80124522Y-108127933D01*
X80128030Y-108164469D01*
X80145959Y-108370000D01*
X79672779Y-108370000D01*
X79506785Y-108370285D01*
X79384839Y-108371593D01*
X79300192Y-108374598D01*
X79246095Y-108379976D01*
X79215797Y-108388404D01*
X79202548Y-108400557D01*
X79199600Y-108417110D01*
X79199600Y-108417374D01*
X79221835Y-108487594D01*
X79279590Y-108557015D01*
X79359434Y-108611248D01*
X79393455Y-108625107D01*
X79492297Y-108641308D01*
X79619659Y-108639081D01*
X79757326Y-108619916D01*
X79887085Y-108585301D01*
X79889154Y-108584575D01*
X79958412Y-108561901D01*
X80007617Y-108548959D01*
X80016706Y-108547800D01*
X80027117Y-108571029D01*
X80032905Y-108632280D01*
X80032969Y-108718896D01*
X80032562Y-108729842D01*
X80025100Y-108911884D01*
X79898100Y-108956473D01*
X79778614Y-108984447D01*
X79628080Y-108999605D01*
X79464606Y-109001950D01*
X79306302Y-108991484D01*
X79171274Y-108968206D01*
X79131036Y-108956414D01*
X78966613Y-108878347D01*
X78839672Y-108768084D01*
X78748851Y-108623732D01*
X78692785Y-108443398D01*
X78675966Y-108324971D01*
X78674976Y-108103521D01*
X78692290Y-108018631D01*
X79208332Y-108018631D01*
X79227925Y-108030582D01*
X79276830Y-108037032D01*
X79363519Y-108039538D01*
X79428200Y-108039800D01*
X79538528Y-108038762D01*
X79606551Y-108034611D01*
X79640739Y-108025790D01*
X79649563Y-108010743D01*
X79646817Y-107999622D01*
X79633111Y-107951231D01*
X79631400Y-107936122D01*
X79608765Y-107886480D01*
X79551599Y-107842934D01*
X79476010Y-107815625D01*
X79432989Y-107811200D01*
X79356156Y-107824808D01*
X79285326Y-107859029D01*
X79236861Y-107903957D01*
X79225000Y-107937112D01*
X79216660Y-107978668D01*
X79209582Y-107999622D01*
X79208332Y-108018631D01*
X78692290Y-108018631D01*
X78714279Y-107910824D01*
X78791746Y-107749178D01*
X78905247Y-107620885D01*
X79052655Y-107528244D01*
X79231840Y-107473557D01*
X79440672Y-107459123D01*
X79475937Y-107460658D01*
X79475937Y-107460658D01*
G37*
X79475937Y-107460658D02*
X79665984Y-107486718D01*
X79819439Y-107542724D01*
X79939160Y-107631762D01*
X80028008Y-107756918D01*
X80088842Y-107921280D01*
X80124522Y-108127933D01*
X80128030Y-108164469D01*
X80145959Y-108370000D01*
X79672779Y-108370000D01*
X79506785Y-108370285D01*
X79384839Y-108371593D01*
X79300192Y-108374598D01*
X79246095Y-108379976D01*
X79215797Y-108388404D01*
X79202548Y-108400557D01*
X79199600Y-108417110D01*
X79199600Y-108417374D01*
X79221835Y-108487594D01*
X79279590Y-108557015D01*
X79359434Y-108611248D01*
X79393455Y-108625107D01*
X79492297Y-108641308D01*
X79619659Y-108639081D01*
X79757326Y-108619916D01*
X79887085Y-108585301D01*
X79889154Y-108584575D01*
X79958412Y-108561901D01*
X80007617Y-108548959D01*
X80016706Y-108547800D01*
X80027117Y-108571029D01*
X80032905Y-108632280D01*
X80032969Y-108718896D01*
X80032562Y-108729842D01*
X80025100Y-108911884D01*
X79898100Y-108956473D01*
X79778614Y-108984447D01*
X79628080Y-108999605D01*
X79464606Y-109001950D01*
X79306302Y-108991484D01*
X79171274Y-108968206D01*
X79131036Y-108956414D01*
X78966613Y-108878347D01*
X78839672Y-108768084D01*
X78748851Y-108623732D01*
X78692785Y-108443398D01*
X78675966Y-108324971D01*
X78674976Y-108103521D01*
X78692290Y-108018631D01*
X79208332Y-108018631D01*
X79227925Y-108030582D01*
X79276830Y-108037032D01*
X79363519Y-108039538D01*
X79428200Y-108039800D01*
X79538528Y-108038762D01*
X79606551Y-108034611D01*
X79640739Y-108025790D01*
X79649563Y-108010743D01*
X79646817Y-107999622D01*
X79633111Y-107951231D01*
X79631400Y-107936122D01*
X79608765Y-107886480D01*
X79551599Y-107842934D01*
X79476010Y-107815625D01*
X79432989Y-107811200D01*
X79356156Y-107824808D01*
X79285326Y-107859029D01*
X79236861Y-107903957D01*
X79225000Y-107937112D01*
X79216660Y-107978668D01*
X79209582Y-107999622D01*
X79208332Y-108018631D01*
X78692290Y-108018631D01*
X78714279Y-107910824D01*
X78791746Y-107749178D01*
X78905247Y-107620885D01*
X79052655Y-107528244D01*
X79231840Y-107473557D01*
X79440672Y-107459123D01*
X79475937Y-107460658D01*
G36*
X83071325Y-107460219D02*
X83233747Y-107493125D01*
X83267331Y-107504783D01*
X83410029Y-107575585D01*
X83517591Y-107669978D01*
X83593528Y-107793641D01*
X83641354Y-107952254D01*
X83664308Y-108146591D01*
X83677046Y-108370000D01*
X83203623Y-108370000D01*
X83054857Y-108370773D01*
X82925255Y-108372926D01*
X82822696Y-108376206D01*
X82755054Y-108380358D01*
X82730206Y-108385129D01*
X82730200Y-108385211D01*
X82740124Y-108416120D01*
X82764572Y-108472702D01*
X82770256Y-108484836D01*
X82837773Y-108570113D01*
X82942854Y-108622591D01*
X83083739Y-108641631D01*
X83187289Y-108636469D01*
X83289426Y-108621474D01*
X83384286Y-108600624D01*
X83438151Y-108583378D01*
X83501000Y-108559743D01*
X83543720Y-108548065D01*
X83547214Y-108547800D01*
X83557622Y-108571042D01*
X83563455Y-108632380D01*
X83563622Y-108719229D01*
X83563162Y-108731950D01*
X83555700Y-108916100D01*
X83428700Y-108959438D01*
X83305057Y-108987521D01*
X83151656Y-109001890D01*
X82987524Y-109002574D01*
X82831690Y-108989600D01*
X82703184Y-108962997D01*
X82688850Y-108958323D01*
X82556876Y-108904715D01*
X82460241Y-108844079D01*
X82383581Y-108766230D01*
X82367421Y-108745172D01*
X82281427Y-108588563D01*
X82230787Y-108407310D01*
X82215601Y-108213343D01*
X82233749Y-108039800D01*
X82750092Y-108039800D01*
X82968746Y-108039800D01*
X83074870Y-108038746D01*
X83139979Y-108034174D01*
X83173838Y-108023969D01*
X83186212Y-108006015D01*
X83187400Y-107992425D01*
X83172287Y-107940073D01*
X83135824Y-107879493D01*
X83134756Y-107878125D01*
X83063897Y-107823745D01*
X82978158Y-107807760D01*
X82891434Y-107826706D01*
X82817622Y-107877115D01*
X82770619Y-107955521D01*
X82766629Y-107969950D01*
X82750092Y-108039800D01*
X82233749Y-108039800D01*
X82235967Y-108018592D01*
X82291984Y-107834987D01*
X82358860Y-107709636D01*
X82451067Y-107612903D01*
X82579517Y-107537092D01*
X82733110Y-107484706D01*
X82900747Y-107458247D01*
X83071325Y-107460219D01*
X83071325Y-107460219D01*
G37*
X83071325Y-107460219D02*
X83233747Y-107493125D01*
X83267331Y-107504783D01*
X83410029Y-107575585D01*
X83517591Y-107669978D01*
X83593528Y-107793641D01*
X83641354Y-107952254D01*
X83664308Y-108146591D01*
X83677046Y-108370000D01*
X83203623Y-108370000D01*
X83054857Y-108370773D01*
X82925255Y-108372926D01*
X82822696Y-108376206D01*
X82755054Y-108380358D01*
X82730206Y-108385129D01*
X82730200Y-108385211D01*
X82740124Y-108416120D01*
X82764572Y-108472702D01*
X82770256Y-108484836D01*
X82837773Y-108570113D01*
X82942854Y-108622591D01*
X83083739Y-108641631D01*
X83187289Y-108636469D01*
X83289426Y-108621474D01*
X83384286Y-108600624D01*
X83438151Y-108583378D01*
X83501000Y-108559743D01*
X83543720Y-108548065D01*
X83547214Y-108547800D01*
X83557622Y-108571042D01*
X83563455Y-108632380D01*
X83563622Y-108719229D01*
X83563162Y-108731950D01*
X83555700Y-108916100D01*
X83428700Y-108959438D01*
X83305057Y-108987521D01*
X83151656Y-109001890D01*
X82987524Y-109002574D01*
X82831690Y-108989600D01*
X82703184Y-108962997D01*
X82688850Y-108958323D01*
X82556876Y-108904715D01*
X82460241Y-108844079D01*
X82383581Y-108766230D01*
X82367421Y-108745172D01*
X82281427Y-108588563D01*
X82230787Y-108407310D01*
X82215601Y-108213343D01*
X82233749Y-108039800D01*
X82750092Y-108039800D01*
X82968746Y-108039800D01*
X83074870Y-108038746D01*
X83139979Y-108034174D01*
X83173838Y-108023969D01*
X83186212Y-108006015D01*
X83187400Y-107992425D01*
X83172287Y-107940073D01*
X83135824Y-107879493D01*
X83134756Y-107878125D01*
X83063897Y-107823745D01*
X82978158Y-107807760D01*
X82891434Y-107826706D01*
X82817622Y-107877115D01*
X82770619Y-107955521D01*
X82766629Y-107969950D01*
X82750092Y-108039800D01*
X82233749Y-108039800D01*
X82235967Y-108018592D01*
X82291984Y-107834987D01*
X82358860Y-107709636D01*
X82451067Y-107612903D01*
X82579517Y-107537092D01*
X82733110Y-107484706D01*
X82900747Y-107458247D01*
X83071325Y-107460219D01*
G36*
X86190586Y-107477300D02*
X86326941Y-107514674D01*
X86431349Y-107575865D01*
X86511928Y-107664733D01*
X86539880Y-107709919D01*
X86560445Y-107748345D01*
X86576158Y-107785528D01*
X86587791Y-107828882D01*
X86596114Y-107885822D01*
X86601897Y-107963761D01*
X86605910Y-108070112D01*
X86608925Y-108212290D01*
X86611710Y-108397709D01*
X86611766Y-108401750D01*
X86619833Y-108979600D01*
X86430698Y-108979600D01*
X86333792Y-108978722D01*
X86275089Y-108973173D01*
X86241994Y-108958577D01*
X86221909Y-108930559D01*
X86209774Y-108902855D01*
X86176450Y-108836238D01*
X86143534Y-108815915D01*
X86098849Y-108838960D01*
X86065705Y-108868253D01*
X85993643Y-108924291D01*
X85916507Y-108968462D01*
X85912365Y-108970267D01*
X85824323Y-108992612D01*
X85709204Y-109002365D01*
X85588211Y-108999577D01*
X85482546Y-108984298D01*
X85435300Y-108969144D01*
X85321614Y-108895375D01*
X85244658Y-108790098D01*
X85202981Y-108650637D01*
X85194000Y-108524502D01*
X85198469Y-108491235D01*
X85727788Y-108491235D01*
X85746520Y-108579896D01*
X85797440Y-108632268D01*
X85874415Y-108645411D01*
X85971315Y-108616387D01*
X85979907Y-108612071D01*
X86044658Y-108553641D01*
X86090778Y-108464304D01*
X86108399Y-108363192D01*
X86108400Y-108362978D01*
X86102905Y-108333513D01*
X86077990Y-108320956D01*
X86021008Y-108321462D01*
X85982843Y-108324801D01*
X85857435Y-108349897D01*
X85772510Y-108395993D01*
X85731307Y-108460975D01*
X85727788Y-108491235D01*
X85198469Y-108491235D01*
X85213836Y-108376866D01*
X85275426Y-108255883D01*
X85372639Y-108161939D01*
X85457147Y-108117405D01*
X85574111Y-108079033D01*
X85705207Y-108051597D01*
X85832112Y-108039871D01*
X85841700Y-108039754D01*
X85968936Y-108032357D01*
X86048721Y-108010837D01*
X86082762Y-107973879D01*
X86072767Y-107920167D01*
X86047706Y-107881137D01*
X85983843Y-107834168D01*
X85887071Y-107820182D01*
X85754986Y-107839047D01*
X85675305Y-107860650D01*
X85586866Y-107886036D01*
X85519465Y-107902607D01*
X85485730Y-107907316D01*
X85484264Y-107906731D01*
X85470030Y-107880491D01*
X85441863Y-107820971D01*
X85408756Y-107747551D01*
X85373917Y-107665303D01*
X85359381Y-107616198D01*
X85363429Y-107587600D01*
X85384179Y-107566993D01*
X85462077Y-107529186D01*
X85577466Y-107497344D01*
X85717174Y-107473706D01*
X85868029Y-107460513D01*
X86014166Y-107459881D01*
X86190586Y-107477300D01*
X86190586Y-107477300D01*
G37*
X86190586Y-107477300D02*
X86326941Y-107514674D01*
X86431349Y-107575865D01*
X86511928Y-107664733D01*
X86539880Y-107709919D01*
X86560445Y-107748345D01*
X86576158Y-107785528D01*
X86587791Y-107828882D01*
X86596114Y-107885822D01*
X86601897Y-107963761D01*
X86605910Y-108070112D01*
X86608925Y-108212290D01*
X86611710Y-108397709D01*
X86611766Y-108401750D01*
X86619833Y-108979600D01*
X86430698Y-108979600D01*
X86333792Y-108978722D01*
X86275089Y-108973173D01*
X86241994Y-108958577D01*
X86221909Y-108930559D01*
X86209774Y-108902855D01*
X86176450Y-108836238D01*
X86143534Y-108815915D01*
X86098849Y-108838960D01*
X86065705Y-108868253D01*
X85993643Y-108924291D01*
X85916507Y-108968462D01*
X85912365Y-108970267D01*
X85824323Y-108992612D01*
X85709204Y-109002365D01*
X85588211Y-108999577D01*
X85482546Y-108984298D01*
X85435300Y-108969144D01*
X85321614Y-108895375D01*
X85244658Y-108790098D01*
X85202981Y-108650637D01*
X85194000Y-108524502D01*
X85198469Y-108491235D01*
X85727788Y-108491235D01*
X85746520Y-108579896D01*
X85797440Y-108632268D01*
X85874415Y-108645411D01*
X85971315Y-108616387D01*
X85979907Y-108612071D01*
X86044658Y-108553641D01*
X86090778Y-108464304D01*
X86108399Y-108363192D01*
X86108400Y-108362978D01*
X86102905Y-108333513D01*
X86077990Y-108320956D01*
X86021008Y-108321462D01*
X85982843Y-108324801D01*
X85857435Y-108349897D01*
X85772510Y-108395993D01*
X85731307Y-108460975D01*
X85727788Y-108491235D01*
X85198469Y-108491235D01*
X85213836Y-108376866D01*
X85275426Y-108255883D01*
X85372639Y-108161939D01*
X85457147Y-108117405D01*
X85574111Y-108079033D01*
X85705207Y-108051597D01*
X85832112Y-108039871D01*
X85841700Y-108039754D01*
X85968936Y-108032357D01*
X86048721Y-108010837D01*
X86082762Y-107973879D01*
X86072767Y-107920167D01*
X86047706Y-107881137D01*
X85983843Y-107834168D01*
X85887071Y-107820182D01*
X85754986Y-107839047D01*
X85675305Y-107860650D01*
X85586866Y-107886036D01*
X85519465Y-107902607D01*
X85485730Y-107907316D01*
X85484264Y-107906731D01*
X85470030Y-107880491D01*
X85441863Y-107820971D01*
X85408756Y-107747551D01*
X85373917Y-107665303D01*
X85359381Y-107616198D01*
X85363429Y-107587600D01*
X85384179Y-107566993D01*
X85462077Y-107529186D01*
X85577466Y-107497344D01*
X85717174Y-107473706D01*
X85868029Y-107460513D01*
X86014166Y-107459881D01*
X86190586Y-107477300D01*
G36*
X87581600Y-107481000D02*
X87962600Y-107481000D01*
X87962600Y-107862000D01*
X87581600Y-107862000D01*
X87581600Y-108188263D01*
X87583866Y-108349187D01*
X87594222Y-108465019D01*
X87618005Y-108541390D01*
X87660551Y-108583934D01*
X87727197Y-108598282D01*
X87823279Y-108590068D01*
X87941074Y-108567675D01*
X87960466Y-108577453D01*
X87973213Y-108621355D01*
X87981037Y-108706584D01*
X87982707Y-108741902D01*
X87990114Y-108923304D01*
X87870232Y-108964152D01*
X87729310Y-108996286D01*
X87575066Y-109005728D01*
X87425963Y-108992984D01*
X87300463Y-108958562D01*
X87277303Y-108947850D01*
X87206745Y-108906218D01*
X87153126Y-108857948D01*
X87113951Y-108795579D01*
X87086722Y-108711648D01*
X87068944Y-108598693D01*
X87058121Y-108449250D01*
X87052202Y-108274885D01*
X87042235Y-107862000D01*
X86956317Y-107862000D01*
X86902450Y-107859087D01*
X86877704Y-107840874D01*
X86870773Y-107793147D01*
X86870455Y-107754050D01*
X86874357Y-107688067D01*
X86893320Y-107643236D01*
X86938354Y-107601701D01*
X86984007Y-107569900D01*
X87059290Y-107509557D01*
X87115420Y-107436445D01*
X87165562Y-107334950D01*
X87233620Y-107176200D01*
X87581600Y-107176200D01*
X87581600Y-107481000D01*
X87581600Y-107481000D01*
G37*
X87581600Y-107481000D02*
X87962600Y-107481000D01*
X87962600Y-107862000D01*
X87581600Y-107862000D01*
X87581600Y-108188263D01*
X87583866Y-108349187D01*
X87594222Y-108465019D01*
X87618005Y-108541390D01*
X87660551Y-108583934D01*
X87727197Y-108598282D01*
X87823279Y-108590068D01*
X87941074Y-108567675D01*
X87960466Y-108577453D01*
X87973213Y-108621355D01*
X87981037Y-108706584D01*
X87982707Y-108741902D01*
X87990114Y-108923304D01*
X87870232Y-108964152D01*
X87729310Y-108996286D01*
X87575066Y-109005728D01*
X87425963Y-108992984D01*
X87300463Y-108958562D01*
X87277303Y-108947850D01*
X87206745Y-108906218D01*
X87153126Y-108857948D01*
X87113951Y-108795579D01*
X87086722Y-108711648D01*
X87068944Y-108598693D01*
X87058121Y-108449250D01*
X87052202Y-108274885D01*
X87042235Y-107862000D01*
X86956317Y-107862000D01*
X86902450Y-107859087D01*
X86877704Y-107840874D01*
X86870773Y-107793147D01*
X86870455Y-107754050D01*
X86874357Y-107688067D01*
X86893320Y-107643236D01*
X86938354Y-107601701D01*
X86984007Y-107569900D01*
X87059290Y-107509557D01*
X87115420Y-107436445D01*
X87165562Y-107334950D01*
X87233620Y-107176200D01*
X87581600Y-107176200D01*
X87581600Y-107481000D01*
G36*
X89988274Y-107466550D02*
X90165471Y-107512280D01*
X90313872Y-107599085D01*
X90435039Y-107727747D01*
X90489677Y-107814868D01*
X90527896Y-107892504D01*
X90551845Y-107966200D01*
X90565673Y-108053952D01*
X90573533Y-108173758D01*
X90573783Y-108179500D01*
X90567774Y-108387797D01*
X90528759Y-108562240D01*
X90454607Y-108709314D01*
X90364848Y-108815247D01*
X90236523Y-108907284D01*
X90078195Y-108970513D01*
X89903171Y-109002679D01*
X89724757Y-109001523D01*
X89556258Y-108964789D01*
X89533231Y-108956294D01*
X89398436Y-108892825D01*
X89299723Y-108817004D01*
X89222381Y-108715651D01*
X89182576Y-108642126D01*
X89111973Y-108444337D01*
X89085274Y-108234725D01*
X89085984Y-108226054D01*
X89626300Y-108226054D01*
X89627164Y-108347118D01*
X89631178Y-108428903D01*
X89640474Y-108482919D01*
X89657186Y-108520678D01*
X89683444Y-108553690D01*
X89687877Y-108558453D01*
X89766765Y-108611528D01*
X89855283Y-108623700D01*
X89937903Y-108594399D01*
X89967894Y-108568749D01*
X90009549Y-108506053D01*
X90034519Y-108420439D01*
X90044409Y-108302898D01*
X90041424Y-108155919D01*
X90033338Y-108050406D01*
X90019231Y-107980494D01*
X89994886Y-107931015D01*
X89970709Y-107901707D01*
X89890828Y-107847673D01*
X89802615Y-107842392D01*
X89712310Y-107885948D01*
X89697566Y-107897900D01*
X89665785Y-107927352D01*
X89645210Y-107957472D01*
X89633407Y-107999469D01*
X89627941Y-108064551D01*
X89626378Y-108163924D01*
X89626300Y-108226054D01*
X89085984Y-108226054D01*
X89102474Y-108024909D01*
X89163572Y-107826507D01*
X89182776Y-107785800D01*
X89274848Y-107658602D01*
X89406001Y-107560889D01*
X89572614Y-107494627D01*
X89771067Y-107461780D01*
X89780716Y-107461118D01*
X89988274Y-107466550D01*
X89988274Y-107466550D01*
G37*
X89988274Y-107466550D02*
X90165471Y-107512280D01*
X90313872Y-107599085D01*
X90435039Y-107727747D01*
X90489677Y-107814868D01*
X90527896Y-107892504D01*
X90551845Y-107966200D01*
X90565673Y-108053952D01*
X90573533Y-108173758D01*
X90573783Y-108179500D01*
X90567774Y-108387797D01*
X90528759Y-108562240D01*
X90454607Y-108709314D01*
X90364848Y-108815247D01*
X90236523Y-108907284D01*
X90078195Y-108970513D01*
X89903171Y-109002679D01*
X89724757Y-109001523D01*
X89556258Y-108964789D01*
X89533231Y-108956294D01*
X89398436Y-108892825D01*
X89299723Y-108817004D01*
X89222381Y-108715651D01*
X89182576Y-108642126D01*
X89111973Y-108444337D01*
X89085274Y-108234725D01*
X89085984Y-108226054D01*
X89626300Y-108226054D01*
X89627164Y-108347118D01*
X89631178Y-108428903D01*
X89640474Y-108482919D01*
X89657186Y-108520678D01*
X89683444Y-108553690D01*
X89687877Y-108558453D01*
X89766765Y-108611528D01*
X89855283Y-108623700D01*
X89937903Y-108594399D01*
X89967894Y-108568749D01*
X90009549Y-108506053D01*
X90034519Y-108420439D01*
X90044409Y-108302898D01*
X90041424Y-108155919D01*
X90033338Y-108050406D01*
X90019231Y-107980494D01*
X89994886Y-107931015D01*
X89970709Y-107901707D01*
X89890828Y-107847673D01*
X89802615Y-107842392D01*
X89712310Y-107885948D01*
X89697566Y-107897900D01*
X89665785Y-107927352D01*
X89645210Y-107957472D01*
X89633407Y-107999469D01*
X89627941Y-108064551D01*
X89626378Y-108163924D01*
X89626300Y-108226054D01*
X89085984Y-108226054D01*
X89102474Y-108024909D01*
X89163572Y-107826507D01*
X89182776Y-107785800D01*
X89274848Y-107658602D01*
X89406001Y-107560889D01*
X89572614Y-107494627D01*
X89771067Y-107461780D01*
X89780716Y-107461118D01*
X89988274Y-107466550D01*
G36*
X81495376Y-107468582D02*
X81632074Y-107507465D01*
X81739457Y-107569445D01*
X81770381Y-107598992D01*
X81810698Y-107649277D01*
X81842144Y-107703143D01*
X81865957Y-107767693D01*
X81883374Y-107850028D01*
X81895632Y-107957251D01*
X81903968Y-108096466D01*
X81909620Y-108274774D01*
X81912431Y-108414450D01*
X81922298Y-108979600D01*
X81387813Y-108979600D01*
X81379556Y-108474208D01*
X81376296Y-108299589D01*
X81372520Y-108168515D01*
X81367493Y-108073733D01*
X81360480Y-108007989D01*
X81350746Y-107964029D01*
X81337556Y-107934599D01*
X81322913Y-107915408D01*
X81253219Y-107872417D01*
X81166815Y-107863294D01*
X81085159Y-107888380D01*
X81055449Y-107911150D01*
X81019210Y-107958566D01*
X80992028Y-108023124D01*
X80972828Y-108111667D01*
X80960532Y-108231037D01*
X80954066Y-108388077D01*
X80952341Y-108566850D01*
X80952200Y-108979600D01*
X80418800Y-108979600D01*
X80418800Y-107478945D01*
X80626305Y-107486322D01*
X80728615Y-107490662D01*
X80791636Y-107497494D01*
X80826851Y-107510954D01*
X80845745Y-107535179D01*
X80858382Y-107569900D01*
X80877825Y-107625774D01*
X80890760Y-107655217D01*
X80890962Y-107655468D01*
X80912826Y-107645721D01*
X80960629Y-107610695D01*
X81002911Y-107575868D01*
X81077993Y-107521225D01*
X81152835Y-107481665D01*
X81185100Y-107471249D01*
X81342128Y-107455581D01*
X81495376Y-107468582D01*
X81495376Y-107468582D01*
G37*
X81495376Y-107468582D02*
X81632074Y-107507465D01*
X81739457Y-107569445D01*
X81770381Y-107598992D01*
X81810698Y-107649277D01*
X81842144Y-107703143D01*
X81865957Y-107767693D01*
X81883374Y-107850028D01*
X81895632Y-107957251D01*
X81903968Y-108096466D01*
X81909620Y-108274774D01*
X81912431Y-108414450D01*
X81922298Y-108979600D01*
X81387813Y-108979600D01*
X81379556Y-108474208D01*
X81376296Y-108299589D01*
X81372520Y-108168515D01*
X81367493Y-108073733D01*
X81360480Y-108007989D01*
X81350746Y-107964029D01*
X81337556Y-107934599D01*
X81322913Y-107915408D01*
X81253219Y-107872417D01*
X81166815Y-107863294D01*
X81085159Y-107888380D01*
X81055449Y-107911150D01*
X81019210Y-107958566D01*
X80992028Y-108023124D01*
X80972828Y-108111667D01*
X80960532Y-108231037D01*
X80954066Y-108388077D01*
X80952341Y-108566850D01*
X80952200Y-108979600D01*
X80418800Y-108979600D01*
X80418800Y-107478945D01*
X80626305Y-107486322D01*
X80728615Y-107490662D01*
X80791636Y-107497494D01*
X80826851Y-107510954D01*
X80845745Y-107535179D01*
X80858382Y-107569900D01*
X80877825Y-107625774D01*
X80890760Y-107655217D01*
X80890962Y-107655468D01*
X80912826Y-107645721D01*
X80960629Y-107610695D01*
X81002911Y-107575868D01*
X81077993Y-107521225D01*
X81152835Y-107481665D01*
X81185100Y-107471249D01*
X81342128Y-107455581D01*
X81495376Y-107468582D01*
G36*
X85032518Y-107611725D02*
X85023536Y-107711824D01*
X85017609Y-107805018D01*
X85016200Y-107853025D01*
X85016200Y-107938200D01*
X84873988Y-107938200D01*
X84729770Y-107953239D01*
X84617624Y-107996630D01*
X84543567Y-108065778D01*
X84532347Y-108085474D01*
X84516165Y-108146657D01*
X84503108Y-108257170D01*
X84493304Y-108415630D01*
X84488117Y-108566850D01*
X84477579Y-108979600D01*
X83974800Y-108979600D01*
X83974800Y-107481000D01*
X84374597Y-107481000D01*
X84406600Y-107595300D01*
X84434162Y-107674730D01*
X84460493Y-107705631D01*
X84488735Y-107690085D01*
X84506706Y-107661591D01*
X84541730Y-107621024D01*
X84603997Y-107568535D01*
X84651654Y-107534591D01*
X84740249Y-107483922D01*
X84822187Y-107460580D01*
X84909873Y-107455600D01*
X85048836Y-107455600D01*
X85032518Y-107611725D01*
X85032518Y-107611725D01*
G37*
X85032518Y-107611725D02*
X85023536Y-107711824D01*
X85017609Y-107805018D01*
X85016200Y-107853025D01*
X85016200Y-107938200D01*
X84873988Y-107938200D01*
X84729770Y-107953239D01*
X84617624Y-107996630D01*
X84543567Y-108065778D01*
X84532347Y-108085474D01*
X84516165Y-108146657D01*
X84503108Y-108257170D01*
X84493304Y-108415630D01*
X84488117Y-108566850D01*
X84477579Y-108979600D01*
X83974800Y-108979600D01*
X83974800Y-107481000D01*
X84374597Y-107481000D01*
X84406600Y-107595300D01*
X84434162Y-107674730D01*
X84460493Y-107705631D01*
X84488735Y-107690085D01*
X84506706Y-107661591D01*
X84541730Y-107621024D01*
X84603997Y-107568535D01*
X84651654Y-107534591D01*
X84740249Y-107483922D01*
X84822187Y-107460580D01*
X84909873Y-107455600D01*
X85048836Y-107455600D01*
X85032518Y-107611725D01*
G36*
X88775400Y-108979600D02*
X88242000Y-108979600D01*
X88242000Y-107481000D01*
X88775400Y-107481000D01*
X88775400Y-108979600D01*
X88775400Y-108979600D01*
G37*
X88775400Y-108979600D02*
X88242000Y-108979600D01*
X88242000Y-107481000D01*
X88775400Y-107481000D01*
X88775400Y-108979600D01*
G36*
X92018139Y-107475631D02*
X92153799Y-107536513D01*
X92261815Y-107639427D01*
X92314449Y-107722300D01*
X92332005Y-107758949D01*
X92345508Y-107799019D01*
X92355639Y-107849828D01*
X92363078Y-107918697D01*
X92368507Y-108012946D01*
X92372607Y-108139896D01*
X92376058Y-108306867D01*
X92377658Y-108401750D01*
X92387024Y-108979600D01*
X91852613Y-108979600D01*
X91844356Y-108474208D01*
X91841096Y-108299589D01*
X91837320Y-108168515D01*
X91832293Y-108073733D01*
X91825280Y-108007989D01*
X91815546Y-107964029D01*
X91802356Y-107934599D01*
X91787713Y-107915408D01*
X91721855Y-107874476D01*
X91639157Y-107862691D01*
X91562134Y-107881230D01*
X91532947Y-107902080D01*
X91497963Y-107941132D01*
X91471717Y-107983912D01*
X91452766Y-108038371D01*
X91439662Y-108112458D01*
X91430962Y-108214120D01*
X91425220Y-108351308D01*
X91421300Y-108516050D01*
X91412155Y-108979600D01*
X90883600Y-108979600D01*
X90883600Y-107478945D01*
X91091105Y-107486322D01*
X91193415Y-107490662D01*
X91256436Y-107497494D01*
X91291651Y-107510954D01*
X91310545Y-107535179D01*
X91323182Y-107569900D01*
X91342625Y-107625774D01*
X91355560Y-107655217D01*
X91355762Y-107655468D01*
X91377626Y-107645721D01*
X91425429Y-107610695D01*
X91467711Y-107575868D01*
X91552902Y-107513564D01*
X91640808Y-107476359D01*
X91748513Y-107458919D01*
X91852790Y-107455600D01*
X92018139Y-107475631D01*
X92018139Y-107475631D01*
G37*
X92018139Y-107475631D02*
X92153799Y-107536513D01*
X92261815Y-107639427D01*
X92314449Y-107722300D01*
X92332005Y-107758949D01*
X92345508Y-107799019D01*
X92355639Y-107849828D01*
X92363078Y-107918697D01*
X92368507Y-108012946D01*
X92372607Y-108139896D01*
X92376058Y-108306867D01*
X92377658Y-108401750D01*
X92387024Y-108979600D01*
X91852613Y-108979600D01*
X91844356Y-108474208D01*
X91841096Y-108299589D01*
X91837320Y-108168515D01*
X91832293Y-108073733D01*
X91825280Y-108007989D01*
X91815546Y-107964029D01*
X91802356Y-107934599D01*
X91787713Y-107915408D01*
X91721855Y-107874476D01*
X91639157Y-107862691D01*
X91562134Y-107881230D01*
X91532947Y-107902080D01*
X91497963Y-107941132D01*
X91471717Y-107983912D01*
X91452766Y-108038371D01*
X91439662Y-108112458D01*
X91430962Y-108214120D01*
X91425220Y-108351308D01*
X91421300Y-108516050D01*
X91412155Y-108979600D01*
X90883600Y-108979600D01*
X90883600Y-107478945D01*
X91091105Y-107486322D01*
X91193415Y-107490662D01*
X91256436Y-107497494D01*
X91291651Y-107510954D01*
X91310545Y-107535179D01*
X91323182Y-107569900D01*
X91342625Y-107625774D01*
X91355560Y-107655217D01*
X91355762Y-107655468D01*
X91377626Y-107645721D01*
X91425429Y-107610695D01*
X91467711Y-107575868D01*
X91552902Y-107513564D01*
X91640808Y-107476359D01*
X91748513Y-107458919D01*
X91852790Y-107455600D01*
X92018139Y-107475631D01*
G36*
X88601975Y-106872294D02*
X88693298Y-106902417D01*
X88749121Y-106955812D01*
X88776232Y-107034932D01*
X88774780Y-107123699D01*
X88744918Y-107206035D01*
X88689894Y-107263957D01*
X88598211Y-107301018D01*
X88490809Y-107315991D01*
X88428249Y-107311174D01*
X88338182Y-107271258D01*
X88275929Y-107201045D01*
X88245782Y-107113604D01*
X88252031Y-107022006D01*
X88298967Y-106939321D01*
X88304345Y-106933745D01*
X88383543Y-106886361D01*
X88488813Y-106865389D01*
X88601975Y-106872294D01*
X88601975Y-106872294D01*
G37*
X88601975Y-106872294D02*
X88693298Y-106902417D01*
X88749121Y-106955812D01*
X88776232Y-107034932D01*
X88774780Y-107123699D01*
X88744918Y-107206035D01*
X88689894Y-107263957D01*
X88598211Y-107301018D01*
X88490809Y-107315991D01*
X88428249Y-107311174D01*
X88338182Y-107271258D01*
X88275929Y-107201045D01*
X88245782Y-107113604D01*
X88252031Y-107022006D01*
X88298967Y-106939321D01*
X88304345Y-106933745D01*
X88383543Y-106886361D01*
X88488813Y-106865389D01*
X88601975Y-106872294D01*
G36*
X96294203Y-108324200D02*
X96315320Y-108349547D01*
X96319200Y-108406683D01*
X96300111Y-108496984D01*
X96250289Y-108570884D01*
X96180903Y-108621752D01*
X96103120Y-108642953D01*
X96028106Y-108627854D01*
X95991645Y-108601245D01*
X95953144Y-108554402D01*
X95938200Y-108520730D01*
X95961624Y-108450115D01*
X96024000Y-108387887D01*
X96113483Y-108341899D01*
X96218226Y-108320003D01*
X96242184Y-108319200D01*
X96294203Y-108324200D01*
X96294203Y-108324200D01*
G37*
X96294203Y-108324200D02*
X96315320Y-108349547D01*
X96319200Y-108406683D01*
X96300111Y-108496984D01*
X96250289Y-108570884D01*
X96180903Y-108621752D01*
X96103120Y-108642953D01*
X96028106Y-108627854D01*
X95991645Y-108601245D01*
X95953144Y-108554402D01*
X95938200Y-108520730D01*
X95961624Y-108450115D01*
X96024000Y-108387887D01*
X96113483Y-108341899D01*
X96218226Y-108320003D01*
X96242184Y-108319200D01*
X96294203Y-108324200D01*
G36*
X99833183Y-107844694D02*
X99900670Y-107909691D01*
X99932816Y-107982650D01*
X99937230Y-108009679D01*
X99928418Y-108026476D01*
X99897223Y-108035473D01*
X99834488Y-108039103D01*
X99731056Y-108039798D01*
X99717704Y-108039800D01*
X99608833Y-108038728D01*
X99542200Y-108034444D01*
X99509265Y-108025340D01*
X99501491Y-108009810D01*
X99504182Y-107999622D01*
X99517868Y-107951878D01*
X99519600Y-107937112D01*
X99536463Y-107905416D01*
X99575189Y-107862989D01*
X99657161Y-107816899D01*
X99747586Y-107812282D01*
X99833183Y-107844694D01*
X99833183Y-107844694D01*
G37*
X99833183Y-107844694D02*
X99900670Y-107909691D01*
X99932816Y-107982650D01*
X99937230Y-108009679D01*
X99928418Y-108026476D01*
X99897223Y-108035473D01*
X99834488Y-108039103D01*
X99731056Y-108039798D01*
X99717704Y-108039800D01*
X99608833Y-108038728D01*
X99542200Y-108034444D01*
X99509265Y-108025340D01*
X99501491Y-108009810D01*
X99504182Y-107999622D01*
X99517868Y-107951878D01*
X99519600Y-107937112D01*
X99536463Y-107905416D01*
X99575189Y-107862989D01*
X99657161Y-107816899D01*
X99747586Y-107812282D01*
X99833183Y-107844694D01*
G04 #@! TO.C,U2*
D11*
X69152380Y-93611904D02*
X69961904Y-93611904D01*
X70057142Y-93564285D01*
X70104761Y-93516666D01*
X70152380Y-93421428D01*
X70152380Y-93230952D01*
X70104761Y-93135714D01*
X70057142Y-93088095D01*
X69961904Y-93040476D01*
X69152380Y-93040476D01*
X69247619Y-92611904D02*
X69200000Y-92564285D01*
X69152380Y-92469047D01*
X69152380Y-92230952D01*
X69200000Y-92135714D01*
X69247619Y-92088095D01*
X69342857Y-92040476D01*
X69438095Y-92040476D01*
X69580952Y-92088095D01*
X70152380Y-92659523D01*
X70152380Y-92040476D01*
G04 #@! TO.C,Q1*
X111804761Y-118547619D02*
X111709523Y-118500000D01*
X111614285Y-118404761D01*
X111471428Y-118261904D01*
X111376190Y-118214285D01*
X111280952Y-118214285D01*
X111328571Y-118452380D02*
X111233333Y-118404761D01*
X111138095Y-118309523D01*
X111090476Y-118119047D01*
X111090476Y-117785714D01*
X111138095Y-117595238D01*
X111233333Y-117500000D01*
X111328571Y-117452380D01*
X111519047Y-117452380D01*
X111614285Y-117500000D01*
X111709523Y-117595238D01*
X111757142Y-117785714D01*
X111757142Y-118119047D01*
X111709523Y-118309523D01*
X111614285Y-118404761D01*
X111519047Y-118452380D01*
X111328571Y-118452380D01*
X112709523Y-118452380D02*
X112138095Y-118452380D01*
X112423809Y-118452380D02*
X112423809Y-117452380D01*
X112328571Y-117595238D01*
X112233333Y-117690476D01*
X112138095Y-117738095D01*
G04 #@! TO.C,C1*
X109257142Y-87866666D02*
X109304761Y-87914285D01*
X109352380Y-88057142D01*
X109352380Y-88152380D01*
X109304761Y-88295238D01*
X109209523Y-88390476D01*
X109114285Y-88438095D01*
X108923809Y-88485714D01*
X108780952Y-88485714D01*
X108590476Y-88438095D01*
X108495238Y-88390476D01*
X108400000Y-88295238D01*
X108352380Y-88152380D01*
X108352380Y-88057142D01*
X108400000Y-87914285D01*
X108447619Y-87866666D01*
X109352380Y-86914285D02*
X109352380Y-87485714D01*
X109352380Y-87200000D02*
X108352380Y-87200000D01*
X108495238Y-87295238D01*
X108590476Y-87390476D01*
X108638095Y-87485714D01*
G04 #@! TO.C,C2*
X111857142Y-87866666D02*
X111904761Y-87914285D01*
X111952380Y-88057142D01*
X111952380Y-88152380D01*
X111904761Y-88295238D01*
X111809523Y-88390476D01*
X111714285Y-88438095D01*
X111523809Y-88485714D01*
X111380952Y-88485714D01*
X111190476Y-88438095D01*
X111095238Y-88390476D01*
X111000000Y-88295238D01*
X110952380Y-88152380D01*
X110952380Y-88057142D01*
X111000000Y-87914285D01*
X111047619Y-87866666D01*
X111047619Y-87485714D02*
X111000000Y-87438095D01*
X110952380Y-87342857D01*
X110952380Y-87104761D01*
X111000000Y-87009523D01*
X111047619Y-86961904D01*
X111142857Y-86914285D01*
X111238095Y-86914285D01*
X111380952Y-86961904D01*
X111952380Y-87533333D01*
X111952380Y-86914285D01*
G04 #@! TO.C,R1*
X81652380Y-123866666D02*
X81176190Y-124200000D01*
X81652380Y-124438095D02*
X80652380Y-124438095D01*
X80652380Y-124057142D01*
X80700000Y-123961904D01*
X80747619Y-123914285D01*
X80842857Y-123866666D01*
X80985714Y-123866666D01*
X81080952Y-123914285D01*
X81128571Y-123961904D01*
X81176190Y-124057142D01*
X81176190Y-124438095D01*
X81652380Y-122914285D02*
X81652380Y-123485714D01*
X81652380Y-123200000D02*
X80652380Y-123200000D01*
X80795238Y-123295238D01*
X80890476Y-123390476D01*
X80938095Y-123485714D01*
G04 #@! TO.C,R2*
X65752380Y-90466666D02*
X65276190Y-90800000D01*
X65752380Y-91038095D02*
X64752380Y-91038095D01*
X64752380Y-90657142D01*
X64800000Y-90561904D01*
X64847619Y-90514285D01*
X64942857Y-90466666D01*
X65085714Y-90466666D01*
X65180952Y-90514285D01*
X65228571Y-90561904D01*
X65276190Y-90657142D01*
X65276190Y-91038095D01*
X64847619Y-90085714D02*
X64800000Y-90038095D01*
X64752380Y-89942857D01*
X64752380Y-89704761D01*
X64800000Y-89609523D01*
X64847619Y-89561904D01*
X64942857Y-89514285D01*
X65038095Y-89514285D01*
X65180952Y-89561904D01*
X65752380Y-90133333D01*
X65752380Y-89514285D01*
G04 #@! TO.C,R3*
X53552380Y-87666666D02*
X53076190Y-88000000D01*
X53552380Y-88238095D02*
X52552380Y-88238095D01*
X52552380Y-87857142D01*
X52600000Y-87761904D01*
X52647619Y-87714285D01*
X52742857Y-87666666D01*
X52885714Y-87666666D01*
X52980952Y-87714285D01*
X53028571Y-87761904D01*
X53076190Y-87857142D01*
X53076190Y-88238095D01*
X52552380Y-87333333D02*
X52552380Y-86714285D01*
X52933333Y-87047619D01*
X52933333Y-86904761D01*
X52980952Y-86809523D01*
X53028571Y-86761904D01*
X53123809Y-86714285D01*
X53361904Y-86714285D01*
X53457142Y-86761904D01*
X53504761Y-86809523D01*
X53552380Y-86904761D01*
X53552380Y-87190476D01*
X53504761Y-87285714D01*
X53457142Y-87333333D01*
G04 #@! TO.C,R6*
X118152380Y-118766666D02*
X117676190Y-119100000D01*
X118152380Y-119338095D02*
X117152380Y-119338095D01*
X117152380Y-118957142D01*
X117200000Y-118861904D01*
X117247619Y-118814285D01*
X117342857Y-118766666D01*
X117485714Y-118766666D01*
X117580952Y-118814285D01*
X117628571Y-118861904D01*
X117676190Y-118957142D01*
X117676190Y-119338095D01*
X117152380Y-117909523D02*
X117152380Y-118100000D01*
X117200000Y-118195238D01*
X117247619Y-118242857D01*
X117390476Y-118338095D01*
X117580952Y-118385714D01*
X117961904Y-118385714D01*
X118057142Y-118338095D01*
X118104761Y-118290476D01*
X118152380Y-118195238D01*
X118152380Y-118004761D01*
X118104761Y-117909523D01*
X118057142Y-117861904D01*
X117961904Y-117814285D01*
X117723809Y-117814285D01*
X117628571Y-117861904D01*
X117580952Y-117909523D01*
X117533333Y-118004761D01*
X117533333Y-118195238D01*
X117580952Y-118290476D01*
X117628571Y-118338095D01*
X117723809Y-118385714D01*
G04 #@! TO.C,R7*
X116352380Y-118866666D02*
X115876190Y-119200000D01*
X116352380Y-119438095D02*
X115352380Y-119438095D01*
X115352380Y-119057142D01*
X115400000Y-118961904D01*
X115447619Y-118914285D01*
X115542857Y-118866666D01*
X115685714Y-118866666D01*
X115780952Y-118914285D01*
X115828571Y-118961904D01*
X115876190Y-119057142D01*
X115876190Y-119438095D01*
X115352380Y-118533333D02*
X115352380Y-117866666D01*
X116352380Y-118295238D01*
G04 #@! TO.C,R8*
X114452380Y-118766666D02*
X113976190Y-119100000D01*
X114452380Y-119338095D02*
X113452380Y-119338095D01*
X113452380Y-118957142D01*
X113500000Y-118861904D01*
X113547619Y-118814285D01*
X113642857Y-118766666D01*
X113785714Y-118766666D01*
X113880952Y-118814285D01*
X113928571Y-118861904D01*
X113976190Y-118957142D01*
X113976190Y-119338095D01*
X113880952Y-118195238D02*
X113833333Y-118290476D01*
X113785714Y-118338095D01*
X113690476Y-118385714D01*
X113642857Y-118385714D01*
X113547619Y-118338095D01*
X113500000Y-118290476D01*
X113452380Y-118195238D01*
X113452380Y-118004761D01*
X113500000Y-117909523D01*
X113547619Y-117861904D01*
X113642857Y-117814285D01*
X113690476Y-117814285D01*
X113785714Y-117861904D01*
X113833333Y-117909523D01*
X113880952Y-118004761D01*
X113880952Y-118195238D01*
X113928571Y-118290476D01*
X113976190Y-118338095D01*
X114071428Y-118385714D01*
X114261904Y-118385714D01*
X114357142Y-118338095D01*
X114404761Y-118290476D01*
X114452380Y-118195238D01*
X114452380Y-118004761D01*
X114404761Y-117909523D01*
X114357142Y-117861904D01*
X114261904Y-117814285D01*
X114071428Y-117814285D01*
X113976190Y-117861904D01*
X113928571Y-117909523D01*
X113880952Y-118004761D01*
G04 #@! TO.C,R9*
X108252380Y-118266666D02*
X107776190Y-118600000D01*
X108252380Y-118838095D02*
X107252380Y-118838095D01*
X107252380Y-118457142D01*
X107300000Y-118361904D01*
X107347619Y-118314285D01*
X107442857Y-118266666D01*
X107585714Y-118266666D01*
X107680952Y-118314285D01*
X107728571Y-118361904D01*
X107776190Y-118457142D01*
X107776190Y-118838095D01*
X108252380Y-117790476D02*
X108252380Y-117600000D01*
X108204761Y-117504761D01*
X108157142Y-117457142D01*
X108014285Y-117361904D01*
X107823809Y-117314285D01*
X107442857Y-117314285D01*
X107347619Y-117361904D01*
X107300000Y-117409523D01*
X107252380Y-117504761D01*
X107252380Y-117695238D01*
X107300000Y-117790476D01*
X107347619Y-117838095D01*
X107442857Y-117885714D01*
X107680952Y-117885714D01*
X107776190Y-117838095D01*
X107823809Y-117790476D01*
X107871428Y-117695238D01*
X107871428Y-117504761D01*
X107823809Y-117409523D01*
X107776190Y-117361904D01*
X107680952Y-117314285D01*
G04 #@! TO.C,R4*
X54033333Y-120652380D02*
X53700000Y-120176190D01*
X53461904Y-120652380D02*
X53461904Y-119652380D01*
X53842857Y-119652380D01*
X53938095Y-119700000D01*
X53985714Y-119747619D01*
X54033333Y-119842857D01*
X54033333Y-119985714D01*
X53985714Y-120080952D01*
X53938095Y-120128571D01*
X53842857Y-120176190D01*
X53461904Y-120176190D01*
X54890476Y-119985714D02*
X54890476Y-120652380D01*
X54652380Y-119604761D02*
X54414285Y-120319047D01*
X55033333Y-120319047D01*
G04 #@! TO.C,R5*
X54133333Y-115252380D02*
X53800000Y-114776190D01*
X53561904Y-115252380D02*
X53561904Y-114252380D01*
X53942857Y-114252380D01*
X54038095Y-114300000D01*
X54085714Y-114347619D01*
X54133333Y-114442857D01*
X54133333Y-114585714D01*
X54085714Y-114680952D01*
X54038095Y-114728571D01*
X53942857Y-114776190D01*
X53561904Y-114776190D01*
X55038095Y-114252380D02*
X54561904Y-114252380D01*
X54514285Y-114728571D01*
X54561904Y-114680952D01*
X54657142Y-114633333D01*
X54895238Y-114633333D01*
X54990476Y-114680952D01*
X55038095Y-114728571D01*
X55085714Y-114823809D01*
X55085714Y-115061904D01*
X55038095Y-115157142D01*
X54990476Y-115204761D01*
X54895238Y-115252380D01*
X54657142Y-115252380D01*
X54561904Y-115204761D01*
X54514285Y-115157142D01*
G04 #@! TO.C,C3*
X114357142Y-87966666D02*
X114404761Y-88014285D01*
X114452380Y-88157142D01*
X114452380Y-88252380D01*
X114404761Y-88395238D01*
X114309523Y-88490476D01*
X114214285Y-88538095D01*
X114023809Y-88585714D01*
X113880952Y-88585714D01*
X113690476Y-88538095D01*
X113595238Y-88490476D01*
X113500000Y-88395238D01*
X113452380Y-88252380D01*
X113452380Y-88157142D01*
X113500000Y-88014285D01*
X113547619Y-87966666D01*
X113452380Y-87633333D02*
X113452380Y-87014285D01*
X113833333Y-87347619D01*
X113833333Y-87204761D01*
X113880952Y-87109523D01*
X113928571Y-87061904D01*
X114023809Y-87014285D01*
X114261904Y-87014285D01*
X114357142Y-87061904D01*
X114404761Y-87109523D01*
X114452380Y-87204761D01*
X114452380Y-87490476D01*
X114404761Y-87585714D01*
X114357142Y-87633333D01*
G04 #@! TO.C,C4*
X116957142Y-87966666D02*
X117004761Y-88014285D01*
X117052380Y-88157142D01*
X117052380Y-88252380D01*
X117004761Y-88395238D01*
X116909523Y-88490476D01*
X116814285Y-88538095D01*
X116623809Y-88585714D01*
X116480952Y-88585714D01*
X116290476Y-88538095D01*
X116195238Y-88490476D01*
X116100000Y-88395238D01*
X116052380Y-88252380D01*
X116052380Y-88157142D01*
X116100000Y-88014285D01*
X116147619Y-87966666D01*
X116385714Y-87109523D02*
X117052380Y-87109523D01*
X116004761Y-87347619D02*
X116719047Y-87585714D01*
X116719047Y-86966666D01*
G04 #@! TO.C,C5*
X90633333Y-88457142D02*
X90585714Y-88504761D01*
X90442857Y-88552380D01*
X90347619Y-88552380D01*
X90204761Y-88504761D01*
X90109523Y-88409523D01*
X90061904Y-88314285D01*
X90014285Y-88123809D01*
X90014285Y-87980952D01*
X90061904Y-87790476D01*
X90109523Y-87695238D01*
X90204761Y-87600000D01*
X90347619Y-87552380D01*
X90442857Y-87552380D01*
X90585714Y-87600000D01*
X90633333Y-87647619D01*
X91538095Y-87552380D02*
X91061904Y-87552380D01*
X91014285Y-88028571D01*
X91061904Y-87980952D01*
X91157142Y-87933333D01*
X91395238Y-87933333D01*
X91490476Y-87980952D01*
X91538095Y-88028571D01*
X91585714Y-88123809D01*
X91585714Y-88361904D01*
X91538095Y-88457142D01*
X91490476Y-88504761D01*
X91395238Y-88552380D01*
X91157142Y-88552380D01*
X91061904Y-88504761D01*
X91014285Y-88457142D01*
G04 #@! TO.C,C6*
X119457142Y-87966666D02*
X119504761Y-88014285D01*
X119552380Y-88157142D01*
X119552380Y-88252380D01*
X119504761Y-88395238D01*
X119409523Y-88490476D01*
X119314285Y-88538095D01*
X119123809Y-88585714D01*
X118980952Y-88585714D01*
X118790476Y-88538095D01*
X118695238Y-88490476D01*
X118600000Y-88395238D01*
X118552380Y-88252380D01*
X118552380Y-88157142D01*
X118600000Y-88014285D01*
X118647619Y-87966666D01*
X118552380Y-87109523D02*
X118552380Y-87300000D01*
X118600000Y-87395238D01*
X118647619Y-87442857D01*
X118790476Y-87538095D01*
X118980952Y-87585714D01*
X119361904Y-87585714D01*
X119457142Y-87538095D01*
X119504761Y-87490476D01*
X119552380Y-87395238D01*
X119552380Y-87204761D01*
X119504761Y-87109523D01*
X119457142Y-87061904D01*
X119361904Y-87014285D01*
X119123809Y-87014285D01*
X119028571Y-87061904D01*
X118980952Y-87109523D01*
X118933333Y-87204761D01*
X118933333Y-87395238D01*
X118980952Y-87490476D01*
X119028571Y-87538095D01*
X119123809Y-87585714D01*
G04 #@! TO.C,C7*
X94233333Y-88457142D02*
X94185714Y-88504761D01*
X94042857Y-88552380D01*
X93947619Y-88552380D01*
X93804761Y-88504761D01*
X93709523Y-88409523D01*
X93661904Y-88314285D01*
X93614285Y-88123809D01*
X93614285Y-87980952D01*
X93661904Y-87790476D01*
X93709523Y-87695238D01*
X93804761Y-87600000D01*
X93947619Y-87552380D01*
X94042857Y-87552380D01*
X94185714Y-87600000D01*
X94233333Y-87647619D01*
X94566666Y-87552380D02*
X95233333Y-87552380D01*
X94804761Y-88552380D01*
G04 #@! TO.C,C8*
X97333333Y-88457142D02*
X97285714Y-88504761D01*
X97142857Y-88552380D01*
X97047619Y-88552380D01*
X96904761Y-88504761D01*
X96809523Y-88409523D01*
X96761904Y-88314285D01*
X96714285Y-88123809D01*
X96714285Y-87980952D01*
X96761904Y-87790476D01*
X96809523Y-87695238D01*
X96904761Y-87600000D01*
X97047619Y-87552380D01*
X97142857Y-87552380D01*
X97285714Y-87600000D01*
X97333333Y-87647619D01*
X97904761Y-87980952D02*
X97809523Y-87933333D01*
X97761904Y-87885714D01*
X97714285Y-87790476D01*
X97714285Y-87742857D01*
X97761904Y-87647619D01*
X97809523Y-87600000D01*
X97904761Y-87552380D01*
X98095238Y-87552380D01*
X98190476Y-87600000D01*
X98238095Y-87647619D01*
X98285714Y-87742857D01*
X98285714Y-87790476D01*
X98238095Y-87885714D01*
X98190476Y-87933333D01*
X98095238Y-87980952D01*
X97904761Y-87980952D01*
X97809523Y-88028571D01*
X97761904Y-88076190D01*
X97714285Y-88171428D01*
X97714285Y-88361904D01*
X97761904Y-88457142D01*
X97809523Y-88504761D01*
X97904761Y-88552380D01*
X98095238Y-88552380D01*
X98190476Y-88504761D01*
X98238095Y-88457142D01*
X98285714Y-88361904D01*
X98285714Y-88171428D01*
X98238095Y-88076190D01*
X98190476Y-88028571D01*
X98095238Y-87980952D01*
G04 #@! TO.C,C9*
X101633333Y-88357142D02*
X101585714Y-88404761D01*
X101442857Y-88452380D01*
X101347619Y-88452380D01*
X101204761Y-88404761D01*
X101109523Y-88309523D01*
X101061904Y-88214285D01*
X101014285Y-88023809D01*
X101014285Y-87880952D01*
X101061904Y-87690476D01*
X101109523Y-87595238D01*
X101204761Y-87500000D01*
X101347619Y-87452380D01*
X101442857Y-87452380D01*
X101585714Y-87500000D01*
X101633333Y-87547619D01*
X102109523Y-88452380D02*
X102300000Y-88452380D01*
X102395238Y-88404761D01*
X102442857Y-88357142D01*
X102538095Y-88214285D01*
X102585714Y-88023809D01*
X102585714Y-87642857D01*
X102538095Y-87547619D01*
X102490476Y-87500000D01*
X102395238Y-87452380D01*
X102204761Y-87452380D01*
X102109523Y-87500000D01*
X102061904Y-87547619D01*
X102014285Y-87642857D01*
X102014285Y-87880952D01*
X102061904Y-87976190D01*
X102109523Y-88023809D01*
X102204761Y-88071428D01*
X102395238Y-88071428D01*
X102490476Y-88023809D01*
X102538095Y-87976190D01*
X102585714Y-87880952D01*
G04 #@! TO.C,DIS1*
X98697619Y-99602380D02*
X98697619Y-98602380D01*
X98935714Y-98602380D01*
X99078571Y-98650000D01*
X99173809Y-98745238D01*
X99221428Y-98840476D01*
X99269047Y-99030952D01*
X99269047Y-99173809D01*
X99221428Y-99364285D01*
X99173809Y-99459523D01*
X99078571Y-99554761D01*
X98935714Y-99602380D01*
X98697619Y-99602380D01*
X99697619Y-99602380D02*
X99697619Y-98602380D01*
X100126190Y-99554761D02*
X100269047Y-99602380D01*
X100507142Y-99602380D01*
X100602380Y-99554761D01*
X100650000Y-99507142D01*
X100697619Y-99411904D01*
X100697619Y-99316666D01*
X100650000Y-99221428D01*
X100602380Y-99173809D01*
X100507142Y-99126190D01*
X100316666Y-99078571D01*
X100221428Y-99030952D01*
X100173809Y-98983333D01*
X100126190Y-98888095D01*
X100126190Y-98792857D01*
X100173809Y-98697619D01*
X100221428Y-98650000D01*
X100316666Y-98602380D01*
X100554761Y-98602380D01*
X100697619Y-98650000D01*
X101650000Y-99602380D02*
X101078571Y-99602380D01*
X101364285Y-99602380D02*
X101364285Y-98602380D01*
X101269047Y-98745238D01*
X101173809Y-98840476D01*
X101078571Y-98888095D01*
G04 #@! TO.C,DIS2*
X98697619Y-101002380D02*
X98697619Y-100002380D01*
X98935714Y-100002380D01*
X99078571Y-100050000D01*
X99173809Y-100145238D01*
X99221428Y-100240476D01*
X99269047Y-100430952D01*
X99269047Y-100573809D01*
X99221428Y-100764285D01*
X99173809Y-100859523D01*
X99078571Y-100954761D01*
X98935714Y-101002380D01*
X98697619Y-101002380D01*
X99697619Y-101002380D02*
X99697619Y-100002380D01*
X100126190Y-100954761D02*
X100269047Y-101002380D01*
X100507142Y-101002380D01*
X100602380Y-100954761D01*
X100650000Y-100907142D01*
X100697619Y-100811904D01*
X100697619Y-100716666D01*
X100650000Y-100621428D01*
X100602380Y-100573809D01*
X100507142Y-100526190D01*
X100316666Y-100478571D01*
X100221428Y-100430952D01*
X100173809Y-100383333D01*
X100126190Y-100288095D01*
X100126190Y-100192857D01*
X100173809Y-100097619D01*
X100221428Y-100050000D01*
X100316666Y-100002380D01*
X100554761Y-100002380D01*
X100697619Y-100050000D01*
X101078571Y-100097619D02*
X101126190Y-100050000D01*
X101221428Y-100002380D01*
X101459523Y-100002380D01*
X101554761Y-100050000D01*
X101602380Y-100097619D01*
X101650000Y-100192857D01*
X101650000Y-100288095D01*
X101602380Y-100430952D01*
X101030952Y-101002380D01*
X101650000Y-101002380D01*
G04 #@! TO.C,DIS3*
X98697619Y-102352380D02*
X98697619Y-101352380D01*
X98935714Y-101352380D01*
X99078571Y-101400000D01*
X99173809Y-101495238D01*
X99221428Y-101590476D01*
X99269047Y-101780952D01*
X99269047Y-101923809D01*
X99221428Y-102114285D01*
X99173809Y-102209523D01*
X99078571Y-102304761D01*
X98935714Y-102352380D01*
X98697619Y-102352380D01*
X99697619Y-102352380D02*
X99697619Y-101352380D01*
X100126190Y-102304761D02*
X100269047Y-102352380D01*
X100507142Y-102352380D01*
X100602380Y-102304761D01*
X100650000Y-102257142D01*
X100697619Y-102161904D01*
X100697619Y-102066666D01*
X100650000Y-101971428D01*
X100602380Y-101923809D01*
X100507142Y-101876190D01*
X100316666Y-101828571D01*
X100221428Y-101780952D01*
X100173809Y-101733333D01*
X100126190Y-101638095D01*
X100126190Y-101542857D01*
X100173809Y-101447619D01*
X100221428Y-101400000D01*
X100316666Y-101352380D01*
X100554761Y-101352380D01*
X100697619Y-101400000D01*
X101030952Y-101352380D02*
X101650000Y-101352380D01*
X101316666Y-101733333D01*
X101459523Y-101733333D01*
X101554761Y-101780952D01*
X101602380Y-101828571D01*
X101650000Y-101923809D01*
X101650000Y-102161904D01*
X101602380Y-102257142D01*
X101554761Y-102304761D01*
X101459523Y-102352380D01*
X101173809Y-102352380D01*
X101078571Y-102304761D01*
X101030952Y-102257142D01*
G04 #@! TO.C,C10*
X108857142Y-109057142D02*
X108809523Y-109104761D01*
X108666666Y-109152380D01*
X108571428Y-109152380D01*
X108428571Y-109104761D01*
X108333333Y-109009523D01*
X108285714Y-108914285D01*
X108238095Y-108723809D01*
X108238095Y-108580952D01*
X108285714Y-108390476D01*
X108333333Y-108295238D01*
X108428571Y-108200000D01*
X108571428Y-108152380D01*
X108666666Y-108152380D01*
X108809523Y-108200000D01*
X108857142Y-108247619D01*
X109809523Y-109152380D02*
X109238095Y-109152380D01*
X109523809Y-109152380D02*
X109523809Y-108152380D01*
X109428571Y-108295238D01*
X109333333Y-108390476D01*
X109238095Y-108438095D01*
X110428571Y-108152380D02*
X110523809Y-108152380D01*
X110619047Y-108200000D01*
X110666666Y-108247619D01*
X110714285Y-108342857D01*
X110761904Y-108533333D01*
X110761904Y-108771428D01*
X110714285Y-108961904D01*
X110666666Y-109057142D01*
X110619047Y-109104761D01*
X110523809Y-109152380D01*
X110428571Y-109152380D01*
X110333333Y-109104761D01*
X110285714Y-109057142D01*
X110238095Y-108961904D01*
X110190476Y-108771428D01*
X110190476Y-108533333D01*
X110238095Y-108342857D01*
X110285714Y-108247619D01*
X110333333Y-108200000D01*
X110428571Y-108152380D01*
G04 #@! TO.C,C11*
X108857142Y-107557142D02*
X108809523Y-107604761D01*
X108666666Y-107652380D01*
X108571428Y-107652380D01*
X108428571Y-107604761D01*
X108333333Y-107509523D01*
X108285714Y-107414285D01*
X108238095Y-107223809D01*
X108238095Y-107080952D01*
X108285714Y-106890476D01*
X108333333Y-106795238D01*
X108428571Y-106700000D01*
X108571428Y-106652380D01*
X108666666Y-106652380D01*
X108809523Y-106700000D01*
X108857142Y-106747619D01*
X109809523Y-107652380D02*
X109238095Y-107652380D01*
X109523809Y-107652380D02*
X109523809Y-106652380D01*
X109428571Y-106795238D01*
X109333333Y-106890476D01*
X109238095Y-106938095D01*
X110761904Y-107652380D02*
X110190476Y-107652380D01*
X110476190Y-107652380D02*
X110476190Y-106652380D01*
X110380952Y-106795238D01*
X110285714Y-106890476D01*
X110190476Y-106938095D01*
G04 #@! TO.C,U1*
X110338095Y-94452380D02*
X110338095Y-95261904D01*
X110385714Y-95357142D01*
X110433333Y-95404761D01*
X110528571Y-95452380D01*
X110719047Y-95452380D01*
X110814285Y-95404761D01*
X110861904Y-95357142D01*
X110909523Y-95261904D01*
X110909523Y-94452380D01*
X111909523Y-95452380D02*
X111338095Y-95452380D01*
X111623809Y-95452380D02*
X111623809Y-94452380D01*
X111528571Y-94595238D01*
X111433333Y-94690476D01*
X111338095Y-94738095D01*
G04 #@! TO.C,C12*
X68507142Y-89192857D02*
X68554761Y-89240476D01*
X68602380Y-89383333D01*
X68602380Y-89478571D01*
X68554761Y-89621428D01*
X68459523Y-89716666D01*
X68364285Y-89764285D01*
X68173809Y-89811904D01*
X68030952Y-89811904D01*
X67840476Y-89764285D01*
X67745238Y-89716666D01*
X67650000Y-89621428D01*
X67602380Y-89478571D01*
X67602380Y-89383333D01*
X67650000Y-89240476D01*
X67697619Y-89192857D01*
X68602380Y-88240476D02*
X68602380Y-88811904D01*
X68602380Y-88526190D02*
X67602380Y-88526190D01*
X67745238Y-88621428D01*
X67840476Y-88716666D01*
X67888095Y-88811904D01*
X67697619Y-87859523D02*
X67650000Y-87811904D01*
X67602380Y-87716666D01*
X67602380Y-87478571D01*
X67650000Y-87383333D01*
X67697619Y-87335714D01*
X67792857Y-87288095D01*
X67888095Y-87288095D01*
X68030952Y-87335714D01*
X68602380Y-87907142D01*
X68602380Y-87288095D01*
G04 #@! TO.C,R10*
X80052380Y-95342857D02*
X79576190Y-95676190D01*
X80052380Y-95914285D02*
X79052380Y-95914285D01*
X79052380Y-95533333D01*
X79100000Y-95438095D01*
X79147619Y-95390476D01*
X79242857Y-95342857D01*
X79385714Y-95342857D01*
X79480952Y-95390476D01*
X79528571Y-95438095D01*
X79576190Y-95533333D01*
X79576190Y-95914285D01*
X80052380Y-94390476D02*
X80052380Y-94961904D01*
X80052380Y-94676190D02*
X79052380Y-94676190D01*
X79195238Y-94771428D01*
X79290476Y-94866666D01*
X79338095Y-94961904D01*
X79052380Y-93771428D02*
X79052380Y-93676190D01*
X79100000Y-93580952D01*
X79147619Y-93533333D01*
X79242857Y-93485714D01*
X79433333Y-93438095D01*
X79671428Y-93438095D01*
X79861904Y-93485714D01*
X79957142Y-93533333D01*
X80004761Y-93580952D01*
X80052380Y-93676190D01*
X80052380Y-93771428D01*
X80004761Y-93866666D01*
X79957142Y-93914285D01*
X79861904Y-93961904D01*
X79671428Y-94009523D01*
X79433333Y-94009523D01*
X79242857Y-93961904D01*
X79147619Y-93914285D01*
X79100000Y-93866666D01*
X79052380Y-93771428D01*
G04 #@! TO.C,R11*
X78352380Y-95242857D02*
X77876190Y-95576190D01*
X78352380Y-95814285D02*
X77352380Y-95814285D01*
X77352380Y-95433333D01*
X77400000Y-95338095D01*
X77447619Y-95290476D01*
X77542857Y-95242857D01*
X77685714Y-95242857D01*
X77780952Y-95290476D01*
X77828571Y-95338095D01*
X77876190Y-95433333D01*
X77876190Y-95814285D01*
X78352380Y-94290476D02*
X78352380Y-94861904D01*
X78352380Y-94576190D02*
X77352380Y-94576190D01*
X77495238Y-94671428D01*
X77590476Y-94766666D01*
X77638095Y-94861904D01*
X78352380Y-93338095D02*
X78352380Y-93909523D01*
X78352380Y-93623809D02*
X77352380Y-93623809D01*
X77495238Y-93719047D01*
X77590476Y-93814285D01*
X77638095Y-93909523D01*
G04 #@! TO.C,R12*
X76652380Y-95242857D02*
X76176190Y-95576190D01*
X76652380Y-95814285D02*
X75652380Y-95814285D01*
X75652380Y-95433333D01*
X75700000Y-95338095D01*
X75747619Y-95290476D01*
X75842857Y-95242857D01*
X75985714Y-95242857D01*
X76080952Y-95290476D01*
X76128571Y-95338095D01*
X76176190Y-95433333D01*
X76176190Y-95814285D01*
X76652380Y-94290476D02*
X76652380Y-94861904D01*
X76652380Y-94576190D02*
X75652380Y-94576190D01*
X75795238Y-94671428D01*
X75890476Y-94766666D01*
X75938095Y-94861904D01*
X75747619Y-93909523D02*
X75700000Y-93861904D01*
X75652380Y-93766666D01*
X75652380Y-93528571D01*
X75700000Y-93433333D01*
X75747619Y-93385714D01*
X75842857Y-93338095D01*
X75938095Y-93338095D01*
X76080952Y-93385714D01*
X76652380Y-93957142D01*
X76652380Y-93338095D01*
G04 #@! TO.C,R13*
X73252380Y-95242857D02*
X72776190Y-95576190D01*
X73252380Y-95814285D02*
X72252380Y-95814285D01*
X72252380Y-95433333D01*
X72300000Y-95338095D01*
X72347619Y-95290476D01*
X72442857Y-95242857D01*
X72585714Y-95242857D01*
X72680952Y-95290476D01*
X72728571Y-95338095D01*
X72776190Y-95433333D01*
X72776190Y-95814285D01*
X73252380Y-94290476D02*
X73252380Y-94861904D01*
X73252380Y-94576190D02*
X72252380Y-94576190D01*
X72395238Y-94671428D01*
X72490476Y-94766666D01*
X72538095Y-94861904D01*
X72252380Y-93957142D02*
X72252380Y-93338095D01*
X72633333Y-93671428D01*
X72633333Y-93528571D01*
X72680952Y-93433333D01*
X72728571Y-93385714D01*
X72823809Y-93338095D01*
X73061904Y-93338095D01*
X73157142Y-93385714D01*
X73204761Y-93433333D01*
X73252380Y-93528571D01*
X73252380Y-93814285D01*
X73204761Y-93909523D01*
X73157142Y-93957142D01*
G04 #@! TO.C,R14*
X74952380Y-95192857D02*
X74476190Y-95526190D01*
X74952380Y-95764285D02*
X73952380Y-95764285D01*
X73952380Y-95383333D01*
X74000000Y-95288095D01*
X74047619Y-95240476D01*
X74142857Y-95192857D01*
X74285714Y-95192857D01*
X74380952Y-95240476D01*
X74428571Y-95288095D01*
X74476190Y-95383333D01*
X74476190Y-95764285D01*
X74952380Y-94240476D02*
X74952380Y-94811904D01*
X74952380Y-94526190D02*
X73952380Y-94526190D01*
X74095238Y-94621428D01*
X74190476Y-94716666D01*
X74238095Y-94811904D01*
X74285714Y-93383333D02*
X74952380Y-93383333D01*
X73904761Y-93621428D02*
X74619047Y-93859523D01*
X74619047Y-93240476D01*
G04 #@! TO.C,R15*
X96057142Y-97502380D02*
X95723809Y-97026190D01*
X95485714Y-97502380D02*
X95485714Y-96502380D01*
X95866666Y-96502380D01*
X95961904Y-96550000D01*
X96009523Y-96597619D01*
X96057142Y-96692857D01*
X96057142Y-96835714D01*
X96009523Y-96930952D01*
X95961904Y-96978571D01*
X95866666Y-97026190D01*
X95485714Y-97026190D01*
X97009523Y-97502380D02*
X96438095Y-97502380D01*
X96723809Y-97502380D02*
X96723809Y-96502380D01*
X96628571Y-96645238D01*
X96533333Y-96740476D01*
X96438095Y-96788095D01*
X97914285Y-96502380D02*
X97438095Y-96502380D01*
X97390476Y-96978571D01*
X97438095Y-96930952D01*
X97533333Y-96883333D01*
X97771428Y-96883333D01*
X97866666Y-96930952D01*
X97914285Y-96978571D01*
X97961904Y-97073809D01*
X97961904Y-97311904D01*
X97914285Y-97407142D01*
X97866666Y-97454761D01*
X97771428Y-97502380D01*
X97533333Y-97502380D01*
X97438095Y-97454761D01*
X97390476Y-97407142D01*
G04 #@! TO.C,R16*
X76207142Y-102852380D02*
X75873809Y-102376190D01*
X75635714Y-102852380D02*
X75635714Y-101852380D01*
X76016666Y-101852380D01*
X76111904Y-101900000D01*
X76159523Y-101947619D01*
X76207142Y-102042857D01*
X76207142Y-102185714D01*
X76159523Y-102280952D01*
X76111904Y-102328571D01*
X76016666Y-102376190D01*
X75635714Y-102376190D01*
X77159523Y-102852380D02*
X76588095Y-102852380D01*
X76873809Y-102852380D02*
X76873809Y-101852380D01*
X76778571Y-101995238D01*
X76683333Y-102090476D01*
X76588095Y-102138095D01*
X78016666Y-101852380D02*
X77826190Y-101852380D01*
X77730952Y-101900000D01*
X77683333Y-101947619D01*
X77588095Y-102090476D01*
X77540476Y-102280952D01*
X77540476Y-102661904D01*
X77588095Y-102757142D01*
X77635714Y-102804761D01*
X77730952Y-102852380D01*
X77921428Y-102852380D01*
X78016666Y-102804761D01*
X78064285Y-102757142D01*
X78111904Y-102661904D01*
X78111904Y-102423809D01*
X78064285Y-102328571D01*
X78016666Y-102280952D01*
X77921428Y-102233333D01*
X77730952Y-102233333D01*
X77635714Y-102280952D01*
X77588095Y-102328571D01*
X77540476Y-102423809D01*
G04 #@! TO.C,R17*
X96157142Y-95652380D02*
X95823809Y-95176190D01*
X95585714Y-95652380D02*
X95585714Y-94652380D01*
X95966666Y-94652380D01*
X96061904Y-94700000D01*
X96109523Y-94747619D01*
X96157142Y-94842857D01*
X96157142Y-94985714D01*
X96109523Y-95080952D01*
X96061904Y-95128571D01*
X95966666Y-95176190D01*
X95585714Y-95176190D01*
X97109523Y-95652380D02*
X96538095Y-95652380D01*
X96823809Y-95652380D02*
X96823809Y-94652380D01*
X96728571Y-94795238D01*
X96633333Y-94890476D01*
X96538095Y-94938095D01*
X97442857Y-94652380D02*
X98109523Y-94652380D01*
X97680952Y-95652380D01*
G04 #@! TO.C,R18*
X89607142Y-97402380D02*
X89273809Y-96926190D01*
X89035714Y-97402380D02*
X89035714Y-96402380D01*
X89416666Y-96402380D01*
X89511904Y-96450000D01*
X89559523Y-96497619D01*
X89607142Y-96592857D01*
X89607142Y-96735714D01*
X89559523Y-96830952D01*
X89511904Y-96878571D01*
X89416666Y-96926190D01*
X89035714Y-96926190D01*
X90559523Y-97402380D02*
X89988095Y-97402380D01*
X90273809Y-97402380D02*
X90273809Y-96402380D01*
X90178571Y-96545238D01*
X90083333Y-96640476D01*
X89988095Y-96688095D01*
X91130952Y-96830952D02*
X91035714Y-96783333D01*
X90988095Y-96735714D01*
X90940476Y-96640476D01*
X90940476Y-96592857D01*
X90988095Y-96497619D01*
X91035714Y-96450000D01*
X91130952Y-96402380D01*
X91321428Y-96402380D01*
X91416666Y-96450000D01*
X91464285Y-96497619D01*
X91511904Y-96592857D01*
X91511904Y-96640476D01*
X91464285Y-96735714D01*
X91416666Y-96783333D01*
X91321428Y-96830952D01*
X91130952Y-96830952D01*
X91035714Y-96878571D01*
X90988095Y-96926190D01*
X90940476Y-97021428D01*
X90940476Y-97211904D01*
X90988095Y-97307142D01*
X91035714Y-97354761D01*
X91130952Y-97402380D01*
X91321428Y-97402380D01*
X91416666Y-97354761D01*
X91464285Y-97307142D01*
X91511904Y-97211904D01*
X91511904Y-97021428D01*
X91464285Y-96926190D01*
X91416666Y-96878571D01*
X91321428Y-96830952D01*
G04 #@! TO.C,R19*
X76107142Y-101152380D02*
X75773809Y-100676190D01*
X75535714Y-101152380D02*
X75535714Y-100152380D01*
X75916666Y-100152380D01*
X76011904Y-100200000D01*
X76059523Y-100247619D01*
X76107142Y-100342857D01*
X76107142Y-100485714D01*
X76059523Y-100580952D01*
X76011904Y-100628571D01*
X75916666Y-100676190D01*
X75535714Y-100676190D01*
X77059523Y-101152380D02*
X76488095Y-101152380D01*
X76773809Y-101152380D02*
X76773809Y-100152380D01*
X76678571Y-100295238D01*
X76583333Y-100390476D01*
X76488095Y-100438095D01*
X77535714Y-101152380D02*
X77726190Y-101152380D01*
X77821428Y-101104761D01*
X77869047Y-101057142D01*
X77964285Y-100914285D01*
X78011904Y-100723809D01*
X78011904Y-100342857D01*
X77964285Y-100247619D01*
X77916666Y-100200000D01*
X77821428Y-100152380D01*
X77630952Y-100152380D01*
X77535714Y-100200000D01*
X77488095Y-100247619D01*
X77440476Y-100342857D01*
X77440476Y-100580952D01*
X77488095Y-100676190D01*
X77535714Y-100723809D01*
X77630952Y-100771428D01*
X77821428Y-100771428D01*
X77916666Y-100723809D01*
X77964285Y-100676190D01*
X78011904Y-100580952D01*
G04 #@! TO.C,R20*
X89607142Y-95702380D02*
X89273809Y-95226190D01*
X89035714Y-95702380D02*
X89035714Y-94702380D01*
X89416666Y-94702380D01*
X89511904Y-94750000D01*
X89559523Y-94797619D01*
X89607142Y-94892857D01*
X89607142Y-95035714D01*
X89559523Y-95130952D01*
X89511904Y-95178571D01*
X89416666Y-95226190D01*
X89035714Y-95226190D01*
X89988095Y-94797619D02*
X90035714Y-94750000D01*
X90130952Y-94702380D01*
X90369047Y-94702380D01*
X90464285Y-94750000D01*
X90511904Y-94797619D01*
X90559523Y-94892857D01*
X90559523Y-94988095D01*
X90511904Y-95130952D01*
X89940476Y-95702380D01*
X90559523Y-95702380D01*
X91178571Y-94702380D02*
X91273809Y-94702380D01*
X91369047Y-94750000D01*
X91416666Y-94797619D01*
X91464285Y-94892857D01*
X91511904Y-95083333D01*
X91511904Y-95321428D01*
X91464285Y-95511904D01*
X91416666Y-95607142D01*
X91369047Y-95654761D01*
X91273809Y-95702380D01*
X91178571Y-95702380D01*
X91083333Y-95654761D01*
X91035714Y-95607142D01*
X90988095Y-95511904D01*
X90940476Y-95321428D01*
X90940476Y-95083333D01*
X90988095Y-94892857D01*
X91035714Y-94797619D01*
X91083333Y-94750000D01*
X91178571Y-94702380D01*
G04 #@! TO.C,R21*
X65252380Y-121942857D02*
X64776190Y-122276190D01*
X65252380Y-122514285D02*
X64252380Y-122514285D01*
X64252380Y-122133333D01*
X64300000Y-122038095D01*
X64347619Y-121990476D01*
X64442857Y-121942857D01*
X64585714Y-121942857D01*
X64680952Y-121990476D01*
X64728571Y-122038095D01*
X64776190Y-122133333D01*
X64776190Y-122514285D01*
X64347619Y-121561904D02*
X64300000Y-121514285D01*
X64252380Y-121419047D01*
X64252380Y-121180952D01*
X64300000Y-121085714D01*
X64347619Y-121038095D01*
X64442857Y-120990476D01*
X64538095Y-120990476D01*
X64680952Y-121038095D01*
X65252380Y-121609523D01*
X65252380Y-120990476D01*
X65252380Y-120038095D02*
X65252380Y-120609523D01*
X65252380Y-120323809D02*
X64252380Y-120323809D01*
X64395238Y-120419047D01*
X64490476Y-120514285D01*
X64538095Y-120609523D01*
G04 #@! TO.C,D1*
X65152380Y-125438095D02*
X64152380Y-125438095D01*
X64152380Y-125200000D01*
X64200000Y-125057142D01*
X64295238Y-124961904D01*
X64390476Y-124914285D01*
X64580952Y-124866666D01*
X64723809Y-124866666D01*
X64914285Y-124914285D01*
X65009523Y-124961904D01*
X65104761Y-125057142D01*
X65152380Y-125200000D01*
X65152380Y-125438095D01*
X65152380Y-123914285D02*
X65152380Y-124485714D01*
X65152380Y-124200000D02*
X64152380Y-124200000D01*
X64295238Y-124295238D01*
X64390476Y-124390476D01*
X64438095Y-124485714D01*
G04 #@! TO.C,SW1*
X63304761Y-96433333D02*
X63352380Y-96290476D01*
X63352380Y-96052380D01*
X63304761Y-95957142D01*
X63257142Y-95909523D01*
X63161904Y-95861904D01*
X63066666Y-95861904D01*
X62971428Y-95909523D01*
X62923809Y-95957142D01*
X62876190Y-96052380D01*
X62828571Y-96242857D01*
X62780952Y-96338095D01*
X62733333Y-96385714D01*
X62638095Y-96433333D01*
X62542857Y-96433333D01*
X62447619Y-96385714D01*
X62400000Y-96338095D01*
X62352380Y-96242857D01*
X62352380Y-96004761D01*
X62400000Y-95861904D01*
X62352380Y-95528571D02*
X63352380Y-95290476D01*
X62638095Y-95100000D01*
X63352380Y-94909523D01*
X62352380Y-94671428D01*
X63352380Y-93766666D02*
X63352380Y-94338095D01*
X63352380Y-94052380D02*
X62352380Y-94052380D01*
X62495238Y-94147619D01*
X62590476Y-94242857D01*
X62638095Y-94338095D01*
G04 #@! TO.C,SW2*
X57766666Y-86604761D02*
X57909523Y-86652380D01*
X58147619Y-86652380D01*
X58242857Y-86604761D01*
X58290476Y-86557142D01*
X58338095Y-86461904D01*
X58338095Y-86366666D01*
X58290476Y-86271428D01*
X58242857Y-86223809D01*
X58147619Y-86176190D01*
X57957142Y-86128571D01*
X57861904Y-86080952D01*
X57814285Y-86033333D01*
X57766666Y-85938095D01*
X57766666Y-85842857D01*
X57814285Y-85747619D01*
X57861904Y-85700000D01*
X57957142Y-85652380D01*
X58195238Y-85652380D01*
X58338095Y-85700000D01*
X58671428Y-85652380D02*
X58909523Y-86652380D01*
X59100000Y-85938095D01*
X59290476Y-86652380D01*
X59528571Y-85652380D01*
X59861904Y-85747619D02*
X59909523Y-85700000D01*
X60004761Y-85652380D01*
X60242857Y-85652380D01*
X60338095Y-85700000D01*
X60385714Y-85747619D01*
X60433333Y-85842857D01*
X60433333Y-85938095D01*
X60385714Y-86080952D01*
X59814285Y-86652380D01*
X60433333Y-86652380D01*
G04 #@! TO.C,SW3*
X57766666Y-106604761D02*
X57909523Y-106652380D01*
X58147619Y-106652380D01*
X58242857Y-106604761D01*
X58290476Y-106557142D01*
X58338095Y-106461904D01*
X58338095Y-106366666D01*
X58290476Y-106271428D01*
X58242857Y-106223809D01*
X58147619Y-106176190D01*
X57957142Y-106128571D01*
X57861904Y-106080952D01*
X57814285Y-106033333D01*
X57766666Y-105938095D01*
X57766666Y-105842857D01*
X57814285Y-105747619D01*
X57861904Y-105700000D01*
X57957142Y-105652380D01*
X58195238Y-105652380D01*
X58338095Y-105700000D01*
X58671428Y-105652380D02*
X58909523Y-106652380D01*
X59100000Y-105938095D01*
X59290476Y-106652380D01*
X59528571Y-105652380D01*
X59814285Y-105652380D02*
X60433333Y-105652380D01*
X60100000Y-106033333D01*
X60242857Y-106033333D01*
X60338095Y-106080952D01*
X60385714Y-106128571D01*
X60433333Y-106223809D01*
X60433333Y-106461904D01*
X60385714Y-106557142D01*
X60338095Y-106604761D01*
X60242857Y-106652380D01*
X59957142Y-106652380D01*
X59861904Y-106604761D01*
X59814285Y-106557142D01*
G04 #@! TO.C,SW4*
X55354761Y-96583333D02*
X55402380Y-96440476D01*
X55402380Y-96202380D01*
X55354761Y-96107142D01*
X55307142Y-96059523D01*
X55211904Y-96011904D01*
X55116666Y-96011904D01*
X55021428Y-96059523D01*
X54973809Y-96107142D01*
X54926190Y-96202380D01*
X54878571Y-96392857D01*
X54830952Y-96488095D01*
X54783333Y-96535714D01*
X54688095Y-96583333D01*
X54592857Y-96583333D01*
X54497619Y-96535714D01*
X54450000Y-96488095D01*
X54402380Y-96392857D01*
X54402380Y-96154761D01*
X54450000Y-96011904D01*
X54402380Y-95678571D02*
X55402380Y-95440476D01*
X54688095Y-95250000D01*
X55402380Y-95059523D01*
X54402380Y-94821428D01*
X54735714Y-94011904D02*
X55402380Y-94011904D01*
X54354761Y-94250000D02*
X55069047Y-94488095D01*
X55069047Y-93869047D01*
G04 #@! TO.C,SW5*
X57566666Y-129204761D02*
X57709523Y-129252380D01*
X57947619Y-129252380D01*
X58042857Y-129204761D01*
X58090476Y-129157142D01*
X58138095Y-129061904D01*
X58138095Y-128966666D01*
X58090476Y-128871428D01*
X58042857Y-128823809D01*
X57947619Y-128776190D01*
X57757142Y-128728571D01*
X57661904Y-128680952D01*
X57614285Y-128633333D01*
X57566666Y-128538095D01*
X57566666Y-128442857D01*
X57614285Y-128347619D01*
X57661904Y-128300000D01*
X57757142Y-128252380D01*
X57995238Y-128252380D01*
X58138095Y-128300000D01*
X58471428Y-128252380D02*
X58709523Y-129252380D01*
X58900000Y-128538095D01*
X59090476Y-129252380D01*
X59328571Y-128252380D01*
X60185714Y-128252380D02*
X59709523Y-128252380D01*
X59661904Y-128728571D01*
X59709523Y-128680952D01*
X59804761Y-128633333D01*
X60042857Y-128633333D01*
X60138095Y-128680952D01*
X60185714Y-128728571D01*
X60233333Y-128823809D01*
X60233333Y-129061904D01*
X60185714Y-129157142D01*
X60138095Y-129204761D01*
X60042857Y-129252380D01*
X59804761Y-129252380D01*
X59709523Y-129204761D01*
X59661904Y-129157142D01*
G04 #@! TO.C,SW6*
X52416666Y-81454761D02*
X52559523Y-81502380D01*
X52797619Y-81502380D01*
X52892857Y-81454761D01*
X52940476Y-81407142D01*
X52988095Y-81311904D01*
X52988095Y-81216666D01*
X52940476Y-81121428D01*
X52892857Y-81073809D01*
X52797619Y-81026190D01*
X52607142Y-80978571D01*
X52511904Y-80930952D01*
X52464285Y-80883333D01*
X52416666Y-80788095D01*
X52416666Y-80692857D01*
X52464285Y-80597619D01*
X52511904Y-80550000D01*
X52607142Y-80502380D01*
X52845238Y-80502380D01*
X52988095Y-80550000D01*
X53321428Y-80502380D02*
X53559523Y-81502380D01*
X53750000Y-80788095D01*
X53940476Y-81502380D01*
X54178571Y-80502380D01*
X54988095Y-80502380D02*
X54797619Y-80502380D01*
X54702380Y-80550000D01*
X54654761Y-80597619D01*
X54559523Y-80740476D01*
X54511904Y-80930952D01*
X54511904Y-81311904D01*
X54559523Y-81407142D01*
X54607142Y-81454761D01*
X54702380Y-81502380D01*
X54892857Y-81502380D01*
X54988095Y-81454761D01*
X55035714Y-81407142D01*
X55083333Y-81311904D01*
X55083333Y-81073809D01*
X55035714Y-80978571D01*
X54988095Y-80930952D01*
X54892857Y-80883333D01*
X54702380Y-80883333D01*
X54607142Y-80930952D01*
X54559523Y-80978571D01*
X54511904Y-81073809D01*
G04 #@! TD*
M02*
