G04 #@! TF.GenerationSoftware,KiCad,Pcbnew,5.0.2-bee76a0~70~ubuntu18.04.1*
G04 #@! TF.CreationDate,2019-06-24T16:55:11+02:00*
G04 #@! TF.ProjectId,ArduHMIShield,41726475-484d-4495-9368-69656c642e6b,1.1*
G04 #@! TF.SameCoordinates,Original*
G04 #@! TF.FileFunction,Soldermask,Top*
G04 #@! TF.FilePolarity,Negative*
%FSLAX46Y46*%
G04 Gerber Fmt 4.6, Leading zero omitted, Abs format (unit mm)*
G04 Created by KiCad (PCBNEW 5.0.2-bee76a0~70~ubuntu18.04.1) date Mo 24 Jun 2019 16:55:11 CEST*
%MOMM*%
%LPD*%
G01*
G04 APERTURE LIST*
%ADD10C,0.100000*%
G04 APERTURE END LIST*
D10*
G36*
X69191394Y-125741192D02*
X69516698Y-125875937D01*
X69809468Y-126071560D01*
X70058440Y-126320532D01*
X70254063Y-126613302D01*
X70388808Y-126938606D01*
X70457500Y-127283945D01*
X70457500Y-127636055D01*
X70388808Y-127981394D01*
X70254063Y-128306698D01*
X70058440Y-128599468D01*
X69809468Y-128848440D01*
X69516698Y-129044063D01*
X69191394Y-129178808D01*
X68846055Y-129247500D01*
X68493945Y-129247500D01*
X68148606Y-129178808D01*
X67823302Y-129044063D01*
X67530532Y-128848440D01*
X67281560Y-128599468D01*
X67085937Y-128306698D01*
X66951192Y-127981394D01*
X66882500Y-127636055D01*
X66882500Y-127283945D01*
X66951192Y-126938606D01*
X67085937Y-126613302D01*
X67281560Y-126320532D01*
X67530532Y-126071560D01*
X67823302Y-125875937D01*
X68148606Y-125741192D01*
X68493945Y-125672500D01*
X68846055Y-125672500D01*
X69191394Y-125741192D01*
X69191394Y-125741192D01*
G37*
G36*
X100595770Y-126475372D02*
X100711689Y-126498429D01*
X100893678Y-126573811D01*
X101057463Y-126683249D01*
X101196751Y-126822537D01*
X101306189Y-126986322D01*
X101381571Y-127168311D01*
X101420000Y-127361509D01*
X101420000Y-127558491D01*
X101381571Y-127751689D01*
X101306189Y-127933678D01*
X101196751Y-128097463D01*
X101057463Y-128236751D01*
X100893678Y-128346189D01*
X100711689Y-128421571D01*
X100595770Y-128444628D01*
X100518493Y-128460000D01*
X100321507Y-128460000D01*
X100244230Y-128444628D01*
X100128311Y-128421571D01*
X99946322Y-128346189D01*
X99782537Y-128236751D01*
X99643249Y-128097463D01*
X99533811Y-127933678D01*
X99458429Y-127751689D01*
X99420000Y-127558491D01*
X99420000Y-127361509D01*
X99458429Y-127168311D01*
X99533811Y-126986322D01*
X99643249Y-126822537D01*
X99782537Y-126683249D01*
X99946322Y-126573811D01*
X100128311Y-126498429D01*
X100244230Y-126475372D01*
X100321507Y-126460000D01*
X100518493Y-126460000D01*
X100595770Y-126475372D01*
X100595770Y-126475372D01*
G37*
G36*
X105675770Y-126475372D02*
X105791689Y-126498429D01*
X105973678Y-126573811D01*
X106137463Y-126683249D01*
X106276751Y-126822537D01*
X106386189Y-126986322D01*
X106461571Y-127168311D01*
X106500000Y-127361509D01*
X106500000Y-127558491D01*
X106461571Y-127751689D01*
X106386189Y-127933678D01*
X106276751Y-128097463D01*
X106137463Y-128236751D01*
X105973678Y-128346189D01*
X105791689Y-128421571D01*
X105675770Y-128444628D01*
X105598493Y-128460000D01*
X105401507Y-128460000D01*
X105324230Y-128444628D01*
X105208311Y-128421571D01*
X105026322Y-128346189D01*
X104862537Y-128236751D01*
X104723249Y-128097463D01*
X104613811Y-127933678D01*
X104538429Y-127751689D01*
X104500000Y-127558491D01*
X104500000Y-127361509D01*
X104538429Y-127168311D01*
X104613811Y-126986322D01*
X104723249Y-126822537D01*
X104862537Y-126683249D01*
X105026322Y-126573811D01*
X105208311Y-126498429D01*
X105324230Y-126475372D01*
X105401507Y-126460000D01*
X105598493Y-126460000D01*
X105675770Y-126475372D01*
X105675770Y-126475372D01*
G37*
G36*
X108215770Y-126475372D02*
X108331689Y-126498429D01*
X108513678Y-126573811D01*
X108677463Y-126683249D01*
X108816751Y-126822537D01*
X108926189Y-126986322D01*
X109001571Y-127168311D01*
X109040000Y-127361509D01*
X109040000Y-127558491D01*
X109001571Y-127751689D01*
X108926189Y-127933678D01*
X108816751Y-128097463D01*
X108677463Y-128236751D01*
X108513678Y-128346189D01*
X108331689Y-128421571D01*
X108215770Y-128444628D01*
X108138493Y-128460000D01*
X107941507Y-128460000D01*
X107864230Y-128444628D01*
X107748311Y-128421571D01*
X107566322Y-128346189D01*
X107402537Y-128236751D01*
X107263249Y-128097463D01*
X107153811Y-127933678D01*
X107078429Y-127751689D01*
X107040000Y-127558491D01*
X107040000Y-127361509D01*
X107078429Y-127168311D01*
X107153811Y-126986322D01*
X107263249Y-126822537D01*
X107402537Y-126683249D01*
X107566322Y-126573811D01*
X107748311Y-126498429D01*
X107864230Y-126475372D01*
X107941507Y-126460000D01*
X108138493Y-126460000D01*
X108215770Y-126475372D01*
X108215770Y-126475372D01*
G37*
G36*
X110755770Y-126475372D02*
X110871689Y-126498429D01*
X111053678Y-126573811D01*
X111217463Y-126683249D01*
X111356751Y-126822537D01*
X111466189Y-126986322D01*
X111541571Y-127168311D01*
X111580000Y-127361509D01*
X111580000Y-127558491D01*
X111541571Y-127751689D01*
X111466189Y-127933678D01*
X111356751Y-128097463D01*
X111217463Y-128236751D01*
X111053678Y-128346189D01*
X110871689Y-128421571D01*
X110755770Y-128444628D01*
X110678493Y-128460000D01*
X110481507Y-128460000D01*
X110404230Y-128444628D01*
X110288311Y-128421571D01*
X110106322Y-128346189D01*
X109942537Y-128236751D01*
X109803249Y-128097463D01*
X109693811Y-127933678D01*
X109618429Y-127751689D01*
X109580000Y-127558491D01*
X109580000Y-127361509D01*
X109618429Y-127168311D01*
X109693811Y-126986322D01*
X109803249Y-126822537D01*
X109942537Y-126683249D01*
X110106322Y-126573811D01*
X110288311Y-126498429D01*
X110404230Y-126475372D01*
X110481507Y-126460000D01*
X110678493Y-126460000D01*
X110755770Y-126475372D01*
X110755770Y-126475372D01*
G37*
G36*
X113295770Y-126475372D02*
X113411689Y-126498429D01*
X113593678Y-126573811D01*
X113757463Y-126683249D01*
X113896751Y-126822537D01*
X114006189Y-126986322D01*
X114081571Y-127168311D01*
X114120000Y-127361509D01*
X114120000Y-127558491D01*
X114081571Y-127751689D01*
X114006189Y-127933678D01*
X113896751Y-128097463D01*
X113757463Y-128236751D01*
X113593678Y-128346189D01*
X113411689Y-128421571D01*
X113295770Y-128444628D01*
X113218493Y-128460000D01*
X113021507Y-128460000D01*
X112944230Y-128444628D01*
X112828311Y-128421571D01*
X112646322Y-128346189D01*
X112482537Y-128236751D01*
X112343249Y-128097463D01*
X112233811Y-127933678D01*
X112158429Y-127751689D01*
X112120000Y-127558491D01*
X112120000Y-127361509D01*
X112158429Y-127168311D01*
X112233811Y-126986322D01*
X112343249Y-126822537D01*
X112482537Y-126683249D01*
X112646322Y-126573811D01*
X112828311Y-126498429D01*
X112944230Y-126475372D01*
X113021507Y-126460000D01*
X113218493Y-126460000D01*
X113295770Y-126475372D01*
X113295770Y-126475372D01*
G37*
G36*
X115835770Y-126475372D02*
X115951689Y-126498429D01*
X116133678Y-126573811D01*
X116297463Y-126683249D01*
X116436751Y-126822537D01*
X116546189Y-126986322D01*
X116621571Y-127168311D01*
X116660000Y-127361509D01*
X116660000Y-127558491D01*
X116621571Y-127751689D01*
X116546189Y-127933678D01*
X116436751Y-128097463D01*
X116297463Y-128236751D01*
X116133678Y-128346189D01*
X115951689Y-128421571D01*
X115835770Y-128444628D01*
X115758493Y-128460000D01*
X115561507Y-128460000D01*
X115484230Y-128444628D01*
X115368311Y-128421571D01*
X115186322Y-128346189D01*
X115022537Y-128236751D01*
X114883249Y-128097463D01*
X114773811Y-127933678D01*
X114698429Y-127751689D01*
X114660000Y-127558491D01*
X114660000Y-127361509D01*
X114698429Y-127168311D01*
X114773811Y-126986322D01*
X114883249Y-126822537D01*
X115022537Y-126683249D01*
X115186322Y-126573811D01*
X115368311Y-126498429D01*
X115484230Y-126475372D01*
X115561507Y-126460000D01*
X115758493Y-126460000D01*
X115835770Y-126475372D01*
X115835770Y-126475372D01*
G37*
G36*
X82815770Y-126475372D02*
X82931689Y-126498429D01*
X83113678Y-126573811D01*
X83277463Y-126683249D01*
X83416751Y-126822537D01*
X83526189Y-126986322D01*
X83601571Y-127168311D01*
X83640000Y-127361509D01*
X83640000Y-127558491D01*
X83601571Y-127751689D01*
X83526189Y-127933678D01*
X83416751Y-128097463D01*
X83277463Y-128236751D01*
X83113678Y-128346189D01*
X82931689Y-128421571D01*
X82815770Y-128444628D01*
X82738493Y-128460000D01*
X82541507Y-128460000D01*
X82464230Y-128444628D01*
X82348311Y-128421571D01*
X82166322Y-128346189D01*
X82002537Y-128236751D01*
X81863249Y-128097463D01*
X81753811Y-127933678D01*
X81678429Y-127751689D01*
X81640000Y-127558491D01*
X81640000Y-127361509D01*
X81678429Y-127168311D01*
X81753811Y-126986322D01*
X81863249Y-126822537D01*
X82002537Y-126683249D01*
X82166322Y-126573811D01*
X82348311Y-126498429D01*
X82464230Y-126475372D01*
X82541507Y-126460000D01*
X82738493Y-126460000D01*
X82815770Y-126475372D01*
X82815770Y-126475372D01*
G37*
G36*
X87895770Y-126475372D02*
X88011689Y-126498429D01*
X88193678Y-126573811D01*
X88357463Y-126683249D01*
X88496751Y-126822537D01*
X88606189Y-126986322D01*
X88681571Y-127168311D01*
X88720000Y-127361509D01*
X88720000Y-127558491D01*
X88681571Y-127751689D01*
X88606189Y-127933678D01*
X88496751Y-128097463D01*
X88357463Y-128236751D01*
X88193678Y-128346189D01*
X88011689Y-128421571D01*
X87895770Y-128444628D01*
X87818493Y-128460000D01*
X87621507Y-128460000D01*
X87544230Y-128444628D01*
X87428311Y-128421571D01*
X87246322Y-128346189D01*
X87082537Y-128236751D01*
X86943249Y-128097463D01*
X86833811Y-127933678D01*
X86758429Y-127751689D01*
X86720000Y-127558491D01*
X86720000Y-127361509D01*
X86758429Y-127168311D01*
X86833811Y-126986322D01*
X86943249Y-126822537D01*
X87082537Y-126683249D01*
X87246322Y-126573811D01*
X87428311Y-126498429D01*
X87544230Y-126475372D01*
X87621507Y-126460000D01*
X87818493Y-126460000D01*
X87895770Y-126475372D01*
X87895770Y-126475372D01*
G37*
G36*
X90435770Y-126475372D02*
X90551689Y-126498429D01*
X90733678Y-126573811D01*
X90897463Y-126683249D01*
X91036751Y-126822537D01*
X91146189Y-126986322D01*
X91221571Y-127168311D01*
X91260000Y-127361509D01*
X91260000Y-127558491D01*
X91221571Y-127751689D01*
X91146189Y-127933678D01*
X91036751Y-128097463D01*
X90897463Y-128236751D01*
X90733678Y-128346189D01*
X90551689Y-128421571D01*
X90435770Y-128444628D01*
X90358493Y-128460000D01*
X90161507Y-128460000D01*
X90084230Y-128444628D01*
X89968311Y-128421571D01*
X89786322Y-128346189D01*
X89622537Y-128236751D01*
X89483249Y-128097463D01*
X89373811Y-127933678D01*
X89298429Y-127751689D01*
X89260000Y-127558491D01*
X89260000Y-127361509D01*
X89298429Y-127168311D01*
X89373811Y-126986322D01*
X89483249Y-126822537D01*
X89622537Y-126683249D01*
X89786322Y-126573811D01*
X89968311Y-126498429D01*
X90084230Y-126475372D01*
X90161507Y-126460000D01*
X90358493Y-126460000D01*
X90435770Y-126475372D01*
X90435770Y-126475372D01*
G37*
G36*
X92975770Y-126475372D02*
X93091689Y-126498429D01*
X93273678Y-126573811D01*
X93437463Y-126683249D01*
X93576751Y-126822537D01*
X93686189Y-126986322D01*
X93761571Y-127168311D01*
X93800000Y-127361509D01*
X93800000Y-127558491D01*
X93761571Y-127751689D01*
X93686189Y-127933678D01*
X93576751Y-128097463D01*
X93437463Y-128236751D01*
X93273678Y-128346189D01*
X93091689Y-128421571D01*
X92975770Y-128444628D01*
X92898493Y-128460000D01*
X92701507Y-128460000D01*
X92624230Y-128444628D01*
X92508311Y-128421571D01*
X92326322Y-128346189D01*
X92162537Y-128236751D01*
X92023249Y-128097463D01*
X91913811Y-127933678D01*
X91838429Y-127751689D01*
X91800000Y-127558491D01*
X91800000Y-127361509D01*
X91838429Y-127168311D01*
X91913811Y-126986322D01*
X92023249Y-126822537D01*
X92162537Y-126683249D01*
X92326322Y-126573811D01*
X92508311Y-126498429D01*
X92624230Y-126475372D01*
X92701507Y-126460000D01*
X92898493Y-126460000D01*
X92975770Y-126475372D01*
X92975770Y-126475372D01*
G37*
G36*
X95515770Y-126475372D02*
X95631689Y-126498429D01*
X95813678Y-126573811D01*
X95977463Y-126683249D01*
X96116751Y-126822537D01*
X96226189Y-126986322D01*
X96301571Y-127168311D01*
X96340000Y-127361509D01*
X96340000Y-127558491D01*
X96301571Y-127751689D01*
X96226189Y-127933678D01*
X96116751Y-128097463D01*
X95977463Y-128236751D01*
X95813678Y-128346189D01*
X95631689Y-128421571D01*
X95515770Y-128444628D01*
X95438493Y-128460000D01*
X95241507Y-128460000D01*
X95164230Y-128444628D01*
X95048311Y-128421571D01*
X94866322Y-128346189D01*
X94702537Y-128236751D01*
X94563249Y-128097463D01*
X94453811Y-127933678D01*
X94378429Y-127751689D01*
X94340000Y-127558491D01*
X94340000Y-127361509D01*
X94378429Y-127168311D01*
X94453811Y-126986322D01*
X94563249Y-126822537D01*
X94702537Y-126683249D01*
X94866322Y-126573811D01*
X95048311Y-126498429D01*
X95164230Y-126475372D01*
X95241507Y-126460000D01*
X95438493Y-126460000D01*
X95515770Y-126475372D01*
X95515770Y-126475372D01*
G37*
G36*
X98055770Y-126475372D02*
X98171689Y-126498429D01*
X98353678Y-126573811D01*
X98517463Y-126683249D01*
X98656751Y-126822537D01*
X98766189Y-126986322D01*
X98841571Y-127168311D01*
X98880000Y-127361509D01*
X98880000Y-127558491D01*
X98841571Y-127751689D01*
X98766189Y-127933678D01*
X98656751Y-128097463D01*
X98517463Y-128236751D01*
X98353678Y-128346189D01*
X98171689Y-128421571D01*
X98055770Y-128444628D01*
X97978493Y-128460000D01*
X97781507Y-128460000D01*
X97704230Y-128444628D01*
X97588311Y-128421571D01*
X97406322Y-128346189D01*
X97242537Y-128236751D01*
X97103249Y-128097463D01*
X96993811Y-127933678D01*
X96918429Y-127751689D01*
X96880000Y-127558491D01*
X96880000Y-127361509D01*
X96918429Y-127168311D01*
X96993811Y-126986322D01*
X97103249Y-126822537D01*
X97242537Y-126683249D01*
X97406322Y-126573811D01*
X97588311Y-126498429D01*
X97704230Y-126475372D01*
X97781507Y-126460000D01*
X97978493Y-126460000D01*
X98055770Y-126475372D01*
X98055770Y-126475372D01*
G37*
G36*
X118375770Y-126475372D02*
X118491689Y-126498429D01*
X118673678Y-126573811D01*
X118837463Y-126683249D01*
X118976751Y-126822537D01*
X119086189Y-126986322D01*
X119161571Y-127168311D01*
X119200000Y-127361509D01*
X119200000Y-127558491D01*
X119161571Y-127751689D01*
X119086189Y-127933678D01*
X118976751Y-128097463D01*
X118837463Y-128236751D01*
X118673678Y-128346189D01*
X118491689Y-128421571D01*
X118375770Y-128444628D01*
X118298493Y-128460000D01*
X118101507Y-128460000D01*
X118024230Y-128444628D01*
X117908311Y-128421571D01*
X117726322Y-128346189D01*
X117562537Y-128236751D01*
X117423249Y-128097463D01*
X117313811Y-127933678D01*
X117238429Y-127751689D01*
X117200000Y-127558491D01*
X117200000Y-127361509D01*
X117238429Y-127168311D01*
X117313811Y-126986322D01*
X117423249Y-126822537D01*
X117562537Y-126683249D01*
X117726322Y-126573811D01*
X117908311Y-126498429D01*
X118024230Y-126475372D01*
X118101507Y-126460000D01*
X118298493Y-126460000D01*
X118375770Y-126475372D01*
X118375770Y-126475372D01*
G37*
G36*
X85355770Y-126475372D02*
X85471689Y-126498429D01*
X85653678Y-126573811D01*
X85817463Y-126683249D01*
X85956751Y-126822537D01*
X86066189Y-126986322D01*
X86141571Y-127168311D01*
X86180000Y-127361509D01*
X86180000Y-127558491D01*
X86141571Y-127751689D01*
X86066189Y-127933678D01*
X85956751Y-128097463D01*
X85817463Y-128236751D01*
X85653678Y-128346189D01*
X85471689Y-128421571D01*
X85355770Y-128444628D01*
X85278493Y-128460000D01*
X85081507Y-128460000D01*
X85004230Y-128444628D01*
X84888311Y-128421571D01*
X84706322Y-128346189D01*
X84542537Y-128236751D01*
X84403249Y-128097463D01*
X84293811Y-127933678D01*
X84218429Y-127751689D01*
X84180000Y-127558491D01*
X84180000Y-127361509D01*
X84218429Y-127168311D01*
X84293811Y-126986322D01*
X84403249Y-126822537D01*
X84542537Y-126683249D01*
X84706322Y-126573811D01*
X84888311Y-126498429D01*
X85004230Y-126475372D01*
X85081507Y-126460000D01*
X85278493Y-126460000D01*
X85355770Y-126475372D01*
X85355770Y-126475372D01*
G37*
G36*
X52775012Y-127173057D02*
X52884207Y-127218287D01*
X52982481Y-127283952D01*
X53066048Y-127367519D01*
X53131713Y-127465793D01*
X53176943Y-127574988D01*
X53200000Y-127690904D01*
X53200000Y-127809096D01*
X53176943Y-127925012D01*
X53131713Y-128034207D01*
X53066048Y-128132481D01*
X52982481Y-128216048D01*
X52884207Y-128281713D01*
X52775012Y-128326943D01*
X52659096Y-128350000D01*
X52540904Y-128350000D01*
X52424988Y-128326943D01*
X52315793Y-128281713D01*
X52217519Y-128216048D01*
X52133952Y-128132481D01*
X52068287Y-128034207D01*
X52023057Y-127925012D01*
X52000000Y-127809096D01*
X52000000Y-127690904D01*
X52023057Y-127574988D01*
X52068287Y-127465793D01*
X52133952Y-127367519D01*
X52217519Y-127283952D01*
X52315793Y-127218287D01*
X52424988Y-127173057D01*
X52540904Y-127150000D01*
X52659096Y-127150000D01*
X52775012Y-127173057D01*
X52775012Y-127173057D01*
G37*
G36*
X63975000Y-128100000D02*
X62025000Y-128100000D01*
X62025000Y-126400000D01*
X63975000Y-126400000D01*
X63975000Y-128100000D01*
X63975000Y-128100000D01*
G37*
G36*
X55975000Y-128100000D02*
X54025000Y-128100000D01*
X54025000Y-126400000D01*
X55975000Y-126400000D01*
X55975000Y-128100000D01*
X55975000Y-128100000D01*
G37*
G36*
X66798780Y-126048080D02*
X65601220Y-126048080D01*
X65601220Y-124850520D01*
X66798780Y-124850520D01*
X66798780Y-126048080D01*
X66798780Y-126048080D01*
G37*
G36*
X73672521Y-124224586D02*
X73836309Y-124292429D01*
X73983720Y-124390926D01*
X74109074Y-124516280D01*
X74207571Y-124663691D01*
X74275414Y-124827479D01*
X74310000Y-125001356D01*
X74310000Y-125178644D01*
X74275414Y-125352521D01*
X74207571Y-125516309D01*
X74109074Y-125663720D01*
X73983720Y-125789074D01*
X73836309Y-125887571D01*
X73672521Y-125955414D01*
X73498644Y-125990000D01*
X73321356Y-125990000D01*
X73147479Y-125955414D01*
X72983691Y-125887571D01*
X72836280Y-125789074D01*
X72710926Y-125663720D01*
X72612429Y-125516309D01*
X72544586Y-125352521D01*
X72510000Y-125178644D01*
X72510000Y-125001356D01*
X72544586Y-124827479D01*
X72612429Y-124663691D01*
X72710926Y-124516280D01*
X72836280Y-124390926D01*
X72983691Y-124292429D01*
X73147479Y-124224586D01*
X73321356Y-124190000D01*
X73498644Y-124190000D01*
X73672521Y-124224586D01*
X73672521Y-124224586D01*
G37*
G36*
X119392521Y-124224586D02*
X119556309Y-124292429D01*
X119703720Y-124390926D01*
X119829074Y-124516280D01*
X119927571Y-124663691D01*
X119995414Y-124827479D01*
X120030000Y-125001356D01*
X120030000Y-125178644D01*
X119995414Y-125352521D01*
X119927571Y-125516309D01*
X119829074Y-125663720D01*
X119703720Y-125789074D01*
X119556309Y-125887571D01*
X119392521Y-125955414D01*
X119218644Y-125990000D01*
X119041356Y-125990000D01*
X118867479Y-125955414D01*
X118703691Y-125887571D01*
X118556280Y-125789074D01*
X118430926Y-125663720D01*
X118332429Y-125516309D01*
X118264586Y-125352521D01*
X118230000Y-125178644D01*
X118230000Y-125001356D01*
X118264586Y-124827479D01*
X118332429Y-124663691D01*
X118430926Y-124516280D01*
X118556280Y-124390926D01*
X118703691Y-124292429D01*
X118867479Y-124224586D01*
X119041356Y-124190000D01*
X119218644Y-124190000D01*
X119392521Y-124224586D01*
X119392521Y-124224586D01*
G37*
G36*
X76212521Y-124224586D02*
X76376309Y-124292429D01*
X76523720Y-124390926D01*
X76649074Y-124516280D01*
X76747571Y-124663691D01*
X76815414Y-124827479D01*
X76850000Y-125001356D01*
X76850000Y-125178644D01*
X76815414Y-125352521D01*
X76747571Y-125516309D01*
X76649074Y-125663720D01*
X76523720Y-125789074D01*
X76376309Y-125887571D01*
X76212521Y-125955414D01*
X76038644Y-125990000D01*
X75861356Y-125990000D01*
X75687479Y-125955414D01*
X75523691Y-125887571D01*
X75376280Y-125789074D01*
X75250926Y-125663720D01*
X75152429Y-125516309D01*
X75084586Y-125352521D01*
X75050000Y-125178644D01*
X75050000Y-125001356D01*
X75084586Y-124827479D01*
X75152429Y-124663691D01*
X75250926Y-124516280D01*
X75376280Y-124390926D01*
X75523691Y-124292429D01*
X75687479Y-124224586D01*
X75861356Y-124190000D01*
X76038644Y-124190000D01*
X76212521Y-124224586D01*
X76212521Y-124224586D01*
G37*
G36*
X116852521Y-124224586D02*
X117016309Y-124292429D01*
X117163720Y-124390926D01*
X117289074Y-124516280D01*
X117387571Y-124663691D01*
X117455414Y-124827479D01*
X117490000Y-125001356D01*
X117490000Y-125178644D01*
X117455414Y-125352521D01*
X117387571Y-125516309D01*
X117289074Y-125663720D01*
X117163720Y-125789074D01*
X117016309Y-125887571D01*
X116852521Y-125955414D01*
X116678644Y-125990000D01*
X116501356Y-125990000D01*
X116327479Y-125955414D01*
X116163691Y-125887571D01*
X116016280Y-125789074D01*
X115890926Y-125663720D01*
X115792429Y-125516309D01*
X115724586Y-125352521D01*
X115690000Y-125178644D01*
X115690000Y-125001356D01*
X115724586Y-124827479D01*
X115792429Y-124663691D01*
X115890926Y-124516280D01*
X116016280Y-124390926D01*
X116163691Y-124292429D01*
X116327479Y-124224586D01*
X116501356Y-124190000D01*
X116678644Y-124190000D01*
X116852521Y-124224586D01*
X116852521Y-124224586D01*
G37*
G36*
X71132521Y-124224586D02*
X71296309Y-124292429D01*
X71443720Y-124390926D01*
X71569074Y-124516280D01*
X71667571Y-124663691D01*
X71735414Y-124827479D01*
X71770000Y-125001356D01*
X71770000Y-125178644D01*
X71735414Y-125352521D01*
X71667571Y-125516309D01*
X71569074Y-125663720D01*
X71443720Y-125789074D01*
X71296309Y-125887571D01*
X71132521Y-125955414D01*
X70958644Y-125990000D01*
X70781356Y-125990000D01*
X70607479Y-125955414D01*
X70443691Y-125887571D01*
X70296280Y-125789074D01*
X70170926Y-125663720D01*
X70072429Y-125516309D01*
X70004586Y-125352521D01*
X69970000Y-125178644D01*
X69970000Y-125001356D01*
X70004586Y-124827479D01*
X70072429Y-124663691D01*
X70170926Y-124516280D01*
X70296280Y-124390926D01*
X70443691Y-124292429D01*
X70607479Y-124224586D01*
X70781356Y-124190000D01*
X70958644Y-124190000D01*
X71132521Y-124224586D01*
X71132521Y-124224586D01*
G37*
G36*
X114312521Y-124224586D02*
X114476309Y-124292429D01*
X114623720Y-124390926D01*
X114749074Y-124516280D01*
X114847571Y-124663691D01*
X114915414Y-124827479D01*
X114950000Y-125001356D01*
X114950000Y-125178644D01*
X114915414Y-125352521D01*
X114847571Y-125516309D01*
X114749074Y-125663720D01*
X114623720Y-125789074D01*
X114476309Y-125887571D01*
X114312521Y-125955414D01*
X114138644Y-125990000D01*
X113961356Y-125990000D01*
X113787479Y-125955414D01*
X113623691Y-125887571D01*
X113476280Y-125789074D01*
X113350926Y-125663720D01*
X113252429Y-125516309D01*
X113184586Y-125352521D01*
X113150000Y-125178644D01*
X113150000Y-125001356D01*
X113184586Y-124827479D01*
X113252429Y-124663691D01*
X113350926Y-124516280D01*
X113476280Y-124390926D01*
X113623691Y-124292429D01*
X113787479Y-124224586D01*
X113961356Y-124190000D01*
X114138644Y-124190000D01*
X114312521Y-124224586D01*
X114312521Y-124224586D01*
G37*
G36*
X112275012Y-123523057D02*
X112384207Y-123568287D01*
X112482481Y-123633952D01*
X112566048Y-123717519D01*
X112631713Y-123815793D01*
X112676943Y-123924988D01*
X112700000Y-124040904D01*
X112700000Y-124159096D01*
X112676943Y-124275012D01*
X112631713Y-124384207D01*
X112566048Y-124482481D01*
X112482481Y-124566048D01*
X112384207Y-124631713D01*
X112275012Y-124676943D01*
X112159096Y-124700000D01*
X112040904Y-124700000D01*
X111924988Y-124676943D01*
X111815793Y-124631713D01*
X111717519Y-124566048D01*
X111633952Y-124482481D01*
X111568287Y-124384207D01*
X111523057Y-124275012D01*
X111500000Y-124159096D01*
X111500000Y-124040904D01*
X111523057Y-123924988D01*
X111568287Y-123815793D01*
X111633952Y-123717519D01*
X111717519Y-123633952D01*
X111815793Y-123568287D01*
X111924988Y-123523057D01*
X112040904Y-123500000D01*
X112159096Y-123500000D01*
X112275012Y-123523057D01*
X112275012Y-123523057D01*
G37*
G36*
X66798780Y-124549480D02*
X65601220Y-124549480D01*
X65601220Y-123351920D01*
X66798780Y-123351920D01*
X66798780Y-124549480D01*
X66798780Y-124549480D01*
G37*
G36*
X83350000Y-123149885D02*
X83352402Y-123174271D01*
X83359515Y-123197720D01*
X83371066Y-123219331D01*
X83386612Y-123238273D01*
X83405554Y-123253819D01*
X83427165Y-123265370D01*
X83450614Y-123272483D01*
X83475000Y-123274885D01*
X83499386Y-123272483D01*
X83522833Y-123265371D01*
X83624986Y-123223058D01*
X83624987Y-123223058D01*
X83624989Y-123223057D01*
X83740904Y-123200000D01*
X83859096Y-123200000D01*
X83975012Y-123223057D01*
X84084207Y-123268287D01*
X84182481Y-123333952D01*
X84266048Y-123417519D01*
X84331713Y-123515793D01*
X84376943Y-123624988D01*
X84400000Y-123740904D01*
X84400000Y-123859096D01*
X84376943Y-123975012D01*
X84331713Y-124084207D01*
X84266048Y-124182481D01*
X84182481Y-124266048D01*
X84084207Y-124331713D01*
X83975012Y-124376943D01*
X83859096Y-124400000D01*
X83740904Y-124400000D01*
X83624988Y-124376943D01*
X83515793Y-124331713D01*
X83417519Y-124266048D01*
X83333952Y-124182481D01*
X83268287Y-124084207D01*
X83223057Y-123975012D01*
X83200000Y-123859096D01*
X83200000Y-123740904D01*
X83223057Y-123624988D01*
X83233407Y-123600000D01*
X83268287Y-123515793D01*
X83282550Y-123494447D01*
X83294102Y-123472836D01*
X83301215Y-123449387D01*
X83303617Y-123425001D01*
X83301215Y-123400614D01*
X83294102Y-123377165D01*
X83282551Y-123355554D01*
X83267006Y-123336612D01*
X83248064Y-123321067D01*
X83226453Y-123309515D01*
X83203004Y-123302402D01*
X83178617Y-123300000D01*
X82050000Y-123300000D01*
X82050000Y-122400000D01*
X83350000Y-122400000D01*
X83350000Y-123149885D01*
X83350000Y-123149885D01*
G37*
G36*
X121261394Y-120661192D02*
X121586698Y-120795937D01*
X121879468Y-120991560D01*
X122128440Y-121240532D01*
X122324063Y-121533302D01*
X122458808Y-121858606D01*
X122527500Y-122203945D01*
X122527500Y-122556055D01*
X122458808Y-122901394D01*
X122324063Y-123226698D01*
X122128440Y-123519468D01*
X121879468Y-123768440D01*
X121586698Y-123964063D01*
X121261394Y-124098808D01*
X120916055Y-124167500D01*
X120563945Y-124167500D01*
X120218606Y-124098808D01*
X119893302Y-123964063D01*
X119600532Y-123768440D01*
X119351560Y-123519468D01*
X119155937Y-123226698D01*
X119021192Y-122901394D01*
X118952500Y-122556055D01*
X118952500Y-122203945D01*
X119021192Y-121858606D01*
X119155937Y-121533302D01*
X119351560Y-121240532D01*
X119600532Y-120991560D01*
X119893302Y-120795937D01*
X120218606Y-120661192D01*
X120563945Y-120592500D01*
X120916055Y-120592500D01*
X121261394Y-120661192D01*
X121261394Y-120661192D01*
G37*
G36*
X63975000Y-123600000D02*
X62025000Y-123600000D01*
X62025000Y-121900000D01*
X63975000Y-121900000D01*
X63975000Y-123600000D01*
X63975000Y-123600000D01*
G37*
G36*
X55975000Y-123600000D02*
X54025000Y-123600000D01*
X54025000Y-121900000D01*
X55975000Y-121900000D01*
X55975000Y-123600000D01*
X55975000Y-123600000D01*
G37*
G36*
X71132521Y-121684586D02*
X71296309Y-121752429D01*
X71443720Y-121850926D01*
X71569074Y-121976280D01*
X71667571Y-122123691D01*
X71735414Y-122287479D01*
X71770000Y-122461356D01*
X71770000Y-122638644D01*
X71735414Y-122812521D01*
X71667571Y-122976309D01*
X71569074Y-123123720D01*
X71443720Y-123249074D01*
X71296309Y-123347571D01*
X71132521Y-123415414D01*
X70958644Y-123450000D01*
X70781356Y-123450000D01*
X70607479Y-123415414D01*
X70443691Y-123347571D01*
X70296280Y-123249074D01*
X70170926Y-123123720D01*
X70072429Y-122976309D01*
X70004586Y-122812521D01*
X69970000Y-122638644D01*
X69970000Y-122461356D01*
X70004586Y-122287479D01*
X70072429Y-122123691D01*
X70170926Y-121976280D01*
X70296280Y-121850926D01*
X70443691Y-121752429D01*
X70607479Y-121684586D01*
X70781356Y-121650000D01*
X70958644Y-121650000D01*
X71132521Y-121684586D01*
X71132521Y-121684586D01*
G37*
G36*
X73672521Y-121684586D02*
X73836309Y-121752429D01*
X73983720Y-121850926D01*
X74109074Y-121976280D01*
X74207571Y-122123691D01*
X74275414Y-122287479D01*
X74310000Y-122461356D01*
X74310000Y-122638644D01*
X74275414Y-122812521D01*
X74207571Y-122976309D01*
X74109074Y-123123720D01*
X73983720Y-123249074D01*
X73836309Y-123347571D01*
X73672521Y-123415414D01*
X73498644Y-123450000D01*
X73321356Y-123450000D01*
X73147479Y-123415414D01*
X72983691Y-123347571D01*
X72836280Y-123249074D01*
X72710926Y-123123720D01*
X72612429Y-122976309D01*
X72544586Y-122812521D01*
X72510000Y-122638644D01*
X72510000Y-122461356D01*
X72544586Y-122287479D01*
X72612429Y-122123691D01*
X72710926Y-121976280D01*
X72836280Y-121850926D01*
X72983691Y-121752429D01*
X73147479Y-121684586D01*
X73321356Y-121650000D01*
X73498644Y-121650000D01*
X73672521Y-121684586D01*
X73672521Y-121684586D01*
G37*
G36*
X104152521Y-121684586D02*
X104316309Y-121752429D01*
X104463720Y-121850926D01*
X104589074Y-121976280D01*
X104687571Y-122123691D01*
X104755414Y-122287479D01*
X104790000Y-122461356D01*
X104790000Y-122638644D01*
X104755414Y-122812521D01*
X104687571Y-122976309D01*
X104589074Y-123123720D01*
X104463720Y-123249074D01*
X104316309Y-123347571D01*
X104152521Y-123415414D01*
X103978644Y-123450000D01*
X103801356Y-123450000D01*
X103627479Y-123415414D01*
X103463691Y-123347571D01*
X103316280Y-123249074D01*
X103190926Y-123123720D01*
X103092429Y-122976309D01*
X103024586Y-122812521D01*
X102990000Y-122638644D01*
X102990000Y-122461356D01*
X103024586Y-122287479D01*
X103092429Y-122123691D01*
X103190926Y-121976280D01*
X103316280Y-121850926D01*
X103463691Y-121752429D01*
X103627479Y-121684586D01*
X103801356Y-121650000D01*
X103978644Y-121650000D01*
X104152521Y-121684586D01*
X104152521Y-121684586D01*
G37*
G36*
X101612521Y-121684586D02*
X101776309Y-121752429D01*
X101923720Y-121850926D01*
X102049074Y-121976280D01*
X102147571Y-122123691D01*
X102215414Y-122287479D01*
X102250000Y-122461356D01*
X102250000Y-122638644D01*
X102215414Y-122812521D01*
X102147571Y-122976309D01*
X102049074Y-123123720D01*
X101923720Y-123249074D01*
X101776309Y-123347571D01*
X101612521Y-123415414D01*
X101438644Y-123450000D01*
X101261356Y-123450000D01*
X101087479Y-123415414D01*
X100923691Y-123347571D01*
X100776280Y-123249074D01*
X100650926Y-123123720D01*
X100552429Y-122976309D01*
X100484586Y-122812521D01*
X100450000Y-122638644D01*
X100450000Y-122461356D01*
X100484586Y-122287479D01*
X100552429Y-122123691D01*
X100650926Y-121976280D01*
X100776280Y-121850926D01*
X100923691Y-121752429D01*
X101087479Y-121684586D01*
X101261356Y-121650000D01*
X101438644Y-121650000D01*
X101612521Y-121684586D01*
X101612521Y-121684586D01*
G37*
G36*
X86775012Y-122023057D02*
X86884207Y-122068287D01*
X86982481Y-122133952D01*
X87066048Y-122217519D01*
X87131713Y-122315793D01*
X87176943Y-122424988D01*
X87200000Y-122540904D01*
X87200000Y-122659096D01*
X87176943Y-122775012D01*
X87131713Y-122884207D01*
X87066048Y-122982481D01*
X86982481Y-123066048D01*
X86884207Y-123131713D01*
X86775012Y-123176943D01*
X86659096Y-123200000D01*
X86540904Y-123200000D01*
X86424988Y-123176943D01*
X86315793Y-123131713D01*
X86217519Y-123066048D01*
X86133952Y-122982481D01*
X86068287Y-122884207D01*
X86023057Y-122775012D01*
X86000000Y-122659096D01*
X86000000Y-122540904D01*
X86023057Y-122424988D01*
X86068287Y-122315793D01*
X86133952Y-122217519D01*
X86217519Y-122133952D01*
X86315793Y-122068287D01*
X86424988Y-122023057D01*
X86540904Y-122000000D01*
X86659096Y-122000000D01*
X86775012Y-122023057D01*
X86775012Y-122023057D01*
G37*
G36*
X111375012Y-121423057D02*
X111484207Y-121468287D01*
X111582481Y-121533952D01*
X111666048Y-121617519D01*
X111731713Y-121715793D01*
X111776943Y-121824988D01*
X111800000Y-121940904D01*
X111800000Y-122059096D01*
X111776943Y-122175012D01*
X111731713Y-122284207D01*
X111666048Y-122382481D01*
X111582481Y-122466048D01*
X111484207Y-122531713D01*
X111375012Y-122576943D01*
X111259096Y-122600000D01*
X111140904Y-122600000D01*
X111024988Y-122576943D01*
X110915793Y-122531713D01*
X110817519Y-122466048D01*
X110733952Y-122382481D01*
X110668287Y-122284207D01*
X110623057Y-122175012D01*
X110600000Y-122059096D01*
X110600000Y-121975050D01*
X110597598Y-121950664D01*
X110590485Y-121927215D01*
X110578934Y-121905604D01*
X110563388Y-121886662D01*
X110544446Y-121871116D01*
X110526578Y-121861566D01*
X110548676Y-121859389D01*
X110572125Y-121852276D01*
X110593736Y-121840725D01*
X110612678Y-121825179D01*
X110628224Y-121806237D01*
X110639775Y-121784627D01*
X110668287Y-121715793D01*
X110733952Y-121617519D01*
X110817519Y-121533952D01*
X110915793Y-121468287D01*
X111024988Y-121423057D01*
X111140904Y-121400000D01*
X111259096Y-121400000D01*
X111375012Y-121423057D01*
X111375012Y-121423057D01*
G37*
G36*
X66850000Y-122500000D02*
X65550000Y-122500000D01*
X65550000Y-121600000D01*
X66850000Y-121600000D01*
X66850000Y-122500000D01*
X66850000Y-122500000D01*
G37*
G36*
X114650000Y-122300000D02*
X113350000Y-122300000D01*
X113350000Y-121400000D01*
X114650000Y-121400000D01*
X114650000Y-122300000D01*
X114650000Y-122300000D01*
G37*
G36*
X118250000Y-122250000D02*
X116950000Y-122250000D01*
X116950000Y-121350000D01*
X118250000Y-121350000D01*
X118250000Y-122250000D01*
X118250000Y-122250000D01*
G37*
G36*
X116450000Y-122250000D02*
X115150000Y-122250000D01*
X115150000Y-121350000D01*
X116450000Y-121350000D01*
X116450000Y-122250000D01*
X116450000Y-122250000D01*
G37*
G36*
X110399290Y-121736791D02*
X110401692Y-121761177D01*
X110408805Y-121784626D01*
X110420356Y-121806237D01*
X110435902Y-121825179D01*
X110454844Y-121840725D01*
X110472290Y-121850050D01*
X109199190Y-121850050D01*
X109199190Y-120649950D01*
X110399290Y-120649950D01*
X110399290Y-121736791D01*
X110399290Y-121736791D01*
G37*
G36*
X83350000Y-121800000D02*
X82050000Y-121800000D01*
X82050000Y-120900000D01*
X83350000Y-120900000D01*
X83350000Y-121800000D01*
X83350000Y-121800000D01*
G37*
G36*
X108450000Y-121600000D02*
X107150000Y-121600000D01*
X107150000Y-120700000D01*
X108450000Y-120700000D01*
X108450000Y-121600000D01*
X108450000Y-121600000D01*
G37*
G36*
X66850000Y-121000000D02*
X65550000Y-121000000D01*
X65550000Y-120100000D01*
X66850000Y-120100000D01*
X66850000Y-121000000D01*
X66850000Y-121000000D01*
G37*
G36*
X112398270Y-120900050D02*
X111198170Y-120900050D01*
X111198170Y-119699950D01*
X112398270Y-119699950D01*
X112398270Y-120900050D01*
X112398270Y-120900050D01*
G37*
G36*
X114650000Y-120800000D02*
X113350000Y-120800000D01*
X113350000Y-119900000D01*
X114650000Y-119900000D01*
X114650000Y-120800000D01*
X114650000Y-120800000D01*
G37*
G36*
X116450000Y-120750000D02*
X115150000Y-120750000D01*
X115150000Y-119850000D01*
X116450000Y-119850000D01*
X116450000Y-120750000D01*
X116450000Y-120750000D01*
G37*
G36*
X118250000Y-120750000D02*
X116950000Y-120750000D01*
X116950000Y-119850000D01*
X118250000Y-119850000D01*
X118250000Y-120750000D01*
X118250000Y-120750000D01*
G37*
G36*
X108450000Y-120100000D02*
X107150000Y-120100000D01*
X107150000Y-119200000D01*
X108450000Y-119200000D01*
X108450000Y-120100000D01*
X108450000Y-120100000D01*
G37*
G36*
X79875012Y-118923057D02*
X79984207Y-118968287D01*
X80082481Y-119033952D01*
X80166048Y-119117519D01*
X80231713Y-119215793D01*
X80276943Y-119324988D01*
X80300000Y-119440904D01*
X80300000Y-119559096D01*
X80276943Y-119675012D01*
X80231713Y-119784207D01*
X80166048Y-119882481D01*
X80082481Y-119966048D01*
X79984207Y-120031713D01*
X79875012Y-120076943D01*
X79759096Y-120100000D01*
X79640904Y-120100000D01*
X79524988Y-120076943D01*
X79415793Y-120031713D01*
X79317519Y-119966048D01*
X79233952Y-119882481D01*
X79168287Y-119784207D01*
X79123057Y-119675012D01*
X79100000Y-119559096D01*
X79100000Y-119440904D01*
X79123057Y-119324988D01*
X79168287Y-119215793D01*
X79233952Y-119117519D01*
X79317519Y-119033952D01*
X79415793Y-118968287D01*
X79524988Y-118923057D01*
X79640904Y-118900000D01*
X79759096Y-118900000D01*
X79875012Y-118923057D01*
X79875012Y-118923057D01*
G37*
G36*
X110399290Y-119950050D02*
X109199190Y-119950050D01*
X109199190Y-118749950D01*
X110399290Y-118749950D01*
X110399290Y-119950050D01*
X110399290Y-119950050D01*
G37*
G36*
X88875012Y-118123057D02*
X88984207Y-118168287D01*
X89082481Y-118233952D01*
X89166048Y-118317519D01*
X89231713Y-118415793D01*
X89276943Y-118524988D01*
X89300000Y-118640904D01*
X89300000Y-118759096D01*
X89276943Y-118875012D01*
X89231713Y-118984207D01*
X89166048Y-119082481D01*
X89082481Y-119166048D01*
X88984207Y-119231713D01*
X88875012Y-119276943D01*
X88759096Y-119300000D01*
X88640904Y-119300000D01*
X88524988Y-119276943D01*
X88415793Y-119231713D01*
X88317519Y-119166048D01*
X88233952Y-119082481D01*
X88168287Y-118984207D01*
X88123057Y-118875012D01*
X88100000Y-118759096D01*
X88100000Y-118640904D01*
X88123057Y-118524988D01*
X88168287Y-118415793D01*
X88233952Y-118317519D01*
X88317519Y-118233952D01*
X88415793Y-118168287D01*
X88524988Y-118123057D01*
X88640904Y-118100000D01*
X88759096Y-118100000D01*
X88875012Y-118123057D01*
X88875012Y-118123057D01*
G37*
G36*
X54000000Y-119250000D02*
X53100000Y-119250000D01*
X53100000Y-117950000D01*
X54000000Y-117950000D01*
X54000000Y-119250000D01*
X54000000Y-119250000D01*
G37*
G36*
X55500000Y-119250000D02*
X54600000Y-119250000D01*
X54600000Y-117950000D01*
X55500000Y-117950000D01*
X55500000Y-119250000D01*
X55500000Y-119250000D01*
G37*
G36*
X55500000Y-117050000D02*
X54600000Y-117050000D01*
X54600000Y-115750000D01*
X55500000Y-115750000D01*
X55500000Y-117050000D01*
X55500000Y-117050000D01*
G37*
G36*
X54000000Y-117050000D02*
X53100000Y-117050000D01*
X53100000Y-115750000D01*
X54000000Y-115750000D01*
X54000000Y-117050000D01*
X54000000Y-117050000D01*
G37*
G36*
X55975000Y-113100000D02*
X54025000Y-113100000D01*
X54025000Y-111400000D01*
X55975000Y-111400000D01*
X55975000Y-113100000D01*
X55975000Y-113100000D01*
G37*
G36*
X63975000Y-113100000D02*
X62025000Y-113100000D01*
X62025000Y-111400000D01*
X63975000Y-111400000D01*
X63975000Y-113100000D01*
X63975000Y-113100000D01*
G37*
G36*
X119392521Y-108984586D02*
X119556309Y-109052429D01*
X119703720Y-109150926D01*
X119829074Y-109276280D01*
X119927571Y-109423691D01*
X119995414Y-109587479D01*
X120030000Y-109761356D01*
X120030000Y-109938644D01*
X119995414Y-110112521D01*
X119927571Y-110276309D01*
X119829074Y-110423720D01*
X119703720Y-110549074D01*
X119556309Y-110647571D01*
X119392521Y-110715414D01*
X119218644Y-110750000D01*
X119041356Y-110750000D01*
X118867479Y-110715414D01*
X118703691Y-110647571D01*
X118556280Y-110549074D01*
X118430926Y-110423720D01*
X118332429Y-110276309D01*
X118264586Y-110112521D01*
X118230000Y-109938644D01*
X118230000Y-109761356D01*
X118264586Y-109587479D01*
X118332429Y-109423691D01*
X118430926Y-109276280D01*
X118556280Y-109150926D01*
X118703691Y-109052429D01*
X118867479Y-108984586D01*
X119041356Y-108950000D01*
X119218644Y-108950000D01*
X119392521Y-108984586D01*
X119392521Y-108984586D01*
G37*
G36*
X73672521Y-108984586D02*
X73836309Y-109052429D01*
X73983720Y-109150926D01*
X74109074Y-109276280D01*
X74207571Y-109423691D01*
X74275414Y-109587479D01*
X74310000Y-109761356D01*
X74310000Y-109938644D01*
X74275414Y-110112521D01*
X74207571Y-110276309D01*
X74109074Y-110423720D01*
X73983720Y-110549074D01*
X73836309Y-110647571D01*
X73672521Y-110715414D01*
X73498644Y-110750000D01*
X73321356Y-110750000D01*
X73147479Y-110715414D01*
X72983691Y-110647571D01*
X72836280Y-110549074D01*
X72710926Y-110423720D01*
X72612429Y-110276309D01*
X72544586Y-110112521D01*
X72510000Y-109938644D01*
X72510000Y-109761356D01*
X72544586Y-109587479D01*
X72612429Y-109423691D01*
X72710926Y-109276280D01*
X72836280Y-109150926D01*
X72983691Y-109052429D01*
X73147479Y-108984586D01*
X73321356Y-108950000D01*
X73498644Y-108950000D01*
X73672521Y-108984586D01*
X73672521Y-108984586D01*
G37*
G36*
X71132521Y-108984586D02*
X71296309Y-109052429D01*
X71443720Y-109150926D01*
X71569074Y-109276280D01*
X71667571Y-109423691D01*
X71735414Y-109587479D01*
X71770000Y-109761356D01*
X71770000Y-109938644D01*
X71735414Y-110112521D01*
X71667571Y-110276309D01*
X71569074Y-110423720D01*
X71443720Y-110549074D01*
X71296309Y-110647571D01*
X71132521Y-110715414D01*
X70958644Y-110750000D01*
X70781356Y-110750000D01*
X70607479Y-110715414D01*
X70443691Y-110647571D01*
X70296280Y-110549074D01*
X70170926Y-110423720D01*
X70072429Y-110276309D01*
X70004586Y-110112521D01*
X69970000Y-109938644D01*
X69970000Y-109761356D01*
X70004586Y-109587479D01*
X70072429Y-109423691D01*
X70170926Y-109276280D01*
X70296280Y-109150926D01*
X70443691Y-109052429D01*
X70607479Y-108984586D01*
X70781356Y-108950000D01*
X70958644Y-108950000D01*
X71132521Y-108984586D01*
X71132521Y-108984586D01*
G37*
G36*
X116852521Y-108984586D02*
X117016309Y-109052429D01*
X117163720Y-109150926D01*
X117289074Y-109276280D01*
X117387571Y-109423691D01*
X117455414Y-109587479D01*
X117490000Y-109761356D01*
X117490000Y-109938644D01*
X117455414Y-110112521D01*
X117387571Y-110276309D01*
X117289074Y-110423720D01*
X117163720Y-110549074D01*
X117016309Y-110647571D01*
X116852521Y-110715414D01*
X116678644Y-110750000D01*
X116501356Y-110750000D01*
X116327479Y-110715414D01*
X116163691Y-110647571D01*
X116016280Y-110549074D01*
X115890926Y-110423720D01*
X115792429Y-110276309D01*
X115724586Y-110112521D01*
X115690000Y-109938644D01*
X115690000Y-109761356D01*
X115724586Y-109587479D01*
X115792429Y-109423691D01*
X115890926Y-109276280D01*
X116016280Y-109150926D01*
X116163691Y-109052429D01*
X116327479Y-108984586D01*
X116501356Y-108950000D01*
X116678644Y-108950000D01*
X116852521Y-108984586D01*
X116852521Y-108984586D01*
G37*
G36*
X112150000Y-108675000D02*
X110950000Y-108675000D01*
X110950000Y-107525000D01*
X112150000Y-107525000D01*
X112150000Y-108675000D01*
X112150000Y-108675000D01*
G37*
G36*
X113650000Y-108675000D02*
X112450000Y-108675000D01*
X112450000Y-107525000D01*
X113650000Y-107525000D01*
X113650000Y-108675000D01*
X113650000Y-108675000D01*
G37*
G36*
X63975000Y-108600000D02*
X62025000Y-108600000D01*
X62025000Y-106900000D01*
X63975000Y-106900000D01*
X63975000Y-108600000D01*
X63975000Y-108600000D01*
G37*
G36*
X55975000Y-108600000D02*
X54025000Y-108600000D01*
X54025000Y-106900000D01*
X55975000Y-106900000D01*
X55975000Y-108600000D01*
X55975000Y-108600000D01*
G37*
G36*
X69375012Y-105823057D02*
X69484207Y-105868287D01*
X69582481Y-105933952D01*
X69666048Y-106017519D01*
X69731713Y-106115793D01*
X69776943Y-106224988D01*
X69800000Y-106340904D01*
X69800000Y-106459096D01*
X69776943Y-106575012D01*
X69731713Y-106684207D01*
X69666048Y-106782481D01*
X69582481Y-106866048D01*
X69484207Y-106931713D01*
X69375012Y-106976943D01*
X69259096Y-107000000D01*
X69140904Y-107000000D01*
X69024988Y-106976943D01*
X68915793Y-106931713D01*
X68817519Y-106866048D01*
X68733952Y-106782481D01*
X68668287Y-106684207D01*
X68623057Y-106575012D01*
X68600000Y-106459096D01*
X68600000Y-106340904D01*
X68623057Y-106224988D01*
X68668287Y-106115793D01*
X68733952Y-106017519D01*
X68817519Y-105933952D01*
X68915793Y-105868287D01*
X69024988Y-105823057D01*
X69140904Y-105800000D01*
X69259096Y-105800000D01*
X69375012Y-105823057D01*
X69375012Y-105823057D01*
G37*
G36*
X113650000Y-106975000D02*
X112450000Y-106975000D01*
X112450000Y-105825000D01*
X113650000Y-105825000D01*
X113650000Y-106975000D01*
X113650000Y-106975000D01*
G37*
G36*
X112150000Y-106975000D02*
X110950000Y-106975000D01*
X110950000Y-105825000D01*
X112150000Y-105825000D01*
X112150000Y-106975000D01*
X112150000Y-106975000D01*
G37*
G36*
X55075012Y-105073057D02*
X55184207Y-105118287D01*
X55282481Y-105183952D01*
X55366048Y-105267519D01*
X55431713Y-105365793D01*
X55476943Y-105474988D01*
X55500000Y-105590904D01*
X55500000Y-105709096D01*
X55476943Y-105825012D01*
X55431713Y-105934207D01*
X55366048Y-106032481D01*
X55282481Y-106116048D01*
X55184207Y-106181713D01*
X55075012Y-106226943D01*
X54959096Y-106250000D01*
X54840904Y-106250000D01*
X54724988Y-106226943D01*
X54615793Y-106181713D01*
X54517519Y-106116048D01*
X54433952Y-106032481D01*
X54368287Y-105934207D01*
X54323057Y-105825012D01*
X54300000Y-105709096D01*
X54300000Y-105590904D01*
X54323057Y-105474988D01*
X54368287Y-105365793D01*
X54433952Y-105267519D01*
X54517519Y-105183952D01*
X54615793Y-105118287D01*
X54724988Y-105073057D01*
X54840904Y-105050000D01*
X54959096Y-105050000D01*
X55075012Y-105073057D01*
X55075012Y-105073057D01*
G37*
G36*
X108975012Y-104523057D02*
X109084207Y-104568287D01*
X109182481Y-104633952D01*
X109266048Y-104717519D01*
X109331713Y-104815793D01*
X109376943Y-104924988D01*
X109400000Y-105040904D01*
X109400000Y-105159096D01*
X109376943Y-105275012D01*
X109331713Y-105384207D01*
X109266048Y-105482481D01*
X109182481Y-105566048D01*
X109084207Y-105631713D01*
X108975012Y-105676943D01*
X108859096Y-105700000D01*
X108740904Y-105700000D01*
X108624988Y-105676943D01*
X108515793Y-105631713D01*
X108417519Y-105566048D01*
X108333952Y-105482481D01*
X108268287Y-105384207D01*
X108223057Y-105275012D01*
X108200000Y-105159096D01*
X108200000Y-105040904D01*
X108223057Y-104924988D01*
X108268287Y-104815793D01*
X108333952Y-104717519D01*
X108417519Y-104633952D01*
X108515793Y-104568287D01*
X108624988Y-104523057D01*
X108740904Y-104500000D01*
X108859096Y-104500000D01*
X108975012Y-104523057D01*
X108975012Y-104523057D01*
G37*
G36*
X116294000Y-105018000D02*
X114878000Y-105018000D01*
X114878000Y-102586000D01*
X116294000Y-102586000D01*
X116294000Y-105018000D01*
X116294000Y-105018000D01*
G37*
G36*
X114008000Y-105018000D02*
X112592000Y-105018000D01*
X112592000Y-102586000D01*
X114008000Y-102586000D01*
X114008000Y-105018000D01*
X114008000Y-105018000D01*
G37*
G36*
X111722000Y-105018000D02*
X110306000Y-105018000D01*
X110306000Y-102586000D01*
X111722000Y-102586000D01*
X111722000Y-105018000D01*
X111722000Y-105018000D01*
G37*
G36*
X58100000Y-104975000D02*
X56400000Y-104975000D01*
X56400000Y-103025000D01*
X58100000Y-103025000D01*
X58100000Y-104975000D01*
X58100000Y-104975000D01*
G37*
G36*
X66100000Y-104975000D02*
X64400000Y-104975000D01*
X64400000Y-103025000D01*
X66100000Y-103025000D01*
X66100000Y-104975000D01*
X66100000Y-104975000D01*
G37*
G36*
X61600000Y-104975000D02*
X59900000Y-104975000D01*
X59900000Y-103025000D01*
X61600000Y-103025000D01*
X61600000Y-104975000D01*
X61600000Y-104975000D01*
G37*
G36*
X53600000Y-104975000D02*
X51900000Y-104975000D01*
X51900000Y-103025000D01*
X53600000Y-103025000D01*
X53600000Y-104975000D01*
X53600000Y-104975000D01*
G37*
G36*
X72275012Y-102923057D02*
X72384207Y-102968287D01*
X72482481Y-103033952D01*
X72566048Y-103117519D01*
X72631713Y-103215793D01*
X72676943Y-103324988D01*
X72700000Y-103440904D01*
X72700000Y-103559096D01*
X72676943Y-103675012D01*
X72631713Y-103784207D01*
X72566048Y-103882481D01*
X72482481Y-103966048D01*
X72384207Y-104031713D01*
X72275012Y-104076943D01*
X72159096Y-104100000D01*
X72040904Y-104100000D01*
X71924988Y-104076943D01*
X71815793Y-104031713D01*
X71717519Y-103966048D01*
X71633952Y-103882481D01*
X71568287Y-103784207D01*
X71523057Y-103675012D01*
X71500000Y-103559096D01*
X71500000Y-103440904D01*
X71523057Y-103324988D01*
X71568287Y-103215793D01*
X71633952Y-103117519D01*
X71717519Y-103033952D01*
X71815793Y-102968287D01*
X71924988Y-102923057D01*
X72040904Y-102900000D01*
X72159096Y-102900000D01*
X72275012Y-102923057D01*
X72275012Y-102923057D01*
G37*
G36*
X82725012Y-102123057D02*
X82834207Y-102168287D01*
X82932481Y-102233952D01*
X83016048Y-102317519D01*
X83081713Y-102415793D01*
X83126943Y-102524988D01*
X83150000Y-102640904D01*
X83150000Y-102759096D01*
X83126943Y-102875012D01*
X83081713Y-102984207D01*
X83016048Y-103082481D01*
X82932481Y-103166048D01*
X82834207Y-103231713D01*
X82725012Y-103276943D01*
X82609096Y-103300000D01*
X82490904Y-103300000D01*
X82374988Y-103276943D01*
X82265793Y-103231713D01*
X82167519Y-103166048D01*
X82083952Y-103082481D01*
X82018287Y-102984207D01*
X81973057Y-102875012D01*
X81950000Y-102759096D01*
X81950000Y-102640904D01*
X81973057Y-102524988D01*
X82018287Y-102415793D01*
X82083952Y-102317519D01*
X82167519Y-102233952D01*
X82265793Y-102168287D01*
X82374988Y-102123057D01*
X82490904Y-102100000D01*
X82609096Y-102100000D01*
X82725012Y-102123057D01*
X82725012Y-102123057D01*
G37*
G36*
X79450000Y-103050000D02*
X78550000Y-103050000D01*
X78550000Y-101750000D01*
X79450000Y-101750000D01*
X79450000Y-103050000D01*
X79450000Y-103050000D01*
G37*
G36*
X80950000Y-103050000D02*
X80050000Y-103050000D01*
X80050000Y-101750000D01*
X80950000Y-101750000D01*
X80950000Y-103050000D01*
X80950000Y-103050000D01*
G37*
G36*
X74525000Y-98725000D02*
X74197092Y-98725000D01*
X74172706Y-98727402D01*
X74149257Y-98734515D01*
X74127646Y-98746066D01*
X74108704Y-98761612D01*
X74093158Y-98780554D01*
X74081607Y-98802165D01*
X74074494Y-98825614D01*
X74072092Y-98850000D01*
X74074494Y-98874386D01*
X74081607Y-98897835D01*
X74093158Y-98919446D01*
X74108704Y-98938388D01*
X74127646Y-98953934D01*
X74149257Y-98965485D01*
X74172705Y-98972598D01*
X74175012Y-98973057D01*
X74284207Y-99018287D01*
X74382481Y-99083952D01*
X74466048Y-99167519D01*
X74531713Y-99265793D01*
X74576943Y-99374988D01*
X74600000Y-99490904D01*
X74600000Y-99609096D01*
X74576943Y-99725012D01*
X74531713Y-99834207D01*
X74466048Y-99932481D01*
X74382481Y-100016048D01*
X74284207Y-100081713D01*
X74217087Y-100109515D01*
X74195477Y-100121066D01*
X74176535Y-100136612D01*
X74160989Y-100155554D01*
X74149438Y-100177165D01*
X74142325Y-100200614D01*
X74139923Y-100225000D01*
X74142325Y-100249386D01*
X74149438Y-100272836D01*
X74160989Y-100294446D01*
X74176535Y-100313388D01*
X74195477Y-100328934D01*
X74217087Y-100340485D01*
X74284207Y-100368287D01*
X74382481Y-100433952D01*
X74466048Y-100517519D01*
X74531713Y-100615793D01*
X74576943Y-100724988D01*
X74600000Y-100840904D01*
X74600000Y-100959096D01*
X74576943Y-101075012D01*
X74531713Y-101184207D01*
X74466048Y-101282481D01*
X74382481Y-101366048D01*
X74284207Y-101431713D01*
X74175012Y-101476943D01*
X74059096Y-101500000D01*
X73940904Y-101500000D01*
X73824988Y-101476943D01*
X73715793Y-101431713D01*
X73617519Y-101366048D01*
X73533952Y-101282481D01*
X73468287Y-101184207D01*
X73423057Y-101075012D01*
X73400000Y-100959096D01*
X73400000Y-100840904D01*
X73423057Y-100724988D01*
X73468287Y-100615793D01*
X73533952Y-100517519D01*
X73617519Y-100433952D01*
X73715793Y-100368287D01*
X73782913Y-100340485D01*
X73804523Y-100328934D01*
X73823465Y-100313388D01*
X73839011Y-100294446D01*
X73850562Y-100272835D01*
X73857675Y-100249386D01*
X73860077Y-100225000D01*
X73857675Y-100200614D01*
X73850562Y-100177164D01*
X73839011Y-100155554D01*
X73823465Y-100136612D01*
X73804523Y-100121066D01*
X73782913Y-100109515D01*
X73715793Y-100081713D01*
X73617519Y-100016048D01*
X73533952Y-99932481D01*
X73468287Y-99834207D01*
X73423057Y-99725012D01*
X73400000Y-99609096D01*
X73400000Y-99490904D01*
X73423057Y-99374988D01*
X73468287Y-99265793D01*
X73533952Y-99167519D01*
X73617519Y-99083952D01*
X73715793Y-99018287D01*
X73824988Y-98973057D01*
X73827295Y-98972598D01*
X73850744Y-98965485D01*
X73872355Y-98953933D01*
X73891297Y-98938388D01*
X73906842Y-98919446D01*
X73918393Y-98897835D01*
X73925506Y-98874386D01*
X73927908Y-98850000D01*
X73925506Y-98825613D01*
X73918393Y-98802164D01*
X73906841Y-98780553D01*
X73891296Y-98761611D01*
X73872354Y-98746066D01*
X73850743Y-98734515D01*
X73827294Y-98727402D01*
X73802908Y-98725000D01*
X73525000Y-98725000D01*
X73525000Y-96375000D01*
X74525000Y-96375000D01*
X74525000Y-98725000D01*
X74525000Y-98725000D01*
G37*
G36*
X80950000Y-101350000D02*
X80050000Y-101350000D01*
X80050000Y-100050000D01*
X80950000Y-100050000D01*
X80950000Y-101350000D01*
X80950000Y-101350000D01*
G37*
G36*
X79450000Y-101350000D02*
X78550000Y-101350000D01*
X78550000Y-100050000D01*
X79450000Y-100050000D01*
X79450000Y-101350000D01*
X79450000Y-101350000D01*
G37*
G36*
X82225012Y-99823057D02*
X82334207Y-99868287D01*
X82432481Y-99933952D01*
X82516048Y-100017519D01*
X82581713Y-100115793D01*
X82626943Y-100224988D01*
X82650000Y-100340904D01*
X82650000Y-100459096D01*
X82626943Y-100575012D01*
X82581713Y-100684207D01*
X82516048Y-100782481D01*
X82432481Y-100866048D01*
X82334207Y-100931713D01*
X82225012Y-100976943D01*
X82109096Y-101000000D01*
X81990904Y-101000000D01*
X81874988Y-100976943D01*
X81765793Y-100931713D01*
X81667519Y-100866048D01*
X81583952Y-100782481D01*
X81518287Y-100684207D01*
X81473057Y-100575012D01*
X81450000Y-100459096D01*
X81450000Y-100340904D01*
X81473057Y-100224988D01*
X81518287Y-100115793D01*
X81583952Y-100017519D01*
X81667519Y-99933952D01*
X81765793Y-99868287D01*
X81874988Y-99823057D01*
X81990904Y-99800000D01*
X82109096Y-99800000D01*
X82225012Y-99823057D01*
X82225012Y-99823057D01*
G37*
G36*
X71985000Y-98725000D02*
X70985000Y-98725000D01*
X70985000Y-96375000D01*
X71985000Y-96375000D01*
X71985000Y-98725000D01*
X71985000Y-98725000D01*
G37*
G36*
X73255000Y-98725000D02*
X72255000Y-98725000D01*
X72255000Y-96375000D01*
X73255000Y-96375000D01*
X73255000Y-98725000D01*
X73255000Y-98725000D01*
G37*
G36*
X75795000Y-98725000D02*
X74795000Y-98725000D01*
X74795000Y-96375000D01*
X75795000Y-96375000D01*
X75795000Y-98725000D01*
X75795000Y-98725000D01*
G37*
G36*
X77065000Y-98725000D02*
X76065000Y-98725000D01*
X76065000Y-96375000D01*
X77065000Y-96375000D01*
X77065000Y-98725000D01*
X77065000Y-98725000D01*
G37*
G36*
X78335000Y-98725000D02*
X77335000Y-98725000D01*
X77335000Y-96375000D01*
X78335000Y-96375000D01*
X78335000Y-98725000D01*
X78335000Y-98725000D01*
G37*
G36*
X79605000Y-98725000D02*
X78605000Y-98725000D01*
X78605000Y-96375000D01*
X79605000Y-96375000D01*
X79605000Y-98725000D01*
X79605000Y-98725000D01*
G37*
G36*
X80875000Y-98725000D02*
X79875000Y-98725000D01*
X79875000Y-96375000D01*
X80875000Y-96375000D01*
X80875000Y-98725000D01*
X80875000Y-98725000D01*
G37*
G36*
X82145000Y-98725000D02*
X81145000Y-98725000D01*
X81145000Y-96375000D01*
X82145000Y-96375000D01*
X82145000Y-98725000D01*
X82145000Y-98725000D01*
G37*
G36*
X83415000Y-98725000D02*
X82415000Y-98725000D01*
X82415000Y-96375000D01*
X83415000Y-96375000D01*
X83415000Y-98725000D01*
X83415000Y-98725000D01*
G37*
G36*
X115328800Y-98414000D02*
X111271200Y-98414000D01*
X111271200Y-95982000D01*
X115328800Y-95982000D01*
X115328800Y-98414000D01*
X115328800Y-98414000D01*
G37*
G36*
X88600000Y-97600000D02*
X87700000Y-97600000D01*
X87700000Y-96300000D01*
X88600000Y-96300000D01*
X88600000Y-97600000D01*
X88600000Y-97600000D01*
G37*
G36*
X87100000Y-97600000D02*
X86200000Y-97600000D01*
X86200000Y-96300000D01*
X87100000Y-96300000D01*
X87100000Y-97600000D01*
X87100000Y-97600000D01*
G37*
G36*
X95000000Y-97600000D02*
X94100000Y-97600000D01*
X94100000Y-96300000D01*
X95000000Y-96300000D01*
X95000000Y-97600000D01*
X95000000Y-97600000D01*
G37*
G36*
X93500000Y-97600000D02*
X92600000Y-97600000D01*
X92600000Y-96300000D01*
X93500000Y-96300000D01*
X93500000Y-97600000D01*
X93500000Y-97600000D01*
G37*
G36*
X61600000Y-96975000D02*
X59900000Y-96975000D01*
X59900000Y-95025000D01*
X61600000Y-95025000D01*
X61600000Y-96975000D01*
X61600000Y-96975000D01*
G37*
G36*
X66100000Y-96975000D02*
X64400000Y-96975000D01*
X64400000Y-95025000D01*
X66100000Y-95025000D01*
X66100000Y-96975000D01*
X66100000Y-96975000D01*
G37*
G36*
X58100000Y-96975000D02*
X56400000Y-96975000D01*
X56400000Y-95025000D01*
X58100000Y-95025000D01*
X58100000Y-96975000D01*
X58100000Y-96975000D01*
G37*
G36*
X53600000Y-96975000D02*
X51900000Y-96975000D01*
X51900000Y-95025000D01*
X53600000Y-95025000D01*
X53600000Y-96975000D01*
X53600000Y-96975000D01*
G37*
G36*
X121261394Y-92721192D02*
X121586698Y-92855937D01*
X121879468Y-93051560D01*
X122128440Y-93300532D01*
X122324063Y-93593302D01*
X122458808Y-93918606D01*
X122527500Y-94263945D01*
X122527500Y-94616055D01*
X122458808Y-94961394D01*
X122324063Y-95286698D01*
X122128440Y-95579468D01*
X121879468Y-95828440D01*
X121586698Y-96024063D01*
X121261394Y-96158808D01*
X120916055Y-96227500D01*
X120563945Y-96227500D01*
X120218606Y-96158808D01*
X119893302Y-96024063D01*
X119600532Y-95828440D01*
X119351560Y-95579468D01*
X119155937Y-95286698D01*
X119021192Y-94961394D01*
X118952500Y-94616055D01*
X118952500Y-94263945D01*
X119021192Y-93918606D01*
X119155937Y-93593302D01*
X119351560Y-93300532D01*
X119600532Y-93051560D01*
X119893302Y-92855937D01*
X120218606Y-92721192D01*
X120563945Y-92652500D01*
X120916055Y-92652500D01*
X121261394Y-92721192D01*
X121261394Y-92721192D01*
G37*
G36*
X88600000Y-95850000D02*
X87700000Y-95850000D01*
X87700000Y-94550000D01*
X88600000Y-94550000D01*
X88600000Y-95850000D01*
X88600000Y-95850000D01*
G37*
G36*
X93500000Y-95850000D02*
X92600000Y-95850000D01*
X92600000Y-94550000D01*
X93500000Y-94550000D01*
X93500000Y-95850000D01*
X93500000Y-95850000D01*
G37*
G36*
X95000000Y-95850000D02*
X94100000Y-95850000D01*
X94100000Y-94550000D01*
X95000000Y-94550000D01*
X95000000Y-95850000D01*
X95000000Y-95850000D01*
G37*
G36*
X87100000Y-95850000D02*
X86200000Y-95850000D01*
X86200000Y-94550000D01*
X87100000Y-94550000D01*
X87100000Y-95850000D01*
X87100000Y-95850000D01*
G37*
G36*
X83675012Y-94523057D02*
X83784207Y-94568287D01*
X83882481Y-94633952D01*
X83966048Y-94717519D01*
X84031713Y-94815793D01*
X84076943Y-94924988D01*
X84100000Y-95040904D01*
X84100000Y-95159096D01*
X84076943Y-95275012D01*
X84031713Y-95384207D01*
X83966048Y-95482481D01*
X83882481Y-95566048D01*
X83784207Y-95631713D01*
X83675012Y-95676943D01*
X83559096Y-95700000D01*
X83440904Y-95700000D01*
X83324988Y-95676943D01*
X83215793Y-95631713D01*
X83117519Y-95566048D01*
X83033952Y-95482481D01*
X82968287Y-95384207D01*
X82923057Y-95275012D01*
X82900000Y-95159096D01*
X82900000Y-95040904D01*
X82923057Y-94924988D01*
X82968287Y-94815793D01*
X83033952Y-94717519D01*
X83117519Y-94633952D01*
X83215793Y-94568287D01*
X83324988Y-94523057D01*
X83440904Y-94500000D01*
X83559096Y-94500000D01*
X83675012Y-94523057D01*
X83675012Y-94523057D01*
G37*
G36*
X113375012Y-93823057D02*
X113484207Y-93868287D01*
X113582481Y-93933952D01*
X113666048Y-94017519D01*
X113731713Y-94115793D01*
X113776943Y-94224988D01*
X113800000Y-94340904D01*
X113800000Y-94459096D01*
X113776943Y-94575012D01*
X113731713Y-94684207D01*
X113666048Y-94782481D01*
X113582481Y-94866048D01*
X113484207Y-94931713D01*
X113375012Y-94976943D01*
X113259096Y-95000000D01*
X113140904Y-95000000D01*
X113024988Y-94976943D01*
X112915793Y-94931713D01*
X112817519Y-94866048D01*
X112733952Y-94782481D01*
X112668287Y-94684207D01*
X112623057Y-94575012D01*
X112600000Y-94459096D01*
X112600000Y-94340904D01*
X112623057Y-94224988D01*
X112668287Y-94115793D01*
X112733952Y-94017519D01*
X112817519Y-93933952D01*
X112915793Y-93868287D01*
X113024988Y-93823057D01*
X113140904Y-93800000D01*
X113259096Y-93800000D01*
X113375012Y-93823057D01*
X113375012Y-93823057D01*
G37*
G36*
X65950000Y-94200000D02*
X64650000Y-94200000D01*
X64650000Y-93300000D01*
X65950000Y-93300000D01*
X65950000Y-94200000D01*
X65950000Y-94200000D01*
G37*
G36*
X103675012Y-92023057D02*
X103784207Y-92068287D01*
X103882481Y-92133952D01*
X103966048Y-92217519D01*
X104031713Y-92315793D01*
X104076943Y-92424988D01*
X104100000Y-92540904D01*
X104100000Y-92659096D01*
X104076943Y-92775012D01*
X104031713Y-92884207D01*
X103966048Y-92982481D01*
X103882481Y-93066048D01*
X103784207Y-93131713D01*
X103675012Y-93176943D01*
X103559096Y-93200000D01*
X103440904Y-93200000D01*
X103324988Y-93176943D01*
X103215793Y-93131713D01*
X103117519Y-93066048D01*
X103033952Y-92982481D01*
X102968287Y-92884207D01*
X102923057Y-92775012D01*
X102900000Y-92659096D01*
X102900000Y-92540904D01*
X102923057Y-92424988D01*
X102968287Y-92315793D01*
X103033952Y-92217519D01*
X103117519Y-92133952D01*
X103215793Y-92068287D01*
X103324988Y-92023057D01*
X103440904Y-92000000D01*
X103559096Y-92000000D01*
X103675012Y-92023057D01*
X103675012Y-92023057D01*
G37*
G36*
X92675012Y-92023057D02*
X92784207Y-92068287D01*
X92882481Y-92133952D01*
X92966048Y-92217519D01*
X93031713Y-92315793D01*
X93076943Y-92424988D01*
X93100000Y-92540904D01*
X93100000Y-92659096D01*
X93076943Y-92775012D01*
X93031713Y-92884207D01*
X92966048Y-92982481D01*
X92882481Y-93066048D01*
X92784207Y-93131713D01*
X92675012Y-93176943D01*
X92559096Y-93200000D01*
X92440904Y-93200000D01*
X92324988Y-93176943D01*
X92215793Y-93131713D01*
X92117519Y-93066048D01*
X92033952Y-92982481D01*
X91968287Y-92884207D01*
X91923057Y-92775012D01*
X91900000Y-92659096D01*
X91900000Y-92540904D01*
X91923057Y-92424988D01*
X91968287Y-92315793D01*
X92033952Y-92217519D01*
X92117519Y-92133952D01*
X92215793Y-92068287D01*
X92324988Y-92023057D01*
X92440904Y-92000000D01*
X92559096Y-92000000D01*
X92675012Y-92023057D01*
X92675012Y-92023057D01*
G37*
G36*
X63975000Y-93100000D02*
X62025000Y-93100000D01*
X62025000Y-91400000D01*
X63975000Y-91400000D01*
X63975000Y-93100000D01*
X63975000Y-93100000D01*
G37*
G36*
X55975000Y-93100000D02*
X54025000Y-93100000D01*
X54025000Y-91400000D01*
X55975000Y-91400000D01*
X55975000Y-93100000D01*
X55975000Y-93100000D01*
G37*
G36*
X76850000Y-92800000D02*
X75550000Y-92800000D01*
X75550000Y-91900000D01*
X76850000Y-91900000D01*
X76850000Y-92800000D01*
X76850000Y-92800000D01*
G37*
G36*
X80250000Y-92800000D02*
X78950000Y-92800000D01*
X78950000Y-91900000D01*
X80250000Y-91900000D01*
X80250000Y-92800000D01*
X80250000Y-92800000D01*
G37*
G36*
X73450000Y-92800000D02*
X72150000Y-92800000D01*
X72150000Y-91900000D01*
X73450000Y-91900000D01*
X73450000Y-92800000D01*
X73450000Y-92800000D01*
G37*
G36*
X78550000Y-92800000D02*
X77250000Y-92800000D01*
X77250000Y-91900000D01*
X78550000Y-91900000D01*
X78550000Y-92800000D01*
X78550000Y-92800000D01*
G37*
G36*
X89475012Y-91623057D02*
X89584207Y-91668287D01*
X89682481Y-91733952D01*
X89766048Y-91817519D01*
X89831713Y-91915793D01*
X89876943Y-92024988D01*
X89900000Y-92140904D01*
X89900000Y-92259096D01*
X89876943Y-92375012D01*
X89831713Y-92484207D01*
X89766048Y-92582481D01*
X89682481Y-92666048D01*
X89584207Y-92731713D01*
X89475012Y-92776943D01*
X89359096Y-92800000D01*
X89240904Y-92800000D01*
X89124988Y-92776943D01*
X89015793Y-92731713D01*
X88917519Y-92666048D01*
X88833952Y-92582481D01*
X88768287Y-92484207D01*
X88723057Y-92375012D01*
X88700000Y-92259096D01*
X88700000Y-92140904D01*
X88723057Y-92024988D01*
X88768287Y-91915793D01*
X88833952Y-91817519D01*
X88917519Y-91733952D01*
X89015793Y-91668287D01*
X89124988Y-91623057D01*
X89240904Y-91600000D01*
X89359096Y-91600000D01*
X89475012Y-91623057D01*
X89475012Y-91623057D01*
G37*
G36*
X75150000Y-92750000D02*
X73850000Y-92750000D01*
X73850000Y-91850000D01*
X75150000Y-91850000D01*
X75150000Y-92750000D01*
X75150000Y-92750000D01*
G37*
G36*
X87075012Y-91523057D02*
X87184207Y-91568287D01*
X87282481Y-91633952D01*
X87366048Y-91717519D01*
X87431713Y-91815793D01*
X87476943Y-91924988D01*
X87500000Y-92040904D01*
X87500000Y-92159096D01*
X87476943Y-92275012D01*
X87431713Y-92384207D01*
X87366048Y-92482481D01*
X87282481Y-92566048D01*
X87184207Y-92631713D01*
X87075012Y-92676943D01*
X86959096Y-92700000D01*
X86840904Y-92700000D01*
X86724988Y-92676943D01*
X86615793Y-92631713D01*
X86517519Y-92566048D01*
X86433952Y-92482481D01*
X86368287Y-92384207D01*
X86323057Y-92275012D01*
X86300000Y-92159096D01*
X86300000Y-92040904D01*
X86323057Y-91924988D01*
X86368287Y-91815793D01*
X86433952Y-91717519D01*
X86517519Y-91633952D01*
X86615793Y-91568287D01*
X86724988Y-91523057D01*
X86840904Y-91500000D01*
X86959096Y-91500000D01*
X87075012Y-91523057D01*
X87075012Y-91523057D01*
G37*
G36*
X65950000Y-92700000D02*
X64650000Y-92700000D01*
X64650000Y-91800000D01*
X65950000Y-91800000D01*
X65950000Y-92700000D01*
X65950000Y-92700000D01*
G37*
G36*
X94275012Y-91423057D02*
X94384207Y-91468287D01*
X94482481Y-91533952D01*
X94566048Y-91617519D01*
X94631713Y-91715793D01*
X94676943Y-91824988D01*
X94700000Y-91940904D01*
X94700000Y-92059096D01*
X94676943Y-92175012D01*
X94631713Y-92284207D01*
X94566048Y-92382481D01*
X94482481Y-92466048D01*
X94384207Y-92531713D01*
X94275012Y-92576943D01*
X94159096Y-92600000D01*
X94040904Y-92600000D01*
X93924988Y-92576943D01*
X93815793Y-92531713D01*
X93717519Y-92466048D01*
X93633952Y-92382481D01*
X93568287Y-92284207D01*
X93523057Y-92175012D01*
X93500000Y-92059096D01*
X93500000Y-91940904D01*
X93523057Y-91824988D01*
X93568287Y-91715793D01*
X93633952Y-91617519D01*
X93717519Y-91533952D01*
X93815793Y-91468287D01*
X93924988Y-91423057D01*
X94040904Y-91400000D01*
X94159096Y-91400000D01*
X94275012Y-91423057D01*
X94275012Y-91423057D01*
G37*
G36*
X80250000Y-91300000D02*
X78950000Y-91300000D01*
X78950000Y-90400000D01*
X80250000Y-90400000D01*
X80250000Y-91300000D01*
X80250000Y-91300000D01*
G37*
G36*
X78550000Y-91300000D02*
X77250000Y-91300000D01*
X77250000Y-90400000D01*
X78550000Y-90400000D01*
X78550000Y-91300000D01*
X78550000Y-91300000D01*
G37*
G36*
X76850000Y-91300000D02*
X75550000Y-91300000D01*
X75550000Y-90400000D01*
X76850000Y-90400000D01*
X76850000Y-91300000D01*
X76850000Y-91300000D01*
G37*
G36*
X53750000Y-91300000D02*
X52450000Y-91300000D01*
X52450000Y-90400000D01*
X53750000Y-90400000D01*
X53750000Y-91300000D01*
X53750000Y-91300000D01*
G37*
G36*
X73450000Y-91300000D02*
X72150000Y-91300000D01*
X72150000Y-90400000D01*
X73450000Y-90400000D01*
X73450000Y-91300000D01*
X73450000Y-91300000D01*
G37*
G36*
X75150000Y-91250000D02*
X73850000Y-91250000D01*
X73850000Y-90350000D01*
X75150000Y-90350000D01*
X75150000Y-91250000D01*
X75150000Y-91250000D01*
G37*
G36*
X104275012Y-89023057D02*
X104384207Y-89068287D01*
X104482481Y-89133952D01*
X104566048Y-89217519D01*
X104631713Y-89315793D01*
X104676943Y-89424988D01*
X104700000Y-89540904D01*
X104700000Y-89659096D01*
X104676943Y-89775012D01*
X104631713Y-89884207D01*
X104566048Y-89982481D01*
X104482481Y-90066048D01*
X104384207Y-90131713D01*
X104275012Y-90176943D01*
X104159096Y-90200000D01*
X104040904Y-90200000D01*
X103924988Y-90176943D01*
X103815793Y-90131713D01*
X103717519Y-90066048D01*
X103633952Y-89982481D01*
X103568287Y-89884207D01*
X103523057Y-89775012D01*
X103500000Y-89659096D01*
X103500000Y-89540904D01*
X103523057Y-89424988D01*
X103568287Y-89315793D01*
X103633952Y-89217519D01*
X103717519Y-89133952D01*
X103815793Y-89068287D01*
X103924988Y-89023057D01*
X104040904Y-89000000D01*
X104159096Y-89000000D01*
X104275012Y-89023057D01*
X104275012Y-89023057D01*
G37*
G36*
X70125000Y-89900000D02*
X68975000Y-89900000D01*
X68975000Y-88700000D01*
X70125000Y-88700000D01*
X70125000Y-89900000D01*
X70125000Y-89900000D01*
G37*
G36*
X53750000Y-89800000D02*
X52450000Y-89800000D01*
X52450000Y-88900000D01*
X53750000Y-88900000D01*
X53750000Y-89800000D01*
X53750000Y-89800000D01*
G37*
G36*
X75795000Y-89325000D02*
X74795000Y-89325000D01*
X74795000Y-86975000D01*
X75795000Y-86975000D01*
X75795000Y-89325000D01*
X75795000Y-89325000D01*
G37*
G36*
X73255000Y-89325000D02*
X72255000Y-89325000D01*
X72255000Y-86975000D01*
X73255000Y-86975000D01*
X73255000Y-89325000D01*
X73255000Y-89325000D01*
G37*
G36*
X74525000Y-89325000D02*
X73525000Y-89325000D01*
X73525000Y-86975000D01*
X74525000Y-86975000D01*
X74525000Y-89325000D01*
X74525000Y-89325000D01*
G37*
G36*
X71985000Y-89325000D02*
X70985000Y-89325000D01*
X70985000Y-86975000D01*
X71985000Y-86975000D01*
X71985000Y-89325000D01*
X71985000Y-89325000D01*
G37*
G36*
X77065000Y-89325000D02*
X76065000Y-89325000D01*
X76065000Y-86975000D01*
X77065000Y-86975000D01*
X77065000Y-89325000D01*
X77065000Y-89325000D01*
G37*
G36*
X79605000Y-89325000D02*
X78605000Y-89325000D01*
X78605000Y-86975000D01*
X79605000Y-86975000D01*
X79605000Y-89325000D01*
X79605000Y-89325000D01*
G37*
G36*
X80875000Y-89325000D02*
X79875000Y-89325000D01*
X79875000Y-86975000D01*
X80875000Y-86975000D01*
X80875000Y-89325000D01*
X80875000Y-89325000D01*
G37*
G36*
X82145000Y-89325000D02*
X81145000Y-89325000D01*
X81145000Y-86975000D01*
X82145000Y-86975000D01*
X82145000Y-89325000D01*
X82145000Y-89325000D01*
G37*
G36*
X83415000Y-89325000D02*
X82415000Y-89325000D01*
X82415000Y-86975000D01*
X83415000Y-86975000D01*
X83415000Y-89325000D01*
X83415000Y-89325000D01*
G37*
G36*
X78335000Y-89325000D02*
X77335000Y-89325000D01*
X77335000Y-86975000D01*
X78335000Y-86975000D01*
X78335000Y-89325000D01*
X78335000Y-89325000D01*
G37*
G36*
X63975000Y-88600000D02*
X62025000Y-88600000D01*
X62025000Y-86900000D01*
X63975000Y-86900000D01*
X63975000Y-88600000D01*
X63975000Y-88600000D01*
G37*
G36*
X55975000Y-88600000D02*
X54025000Y-88600000D01*
X54025000Y-86900000D01*
X55975000Y-86900000D01*
X55975000Y-88600000D01*
X55975000Y-88600000D01*
G37*
G36*
X70125000Y-88400000D02*
X68975000Y-88400000D01*
X68975000Y-87200000D01*
X70125000Y-87200000D01*
X70125000Y-88400000D01*
X70125000Y-88400000D01*
G37*
G36*
X92150000Y-87075000D02*
X90950000Y-87075000D01*
X90950000Y-85925000D01*
X92150000Y-85925000D01*
X92150000Y-87075000D01*
X92150000Y-87075000D01*
G37*
G36*
X90650000Y-87075000D02*
X89450000Y-87075000D01*
X89450000Y-85925000D01*
X90650000Y-85925000D01*
X90650000Y-87075000D01*
X90650000Y-87075000D01*
G37*
G36*
X95750000Y-87075000D02*
X94550000Y-87075000D01*
X94550000Y-85925000D01*
X95750000Y-85925000D01*
X95750000Y-87075000D01*
X95750000Y-87075000D01*
G37*
G36*
X98850000Y-87075000D02*
X97650000Y-87075000D01*
X97650000Y-85925000D01*
X98850000Y-85925000D01*
X98850000Y-87075000D01*
X98850000Y-87075000D01*
G37*
G36*
X103150000Y-87075000D02*
X101950000Y-87075000D01*
X101950000Y-85925000D01*
X103150000Y-85925000D01*
X103150000Y-87075000D01*
X103150000Y-87075000D01*
G37*
G36*
X101650000Y-87075000D02*
X100450000Y-87075000D01*
X100450000Y-85925000D01*
X101650000Y-85925000D01*
X101650000Y-87075000D01*
X101650000Y-87075000D01*
G37*
G36*
X94250000Y-87075000D02*
X93050000Y-87075000D01*
X93050000Y-85925000D01*
X94250000Y-85925000D01*
X94250000Y-87075000D01*
X94250000Y-87075000D01*
G37*
G36*
X97350000Y-87075000D02*
X96150000Y-87075000D01*
X96150000Y-85925000D01*
X97350000Y-85925000D01*
X97350000Y-87075000D01*
X97350000Y-87075000D01*
G37*
G36*
X71132521Y-83584586D02*
X71296309Y-83652429D01*
X71443720Y-83750926D01*
X71569074Y-83876280D01*
X71667571Y-84023691D01*
X71735414Y-84187479D01*
X71770000Y-84361356D01*
X71770000Y-84538644D01*
X71735414Y-84712521D01*
X71667571Y-84876309D01*
X71569074Y-85023720D01*
X71443720Y-85149074D01*
X71296309Y-85247571D01*
X71132521Y-85315414D01*
X70958644Y-85350000D01*
X70814923Y-85350000D01*
X70790537Y-85352402D01*
X70767088Y-85359515D01*
X70745477Y-85371066D01*
X70726535Y-85386612D01*
X70710989Y-85405554D01*
X70699438Y-85427165D01*
X70692325Y-85450614D01*
X70689923Y-85475000D01*
X70692325Y-85499386D01*
X70699438Y-85522835D01*
X70710989Y-85544446D01*
X70726535Y-85563388D01*
X70745477Y-85578934D01*
X70767087Y-85590485D01*
X70834207Y-85618287D01*
X70932481Y-85683952D01*
X71016048Y-85767519D01*
X71081713Y-85865793D01*
X71126943Y-85974988D01*
X71150000Y-86090904D01*
X71150000Y-86209096D01*
X71126943Y-86325012D01*
X71081713Y-86434207D01*
X71016048Y-86532481D01*
X70932481Y-86616048D01*
X70834207Y-86681713D01*
X70725012Y-86726943D01*
X70609096Y-86750000D01*
X70490904Y-86750000D01*
X70374988Y-86726943D01*
X70265793Y-86681713D01*
X70167519Y-86616048D01*
X70083952Y-86532481D01*
X70018287Y-86434207D01*
X69973057Y-86325012D01*
X69950000Y-86209096D01*
X69950000Y-86090904D01*
X69973057Y-85974988D01*
X70018287Y-85865793D01*
X70083952Y-85767519D01*
X70167519Y-85683952D01*
X70265793Y-85618287D01*
X70374988Y-85573057D01*
X70490904Y-85550000D01*
X70545403Y-85550000D01*
X70569789Y-85547598D01*
X70593238Y-85540485D01*
X70614849Y-85528934D01*
X70633791Y-85513388D01*
X70649337Y-85494446D01*
X70660888Y-85472835D01*
X70668001Y-85449386D01*
X70670403Y-85425000D01*
X70668001Y-85400614D01*
X70660888Y-85377165D01*
X70649337Y-85355554D01*
X70633791Y-85336612D01*
X70614849Y-85321066D01*
X70593238Y-85309515D01*
X70443691Y-85247571D01*
X70296280Y-85149074D01*
X70170926Y-85023720D01*
X70072429Y-84876309D01*
X70004586Y-84712521D01*
X69970000Y-84538644D01*
X69970000Y-84361356D01*
X70004586Y-84187479D01*
X70072429Y-84023691D01*
X70170926Y-83876280D01*
X70296280Y-83750926D01*
X70443691Y-83652429D01*
X70607479Y-83584586D01*
X70781356Y-83550000D01*
X70958644Y-83550000D01*
X71132521Y-83584586D01*
X71132521Y-83584586D01*
G37*
G36*
X112075000Y-86700000D02*
X110925000Y-86700000D01*
X110925000Y-85500000D01*
X112075000Y-85500000D01*
X112075000Y-86700000D01*
X112075000Y-86700000D01*
G37*
G36*
X119725000Y-86650000D02*
X118575000Y-86650000D01*
X118575000Y-85450000D01*
X119725000Y-85450000D01*
X119725000Y-86650000D01*
X119725000Y-86650000D01*
G37*
G36*
X109525000Y-86600000D02*
X108375000Y-86600000D01*
X108375000Y-85400000D01*
X109525000Y-85400000D01*
X109525000Y-86600000D01*
X109525000Y-86600000D01*
G37*
G36*
X114625000Y-86600000D02*
X113475000Y-86600000D01*
X113475000Y-85400000D01*
X114625000Y-85400000D01*
X114625000Y-86600000D01*
X114625000Y-86600000D01*
G37*
G36*
X117175000Y-86600000D02*
X116025000Y-86600000D01*
X116025000Y-85400000D01*
X117175000Y-85400000D01*
X117175000Y-86600000D01*
X117175000Y-86600000D01*
G37*
G36*
X91452521Y-83584586D02*
X91616309Y-83652429D01*
X91763720Y-83750926D01*
X91889074Y-83876280D01*
X91987571Y-84023691D01*
X92055414Y-84187479D01*
X92090000Y-84361356D01*
X92090000Y-84538644D01*
X92055414Y-84712521D01*
X91987571Y-84876309D01*
X91889074Y-85023720D01*
X91763720Y-85149074D01*
X91616309Y-85247571D01*
X91452521Y-85315414D01*
X91278644Y-85350000D01*
X91101356Y-85350000D01*
X90927479Y-85315414D01*
X90763691Y-85247571D01*
X90616280Y-85149074D01*
X90490926Y-85023720D01*
X90392429Y-84876309D01*
X90324586Y-84712521D01*
X90290000Y-84538644D01*
X90290000Y-84361356D01*
X90324586Y-84187479D01*
X90392429Y-84023691D01*
X90490926Y-83876280D01*
X90616280Y-83750926D01*
X90763691Y-83652429D01*
X90927479Y-83584586D01*
X91101356Y-83550000D01*
X91278644Y-83550000D01*
X91452521Y-83584586D01*
X91452521Y-83584586D01*
G37*
G36*
X96532521Y-83584586D02*
X96696309Y-83652429D01*
X96843720Y-83750926D01*
X96969074Y-83876280D01*
X97067571Y-84023691D01*
X97135414Y-84187479D01*
X97170000Y-84361356D01*
X97170000Y-84538644D01*
X97135414Y-84712521D01*
X97067571Y-84876309D01*
X96969074Y-85023720D01*
X96843720Y-85149074D01*
X96696309Y-85247571D01*
X96532521Y-85315414D01*
X96358644Y-85350000D01*
X96181356Y-85350000D01*
X96007479Y-85315414D01*
X95843691Y-85247571D01*
X95696280Y-85149074D01*
X95570926Y-85023720D01*
X95472429Y-84876309D01*
X95404586Y-84712521D01*
X95370000Y-84538644D01*
X95370000Y-84361356D01*
X95404586Y-84187479D01*
X95472429Y-84023691D01*
X95570926Y-83876280D01*
X95696280Y-83750926D01*
X95843691Y-83652429D01*
X96007479Y-83584586D01*
X96181356Y-83550000D01*
X96358644Y-83550000D01*
X96532521Y-83584586D01*
X96532521Y-83584586D01*
G37*
G36*
X88912521Y-83584586D02*
X89076309Y-83652429D01*
X89223720Y-83750926D01*
X89349074Y-83876280D01*
X89447571Y-84023691D01*
X89515414Y-84187479D01*
X89550000Y-84361356D01*
X89550000Y-84538644D01*
X89515414Y-84712521D01*
X89447571Y-84876309D01*
X89349074Y-85023720D01*
X89223720Y-85149074D01*
X89076309Y-85247571D01*
X88912521Y-85315414D01*
X88738644Y-85350000D01*
X88561356Y-85350000D01*
X88387479Y-85315414D01*
X88223691Y-85247571D01*
X88076280Y-85149074D01*
X87950926Y-85023720D01*
X87852429Y-84876309D01*
X87784586Y-84712521D01*
X87750000Y-84538644D01*
X87750000Y-84361356D01*
X87784586Y-84187479D01*
X87852429Y-84023691D01*
X87950926Y-83876280D01*
X88076280Y-83750926D01*
X88223691Y-83652429D01*
X88387479Y-83584586D01*
X88561356Y-83550000D01*
X88738644Y-83550000D01*
X88912521Y-83584586D01*
X88912521Y-83584586D01*
G37*
G36*
X99072521Y-83584586D02*
X99236309Y-83652429D01*
X99383720Y-83750926D01*
X99509074Y-83876280D01*
X99607571Y-84023691D01*
X99675414Y-84187479D01*
X99710000Y-84361356D01*
X99710000Y-84538644D01*
X99675414Y-84712521D01*
X99607571Y-84876309D01*
X99509074Y-85023720D01*
X99383720Y-85149074D01*
X99236309Y-85247571D01*
X99072521Y-85315414D01*
X98898644Y-85350000D01*
X98721356Y-85350000D01*
X98547479Y-85315414D01*
X98383691Y-85247571D01*
X98236280Y-85149074D01*
X98110926Y-85023720D01*
X98012429Y-84876309D01*
X97944586Y-84712521D01*
X97910000Y-84538644D01*
X97910000Y-84361356D01*
X97944586Y-84187479D01*
X98012429Y-84023691D01*
X98110926Y-83876280D01*
X98236280Y-83750926D01*
X98383691Y-83652429D01*
X98547479Y-83584586D01*
X98721356Y-83550000D01*
X98898644Y-83550000D01*
X99072521Y-83584586D01*
X99072521Y-83584586D01*
G37*
G36*
X86372521Y-83584586D02*
X86536309Y-83652429D01*
X86683720Y-83750926D01*
X86809074Y-83876280D01*
X86907571Y-84023691D01*
X86975414Y-84187479D01*
X87010000Y-84361356D01*
X87010000Y-84538644D01*
X86975414Y-84712521D01*
X86907571Y-84876309D01*
X86809074Y-85023720D01*
X86683720Y-85149074D01*
X86536309Y-85247571D01*
X86372521Y-85315414D01*
X86198644Y-85350000D01*
X86021356Y-85350000D01*
X85847479Y-85315414D01*
X85683691Y-85247571D01*
X85536280Y-85149074D01*
X85410926Y-85023720D01*
X85312429Y-84876309D01*
X85244586Y-84712521D01*
X85210000Y-84538644D01*
X85210000Y-84361356D01*
X85244586Y-84187479D01*
X85312429Y-84023691D01*
X85410926Y-83876280D01*
X85536280Y-83750926D01*
X85683691Y-83652429D01*
X85847479Y-83584586D01*
X86021356Y-83550000D01*
X86198644Y-83550000D01*
X86372521Y-83584586D01*
X86372521Y-83584586D01*
G37*
G36*
X101612521Y-83584586D02*
X101776309Y-83652429D01*
X101923720Y-83750926D01*
X102049074Y-83876280D01*
X102147571Y-84023691D01*
X102215414Y-84187479D01*
X102250000Y-84361356D01*
X102250000Y-84538644D01*
X102215414Y-84712521D01*
X102147571Y-84876309D01*
X102049074Y-85023720D01*
X101923720Y-85149074D01*
X101776309Y-85247571D01*
X101612521Y-85315414D01*
X101438644Y-85350000D01*
X101261356Y-85350000D01*
X101087479Y-85315414D01*
X100923691Y-85247571D01*
X100776280Y-85149074D01*
X100650926Y-85023720D01*
X100552429Y-84876309D01*
X100484586Y-84712521D01*
X100450000Y-84538644D01*
X100450000Y-84361356D01*
X100484586Y-84187479D01*
X100552429Y-84023691D01*
X100650926Y-83876280D01*
X100776280Y-83750926D01*
X100923691Y-83652429D01*
X101087479Y-83584586D01*
X101261356Y-83550000D01*
X101438644Y-83550000D01*
X101612521Y-83584586D01*
X101612521Y-83584586D01*
G37*
G36*
X93992521Y-83584586D02*
X94156309Y-83652429D01*
X94303720Y-83750926D01*
X94429074Y-83876280D01*
X94527571Y-84023691D01*
X94595414Y-84187479D01*
X94630000Y-84361356D01*
X94630000Y-84538644D01*
X94595414Y-84712521D01*
X94527571Y-84876309D01*
X94429074Y-85023720D01*
X94303720Y-85149074D01*
X94156309Y-85247571D01*
X93992521Y-85315414D01*
X93818644Y-85350000D01*
X93641356Y-85350000D01*
X93467479Y-85315414D01*
X93303691Y-85247571D01*
X93156280Y-85149074D01*
X93030926Y-85023720D01*
X92932429Y-84876309D01*
X92864586Y-84712521D01*
X92830000Y-84538644D01*
X92830000Y-84361356D01*
X92864586Y-84187479D01*
X92932429Y-84023691D01*
X93030926Y-83876280D01*
X93156280Y-83750926D01*
X93303691Y-83652429D01*
X93467479Y-83584586D01*
X93641356Y-83550000D01*
X93818644Y-83550000D01*
X93992521Y-83584586D01*
X93992521Y-83584586D01*
G37*
G36*
X73672521Y-83584586D02*
X73836309Y-83652429D01*
X73983720Y-83750926D01*
X74109074Y-83876280D01*
X74207571Y-84023691D01*
X74275414Y-84187479D01*
X74310000Y-84361356D01*
X74310000Y-84538644D01*
X74275414Y-84712521D01*
X74207571Y-84876309D01*
X74109074Y-85023720D01*
X73983720Y-85149074D01*
X73836309Y-85247571D01*
X73672521Y-85315414D01*
X73498644Y-85350000D01*
X73321356Y-85350000D01*
X73147479Y-85315414D01*
X72983691Y-85247571D01*
X72836280Y-85149074D01*
X72710926Y-85023720D01*
X72612429Y-84876309D01*
X72544586Y-84712521D01*
X72510000Y-84538644D01*
X72510000Y-84361356D01*
X72544586Y-84187479D01*
X72612429Y-84023691D01*
X72710926Y-83876280D01*
X72836280Y-83750926D01*
X72983691Y-83652429D01*
X73147479Y-83584586D01*
X73321356Y-83550000D01*
X73498644Y-83550000D01*
X73672521Y-83584586D01*
X73672521Y-83584586D01*
G37*
G36*
X76212521Y-83584586D02*
X76376309Y-83652429D01*
X76523720Y-83750926D01*
X76649074Y-83876280D01*
X76747571Y-84023691D01*
X76815414Y-84187479D01*
X76850000Y-84361356D01*
X76850000Y-84538644D01*
X76815414Y-84712521D01*
X76747571Y-84876309D01*
X76649074Y-85023720D01*
X76523720Y-85149074D01*
X76376309Y-85247571D01*
X76212521Y-85315414D01*
X76038644Y-85350000D01*
X75861356Y-85350000D01*
X75687479Y-85315414D01*
X75523691Y-85247571D01*
X75376280Y-85149074D01*
X75250926Y-85023720D01*
X75152429Y-84876309D01*
X75084586Y-84712521D01*
X75050000Y-84538644D01*
X75050000Y-84361356D01*
X75084586Y-84187479D01*
X75152429Y-84023691D01*
X75250926Y-83876280D01*
X75376280Y-83750926D01*
X75523691Y-83652429D01*
X75687479Y-83584586D01*
X75861356Y-83550000D01*
X76038644Y-83550000D01*
X76212521Y-83584586D01*
X76212521Y-83584586D01*
G37*
G36*
X78752521Y-83584586D02*
X78916309Y-83652429D01*
X79063720Y-83750926D01*
X79189074Y-83876280D01*
X79287571Y-84023691D01*
X79355414Y-84187479D01*
X79390000Y-84361356D01*
X79390000Y-84538644D01*
X79355414Y-84712521D01*
X79287571Y-84876309D01*
X79189074Y-85023720D01*
X79063720Y-85149074D01*
X78916309Y-85247571D01*
X78752521Y-85315414D01*
X78578644Y-85350000D01*
X78401356Y-85350000D01*
X78227479Y-85315414D01*
X78063691Y-85247571D01*
X77916280Y-85149074D01*
X77790926Y-85023720D01*
X77692429Y-84876309D01*
X77624586Y-84712521D01*
X77590000Y-84538644D01*
X77590000Y-84361356D01*
X77624586Y-84187479D01*
X77692429Y-84023691D01*
X77790926Y-83876280D01*
X77916280Y-83750926D01*
X78063691Y-83652429D01*
X78227479Y-83584586D01*
X78401356Y-83550000D01*
X78578644Y-83550000D01*
X78752521Y-83584586D01*
X78752521Y-83584586D01*
G37*
G36*
X81292521Y-83584586D02*
X81456309Y-83652429D01*
X81603720Y-83750926D01*
X81729074Y-83876280D01*
X81827571Y-84023691D01*
X81895414Y-84187479D01*
X81930000Y-84361356D01*
X81930000Y-84538644D01*
X81895414Y-84712521D01*
X81827571Y-84876309D01*
X81729074Y-85023720D01*
X81603720Y-85149074D01*
X81456309Y-85247571D01*
X81292521Y-85315414D01*
X81118644Y-85350000D01*
X80941356Y-85350000D01*
X80767479Y-85315414D01*
X80603691Y-85247571D01*
X80456280Y-85149074D01*
X80330926Y-85023720D01*
X80232429Y-84876309D01*
X80164586Y-84712521D01*
X80130000Y-84538644D01*
X80130000Y-84361356D01*
X80164586Y-84187479D01*
X80232429Y-84023691D01*
X80330926Y-83876280D01*
X80456280Y-83750926D01*
X80603691Y-83652429D01*
X80767479Y-83584586D01*
X80941356Y-83550000D01*
X81118644Y-83550000D01*
X81292521Y-83584586D01*
X81292521Y-83584586D01*
G37*
G36*
X83832521Y-83584586D02*
X83996309Y-83652429D01*
X84143720Y-83750926D01*
X84269074Y-83876280D01*
X84367571Y-84023691D01*
X84435414Y-84187479D01*
X84470000Y-84361356D01*
X84470000Y-84538644D01*
X84435414Y-84712521D01*
X84367571Y-84876309D01*
X84269074Y-85023720D01*
X84143720Y-85149074D01*
X83996309Y-85247571D01*
X83832521Y-85315414D01*
X83658644Y-85350000D01*
X83481356Y-85350000D01*
X83307479Y-85315414D01*
X83143691Y-85247571D01*
X82996280Y-85149074D01*
X82870926Y-85023720D01*
X82772429Y-84876309D01*
X82704586Y-84712521D01*
X82670000Y-84538644D01*
X82670000Y-84361356D01*
X82704586Y-84187479D01*
X82772429Y-84023691D01*
X82870926Y-83876280D01*
X82996280Y-83750926D01*
X83143691Y-83652429D01*
X83307479Y-83584586D01*
X83481356Y-83550000D01*
X83658644Y-83550000D01*
X83832521Y-83584586D01*
X83832521Y-83584586D01*
G37*
G36*
X104152521Y-83584586D02*
X104316309Y-83652429D01*
X104463720Y-83750926D01*
X104589074Y-83876280D01*
X104687571Y-84023691D01*
X104755414Y-84187479D01*
X104790000Y-84361356D01*
X104790000Y-84538644D01*
X104755414Y-84712521D01*
X104687571Y-84876309D01*
X104589074Y-85023720D01*
X104463720Y-85149074D01*
X104316309Y-85247571D01*
X104152521Y-85315414D01*
X103978644Y-85350000D01*
X103801356Y-85350000D01*
X103627479Y-85315414D01*
X103463691Y-85247571D01*
X103316280Y-85149074D01*
X103190926Y-85023720D01*
X103092429Y-84876309D01*
X103024586Y-84712521D01*
X102990000Y-84538644D01*
X102990000Y-84361356D01*
X103024586Y-84187479D01*
X103092429Y-84023691D01*
X103190926Y-83876280D01*
X103316280Y-83750926D01*
X103463691Y-83652429D01*
X103627479Y-83584586D01*
X103801356Y-83550000D01*
X103978644Y-83550000D01*
X104152521Y-83584586D01*
X104152521Y-83584586D01*
G37*
G36*
X112075000Y-85200000D02*
X110925000Y-85200000D01*
X110925000Y-84000000D01*
X112075000Y-84000000D01*
X112075000Y-85200000D01*
X112075000Y-85200000D01*
G37*
G36*
X119725000Y-85150000D02*
X118575000Y-85150000D01*
X118575000Y-83950000D01*
X119725000Y-83950000D01*
X119725000Y-85150000D01*
X119725000Y-85150000D01*
G37*
G36*
X117175000Y-85100000D02*
X116025000Y-85100000D01*
X116025000Y-83900000D01*
X117175000Y-83900000D01*
X117175000Y-85100000D01*
X117175000Y-85100000D01*
G37*
G36*
X114625000Y-85100000D02*
X113475000Y-85100000D01*
X113475000Y-83900000D01*
X114625000Y-83900000D01*
X114625000Y-85100000D01*
X114625000Y-85100000D01*
G37*
G36*
X109525000Y-85100000D02*
X108375000Y-85100000D01*
X108375000Y-83900000D01*
X109525000Y-83900000D01*
X109525000Y-85100000D01*
X109525000Y-85100000D01*
G37*
G36*
X55975000Y-84100000D02*
X54025000Y-84100000D01*
X54025000Y-82400000D01*
X55975000Y-82400000D01*
X55975000Y-84100000D01*
X55975000Y-84100000D01*
G37*
G36*
X63975000Y-84100000D02*
X62025000Y-84100000D01*
X62025000Y-82400000D01*
X63975000Y-82400000D01*
X63975000Y-84100000D01*
X63975000Y-84100000D01*
G37*
G36*
X119392521Y-81044586D02*
X119556309Y-81112429D01*
X119703720Y-81210926D01*
X119829074Y-81336280D01*
X119927571Y-81483691D01*
X119995414Y-81647479D01*
X120030000Y-81821356D01*
X120030000Y-81998644D01*
X119995414Y-82172521D01*
X119927571Y-82336309D01*
X119829074Y-82483720D01*
X119703720Y-82609074D01*
X119556309Y-82707571D01*
X119392521Y-82775414D01*
X119218644Y-82810000D01*
X119041356Y-82810000D01*
X118867479Y-82775414D01*
X118703691Y-82707571D01*
X118556280Y-82609074D01*
X118430926Y-82483720D01*
X118332429Y-82336309D01*
X118264586Y-82172521D01*
X118230000Y-81998644D01*
X118230000Y-81821356D01*
X118264586Y-81647479D01*
X118332429Y-81483691D01*
X118430926Y-81336280D01*
X118556280Y-81210926D01*
X118703691Y-81112429D01*
X118867479Y-81044586D01*
X119041356Y-81010000D01*
X119218644Y-81010000D01*
X119392521Y-81044586D01*
X119392521Y-81044586D01*
G37*
G36*
X116852521Y-81044586D02*
X117016309Y-81112429D01*
X117163720Y-81210926D01*
X117289074Y-81336280D01*
X117387571Y-81483691D01*
X117455414Y-81647479D01*
X117490000Y-81821356D01*
X117490000Y-81998644D01*
X117455414Y-82172521D01*
X117387571Y-82336309D01*
X117289074Y-82483720D01*
X117163720Y-82609074D01*
X117016309Y-82707571D01*
X116852521Y-82775414D01*
X116678644Y-82810000D01*
X116501356Y-82810000D01*
X116327479Y-82775414D01*
X116163691Y-82707571D01*
X116016280Y-82609074D01*
X115890926Y-82483720D01*
X115792429Y-82336309D01*
X115724586Y-82172521D01*
X115690000Y-81998644D01*
X115690000Y-81821356D01*
X115724586Y-81647479D01*
X115792429Y-81483691D01*
X115890926Y-81336280D01*
X116016280Y-81210926D01*
X116163691Y-81112429D01*
X116327479Y-81044586D01*
X116501356Y-81010000D01*
X116678644Y-81010000D01*
X116852521Y-81044586D01*
X116852521Y-81044586D01*
G37*
G36*
X99072521Y-81044586D02*
X99236309Y-81112429D01*
X99383720Y-81210926D01*
X99509074Y-81336280D01*
X99607571Y-81483691D01*
X99675414Y-81647479D01*
X99710000Y-81821356D01*
X99710000Y-81998644D01*
X99675414Y-82172521D01*
X99607571Y-82336309D01*
X99509074Y-82483720D01*
X99383720Y-82609074D01*
X99236309Y-82707571D01*
X99072521Y-82775414D01*
X98898644Y-82810000D01*
X98721356Y-82810000D01*
X98547479Y-82775414D01*
X98383691Y-82707571D01*
X98236280Y-82609074D01*
X98110926Y-82483720D01*
X98012429Y-82336309D01*
X97944586Y-82172521D01*
X97910000Y-81998644D01*
X97910000Y-81821356D01*
X97944586Y-81647479D01*
X98012429Y-81483691D01*
X98110926Y-81336280D01*
X98236280Y-81210926D01*
X98383691Y-81112429D01*
X98547479Y-81044586D01*
X98721356Y-81010000D01*
X98898644Y-81010000D01*
X99072521Y-81044586D01*
X99072521Y-81044586D01*
G37*
G36*
X101612521Y-81044586D02*
X101776309Y-81112429D01*
X101923720Y-81210926D01*
X102049074Y-81336280D01*
X102147571Y-81483691D01*
X102215414Y-81647479D01*
X102250000Y-81821356D01*
X102250000Y-81998644D01*
X102215414Y-82172521D01*
X102147571Y-82336309D01*
X102049074Y-82483720D01*
X101923720Y-82609074D01*
X101776309Y-82707571D01*
X101612521Y-82775414D01*
X101438644Y-82810000D01*
X101261356Y-82810000D01*
X101087479Y-82775414D01*
X100923691Y-82707571D01*
X100776280Y-82609074D01*
X100650926Y-82483720D01*
X100552429Y-82336309D01*
X100484586Y-82172521D01*
X100450000Y-81998644D01*
X100450000Y-81821356D01*
X100484586Y-81647479D01*
X100552429Y-81483691D01*
X100650926Y-81336280D01*
X100776280Y-81210926D01*
X100923691Y-81112429D01*
X101087479Y-81044586D01*
X101261356Y-81010000D01*
X101438644Y-81010000D01*
X101612521Y-81044586D01*
X101612521Y-81044586D01*
G37*
G36*
X104152521Y-81044586D02*
X104316309Y-81112429D01*
X104463720Y-81210926D01*
X104589074Y-81336280D01*
X104687571Y-81483691D01*
X104755414Y-81647479D01*
X104790000Y-81821356D01*
X104790000Y-81998644D01*
X104755414Y-82172521D01*
X104687571Y-82336309D01*
X104589074Y-82483720D01*
X104463720Y-82609074D01*
X104316309Y-82707571D01*
X104152521Y-82775414D01*
X103978644Y-82810000D01*
X103801356Y-82810000D01*
X103627479Y-82775414D01*
X103463691Y-82707571D01*
X103316280Y-82609074D01*
X103190926Y-82483720D01*
X103092429Y-82336309D01*
X103024586Y-82172521D01*
X102990000Y-81998644D01*
X102990000Y-81821356D01*
X103024586Y-81647479D01*
X103092429Y-81483691D01*
X103190926Y-81336280D01*
X103316280Y-81210926D01*
X103463691Y-81112429D01*
X103627479Y-81044586D01*
X103801356Y-81010000D01*
X103978644Y-81010000D01*
X104152521Y-81044586D01*
X104152521Y-81044586D01*
G37*
G36*
X109232521Y-81044586D02*
X109396309Y-81112429D01*
X109543720Y-81210926D01*
X109669074Y-81336280D01*
X109767571Y-81483691D01*
X109835414Y-81647479D01*
X109870000Y-81821356D01*
X109870000Y-81998644D01*
X109835414Y-82172521D01*
X109767571Y-82336309D01*
X109669074Y-82483720D01*
X109543720Y-82609074D01*
X109396309Y-82707571D01*
X109232521Y-82775414D01*
X109058644Y-82810000D01*
X108881356Y-82810000D01*
X108707479Y-82775414D01*
X108543691Y-82707571D01*
X108396280Y-82609074D01*
X108270926Y-82483720D01*
X108172429Y-82336309D01*
X108104586Y-82172521D01*
X108070000Y-81998644D01*
X108070000Y-81821356D01*
X108104586Y-81647479D01*
X108172429Y-81483691D01*
X108270926Y-81336280D01*
X108396280Y-81210926D01*
X108543691Y-81112429D01*
X108707479Y-81044586D01*
X108881356Y-81010000D01*
X109058644Y-81010000D01*
X109232521Y-81044586D01*
X109232521Y-81044586D01*
G37*
G36*
X111772521Y-81044586D02*
X111936309Y-81112429D01*
X112083720Y-81210926D01*
X112209074Y-81336280D01*
X112307571Y-81483691D01*
X112375414Y-81647479D01*
X112410000Y-81821356D01*
X112410000Y-81998644D01*
X112375414Y-82172521D01*
X112307571Y-82336309D01*
X112209074Y-82483720D01*
X112083720Y-82609074D01*
X111936309Y-82707571D01*
X111772521Y-82775414D01*
X111598644Y-82810000D01*
X111421356Y-82810000D01*
X111247479Y-82775414D01*
X111083691Y-82707571D01*
X110936280Y-82609074D01*
X110810926Y-82483720D01*
X110712429Y-82336309D01*
X110644586Y-82172521D01*
X110610000Y-81998644D01*
X110610000Y-81821356D01*
X110644586Y-81647479D01*
X110712429Y-81483691D01*
X110810926Y-81336280D01*
X110936280Y-81210926D01*
X111083691Y-81112429D01*
X111247479Y-81044586D01*
X111421356Y-81010000D01*
X111598644Y-81010000D01*
X111772521Y-81044586D01*
X111772521Y-81044586D01*
G37*
G36*
X70461394Y-77481192D02*
X70786698Y-77615937D01*
X71079468Y-77811560D01*
X71328440Y-78060532D01*
X71524063Y-78353302D01*
X71658808Y-78678606D01*
X71727500Y-79023945D01*
X71727500Y-79376055D01*
X71658808Y-79721394D01*
X71524063Y-80046698D01*
X71328440Y-80339468D01*
X71079468Y-80588440D01*
X70791184Y-80781066D01*
X70772242Y-80796612D01*
X70756696Y-80815554D01*
X70745145Y-80837165D01*
X70738032Y-80860614D01*
X70735630Y-80885000D01*
X70738032Y-80909386D01*
X70745145Y-80932836D01*
X70756696Y-80954446D01*
X70772242Y-80973388D01*
X70791184Y-80988934D01*
X70812795Y-81000485D01*
X70836244Y-81007598D01*
X70860630Y-81010000D01*
X70958644Y-81010000D01*
X71132521Y-81044586D01*
X71296309Y-81112429D01*
X71443720Y-81210926D01*
X71569074Y-81336280D01*
X71667571Y-81483691D01*
X71735414Y-81647479D01*
X71770000Y-81821356D01*
X71770000Y-81998644D01*
X71735414Y-82172521D01*
X71667571Y-82336309D01*
X71569074Y-82483720D01*
X71443720Y-82609074D01*
X71296309Y-82707571D01*
X71132521Y-82775414D01*
X70958644Y-82810000D01*
X70781356Y-82810000D01*
X70607479Y-82775414D01*
X70443691Y-82707571D01*
X70296280Y-82609074D01*
X70170926Y-82483720D01*
X70072429Y-82336309D01*
X70004586Y-82172521D01*
X69970000Y-81998644D01*
X69970000Y-81821356D01*
X70004586Y-81647479D01*
X70072429Y-81483691D01*
X70170926Y-81336280D01*
X70296280Y-81210926D01*
X70326281Y-81190880D01*
X70345223Y-81175335D01*
X70360769Y-81156393D01*
X70372320Y-81134782D01*
X70379433Y-81111333D01*
X70381835Y-81086946D01*
X70379433Y-81062560D01*
X70372320Y-81039111D01*
X70360769Y-81017500D01*
X70345224Y-80998558D01*
X70326282Y-80983012D01*
X70304671Y-80971461D01*
X70281222Y-80964348D01*
X70256835Y-80961946D01*
X70232449Y-80964348D01*
X70116055Y-80987500D01*
X69763945Y-80987500D01*
X69418606Y-80918808D01*
X69093302Y-80784063D01*
X68800532Y-80588440D01*
X68551560Y-80339468D01*
X68355937Y-80046698D01*
X68221192Y-79721394D01*
X68152500Y-79376055D01*
X68152500Y-79023945D01*
X68221192Y-78678606D01*
X68355937Y-78353302D01*
X68551560Y-78060532D01*
X68800532Y-77811560D01*
X69093302Y-77615937D01*
X69418606Y-77481192D01*
X69763945Y-77412500D01*
X70116055Y-77412500D01*
X70461394Y-77481192D01*
X70461394Y-77481192D01*
G37*
G36*
X73672521Y-81044586D02*
X73836309Y-81112429D01*
X73983720Y-81210926D01*
X74109074Y-81336280D01*
X74207571Y-81483691D01*
X74275414Y-81647479D01*
X74310000Y-81821356D01*
X74310000Y-81998644D01*
X74275414Y-82172521D01*
X74207571Y-82336309D01*
X74109074Y-82483720D01*
X73983720Y-82609074D01*
X73836309Y-82707571D01*
X73672521Y-82775414D01*
X73498644Y-82810000D01*
X73321356Y-82810000D01*
X73147479Y-82775414D01*
X72983691Y-82707571D01*
X72836280Y-82609074D01*
X72710926Y-82483720D01*
X72612429Y-82336309D01*
X72544586Y-82172521D01*
X72510000Y-81998644D01*
X72510000Y-81821356D01*
X72544586Y-81647479D01*
X72612429Y-81483691D01*
X72710926Y-81336280D01*
X72836280Y-81210926D01*
X72983691Y-81112429D01*
X73147479Y-81044586D01*
X73321356Y-81010000D01*
X73498644Y-81010000D01*
X73672521Y-81044586D01*
X73672521Y-81044586D01*
G37*
G36*
X76212521Y-81044586D02*
X76376309Y-81112429D01*
X76523720Y-81210926D01*
X76649074Y-81336280D01*
X76747571Y-81483691D01*
X76815414Y-81647479D01*
X76850000Y-81821356D01*
X76850000Y-81998644D01*
X76815414Y-82172521D01*
X76747571Y-82336309D01*
X76649074Y-82483720D01*
X76523720Y-82609074D01*
X76376309Y-82707571D01*
X76212521Y-82775414D01*
X76038644Y-82810000D01*
X75861356Y-82810000D01*
X75687479Y-82775414D01*
X75523691Y-82707571D01*
X75376280Y-82609074D01*
X75250926Y-82483720D01*
X75152429Y-82336309D01*
X75084586Y-82172521D01*
X75050000Y-81998644D01*
X75050000Y-81821356D01*
X75084586Y-81647479D01*
X75152429Y-81483691D01*
X75250926Y-81336280D01*
X75376280Y-81210926D01*
X75523691Y-81112429D01*
X75687479Y-81044586D01*
X75861356Y-81010000D01*
X76038644Y-81010000D01*
X76212521Y-81044586D01*
X76212521Y-81044586D01*
G37*
G36*
X81292521Y-81044586D02*
X81456309Y-81112429D01*
X81603720Y-81210926D01*
X81729074Y-81336280D01*
X81827571Y-81483691D01*
X81895414Y-81647479D01*
X81930000Y-81821356D01*
X81930000Y-81998644D01*
X81895414Y-82172521D01*
X81827571Y-82336309D01*
X81729074Y-82483720D01*
X81603720Y-82609074D01*
X81456309Y-82707571D01*
X81292521Y-82775414D01*
X81118644Y-82810000D01*
X80941356Y-82810000D01*
X80767479Y-82775414D01*
X80603691Y-82707571D01*
X80456280Y-82609074D01*
X80330926Y-82483720D01*
X80232429Y-82336309D01*
X80164586Y-82172521D01*
X80130000Y-81998644D01*
X80130000Y-81821356D01*
X80164586Y-81647479D01*
X80232429Y-81483691D01*
X80330926Y-81336280D01*
X80456280Y-81210926D01*
X80603691Y-81112429D01*
X80767479Y-81044586D01*
X80941356Y-81010000D01*
X81118644Y-81010000D01*
X81292521Y-81044586D01*
X81292521Y-81044586D01*
G37*
G36*
X78752521Y-81044586D02*
X78916309Y-81112429D01*
X79063720Y-81210926D01*
X79189074Y-81336280D01*
X79287571Y-81483691D01*
X79355414Y-81647479D01*
X79390000Y-81821356D01*
X79390000Y-81998644D01*
X79355414Y-82172521D01*
X79287571Y-82336309D01*
X79189074Y-82483720D01*
X79063720Y-82609074D01*
X78916309Y-82707571D01*
X78752521Y-82775414D01*
X78578644Y-82810000D01*
X78401356Y-82810000D01*
X78227479Y-82775414D01*
X78063691Y-82707571D01*
X77916280Y-82609074D01*
X77790926Y-82483720D01*
X77692429Y-82336309D01*
X77624586Y-82172521D01*
X77590000Y-81998644D01*
X77590000Y-81821356D01*
X77624586Y-81647479D01*
X77692429Y-81483691D01*
X77790926Y-81336280D01*
X77916280Y-81210926D01*
X78063691Y-81112429D01*
X78227479Y-81044586D01*
X78401356Y-81010000D01*
X78578644Y-81010000D01*
X78752521Y-81044586D01*
X78752521Y-81044586D01*
G37*
G36*
X114312521Y-81044586D02*
X114476309Y-81112429D01*
X114623720Y-81210926D01*
X114749074Y-81336280D01*
X114847571Y-81483691D01*
X114915414Y-81647479D01*
X114950000Y-81821356D01*
X114950000Y-81998644D01*
X114915414Y-82172521D01*
X114847571Y-82336309D01*
X114749074Y-82483720D01*
X114623720Y-82609074D01*
X114476309Y-82707571D01*
X114312521Y-82775414D01*
X114138644Y-82810000D01*
X113961356Y-82810000D01*
X113787479Y-82775414D01*
X113623691Y-82707571D01*
X113476280Y-82609074D01*
X113350926Y-82483720D01*
X113252429Y-82336309D01*
X113184586Y-82172521D01*
X113150000Y-81998644D01*
X113150000Y-81821356D01*
X113184586Y-81647479D01*
X113252429Y-81483691D01*
X113350926Y-81336280D01*
X113476280Y-81210926D01*
X113623691Y-81112429D01*
X113787479Y-81044586D01*
X113961356Y-81010000D01*
X114138644Y-81010000D01*
X114312521Y-81044586D01*
X114312521Y-81044586D01*
G37*
G36*
X106692521Y-81044586D02*
X106856309Y-81112429D01*
X107003720Y-81210926D01*
X107129074Y-81336280D01*
X107227571Y-81483691D01*
X107295414Y-81647479D01*
X107330000Y-81821356D01*
X107330000Y-81998644D01*
X107295414Y-82172521D01*
X107227571Y-82336309D01*
X107129074Y-82483720D01*
X107003720Y-82609074D01*
X106856309Y-82707571D01*
X106692521Y-82775414D01*
X106518644Y-82810000D01*
X106341356Y-82810000D01*
X106167479Y-82775414D01*
X106003691Y-82707571D01*
X105856280Y-82609074D01*
X105730926Y-82483720D01*
X105632429Y-82336309D01*
X105564586Y-82172521D01*
X105530000Y-81998644D01*
X105530000Y-81821356D01*
X105564586Y-81647479D01*
X105632429Y-81483691D01*
X105730926Y-81336280D01*
X105856280Y-81210926D01*
X106003691Y-81112429D01*
X106167479Y-81044586D01*
X106341356Y-81010000D01*
X106518644Y-81010000D01*
X106692521Y-81044586D01*
X106692521Y-81044586D01*
G37*
G36*
X96532521Y-81044586D02*
X96696309Y-81112429D01*
X96843720Y-81210926D01*
X96969074Y-81336280D01*
X97067571Y-81483691D01*
X97135414Y-81647479D01*
X97170000Y-81821356D01*
X97170000Y-81998644D01*
X97135414Y-82172521D01*
X97067571Y-82336309D01*
X96969074Y-82483720D01*
X96843720Y-82609074D01*
X96696309Y-82707571D01*
X96532521Y-82775414D01*
X96358644Y-82810000D01*
X96181356Y-82810000D01*
X96007479Y-82775414D01*
X95843691Y-82707571D01*
X95696280Y-82609074D01*
X95570926Y-82483720D01*
X95472429Y-82336309D01*
X95404586Y-82172521D01*
X95370000Y-81998644D01*
X95370000Y-81821356D01*
X95404586Y-81647479D01*
X95472429Y-81483691D01*
X95570926Y-81336280D01*
X95696280Y-81210926D01*
X95843691Y-81112429D01*
X96007479Y-81044586D01*
X96181356Y-81010000D01*
X96358644Y-81010000D01*
X96532521Y-81044586D01*
X96532521Y-81044586D01*
G37*
G36*
X93992521Y-81044586D02*
X94156309Y-81112429D01*
X94303720Y-81210926D01*
X94429074Y-81336280D01*
X94527571Y-81483691D01*
X94595414Y-81647479D01*
X94630000Y-81821356D01*
X94630000Y-81998644D01*
X94595414Y-82172521D01*
X94527571Y-82336309D01*
X94429074Y-82483720D01*
X94303720Y-82609074D01*
X94156309Y-82707571D01*
X93992521Y-82775414D01*
X93818644Y-82810000D01*
X93641356Y-82810000D01*
X93467479Y-82775414D01*
X93303691Y-82707571D01*
X93156280Y-82609074D01*
X93030926Y-82483720D01*
X92932429Y-82336309D01*
X92864586Y-82172521D01*
X92830000Y-81998644D01*
X92830000Y-81821356D01*
X92864586Y-81647479D01*
X92932429Y-81483691D01*
X93030926Y-81336280D01*
X93156280Y-81210926D01*
X93303691Y-81112429D01*
X93467479Y-81044586D01*
X93641356Y-81010000D01*
X93818644Y-81010000D01*
X93992521Y-81044586D01*
X93992521Y-81044586D01*
G37*
G36*
X91452521Y-81044586D02*
X91616309Y-81112429D01*
X91763720Y-81210926D01*
X91889074Y-81336280D01*
X91987571Y-81483691D01*
X92055414Y-81647479D01*
X92090000Y-81821356D01*
X92090000Y-81998644D01*
X92055414Y-82172521D01*
X91987571Y-82336309D01*
X91889074Y-82483720D01*
X91763720Y-82609074D01*
X91616309Y-82707571D01*
X91452521Y-82775414D01*
X91278644Y-82810000D01*
X91101356Y-82810000D01*
X90927479Y-82775414D01*
X90763691Y-82707571D01*
X90616280Y-82609074D01*
X90490926Y-82483720D01*
X90392429Y-82336309D01*
X90324586Y-82172521D01*
X90290000Y-81998644D01*
X90290000Y-81821356D01*
X90324586Y-81647479D01*
X90392429Y-81483691D01*
X90490926Y-81336280D01*
X90616280Y-81210926D01*
X90763691Y-81112429D01*
X90927479Y-81044586D01*
X91101356Y-81010000D01*
X91278644Y-81010000D01*
X91452521Y-81044586D01*
X91452521Y-81044586D01*
G37*
G36*
X88912521Y-81044586D02*
X89076309Y-81112429D01*
X89223720Y-81210926D01*
X89349074Y-81336280D01*
X89447571Y-81483691D01*
X89515414Y-81647479D01*
X89550000Y-81821356D01*
X89550000Y-81998644D01*
X89515414Y-82172521D01*
X89447571Y-82336309D01*
X89349074Y-82483720D01*
X89223720Y-82609074D01*
X89076309Y-82707571D01*
X88912521Y-82775414D01*
X88738644Y-82810000D01*
X88561356Y-82810000D01*
X88387479Y-82775414D01*
X88223691Y-82707571D01*
X88076280Y-82609074D01*
X87950926Y-82483720D01*
X87852429Y-82336309D01*
X87784586Y-82172521D01*
X87750000Y-81998644D01*
X87750000Y-81821356D01*
X87784586Y-81647479D01*
X87852429Y-81483691D01*
X87950926Y-81336280D01*
X88076280Y-81210926D01*
X88223691Y-81112429D01*
X88387479Y-81044586D01*
X88561356Y-81010000D01*
X88738644Y-81010000D01*
X88912521Y-81044586D01*
X88912521Y-81044586D01*
G37*
G36*
X86372521Y-81044586D02*
X86536309Y-81112429D01*
X86683720Y-81210926D01*
X86809074Y-81336280D01*
X86907571Y-81483691D01*
X86975414Y-81647479D01*
X87010000Y-81821356D01*
X87010000Y-81998644D01*
X86975414Y-82172521D01*
X86907571Y-82336309D01*
X86809074Y-82483720D01*
X86683720Y-82609074D01*
X86536309Y-82707571D01*
X86372521Y-82775414D01*
X86198644Y-82810000D01*
X86021356Y-82810000D01*
X85847479Y-82775414D01*
X85683691Y-82707571D01*
X85536280Y-82609074D01*
X85410926Y-82483720D01*
X85312429Y-82336309D01*
X85244586Y-82172521D01*
X85210000Y-81998644D01*
X85210000Y-81821356D01*
X85244586Y-81647479D01*
X85312429Y-81483691D01*
X85410926Y-81336280D01*
X85536280Y-81210926D01*
X85683691Y-81112429D01*
X85847479Y-81044586D01*
X86021356Y-81010000D01*
X86198644Y-81010000D01*
X86372521Y-81044586D01*
X86372521Y-81044586D01*
G37*
G36*
X83832521Y-81044586D02*
X83996309Y-81112429D01*
X84143720Y-81210926D01*
X84269074Y-81336280D01*
X84367571Y-81483691D01*
X84435414Y-81647479D01*
X84470000Y-81821356D01*
X84470000Y-81998644D01*
X84435414Y-82172521D01*
X84367571Y-82336309D01*
X84269074Y-82483720D01*
X84143720Y-82609074D01*
X83996309Y-82707571D01*
X83832521Y-82775414D01*
X83658644Y-82810000D01*
X83481356Y-82810000D01*
X83307479Y-82775414D01*
X83143691Y-82707571D01*
X82996280Y-82609074D01*
X82870926Y-82483720D01*
X82772429Y-82336309D01*
X82704586Y-82172521D01*
X82670000Y-81998644D01*
X82670000Y-81821356D01*
X82704586Y-81647479D01*
X82772429Y-81483691D01*
X82870926Y-81336280D01*
X82996280Y-81210926D01*
X83143691Y-81112429D01*
X83307479Y-81044586D01*
X83481356Y-81010000D01*
X83658644Y-81010000D01*
X83832521Y-81044586D01*
X83832521Y-81044586D01*
G37*
G36*
X52675012Y-79423057D02*
X52784207Y-79468287D01*
X52882481Y-79533952D01*
X52966048Y-79617519D01*
X53031713Y-79715793D01*
X53076943Y-79824988D01*
X53100000Y-79940904D01*
X53100000Y-80059096D01*
X53076943Y-80175012D01*
X53031713Y-80284207D01*
X52966048Y-80382481D01*
X52882481Y-80466048D01*
X52784207Y-80531713D01*
X52675012Y-80576943D01*
X52559096Y-80600000D01*
X52440904Y-80600000D01*
X52324988Y-80576943D01*
X52215793Y-80531713D01*
X52117519Y-80466048D01*
X52033952Y-80382481D01*
X51968287Y-80284207D01*
X51923057Y-80175012D01*
X51900000Y-80059096D01*
X51900000Y-79940904D01*
X51923057Y-79824988D01*
X51968287Y-79715793D01*
X52033952Y-79617519D01*
X52117519Y-79533952D01*
X52215793Y-79468287D01*
X52324988Y-79423057D01*
X52440904Y-79400000D01*
X52559096Y-79400000D01*
X52675012Y-79423057D01*
X52675012Y-79423057D01*
G37*
G36*
X118375770Y-78215372D02*
X118491689Y-78238429D01*
X118673678Y-78313811D01*
X118837463Y-78423249D01*
X118976751Y-78562537D01*
X119086189Y-78726322D01*
X119161571Y-78908311D01*
X119200000Y-79101509D01*
X119200000Y-79298491D01*
X119161571Y-79491689D01*
X119086189Y-79673678D01*
X118976751Y-79837463D01*
X118837463Y-79976751D01*
X118673678Y-80086189D01*
X118491689Y-80161571D01*
X118375770Y-80184628D01*
X118298493Y-80200000D01*
X118101507Y-80200000D01*
X118024230Y-80184628D01*
X117908311Y-80161571D01*
X117726322Y-80086189D01*
X117562537Y-79976751D01*
X117423249Y-79837463D01*
X117313811Y-79673678D01*
X117238429Y-79491689D01*
X117200000Y-79298491D01*
X117200000Y-79101509D01*
X117238429Y-78908311D01*
X117313811Y-78726322D01*
X117423249Y-78562537D01*
X117562537Y-78423249D01*
X117726322Y-78313811D01*
X117908311Y-78238429D01*
X118024230Y-78215372D01*
X118101507Y-78200000D01*
X118298493Y-78200000D01*
X118375770Y-78215372D01*
X118375770Y-78215372D01*
G37*
G36*
X96531770Y-78215372D02*
X96647689Y-78238429D01*
X96829678Y-78313811D01*
X96993463Y-78423249D01*
X97132751Y-78562537D01*
X97242189Y-78726322D01*
X97317571Y-78908311D01*
X97356000Y-79101509D01*
X97356000Y-79298491D01*
X97317571Y-79491689D01*
X97242189Y-79673678D01*
X97132751Y-79837463D01*
X96993463Y-79976751D01*
X96829678Y-80086189D01*
X96647689Y-80161571D01*
X96531770Y-80184628D01*
X96454493Y-80200000D01*
X96257507Y-80200000D01*
X96180230Y-80184628D01*
X96064311Y-80161571D01*
X95882322Y-80086189D01*
X95718537Y-79976751D01*
X95579249Y-79837463D01*
X95469811Y-79673678D01*
X95394429Y-79491689D01*
X95356000Y-79298491D01*
X95356000Y-79101509D01*
X95394429Y-78908311D01*
X95469811Y-78726322D01*
X95579249Y-78562537D01*
X95718537Y-78423249D01*
X95882322Y-78313811D01*
X96064311Y-78238429D01*
X96180230Y-78215372D01*
X96257507Y-78200000D01*
X96454493Y-78200000D01*
X96531770Y-78215372D01*
X96531770Y-78215372D01*
G37*
G36*
X93991770Y-78215372D02*
X94107689Y-78238429D01*
X94289678Y-78313811D01*
X94453463Y-78423249D01*
X94592751Y-78562537D01*
X94702189Y-78726322D01*
X94777571Y-78908311D01*
X94816000Y-79101509D01*
X94816000Y-79298491D01*
X94777571Y-79491689D01*
X94702189Y-79673678D01*
X94592751Y-79837463D01*
X94453463Y-79976751D01*
X94289678Y-80086189D01*
X94107689Y-80161571D01*
X93991770Y-80184628D01*
X93914493Y-80200000D01*
X93717507Y-80200000D01*
X93640230Y-80184628D01*
X93524311Y-80161571D01*
X93342322Y-80086189D01*
X93178537Y-79976751D01*
X93039249Y-79837463D01*
X92929811Y-79673678D01*
X92854429Y-79491689D01*
X92816000Y-79298491D01*
X92816000Y-79101509D01*
X92854429Y-78908311D01*
X92929811Y-78726322D01*
X93039249Y-78562537D01*
X93178537Y-78423249D01*
X93342322Y-78313811D01*
X93524311Y-78238429D01*
X93640230Y-78215372D01*
X93717507Y-78200000D01*
X93914493Y-78200000D01*
X93991770Y-78215372D01*
X93991770Y-78215372D01*
G37*
G36*
X91451770Y-78215372D02*
X91567689Y-78238429D01*
X91749678Y-78313811D01*
X91913463Y-78423249D01*
X92052751Y-78562537D01*
X92162189Y-78726322D01*
X92237571Y-78908311D01*
X92276000Y-79101509D01*
X92276000Y-79298491D01*
X92237571Y-79491689D01*
X92162189Y-79673678D01*
X92052751Y-79837463D01*
X91913463Y-79976751D01*
X91749678Y-80086189D01*
X91567689Y-80161571D01*
X91451770Y-80184628D01*
X91374493Y-80200000D01*
X91177507Y-80200000D01*
X91100230Y-80184628D01*
X90984311Y-80161571D01*
X90802322Y-80086189D01*
X90638537Y-79976751D01*
X90499249Y-79837463D01*
X90389811Y-79673678D01*
X90314429Y-79491689D01*
X90276000Y-79298491D01*
X90276000Y-79101509D01*
X90314429Y-78908311D01*
X90389811Y-78726322D01*
X90499249Y-78562537D01*
X90638537Y-78423249D01*
X90802322Y-78313811D01*
X90984311Y-78238429D01*
X91100230Y-78215372D01*
X91177507Y-78200000D01*
X91374493Y-78200000D01*
X91451770Y-78215372D01*
X91451770Y-78215372D01*
G37*
G36*
X110755770Y-78215372D02*
X110871689Y-78238429D01*
X111053678Y-78313811D01*
X111217463Y-78423249D01*
X111356751Y-78562537D01*
X111466189Y-78726322D01*
X111541571Y-78908311D01*
X111580000Y-79101509D01*
X111580000Y-79298491D01*
X111541571Y-79491689D01*
X111466189Y-79673678D01*
X111356751Y-79837463D01*
X111217463Y-79976751D01*
X111053678Y-80086189D01*
X110871689Y-80161571D01*
X110755770Y-80184628D01*
X110678493Y-80200000D01*
X110481507Y-80200000D01*
X110404230Y-80184628D01*
X110288311Y-80161571D01*
X110106322Y-80086189D01*
X109942537Y-79976751D01*
X109803249Y-79837463D01*
X109693811Y-79673678D01*
X109618429Y-79491689D01*
X109580000Y-79298491D01*
X109580000Y-79101509D01*
X109618429Y-78908311D01*
X109693811Y-78726322D01*
X109803249Y-78562537D01*
X109942537Y-78423249D01*
X110106322Y-78313811D01*
X110288311Y-78238429D01*
X110404230Y-78215372D01*
X110481507Y-78200000D01*
X110678493Y-78200000D01*
X110755770Y-78215372D01*
X110755770Y-78215372D01*
G37*
G36*
X88911770Y-78215372D02*
X89027689Y-78238429D01*
X89209678Y-78313811D01*
X89373463Y-78423249D01*
X89512751Y-78562537D01*
X89622189Y-78726322D01*
X89697571Y-78908311D01*
X89736000Y-79101509D01*
X89736000Y-79298491D01*
X89697571Y-79491689D01*
X89622189Y-79673678D01*
X89512751Y-79837463D01*
X89373463Y-79976751D01*
X89209678Y-80086189D01*
X89027689Y-80161571D01*
X88911770Y-80184628D01*
X88834493Y-80200000D01*
X88637507Y-80200000D01*
X88560230Y-80184628D01*
X88444311Y-80161571D01*
X88262322Y-80086189D01*
X88098537Y-79976751D01*
X87959249Y-79837463D01*
X87849811Y-79673678D01*
X87774429Y-79491689D01*
X87736000Y-79298491D01*
X87736000Y-79101509D01*
X87774429Y-78908311D01*
X87849811Y-78726322D01*
X87959249Y-78562537D01*
X88098537Y-78423249D01*
X88262322Y-78313811D01*
X88444311Y-78238429D01*
X88560230Y-78215372D01*
X88637507Y-78200000D01*
X88834493Y-78200000D01*
X88911770Y-78215372D01*
X88911770Y-78215372D01*
G37*
G36*
X86371770Y-78215372D02*
X86487689Y-78238429D01*
X86669678Y-78313811D01*
X86833463Y-78423249D01*
X86972751Y-78562537D01*
X87082189Y-78726322D01*
X87157571Y-78908311D01*
X87196000Y-79101509D01*
X87196000Y-79298491D01*
X87157571Y-79491689D01*
X87082189Y-79673678D01*
X86972751Y-79837463D01*
X86833463Y-79976751D01*
X86669678Y-80086189D01*
X86487689Y-80161571D01*
X86371770Y-80184628D01*
X86294493Y-80200000D01*
X86097507Y-80200000D01*
X86020230Y-80184628D01*
X85904311Y-80161571D01*
X85722322Y-80086189D01*
X85558537Y-79976751D01*
X85419249Y-79837463D01*
X85309811Y-79673678D01*
X85234429Y-79491689D01*
X85196000Y-79298491D01*
X85196000Y-79101509D01*
X85234429Y-78908311D01*
X85309811Y-78726322D01*
X85419249Y-78562537D01*
X85558537Y-78423249D01*
X85722322Y-78313811D01*
X85904311Y-78238429D01*
X86020230Y-78215372D01*
X86097507Y-78200000D01*
X86294493Y-78200000D01*
X86371770Y-78215372D01*
X86371770Y-78215372D01*
G37*
G36*
X83831770Y-78215372D02*
X83947689Y-78238429D01*
X84129678Y-78313811D01*
X84293463Y-78423249D01*
X84432751Y-78562537D01*
X84542189Y-78726322D01*
X84617571Y-78908311D01*
X84656000Y-79101509D01*
X84656000Y-79298491D01*
X84617571Y-79491689D01*
X84542189Y-79673678D01*
X84432751Y-79837463D01*
X84293463Y-79976751D01*
X84129678Y-80086189D01*
X83947689Y-80161571D01*
X83831770Y-80184628D01*
X83754493Y-80200000D01*
X83557507Y-80200000D01*
X83480230Y-80184628D01*
X83364311Y-80161571D01*
X83182322Y-80086189D01*
X83018537Y-79976751D01*
X82879249Y-79837463D01*
X82769811Y-79673678D01*
X82694429Y-79491689D01*
X82656000Y-79298491D01*
X82656000Y-79101509D01*
X82694429Y-78908311D01*
X82769811Y-78726322D01*
X82879249Y-78562537D01*
X83018537Y-78423249D01*
X83182322Y-78313811D01*
X83364311Y-78238429D01*
X83480230Y-78215372D01*
X83557507Y-78200000D01*
X83754493Y-78200000D01*
X83831770Y-78215372D01*
X83831770Y-78215372D01*
G37*
G36*
X81291770Y-78215372D02*
X81407689Y-78238429D01*
X81589678Y-78313811D01*
X81753463Y-78423249D01*
X81892751Y-78562537D01*
X82002189Y-78726322D01*
X82077571Y-78908311D01*
X82116000Y-79101509D01*
X82116000Y-79298491D01*
X82077571Y-79491689D01*
X82002189Y-79673678D01*
X81892751Y-79837463D01*
X81753463Y-79976751D01*
X81589678Y-80086189D01*
X81407689Y-80161571D01*
X81291770Y-80184628D01*
X81214493Y-80200000D01*
X81017507Y-80200000D01*
X80940230Y-80184628D01*
X80824311Y-80161571D01*
X80642322Y-80086189D01*
X80478537Y-79976751D01*
X80339249Y-79837463D01*
X80229811Y-79673678D01*
X80154429Y-79491689D01*
X80116000Y-79298491D01*
X80116000Y-79101509D01*
X80154429Y-78908311D01*
X80229811Y-78726322D01*
X80339249Y-78562537D01*
X80478537Y-78423249D01*
X80642322Y-78313811D01*
X80824311Y-78238429D01*
X80940230Y-78215372D01*
X81017507Y-78200000D01*
X81214493Y-78200000D01*
X81291770Y-78215372D01*
X81291770Y-78215372D01*
G37*
G36*
X78751770Y-78215372D02*
X78867689Y-78238429D01*
X79049678Y-78313811D01*
X79213463Y-78423249D01*
X79352751Y-78562537D01*
X79462189Y-78726322D01*
X79537571Y-78908311D01*
X79576000Y-79101509D01*
X79576000Y-79298491D01*
X79537571Y-79491689D01*
X79462189Y-79673678D01*
X79352751Y-79837463D01*
X79213463Y-79976751D01*
X79049678Y-80086189D01*
X78867689Y-80161571D01*
X78751770Y-80184628D01*
X78674493Y-80200000D01*
X78477507Y-80200000D01*
X78400230Y-80184628D01*
X78284311Y-80161571D01*
X78102322Y-80086189D01*
X77938537Y-79976751D01*
X77799249Y-79837463D01*
X77689811Y-79673678D01*
X77614429Y-79491689D01*
X77576000Y-79298491D01*
X77576000Y-79101509D01*
X77614429Y-78908311D01*
X77689811Y-78726322D01*
X77799249Y-78562537D01*
X77938537Y-78423249D01*
X78102322Y-78313811D01*
X78284311Y-78238429D01*
X78400230Y-78215372D01*
X78477507Y-78200000D01*
X78674493Y-78200000D01*
X78751770Y-78215372D01*
X78751770Y-78215372D01*
G37*
G36*
X76211770Y-78215372D02*
X76327689Y-78238429D01*
X76509678Y-78313811D01*
X76673463Y-78423249D01*
X76812751Y-78562537D01*
X76922189Y-78726322D01*
X76997571Y-78908311D01*
X77036000Y-79101509D01*
X77036000Y-79298491D01*
X76997571Y-79491689D01*
X76922189Y-79673678D01*
X76812751Y-79837463D01*
X76673463Y-79976751D01*
X76509678Y-80086189D01*
X76327689Y-80161571D01*
X76211770Y-80184628D01*
X76134493Y-80200000D01*
X75937507Y-80200000D01*
X75860230Y-80184628D01*
X75744311Y-80161571D01*
X75562322Y-80086189D01*
X75398537Y-79976751D01*
X75259249Y-79837463D01*
X75149811Y-79673678D01*
X75074429Y-79491689D01*
X75036000Y-79298491D01*
X75036000Y-79101509D01*
X75074429Y-78908311D01*
X75149811Y-78726322D01*
X75259249Y-78562537D01*
X75398537Y-78423249D01*
X75562322Y-78313811D01*
X75744311Y-78238429D01*
X75860230Y-78215372D01*
X75937507Y-78200000D01*
X76134493Y-78200000D01*
X76211770Y-78215372D01*
X76211770Y-78215372D01*
G37*
G36*
X73671770Y-78215372D02*
X73787689Y-78238429D01*
X73969678Y-78313811D01*
X74133463Y-78423249D01*
X74272751Y-78562537D01*
X74382189Y-78726322D01*
X74457571Y-78908311D01*
X74496000Y-79101509D01*
X74496000Y-79298491D01*
X74457571Y-79491689D01*
X74382189Y-79673678D01*
X74272751Y-79837463D01*
X74133463Y-79976751D01*
X73969678Y-80086189D01*
X73787689Y-80161571D01*
X73671770Y-80184628D01*
X73594493Y-80200000D01*
X73397507Y-80200000D01*
X73320230Y-80184628D01*
X73204311Y-80161571D01*
X73022322Y-80086189D01*
X72858537Y-79976751D01*
X72719249Y-79837463D01*
X72609811Y-79673678D01*
X72534429Y-79491689D01*
X72496000Y-79298491D01*
X72496000Y-79101509D01*
X72534429Y-78908311D01*
X72609811Y-78726322D01*
X72719249Y-78562537D01*
X72858537Y-78423249D01*
X73022322Y-78313811D01*
X73204311Y-78238429D01*
X73320230Y-78215372D01*
X73397507Y-78200000D01*
X73594493Y-78200000D01*
X73671770Y-78215372D01*
X73671770Y-78215372D01*
G37*
G36*
X115835770Y-78215372D02*
X115951689Y-78238429D01*
X116133678Y-78313811D01*
X116297463Y-78423249D01*
X116436751Y-78562537D01*
X116546189Y-78726322D01*
X116621571Y-78908311D01*
X116660000Y-79101509D01*
X116660000Y-79298491D01*
X116621571Y-79491689D01*
X116546189Y-79673678D01*
X116436751Y-79837463D01*
X116297463Y-79976751D01*
X116133678Y-80086189D01*
X115951689Y-80161571D01*
X115835770Y-80184628D01*
X115758493Y-80200000D01*
X115561507Y-80200000D01*
X115484230Y-80184628D01*
X115368311Y-80161571D01*
X115186322Y-80086189D01*
X115022537Y-79976751D01*
X114883249Y-79837463D01*
X114773811Y-79673678D01*
X114698429Y-79491689D01*
X114660000Y-79298491D01*
X114660000Y-79101509D01*
X114698429Y-78908311D01*
X114773811Y-78726322D01*
X114883249Y-78562537D01*
X115022537Y-78423249D01*
X115186322Y-78313811D01*
X115368311Y-78238429D01*
X115484230Y-78215372D01*
X115561507Y-78200000D01*
X115758493Y-78200000D01*
X115835770Y-78215372D01*
X115835770Y-78215372D01*
G37*
G36*
X113295770Y-78215372D02*
X113411689Y-78238429D01*
X113593678Y-78313811D01*
X113757463Y-78423249D01*
X113896751Y-78562537D01*
X114006189Y-78726322D01*
X114081571Y-78908311D01*
X114120000Y-79101509D01*
X114120000Y-79298491D01*
X114081571Y-79491689D01*
X114006189Y-79673678D01*
X113896751Y-79837463D01*
X113757463Y-79976751D01*
X113593678Y-80086189D01*
X113411689Y-80161571D01*
X113295770Y-80184628D01*
X113218493Y-80200000D01*
X113021507Y-80200000D01*
X112944230Y-80184628D01*
X112828311Y-80161571D01*
X112646322Y-80086189D01*
X112482537Y-79976751D01*
X112343249Y-79837463D01*
X112233811Y-79673678D01*
X112158429Y-79491689D01*
X112120000Y-79298491D01*
X112120000Y-79101509D01*
X112158429Y-78908311D01*
X112233811Y-78726322D01*
X112343249Y-78562537D01*
X112482537Y-78423249D01*
X112646322Y-78313811D01*
X112828311Y-78238429D01*
X112944230Y-78215372D01*
X113021507Y-78200000D01*
X113218493Y-78200000D01*
X113295770Y-78215372D01*
X113295770Y-78215372D01*
G37*
G36*
X108215770Y-78215372D02*
X108331689Y-78238429D01*
X108513678Y-78313811D01*
X108677463Y-78423249D01*
X108816751Y-78562537D01*
X108926189Y-78726322D01*
X109001571Y-78908311D01*
X109040000Y-79101509D01*
X109040000Y-79298491D01*
X109001571Y-79491689D01*
X108926189Y-79673678D01*
X108816751Y-79837463D01*
X108677463Y-79976751D01*
X108513678Y-80086189D01*
X108331689Y-80161571D01*
X108215770Y-80184628D01*
X108138493Y-80200000D01*
X107941507Y-80200000D01*
X107864230Y-80184628D01*
X107748311Y-80161571D01*
X107566322Y-80086189D01*
X107402537Y-79976751D01*
X107263249Y-79837463D01*
X107153811Y-79673678D01*
X107078429Y-79491689D01*
X107040000Y-79298491D01*
X107040000Y-79101509D01*
X107078429Y-78908311D01*
X107153811Y-78726322D01*
X107263249Y-78562537D01*
X107402537Y-78423249D01*
X107566322Y-78313811D01*
X107748311Y-78238429D01*
X107864230Y-78215372D01*
X107941507Y-78200000D01*
X108138493Y-78200000D01*
X108215770Y-78215372D01*
X108215770Y-78215372D01*
G37*
G36*
X105675770Y-78215372D02*
X105791689Y-78238429D01*
X105973678Y-78313811D01*
X106137463Y-78423249D01*
X106276751Y-78562537D01*
X106386189Y-78726322D01*
X106461571Y-78908311D01*
X106500000Y-79101509D01*
X106500000Y-79298491D01*
X106461571Y-79491689D01*
X106386189Y-79673678D01*
X106276751Y-79837463D01*
X106137463Y-79976751D01*
X105973678Y-80086189D01*
X105791689Y-80161571D01*
X105675770Y-80184628D01*
X105598493Y-80200000D01*
X105401507Y-80200000D01*
X105324230Y-80184628D01*
X105208311Y-80161571D01*
X105026322Y-80086189D01*
X104862537Y-79976751D01*
X104723249Y-79837463D01*
X104613811Y-79673678D01*
X104538429Y-79491689D01*
X104500000Y-79298491D01*
X104500000Y-79101509D01*
X104538429Y-78908311D01*
X104613811Y-78726322D01*
X104723249Y-78562537D01*
X104862537Y-78423249D01*
X105026322Y-78313811D01*
X105208311Y-78238429D01*
X105324230Y-78215372D01*
X105401507Y-78200000D01*
X105598493Y-78200000D01*
X105675770Y-78215372D01*
X105675770Y-78215372D01*
G37*
G36*
X103135770Y-78215372D02*
X103251689Y-78238429D01*
X103433678Y-78313811D01*
X103597463Y-78423249D01*
X103736751Y-78562537D01*
X103846189Y-78726322D01*
X103921571Y-78908311D01*
X103960000Y-79101509D01*
X103960000Y-79298491D01*
X103921571Y-79491689D01*
X103846189Y-79673678D01*
X103736751Y-79837463D01*
X103597463Y-79976751D01*
X103433678Y-80086189D01*
X103251689Y-80161571D01*
X103135770Y-80184628D01*
X103058493Y-80200000D01*
X102861507Y-80200000D01*
X102784230Y-80184628D01*
X102668311Y-80161571D01*
X102486322Y-80086189D01*
X102322537Y-79976751D01*
X102183249Y-79837463D01*
X102073811Y-79673678D01*
X101998429Y-79491689D01*
X101960000Y-79298491D01*
X101960000Y-79101509D01*
X101998429Y-78908311D01*
X102073811Y-78726322D01*
X102183249Y-78562537D01*
X102322537Y-78423249D01*
X102486322Y-78313811D01*
X102668311Y-78238429D01*
X102784230Y-78215372D01*
X102861507Y-78200000D01*
X103058493Y-78200000D01*
X103135770Y-78215372D01*
X103135770Y-78215372D01*
G37*
G36*
X100595770Y-78215372D02*
X100711689Y-78238429D01*
X100893678Y-78313811D01*
X101057463Y-78423249D01*
X101196751Y-78562537D01*
X101306189Y-78726322D01*
X101381571Y-78908311D01*
X101420000Y-79101509D01*
X101420000Y-79298491D01*
X101381571Y-79491689D01*
X101306189Y-79673678D01*
X101196751Y-79837463D01*
X101057463Y-79976751D01*
X100893678Y-80086189D01*
X100711689Y-80161571D01*
X100595770Y-80184628D01*
X100518493Y-80200000D01*
X100321507Y-80200000D01*
X100244230Y-80184628D01*
X100128311Y-80161571D01*
X99946322Y-80086189D01*
X99782537Y-79976751D01*
X99643249Y-79837463D01*
X99533811Y-79673678D01*
X99458429Y-79491689D01*
X99420000Y-79298491D01*
X99420000Y-79101509D01*
X99458429Y-78908311D01*
X99533811Y-78726322D01*
X99643249Y-78562537D01*
X99782537Y-78423249D01*
X99946322Y-78313811D01*
X100128311Y-78238429D01*
X100244230Y-78215372D01*
X100321507Y-78200000D01*
X100518493Y-78200000D01*
X100595770Y-78215372D01*
X100595770Y-78215372D01*
G37*
G36*
X55975000Y-79600000D02*
X54025000Y-79600000D01*
X54025000Y-77900000D01*
X55975000Y-77900000D01*
X55975000Y-79600000D01*
X55975000Y-79600000D01*
G37*
G36*
X63975000Y-79600000D02*
X62025000Y-79600000D01*
X62025000Y-77900000D01*
X63975000Y-77900000D01*
X63975000Y-79600000D01*
X63975000Y-79600000D01*
G37*
M02*
