G04 #@! TF.GenerationSoftware,KiCad,Pcbnew,5.0.2-bee76a0~70~ubuntu18.04.1*
G04 #@! TF.CreationDate,2019-08-23T08:39:18+02:00*
G04 #@! TF.ProjectId,ArduHMIShield,41726475-484d-4495-9368-69656c642e6b,1.2*
G04 #@! TF.SameCoordinates,Original*
G04 #@! TF.FileFunction,Legend,Bot*
G04 #@! TF.FilePolarity,Positive*
%FSLAX46Y46*%
G04 Gerber Fmt 4.6, Leading zero omitted, Abs format (unit mm)*
G04 Created by KiCad (PCBNEW 5.0.2-bee76a0~70~ubuntu18.04.1) date Fr 23 Aug 2019 08:39:18 CEST*
%MOMM*%
%LPD*%
G01*
G04 APERTURE LIST*
%ADD10C,0.500000*%
%ADD11C,1.250000*%
%ADD12C,0.010000*%
G04 APERTURE END LIST*
D10*
X77984523Y-87221428D02*
X77222619Y-87221428D01*
X77698809Y-88554761D02*
X77698809Y-86840476D01*
X77603571Y-86650000D01*
X77413095Y-86554761D01*
X77222619Y-86554761D01*
X76270238Y-88554761D02*
X76460714Y-88459523D01*
X76555952Y-88364285D01*
X76651190Y-88173809D01*
X76651190Y-87602380D01*
X76555952Y-87411904D01*
X76460714Y-87316666D01*
X76270238Y-87221428D01*
X75984523Y-87221428D01*
X75794047Y-87316666D01*
X75698809Y-87411904D01*
X75603571Y-87602380D01*
X75603571Y-88173809D01*
X75698809Y-88364285D01*
X75794047Y-88459523D01*
X75984523Y-88554761D01*
X76270238Y-88554761D01*
X74746428Y-88554761D02*
X74746428Y-87221428D01*
X74746428Y-87602380D02*
X74651190Y-87411904D01*
X74555952Y-87316666D01*
X74365476Y-87221428D01*
X74175000Y-87221428D01*
X77698809Y-91007142D02*
X77032142Y-91007142D01*
X76746428Y-92054761D02*
X77698809Y-92054761D01*
X77698809Y-90054761D01*
X76746428Y-90054761D01*
X75984523Y-91483333D02*
X75032142Y-91483333D01*
X76175000Y-92054761D02*
X75508333Y-90054761D01*
X74841666Y-92054761D01*
X72651190Y-92054761D02*
X72651190Y-90054761D01*
X72175000Y-90054761D01*
X71889285Y-90150000D01*
X71698809Y-90340476D01*
X71603571Y-90530952D01*
X71508333Y-90911904D01*
X71508333Y-91197619D01*
X71603571Y-91578571D01*
X71698809Y-91769047D01*
X71889285Y-91959523D01*
X72175000Y-92054761D01*
X72651190Y-92054761D01*
X70270238Y-90054761D02*
X69889285Y-90054761D01*
X69698809Y-90150000D01*
X69508333Y-90340476D01*
X69413095Y-90721428D01*
X69413095Y-91388095D01*
X69508333Y-91769047D01*
X69698809Y-91959523D01*
X69889285Y-92054761D01*
X70270238Y-92054761D01*
X70460714Y-91959523D01*
X70651190Y-91769047D01*
X70746428Y-91388095D01*
X70746428Y-90721428D01*
X70651190Y-90340476D01*
X70460714Y-90150000D01*
X70270238Y-90054761D01*
X67508333Y-90150000D02*
X67698809Y-90054761D01*
X67984523Y-90054761D01*
X68270238Y-90150000D01*
X68460714Y-90340476D01*
X68555952Y-90530952D01*
X68651190Y-90911904D01*
X68651190Y-91197619D01*
X68555952Y-91578571D01*
X68460714Y-91769047D01*
X68270238Y-91959523D01*
X67984523Y-92054761D01*
X67794047Y-92054761D01*
X67508333Y-91959523D01*
X67413095Y-91864285D01*
X67413095Y-91197619D01*
X67794047Y-91197619D01*
X66651190Y-91959523D02*
X66365476Y-92054761D01*
X65889285Y-92054761D01*
X65698809Y-91959523D01*
X65603571Y-91864285D01*
X65508333Y-91673809D01*
X65508333Y-91483333D01*
X65603571Y-91292857D01*
X65698809Y-91197619D01*
X65889285Y-91102380D01*
X66270238Y-91007142D01*
X66460714Y-90911904D01*
X66555952Y-90816666D01*
X66651190Y-90626190D01*
X66651190Y-90435714D01*
X66555952Y-90245238D01*
X66460714Y-90150000D01*
X66270238Y-90054761D01*
X65794047Y-90054761D01*
X65508333Y-90150000D01*
X63603571Y-92054761D02*
X64746428Y-92054761D01*
X64175000Y-92054761D02*
X64175000Y-90054761D01*
X64365476Y-90340476D01*
X64555952Y-90530952D01*
X64746428Y-90626190D01*
X62365476Y-90054761D02*
X62175000Y-90054761D01*
X61984523Y-90150000D01*
X61889285Y-90245238D01*
X61794047Y-90435714D01*
X61698809Y-90816666D01*
X61698809Y-91292857D01*
X61794047Y-91673809D01*
X61889285Y-91864285D01*
X61984523Y-91959523D01*
X62175000Y-92054761D01*
X62365476Y-92054761D01*
X62555952Y-91959523D01*
X62651190Y-91864285D01*
X62746428Y-91673809D01*
X62841666Y-91292857D01*
X62841666Y-90816666D01*
X62746428Y-90435714D01*
X62651190Y-90245238D01*
X62555952Y-90150000D01*
X62365476Y-90054761D01*
X60936904Y-90245238D02*
X60841666Y-90150000D01*
X60651190Y-90054761D01*
X60175000Y-90054761D01*
X59984523Y-90150000D01*
X59889285Y-90245238D01*
X59794047Y-90435714D01*
X59794047Y-90626190D01*
X59889285Y-90911904D01*
X61032142Y-92054761D01*
X59794047Y-92054761D01*
X58936904Y-91292857D02*
X57413095Y-91292857D01*
X55603571Y-90054761D02*
X55984523Y-90054761D01*
X56175000Y-90150000D01*
X56270238Y-90245238D01*
X56460714Y-90530952D01*
X56555952Y-90911904D01*
X56555952Y-91673809D01*
X56460714Y-91864285D01*
X56365476Y-91959523D01*
X56175000Y-92054761D01*
X55794047Y-92054761D01*
X55603571Y-91959523D01*
X55508333Y-91864285D01*
X55413095Y-91673809D01*
X55413095Y-91197619D01*
X55508333Y-91007142D01*
X55603571Y-90911904D01*
X55794047Y-90816666D01*
X56175000Y-90816666D01*
X56365476Y-90911904D01*
X56460714Y-91007142D01*
X56555952Y-91197619D01*
X77698809Y-94507142D02*
X77032142Y-94507142D01*
X76746428Y-95554761D02*
X77698809Y-95554761D01*
X77698809Y-93554761D01*
X76746428Y-93554761D01*
X75984523Y-94983333D02*
X75032142Y-94983333D01*
X76175000Y-95554761D02*
X75508333Y-93554761D01*
X74841666Y-95554761D01*
X72651190Y-95554761D02*
X72651190Y-93554761D01*
X72175000Y-93554761D01*
X71889285Y-93650000D01*
X71698809Y-93840476D01*
X71603571Y-94030952D01*
X71508333Y-94411904D01*
X71508333Y-94697619D01*
X71603571Y-95078571D01*
X71698809Y-95269047D01*
X71889285Y-95459523D01*
X72175000Y-95554761D01*
X72651190Y-95554761D01*
X70270238Y-93554761D02*
X69889285Y-93554761D01*
X69698809Y-93650000D01*
X69508333Y-93840476D01*
X69413095Y-94221428D01*
X69413095Y-94888095D01*
X69508333Y-95269047D01*
X69698809Y-95459523D01*
X69889285Y-95554761D01*
X70270238Y-95554761D01*
X70460714Y-95459523D01*
X70651190Y-95269047D01*
X70746428Y-94888095D01*
X70746428Y-94221428D01*
X70651190Y-93840476D01*
X70460714Y-93650000D01*
X70270238Y-93554761D01*
X67508333Y-93650000D02*
X67698809Y-93554761D01*
X67984523Y-93554761D01*
X68270238Y-93650000D01*
X68460714Y-93840476D01*
X68555952Y-94030952D01*
X68651190Y-94411904D01*
X68651190Y-94697619D01*
X68555952Y-95078571D01*
X68460714Y-95269047D01*
X68270238Y-95459523D01*
X67984523Y-95554761D01*
X67794047Y-95554761D01*
X67508333Y-95459523D01*
X67413095Y-95364285D01*
X67413095Y-94697619D01*
X67794047Y-94697619D01*
X66555952Y-95554761D02*
X66555952Y-93554761D01*
X65889285Y-94983333D01*
X65222619Y-93554761D01*
X65222619Y-95554761D01*
X63222619Y-95554761D02*
X64365476Y-95554761D01*
X63794047Y-95554761D02*
X63794047Y-93554761D01*
X63984523Y-93840476D01*
X64175000Y-94030952D01*
X64365476Y-94126190D01*
X62555952Y-93554761D02*
X61317857Y-93554761D01*
X61984523Y-94316666D01*
X61698809Y-94316666D01*
X61508333Y-94411904D01*
X61413095Y-94507142D01*
X61317857Y-94697619D01*
X61317857Y-95173809D01*
X61413095Y-95364285D01*
X61508333Y-95459523D01*
X61698809Y-95554761D01*
X62270238Y-95554761D01*
X62460714Y-95459523D01*
X62555952Y-95364285D01*
X60555952Y-93745238D02*
X60460714Y-93650000D01*
X60270238Y-93554761D01*
X59794047Y-93554761D01*
X59603571Y-93650000D01*
X59508333Y-93745238D01*
X59413095Y-93935714D01*
X59413095Y-94126190D01*
X59508333Y-94411904D01*
X60651190Y-95554761D01*
X59413095Y-95554761D01*
X58555952Y-94792857D02*
X57032142Y-94792857D01*
X55127380Y-93554761D02*
X56079761Y-93554761D01*
X56175000Y-94507142D01*
X56079761Y-94411904D01*
X55889285Y-94316666D01*
X55413095Y-94316666D01*
X55222619Y-94411904D01*
X55127380Y-94507142D01*
X55032142Y-94697619D01*
X55032142Y-95173809D01*
X55127380Y-95364285D01*
X55222619Y-95459523D01*
X55413095Y-95554761D01*
X55889285Y-95554761D01*
X56079761Y-95459523D01*
X56175000Y-95364285D01*
X77698809Y-98007142D02*
X77032142Y-98007142D01*
X76746428Y-99054761D02*
X77698809Y-99054761D01*
X77698809Y-97054761D01*
X76746428Y-97054761D01*
X75984523Y-98483333D02*
X75032142Y-98483333D01*
X76175000Y-99054761D02*
X75508333Y-97054761D01*
X74841666Y-99054761D01*
X72651190Y-99054761D02*
X72651190Y-97054761D01*
X72175000Y-97054761D01*
X71889285Y-97150000D01*
X71698809Y-97340476D01*
X71603571Y-97530952D01*
X71508333Y-97911904D01*
X71508333Y-98197619D01*
X71603571Y-98578571D01*
X71698809Y-98769047D01*
X71889285Y-98959523D01*
X72175000Y-99054761D01*
X72651190Y-99054761D01*
X70270238Y-97054761D02*
X69889285Y-97054761D01*
X69698809Y-97150000D01*
X69508333Y-97340476D01*
X69413095Y-97721428D01*
X69413095Y-98388095D01*
X69508333Y-98769047D01*
X69698809Y-98959523D01*
X69889285Y-99054761D01*
X70270238Y-99054761D01*
X70460714Y-98959523D01*
X70651190Y-98769047D01*
X70746428Y-98388095D01*
X70746428Y-97721428D01*
X70651190Y-97340476D01*
X70460714Y-97150000D01*
X70270238Y-97054761D01*
X67508333Y-97150000D02*
X67698809Y-97054761D01*
X67984523Y-97054761D01*
X68270238Y-97150000D01*
X68460714Y-97340476D01*
X68555952Y-97530952D01*
X68651190Y-97911904D01*
X68651190Y-98197619D01*
X68555952Y-98578571D01*
X68460714Y-98769047D01*
X68270238Y-98959523D01*
X67984523Y-99054761D01*
X67794047Y-99054761D01*
X67508333Y-98959523D01*
X67413095Y-98864285D01*
X67413095Y-98197619D01*
X67794047Y-98197619D01*
X66555952Y-99054761D02*
X66555952Y-97054761D01*
X65889285Y-98483333D01*
X65222619Y-97054761D01*
X65222619Y-99054761D01*
X63222619Y-99054761D02*
X64365476Y-99054761D01*
X63794047Y-99054761D02*
X63794047Y-97054761D01*
X63984523Y-97340476D01*
X64175000Y-97530952D01*
X64365476Y-97626190D01*
X62460714Y-97245238D02*
X62365476Y-97150000D01*
X62175000Y-97054761D01*
X61698809Y-97054761D01*
X61508333Y-97150000D01*
X61413095Y-97245238D01*
X61317857Y-97435714D01*
X61317857Y-97626190D01*
X61413095Y-97911904D01*
X62555952Y-99054761D01*
X61317857Y-99054761D01*
X60175000Y-97911904D02*
X60365476Y-97816666D01*
X60460714Y-97721428D01*
X60555952Y-97530952D01*
X60555952Y-97435714D01*
X60460714Y-97245238D01*
X60365476Y-97150000D01*
X60175000Y-97054761D01*
X59794047Y-97054761D01*
X59603571Y-97150000D01*
X59508333Y-97245238D01*
X59413095Y-97435714D01*
X59413095Y-97530952D01*
X59508333Y-97721428D01*
X59603571Y-97816666D01*
X59794047Y-97911904D01*
X60175000Y-97911904D01*
X60365476Y-98007142D01*
X60460714Y-98102380D01*
X60555952Y-98292857D01*
X60555952Y-98673809D01*
X60460714Y-98864285D01*
X60365476Y-98959523D01*
X60175000Y-99054761D01*
X59794047Y-99054761D01*
X59603571Y-98959523D01*
X59508333Y-98864285D01*
X59413095Y-98673809D01*
X59413095Y-98292857D01*
X59508333Y-98102380D01*
X59603571Y-98007142D01*
X59794047Y-97911904D01*
X58555952Y-98292857D02*
X57032142Y-98292857D01*
X55222619Y-97054761D02*
X55603571Y-97054761D01*
X55794047Y-97150000D01*
X55889285Y-97245238D01*
X56079761Y-97530952D01*
X56175000Y-97911904D01*
X56175000Y-98673809D01*
X56079761Y-98864285D01*
X55984523Y-98959523D01*
X55794047Y-99054761D01*
X55413095Y-99054761D01*
X55222619Y-98959523D01*
X55127380Y-98864285D01*
X55032142Y-98673809D01*
X55032142Y-98197619D01*
X55127380Y-98007142D01*
X55222619Y-97911904D01*
X55413095Y-97816666D01*
X55794047Y-97816666D01*
X55984523Y-97911904D01*
X56079761Y-98007142D01*
X56175000Y-98197619D01*
D11*
X109228571Y-115583333D02*
X106847619Y-115583333D01*
X109704761Y-117011904D02*
X108038095Y-112011904D01*
X106371428Y-117011904D01*
X104704761Y-117011904D02*
X104704761Y-113678571D01*
X104704761Y-114630952D02*
X104466666Y-114154761D01*
X104228571Y-113916666D01*
X103752380Y-113678571D01*
X103276190Y-113678571D01*
X99466666Y-117011904D02*
X99466666Y-112011904D01*
X99466666Y-116773809D02*
X99942857Y-117011904D01*
X100895238Y-117011904D01*
X101371428Y-116773809D01*
X101609523Y-116535714D01*
X101847619Y-116059523D01*
X101847619Y-114630952D01*
X101609523Y-114154761D01*
X101371428Y-113916666D01*
X100895238Y-113678571D01*
X99942857Y-113678571D01*
X99466666Y-113916666D01*
X94942857Y-113678571D02*
X94942857Y-117011904D01*
X97085714Y-113678571D02*
X97085714Y-116297619D01*
X96847619Y-116773809D01*
X96371428Y-117011904D01*
X95657142Y-117011904D01*
X95180952Y-116773809D01*
X94942857Y-116535714D01*
X92561904Y-117011904D02*
X92561904Y-112011904D01*
X92561904Y-114392857D02*
X89704761Y-114392857D01*
X89704761Y-117011904D02*
X89704761Y-112011904D01*
X87323809Y-117011904D02*
X87323809Y-112011904D01*
X85657142Y-115583333D01*
X83990476Y-112011904D01*
X83990476Y-117011904D01*
X81609523Y-117011904D02*
X81609523Y-112011904D01*
D12*
G04 #@! TO.C,G\002A\002A\002A*
G36*
X89708000Y-102044800D02*
X114015800Y-102044800D01*
X114015800Y-98641200D01*
X113914200Y-98641200D01*
X113914200Y-101943200D01*
X98166200Y-101943200D01*
X98166200Y-99581000D01*
X97912200Y-99581000D01*
X97912200Y-101079600D01*
X97378800Y-101079600D01*
X97378659Y-100654150D01*
X97377038Y-100504479D01*
X97372651Y-100365673D01*
X97366060Y-100248715D01*
X97357826Y-100164590D01*
X97351999Y-100133209D01*
X97304991Y-100039271D01*
X97230880Y-99981207D01*
X97138743Y-99965926D01*
X97132980Y-99966504D01*
X97087146Y-99977521D01*
X97051594Y-100002641D01*
X97024890Y-100047709D01*
X97005600Y-100118568D01*
X96992287Y-100221065D01*
X96983519Y-100361042D01*
X96977859Y-100544346D01*
X96976653Y-100603350D01*
X96967642Y-101079600D01*
X96464400Y-101079600D01*
X96463890Y-100743050D01*
X96459732Y-100510237D01*
X96447320Y-100324017D01*
X96425577Y-100180690D01*
X96393424Y-100076557D01*
X96349783Y-100007920D01*
X96293576Y-99971079D01*
X96236228Y-99962000D01*
X96176061Y-99970673D01*
X96128435Y-99999846D01*
X96092056Y-100054250D01*
X96065626Y-100138616D01*
X96047851Y-100257676D01*
X96037435Y-100416160D01*
X96033081Y-100618799D01*
X96032748Y-100704950D01*
X96032600Y-101079600D01*
X95524600Y-101079600D01*
X95524600Y-100635100D01*
X95231407Y-100635100D01*
X95211834Y-100800793D01*
X95155787Y-100932492D01*
X95064282Y-101028838D01*
X94938333Y-101088469D01*
X94883999Y-101100818D01*
X94758557Y-101109753D01*
X94627997Y-101098150D01*
X94511399Y-101068935D01*
X94437295Y-101032285D01*
X94377460Y-100985143D01*
X94332977Y-100942500D01*
X94331785Y-100941085D01*
X94296714Y-100908250D01*
X94268334Y-100913012D01*
X94236961Y-100959732D01*
X94221616Y-100990700D01*
X94179222Y-101079600D01*
X93792502Y-101079600D01*
X93441800Y-101079600D01*
X92908400Y-101079600D01*
X92907962Y-100870050D01*
X92906924Y-100766605D01*
X92901713Y-100700943D01*
X92888390Y-100660047D01*
X92863012Y-100630901D01*
X92827612Y-100604659D01*
X92747702Y-100548818D01*
X92584827Y-100814209D01*
X92421953Y-101079600D01*
X92131777Y-101079600D01*
X92017185Y-101078266D01*
X91923941Y-101074644D01*
X91862104Y-101069297D01*
X91841600Y-101063292D01*
X91854747Y-101037865D01*
X91891374Y-100976651D01*
X91947264Y-100886449D01*
X92018200Y-100774056D01*
X92099965Y-100646270D01*
X92109285Y-100631805D01*
X92282958Y-100362438D01*
X91687290Y-100362438D01*
X91670469Y-100534072D01*
X91651351Y-100613633D01*
X91577277Y-100784653D01*
X91467349Y-100919699D01*
X91321636Y-101018717D01*
X91140206Y-101081653D01*
X91038000Y-101099340D01*
X90894957Y-101107942D01*
X90737210Y-101102587D01*
X90584700Y-101084955D01*
X90457367Y-101056728D01*
X90431900Y-101048247D01*
X90330300Y-101011159D01*
X90322838Y-100829479D01*
X90320838Y-100727704D01*
X90329842Y-100669760D01*
X90356834Y-100648839D01*
X90408797Y-100658133D01*
X90473249Y-100682832D01*
X90591178Y-100717289D01*
X90727208Y-100736437D01*
X90858685Y-100738269D01*
X90949086Y-100724946D01*
X91038601Y-100684136D01*
X91110273Y-100621123D01*
X91151029Y-100549033D01*
X91155800Y-100517374D01*
X91152887Y-100500506D01*
X91139571Y-100488190D01*
X91108987Y-100479715D01*
X91054271Y-100474371D01*
X90968558Y-100471444D01*
X90844983Y-100470225D01*
X90698600Y-100470000D01*
X90241400Y-100470000D01*
X90241400Y-100267314D01*
X90258355Y-100061936D01*
X90309883Y-99892718D01*
X90396980Y-99757695D01*
X90520640Y-99654908D01*
X90564573Y-99630290D01*
X90629533Y-99600652D01*
X90693384Y-99582144D01*
X90771133Y-99572287D01*
X90877787Y-99568604D01*
X90939900Y-99568300D01*
X91115289Y-99575930D01*
X91253651Y-99601499D01*
X91366816Y-99649022D01*
X91466613Y-99722515D01*
X91505736Y-99760389D01*
X91584016Y-99872251D01*
X91641847Y-100018539D01*
X91677010Y-100186264D01*
X91687290Y-100362438D01*
X92282958Y-100362438D01*
X92376970Y-100216626D01*
X92123181Y-99905163D01*
X91869393Y-99593700D01*
X92153947Y-99586314D01*
X92253861Y-99582672D01*
X92328910Y-99580973D01*
X92386674Y-99586111D01*
X92434729Y-99602981D01*
X92480654Y-99636477D01*
X92532028Y-99691494D01*
X92596427Y-99772928D01*
X92681431Y-99885672D01*
X92742483Y-99966448D01*
X92929297Y-100212196D01*
X92925199Y-99610848D01*
X92921100Y-99009500D01*
X93441800Y-98995022D01*
X93441800Y-101079600D01*
X93792502Y-101079600D01*
X93803122Y-100514450D01*
X93807559Y-100317260D01*
X93812891Y-100164272D01*
X93819634Y-100048886D01*
X93828306Y-99964506D01*
X93839423Y-99904532D01*
X93853504Y-99862368D01*
X93854391Y-99860400D01*
X93929282Y-99736547D01*
X94028006Y-99646799D01*
X94156205Y-99588338D01*
X94319519Y-99558344D01*
X94470002Y-99552849D01*
X94663431Y-99565355D01*
X94846908Y-99597192D01*
X95001070Y-99644968D01*
X95004994Y-99646593D01*
X95090187Y-99682189D01*
X95025961Y-99828444D01*
X94989199Y-99908430D01*
X94958110Y-99969528D01*
X94941704Y-99995494D01*
X94909436Y-99998600D01*
X94842477Y-99987781D01*
X94754271Y-99965343D01*
X94738504Y-99960652D01*
X94596732Y-99927159D01*
X94489762Y-99925121D01*
X94411830Y-99955415D01*
X94357402Y-100018509D01*
X94334936Y-100070151D01*
X94333693Y-100100351D01*
X94333873Y-100100539D01*
X94363820Y-100108932D01*
X94432724Y-100119833D01*
X94528914Y-100131557D01*
X94596745Y-100138464D01*
X94806642Y-100169877D01*
X94971534Y-100221278D01*
X95093901Y-100294608D01*
X95176224Y-100391810D01*
X95220985Y-100514824D01*
X95231407Y-100635100D01*
X95524600Y-100635100D01*
X95524600Y-100525324D01*
X95525832Y-100308908D01*
X95530386Y-100136547D01*
X95539549Y-100001536D01*
X95554607Y-99897171D01*
X95576847Y-99816747D01*
X95607557Y-99753559D01*
X95648024Y-99700904D01*
X95690756Y-99659680D01*
X95801102Y-99593908D01*
X95937572Y-99559228D01*
X96086021Y-99555763D01*
X96232302Y-99583638D01*
X96362271Y-99642976D01*
X96378150Y-99653654D01*
X96453915Y-99704818D01*
X96501763Y-99727634D01*
X96534146Y-99724595D01*
X96563515Y-99698193D01*
X96568881Y-99691829D01*
X96650020Y-99628105D01*
X96762095Y-99585284D01*
X96892945Y-99563151D01*
X97030409Y-99561493D01*
X97162326Y-99580097D01*
X97276536Y-99618748D01*
X97360879Y-99677232D01*
X97383535Y-99706142D01*
X97417614Y-99749497D01*
X97443884Y-99748909D01*
X97469186Y-99701819D01*
X97480400Y-99669900D01*
X97509740Y-99581000D01*
X97912200Y-99581000D01*
X98166200Y-99581000D01*
X98166200Y-98641200D01*
X113914200Y-98641200D01*
X114015800Y-98641200D01*
X114015800Y-98514200D01*
X89708000Y-98514200D01*
X89708000Y-102044800D01*
X89708000Y-102044800D01*
G37*
X89708000Y-102044800D02*
X114015800Y-102044800D01*
X114015800Y-98641200D01*
X113914200Y-98641200D01*
X113914200Y-101943200D01*
X98166200Y-101943200D01*
X98166200Y-99581000D01*
X97912200Y-99581000D01*
X97912200Y-101079600D01*
X97378800Y-101079600D01*
X97378659Y-100654150D01*
X97377038Y-100504479D01*
X97372651Y-100365673D01*
X97366060Y-100248715D01*
X97357826Y-100164590D01*
X97351999Y-100133209D01*
X97304991Y-100039271D01*
X97230880Y-99981207D01*
X97138743Y-99965926D01*
X97132980Y-99966504D01*
X97087146Y-99977521D01*
X97051594Y-100002641D01*
X97024890Y-100047709D01*
X97005600Y-100118568D01*
X96992287Y-100221065D01*
X96983519Y-100361042D01*
X96977859Y-100544346D01*
X96976653Y-100603350D01*
X96967642Y-101079600D01*
X96464400Y-101079600D01*
X96463890Y-100743050D01*
X96459732Y-100510237D01*
X96447320Y-100324017D01*
X96425577Y-100180690D01*
X96393424Y-100076557D01*
X96349783Y-100007920D01*
X96293576Y-99971079D01*
X96236228Y-99962000D01*
X96176061Y-99970673D01*
X96128435Y-99999846D01*
X96092056Y-100054250D01*
X96065626Y-100138616D01*
X96047851Y-100257676D01*
X96037435Y-100416160D01*
X96033081Y-100618799D01*
X96032748Y-100704950D01*
X96032600Y-101079600D01*
X95524600Y-101079600D01*
X95524600Y-100635100D01*
X95231407Y-100635100D01*
X95211834Y-100800793D01*
X95155787Y-100932492D01*
X95064282Y-101028838D01*
X94938333Y-101088469D01*
X94883999Y-101100818D01*
X94758557Y-101109753D01*
X94627997Y-101098150D01*
X94511399Y-101068935D01*
X94437295Y-101032285D01*
X94377460Y-100985143D01*
X94332977Y-100942500D01*
X94331785Y-100941085D01*
X94296714Y-100908250D01*
X94268334Y-100913012D01*
X94236961Y-100959732D01*
X94221616Y-100990700D01*
X94179222Y-101079600D01*
X93792502Y-101079600D01*
X93441800Y-101079600D01*
X92908400Y-101079600D01*
X92907962Y-100870050D01*
X92906924Y-100766605D01*
X92901713Y-100700943D01*
X92888390Y-100660047D01*
X92863012Y-100630901D01*
X92827612Y-100604659D01*
X92747702Y-100548818D01*
X92584827Y-100814209D01*
X92421953Y-101079600D01*
X92131777Y-101079600D01*
X92017185Y-101078266D01*
X91923941Y-101074644D01*
X91862104Y-101069297D01*
X91841600Y-101063292D01*
X91854747Y-101037865D01*
X91891374Y-100976651D01*
X91947264Y-100886449D01*
X92018200Y-100774056D01*
X92099965Y-100646270D01*
X92109285Y-100631805D01*
X92282958Y-100362438D01*
X91687290Y-100362438D01*
X91670469Y-100534072D01*
X91651351Y-100613633D01*
X91577277Y-100784653D01*
X91467349Y-100919699D01*
X91321636Y-101018717D01*
X91140206Y-101081653D01*
X91038000Y-101099340D01*
X90894957Y-101107942D01*
X90737210Y-101102587D01*
X90584700Y-101084955D01*
X90457367Y-101056728D01*
X90431900Y-101048247D01*
X90330300Y-101011159D01*
X90322838Y-100829479D01*
X90320838Y-100727704D01*
X90329842Y-100669760D01*
X90356834Y-100648839D01*
X90408797Y-100658133D01*
X90473249Y-100682832D01*
X90591178Y-100717289D01*
X90727208Y-100736437D01*
X90858685Y-100738269D01*
X90949086Y-100724946D01*
X91038601Y-100684136D01*
X91110273Y-100621123D01*
X91151029Y-100549033D01*
X91155800Y-100517374D01*
X91152887Y-100500506D01*
X91139571Y-100488190D01*
X91108987Y-100479715D01*
X91054271Y-100474371D01*
X90968558Y-100471444D01*
X90844983Y-100470225D01*
X90698600Y-100470000D01*
X90241400Y-100470000D01*
X90241400Y-100267314D01*
X90258355Y-100061936D01*
X90309883Y-99892718D01*
X90396980Y-99757695D01*
X90520640Y-99654908D01*
X90564573Y-99630290D01*
X90629533Y-99600652D01*
X90693384Y-99582144D01*
X90771133Y-99572287D01*
X90877787Y-99568604D01*
X90939900Y-99568300D01*
X91115289Y-99575930D01*
X91253651Y-99601499D01*
X91366816Y-99649022D01*
X91466613Y-99722515D01*
X91505736Y-99760389D01*
X91584016Y-99872251D01*
X91641847Y-100018539D01*
X91677010Y-100186264D01*
X91687290Y-100362438D01*
X92282958Y-100362438D01*
X92376970Y-100216626D01*
X92123181Y-99905163D01*
X91869393Y-99593700D01*
X92153947Y-99586314D01*
X92253861Y-99582672D01*
X92328910Y-99580973D01*
X92386674Y-99586111D01*
X92434729Y-99602981D01*
X92480654Y-99636477D01*
X92532028Y-99691494D01*
X92596427Y-99772928D01*
X92681431Y-99885672D01*
X92742483Y-99966448D01*
X92929297Y-100212196D01*
X92925199Y-99610848D01*
X92921100Y-99009500D01*
X93441800Y-98995022D01*
X93441800Y-101079600D01*
X93792502Y-101079600D01*
X93803122Y-100514450D01*
X93807559Y-100317260D01*
X93812891Y-100164272D01*
X93819634Y-100048886D01*
X93828306Y-99964506D01*
X93839423Y-99904532D01*
X93853504Y-99862368D01*
X93854391Y-99860400D01*
X93929282Y-99736547D01*
X94028006Y-99646799D01*
X94156205Y-99588338D01*
X94319519Y-99558344D01*
X94470002Y-99552849D01*
X94663431Y-99565355D01*
X94846908Y-99597192D01*
X95001070Y-99644968D01*
X95004994Y-99646593D01*
X95090187Y-99682189D01*
X95025961Y-99828444D01*
X94989199Y-99908430D01*
X94958110Y-99969528D01*
X94941704Y-99995494D01*
X94909436Y-99998600D01*
X94842477Y-99987781D01*
X94754271Y-99965343D01*
X94738504Y-99960652D01*
X94596732Y-99927159D01*
X94489762Y-99925121D01*
X94411830Y-99955415D01*
X94357402Y-100018509D01*
X94334936Y-100070151D01*
X94333693Y-100100351D01*
X94333873Y-100100539D01*
X94363820Y-100108932D01*
X94432724Y-100119833D01*
X94528914Y-100131557D01*
X94596745Y-100138464D01*
X94806642Y-100169877D01*
X94971534Y-100221278D01*
X95093901Y-100294608D01*
X95176224Y-100391810D01*
X95220985Y-100514824D01*
X95231407Y-100635100D01*
X95524600Y-100635100D01*
X95524600Y-100525324D01*
X95525832Y-100308908D01*
X95530386Y-100136547D01*
X95539549Y-100001536D01*
X95554607Y-99897171D01*
X95576847Y-99816747D01*
X95607557Y-99753559D01*
X95648024Y-99700904D01*
X95690756Y-99659680D01*
X95801102Y-99593908D01*
X95937572Y-99559228D01*
X96086021Y-99555763D01*
X96232302Y-99583638D01*
X96362271Y-99642976D01*
X96378150Y-99653654D01*
X96453915Y-99704818D01*
X96501763Y-99727634D01*
X96534146Y-99724595D01*
X96563515Y-99698193D01*
X96568881Y-99691829D01*
X96650020Y-99628105D01*
X96762095Y-99585284D01*
X96892945Y-99563151D01*
X97030409Y-99561493D01*
X97162326Y-99580097D01*
X97276536Y-99618748D01*
X97360879Y-99677232D01*
X97383535Y-99706142D01*
X97417614Y-99749497D01*
X97443884Y-99748909D01*
X97469186Y-99701819D01*
X97480400Y-99669900D01*
X97509740Y-99581000D01*
X97912200Y-99581000D01*
X98166200Y-99581000D01*
X98166200Y-98641200D01*
X113914200Y-98641200D01*
X114015800Y-98641200D01*
X114015800Y-98514200D01*
X89708000Y-98514200D01*
X89708000Y-102044800D01*
G36*
X112866040Y-99562490D02*
X112701505Y-99567951D01*
X112663250Y-99569327D01*
X112161600Y-99587476D01*
X112161600Y-99707172D01*
X112164009Y-99780496D01*
X112178972Y-99820481D01*
X112218097Y-99844582D01*
X112263582Y-99860525D01*
X112327574Y-99885900D01*
X112352302Y-99911636D01*
X112348650Y-99947141D01*
X112332467Y-100064558D01*
X112347504Y-100195766D01*
X112390871Y-100316912D01*
X112394244Y-100323219D01*
X112482749Y-100432374D01*
X112613261Y-100513748D01*
X112785015Y-100566973D01*
X112943193Y-100588411D01*
X113047279Y-100597892D01*
X113110298Y-100608554D01*
X113141952Y-100623308D01*
X113151945Y-100645063D01*
X113152200Y-100651080D01*
X113147090Y-100676948D01*
X113126699Y-100695770D01*
X113083438Y-100709289D01*
X113009716Y-100719249D01*
X112897946Y-100727393D01*
X112796600Y-100732771D01*
X112662715Y-100743897D01*
X112543251Y-100762152D01*
X112455350Y-100784834D01*
X112447674Y-100787750D01*
X112318083Y-100862572D01*
X112230214Y-100963926D01*
X112185559Y-101087329D01*
X112185610Y-101228295D01*
X112231860Y-101382338D01*
X112242313Y-101405125D01*
X112323946Y-101518297D01*
X112447797Y-101610004D01*
X112609209Y-101678359D01*
X112803525Y-101721476D01*
X113026088Y-101737469D01*
X113062751Y-101737400D01*
X113175534Y-101734052D01*
X113277441Y-101727383D01*
X113351545Y-101718624D01*
X113368100Y-101715210D01*
X113526253Y-101658206D01*
X113639301Y-101579339D01*
X113708692Y-101477083D01*
X113735872Y-101349914D01*
X113736400Y-101326961D01*
X113732190Y-101308669D01*
X113295921Y-101308669D01*
X113264922Y-101358254D01*
X113189136Y-101397804D01*
X113065859Y-101429444D01*
X113048915Y-101432600D01*
X113018126Y-101429750D01*
X112952809Y-101419714D01*
X112883815Y-101407666D01*
X112783678Y-101380288D01*
X112698060Y-101340584D01*
X112639092Y-101295551D01*
X112618800Y-101254786D01*
X112643285Y-101209692D01*
X112714370Y-101174224D01*
X112828499Y-101149935D01*
X112869653Y-101145154D01*
X113032001Y-101139735D01*
X113158823Y-101158098D01*
X113246290Y-101199305D01*
X113284834Y-101246921D01*
X113295921Y-101308669D01*
X113732190Y-101308669D01*
X113715217Y-101234941D01*
X113660362Y-101140994D01*
X113584878Y-101063150D01*
X113517411Y-101024224D01*
X113452071Y-100994222D01*
X113435309Y-100966539D01*
X113465349Y-100936783D01*
X113478917Y-100929064D01*
X113521888Y-100888298D01*
X113558198Y-100826570D01*
X113573537Y-100730036D01*
X113540605Y-100639644D01*
X113461929Y-100562222D01*
X113459906Y-100560852D01*
X113387625Y-100512273D01*
X113483174Y-100421286D01*
X113576207Y-100301286D01*
X113621987Y-100163110D01*
X113621182Y-100062737D01*
X113126800Y-100062737D01*
X113112174Y-100177814D01*
X113069567Y-100254532D01*
X113000889Y-100290020D01*
X112974400Y-100292200D01*
X112896491Y-100269830D01*
X112861541Y-100235748D01*
X112829685Y-100155851D01*
X112823449Y-100058131D01*
X112840574Y-99961000D01*
X112878798Y-99882875D01*
X112908353Y-99854438D01*
X112975966Y-99833677D01*
X113039220Y-99856089D01*
X113090244Y-99914171D01*
X113121168Y-100000418D01*
X113126800Y-100062737D01*
X113621182Y-100062737D01*
X113620726Y-100006031D01*
X113614068Y-99968437D01*
X113564481Y-99820114D01*
X113481727Y-99708282D01*
X113361120Y-99627368D01*
X113308680Y-99605164D01*
X113256426Y-99586665D01*
X113207114Y-99573363D01*
X113152082Y-99564775D01*
X113082666Y-99560421D01*
X112990207Y-99559819D01*
X112866040Y-99562490D01*
X112866040Y-99562490D01*
G37*
X112866040Y-99562490D02*
X112701505Y-99567951D01*
X112663250Y-99569327D01*
X112161600Y-99587476D01*
X112161600Y-99707172D01*
X112164009Y-99780496D01*
X112178972Y-99820481D01*
X112218097Y-99844582D01*
X112263582Y-99860525D01*
X112327574Y-99885900D01*
X112352302Y-99911636D01*
X112348650Y-99947141D01*
X112332467Y-100064558D01*
X112347504Y-100195766D01*
X112390871Y-100316912D01*
X112394244Y-100323219D01*
X112482749Y-100432374D01*
X112613261Y-100513748D01*
X112785015Y-100566973D01*
X112943193Y-100588411D01*
X113047279Y-100597892D01*
X113110298Y-100608554D01*
X113141952Y-100623308D01*
X113151945Y-100645063D01*
X113152200Y-100651080D01*
X113147090Y-100676948D01*
X113126699Y-100695770D01*
X113083438Y-100709289D01*
X113009716Y-100719249D01*
X112897946Y-100727393D01*
X112796600Y-100732771D01*
X112662715Y-100743897D01*
X112543251Y-100762152D01*
X112455350Y-100784834D01*
X112447674Y-100787750D01*
X112318083Y-100862572D01*
X112230214Y-100963926D01*
X112185559Y-101087329D01*
X112185610Y-101228295D01*
X112231860Y-101382338D01*
X112242313Y-101405125D01*
X112323946Y-101518297D01*
X112447797Y-101610004D01*
X112609209Y-101678359D01*
X112803525Y-101721476D01*
X113026088Y-101737469D01*
X113062751Y-101737400D01*
X113175534Y-101734052D01*
X113277441Y-101727383D01*
X113351545Y-101718624D01*
X113368100Y-101715210D01*
X113526253Y-101658206D01*
X113639301Y-101579339D01*
X113708692Y-101477083D01*
X113735872Y-101349914D01*
X113736400Y-101326961D01*
X113732190Y-101308669D01*
X113295921Y-101308669D01*
X113264922Y-101358254D01*
X113189136Y-101397804D01*
X113065859Y-101429444D01*
X113048915Y-101432600D01*
X113018126Y-101429750D01*
X112952809Y-101419714D01*
X112883815Y-101407666D01*
X112783678Y-101380288D01*
X112698060Y-101340584D01*
X112639092Y-101295551D01*
X112618800Y-101254786D01*
X112643285Y-101209692D01*
X112714370Y-101174224D01*
X112828499Y-101149935D01*
X112869653Y-101145154D01*
X113032001Y-101139735D01*
X113158823Y-101158098D01*
X113246290Y-101199305D01*
X113284834Y-101246921D01*
X113295921Y-101308669D01*
X113732190Y-101308669D01*
X113715217Y-101234941D01*
X113660362Y-101140994D01*
X113584878Y-101063150D01*
X113517411Y-101024224D01*
X113452071Y-100994222D01*
X113435309Y-100966539D01*
X113465349Y-100936783D01*
X113478917Y-100929064D01*
X113521888Y-100888298D01*
X113558198Y-100826570D01*
X113573537Y-100730036D01*
X113540605Y-100639644D01*
X113461929Y-100562222D01*
X113459906Y-100560852D01*
X113387625Y-100512273D01*
X113483174Y-100421286D01*
X113576207Y-100301286D01*
X113621987Y-100163110D01*
X113621182Y-100062737D01*
X113126800Y-100062737D01*
X113112174Y-100177814D01*
X113069567Y-100254532D01*
X113000889Y-100290020D01*
X112974400Y-100292200D01*
X112896491Y-100269830D01*
X112861541Y-100235748D01*
X112829685Y-100155851D01*
X112823449Y-100058131D01*
X112840574Y-99961000D01*
X112878798Y-99882875D01*
X112908353Y-99854438D01*
X112975966Y-99833677D01*
X113039220Y-99856089D01*
X113090244Y-99914171D01*
X113121168Y-100000418D01*
X113126800Y-100062737D01*
X113621182Y-100062737D01*
X113620726Y-100006031D01*
X113614068Y-99968437D01*
X113564481Y-99820114D01*
X113481727Y-99708282D01*
X113361120Y-99627368D01*
X113308680Y-99605164D01*
X113256426Y-99586665D01*
X113207114Y-99573363D01*
X113152082Y-99564775D01*
X113082666Y-99560421D01*
X112990207Y-99559819D01*
X112866040Y-99562490D01*
G36*
X111174063Y-99560658D02*
X110984016Y-99586718D01*
X110830561Y-99642724D01*
X110710840Y-99731762D01*
X110621992Y-99856918D01*
X110561158Y-100021280D01*
X110525478Y-100227933D01*
X110521970Y-100264469D01*
X110504041Y-100470000D01*
X110977221Y-100470000D01*
X111143215Y-100470285D01*
X111265161Y-100471593D01*
X111349808Y-100474598D01*
X111403905Y-100479976D01*
X111434203Y-100488404D01*
X111447452Y-100500557D01*
X111450400Y-100517110D01*
X111450400Y-100517374D01*
X111428165Y-100587594D01*
X111370410Y-100657015D01*
X111290566Y-100711248D01*
X111256545Y-100725107D01*
X111157703Y-100741308D01*
X111030341Y-100739081D01*
X110892674Y-100719916D01*
X110762915Y-100685301D01*
X110760846Y-100684575D01*
X110691588Y-100661901D01*
X110642383Y-100648959D01*
X110633294Y-100647800D01*
X110622883Y-100671029D01*
X110617095Y-100732280D01*
X110617031Y-100818896D01*
X110617438Y-100829842D01*
X110624900Y-101011884D01*
X110751900Y-101056473D01*
X110871386Y-101084447D01*
X111021920Y-101099605D01*
X111185394Y-101101950D01*
X111343698Y-101091484D01*
X111478726Y-101068206D01*
X111518964Y-101056414D01*
X111683387Y-100978347D01*
X111810328Y-100868084D01*
X111901149Y-100723732D01*
X111957215Y-100543398D01*
X111974034Y-100424971D01*
X111975024Y-100203521D01*
X111957710Y-100118631D01*
X111441668Y-100118631D01*
X111422075Y-100130582D01*
X111373170Y-100137032D01*
X111286481Y-100139538D01*
X111221800Y-100139800D01*
X111111472Y-100138762D01*
X111043449Y-100134611D01*
X111009261Y-100125790D01*
X111000437Y-100110743D01*
X111003183Y-100099622D01*
X111016889Y-100051231D01*
X111018600Y-100036122D01*
X111041235Y-99986480D01*
X111098401Y-99942934D01*
X111173990Y-99915625D01*
X111217011Y-99911200D01*
X111293844Y-99924808D01*
X111364674Y-99959029D01*
X111413139Y-100003957D01*
X111425000Y-100037112D01*
X111433340Y-100078668D01*
X111440418Y-100099622D01*
X111441668Y-100118631D01*
X111957710Y-100118631D01*
X111935721Y-100010824D01*
X111858254Y-99849178D01*
X111744753Y-99720885D01*
X111597345Y-99628244D01*
X111418160Y-99573557D01*
X111209328Y-99559123D01*
X111174063Y-99560658D01*
X111174063Y-99560658D01*
G37*
X111174063Y-99560658D02*
X110984016Y-99586718D01*
X110830561Y-99642724D01*
X110710840Y-99731762D01*
X110621992Y-99856918D01*
X110561158Y-100021280D01*
X110525478Y-100227933D01*
X110521970Y-100264469D01*
X110504041Y-100470000D01*
X110977221Y-100470000D01*
X111143215Y-100470285D01*
X111265161Y-100471593D01*
X111349808Y-100474598D01*
X111403905Y-100479976D01*
X111434203Y-100488404D01*
X111447452Y-100500557D01*
X111450400Y-100517110D01*
X111450400Y-100517374D01*
X111428165Y-100587594D01*
X111370410Y-100657015D01*
X111290566Y-100711248D01*
X111256545Y-100725107D01*
X111157703Y-100741308D01*
X111030341Y-100739081D01*
X110892674Y-100719916D01*
X110762915Y-100685301D01*
X110760846Y-100684575D01*
X110691588Y-100661901D01*
X110642383Y-100648959D01*
X110633294Y-100647800D01*
X110622883Y-100671029D01*
X110617095Y-100732280D01*
X110617031Y-100818896D01*
X110617438Y-100829842D01*
X110624900Y-101011884D01*
X110751900Y-101056473D01*
X110871386Y-101084447D01*
X111021920Y-101099605D01*
X111185394Y-101101950D01*
X111343698Y-101091484D01*
X111478726Y-101068206D01*
X111518964Y-101056414D01*
X111683387Y-100978347D01*
X111810328Y-100868084D01*
X111901149Y-100723732D01*
X111957215Y-100543398D01*
X111974034Y-100424971D01*
X111975024Y-100203521D01*
X111957710Y-100118631D01*
X111441668Y-100118631D01*
X111422075Y-100130582D01*
X111373170Y-100137032D01*
X111286481Y-100139538D01*
X111221800Y-100139800D01*
X111111472Y-100138762D01*
X111043449Y-100134611D01*
X111009261Y-100125790D01*
X111000437Y-100110743D01*
X111003183Y-100099622D01*
X111016889Y-100051231D01*
X111018600Y-100036122D01*
X111041235Y-99986480D01*
X111098401Y-99942934D01*
X111173990Y-99915625D01*
X111217011Y-99911200D01*
X111293844Y-99924808D01*
X111364674Y-99959029D01*
X111413139Y-100003957D01*
X111425000Y-100037112D01*
X111433340Y-100078668D01*
X111440418Y-100099622D01*
X111441668Y-100118631D01*
X111957710Y-100118631D01*
X111935721Y-100010824D01*
X111858254Y-99849178D01*
X111744753Y-99720885D01*
X111597345Y-99628244D01*
X111418160Y-99573557D01*
X111209328Y-99559123D01*
X111174063Y-99560658D01*
G36*
X107578675Y-99560219D02*
X107416253Y-99593125D01*
X107382669Y-99604783D01*
X107239971Y-99675585D01*
X107132409Y-99769978D01*
X107056472Y-99893641D01*
X107008646Y-100052254D01*
X106985692Y-100246591D01*
X106972954Y-100470000D01*
X107446377Y-100470000D01*
X107595143Y-100470773D01*
X107724745Y-100472926D01*
X107827304Y-100476206D01*
X107894946Y-100480358D01*
X107919794Y-100485129D01*
X107919800Y-100485211D01*
X107909876Y-100516120D01*
X107885428Y-100572702D01*
X107879744Y-100584836D01*
X107812227Y-100670113D01*
X107707146Y-100722591D01*
X107566261Y-100741631D01*
X107462711Y-100736469D01*
X107360574Y-100721474D01*
X107265714Y-100700624D01*
X107211849Y-100683378D01*
X107149000Y-100659743D01*
X107106280Y-100648065D01*
X107102786Y-100647800D01*
X107092378Y-100671042D01*
X107086545Y-100732380D01*
X107086378Y-100819229D01*
X107086838Y-100831950D01*
X107094300Y-101016100D01*
X107221300Y-101059438D01*
X107344943Y-101087521D01*
X107498344Y-101101890D01*
X107662476Y-101102574D01*
X107818310Y-101089600D01*
X107946816Y-101062997D01*
X107961150Y-101058323D01*
X108093124Y-101004715D01*
X108189759Y-100944079D01*
X108266419Y-100866230D01*
X108282579Y-100845172D01*
X108368573Y-100688563D01*
X108419213Y-100507310D01*
X108434399Y-100313343D01*
X108416251Y-100139800D01*
X107899908Y-100139800D01*
X107681254Y-100139800D01*
X107575130Y-100138746D01*
X107510021Y-100134174D01*
X107476162Y-100123969D01*
X107463788Y-100106015D01*
X107462600Y-100092425D01*
X107477713Y-100040073D01*
X107514176Y-99979493D01*
X107515244Y-99978125D01*
X107586103Y-99923745D01*
X107671842Y-99907760D01*
X107758566Y-99926706D01*
X107832378Y-99977115D01*
X107879381Y-100055521D01*
X107883371Y-100069950D01*
X107899908Y-100139800D01*
X108416251Y-100139800D01*
X108414033Y-100118592D01*
X108358016Y-99934987D01*
X108291140Y-99809636D01*
X108198933Y-99712903D01*
X108070483Y-99637092D01*
X107916890Y-99584706D01*
X107749253Y-99558247D01*
X107578675Y-99560219D01*
X107578675Y-99560219D01*
G37*
X107578675Y-99560219D02*
X107416253Y-99593125D01*
X107382669Y-99604783D01*
X107239971Y-99675585D01*
X107132409Y-99769978D01*
X107056472Y-99893641D01*
X107008646Y-100052254D01*
X106985692Y-100246591D01*
X106972954Y-100470000D01*
X107446377Y-100470000D01*
X107595143Y-100470773D01*
X107724745Y-100472926D01*
X107827304Y-100476206D01*
X107894946Y-100480358D01*
X107919794Y-100485129D01*
X107919800Y-100485211D01*
X107909876Y-100516120D01*
X107885428Y-100572702D01*
X107879744Y-100584836D01*
X107812227Y-100670113D01*
X107707146Y-100722591D01*
X107566261Y-100741631D01*
X107462711Y-100736469D01*
X107360574Y-100721474D01*
X107265714Y-100700624D01*
X107211849Y-100683378D01*
X107149000Y-100659743D01*
X107106280Y-100648065D01*
X107102786Y-100647800D01*
X107092378Y-100671042D01*
X107086545Y-100732380D01*
X107086378Y-100819229D01*
X107086838Y-100831950D01*
X107094300Y-101016100D01*
X107221300Y-101059438D01*
X107344943Y-101087521D01*
X107498344Y-101101890D01*
X107662476Y-101102574D01*
X107818310Y-101089600D01*
X107946816Y-101062997D01*
X107961150Y-101058323D01*
X108093124Y-101004715D01*
X108189759Y-100944079D01*
X108266419Y-100866230D01*
X108282579Y-100845172D01*
X108368573Y-100688563D01*
X108419213Y-100507310D01*
X108434399Y-100313343D01*
X108416251Y-100139800D01*
X107899908Y-100139800D01*
X107681254Y-100139800D01*
X107575130Y-100138746D01*
X107510021Y-100134174D01*
X107476162Y-100123969D01*
X107463788Y-100106015D01*
X107462600Y-100092425D01*
X107477713Y-100040073D01*
X107514176Y-99979493D01*
X107515244Y-99978125D01*
X107586103Y-99923745D01*
X107671842Y-99907760D01*
X107758566Y-99926706D01*
X107832378Y-99977115D01*
X107879381Y-100055521D01*
X107883371Y-100069950D01*
X107899908Y-100139800D01*
X108416251Y-100139800D01*
X108414033Y-100118592D01*
X108358016Y-99934987D01*
X108291140Y-99809636D01*
X108198933Y-99712903D01*
X108070483Y-99637092D01*
X107916890Y-99584706D01*
X107749253Y-99558247D01*
X107578675Y-99560219D01*
G36*
X104459414Y-99577300D02*
X104323059Y-99614674D01*
X104218651Y-99675865D01*
X104138072Y-99764733D01*
X104110120Y-99809919D01*
X104089555Y-99848345D01*
X104073842Y-99885528D01*
X104062209Y-99928882D01*
X104053886Y-99985822D01*
X104048103Y-100063761D01*
X104044090Y-100170112D01*
X104041075Y-100312290D01*
X104038290Y-100497709D01*
X104038234Y-100501750D01*
X104030167Y-101079600D01*
X104219302Y-101079600D01*
X104316208Y-101078722D01*
X104374911Y-101073173D01*
X104408006Y-101058577D01*
X104428091Y-101030559D01*
X104440226Y-101002855D01*
X104473550Y-100936238D01*
X104506466Y-100915915D01*
X104551151Y-100938960D01*
X104584295Y-100968253D01*
X104656357Y-101024291D01*
X104733493Y-101068462D01*
X104737635Y-101070267D01*
X104825677Y-101092612D01*
X104940796Y-101102365D01*
X105061789Y-101099577D01*
X105167454Y-101084298D01*
X105214700Y-101069144D01*
X105328386Y-100995375D01*
X105405342Y-100890098D01*
X105447019Y-100750637D01*
X105456000Y-100624502D01*
X105451531Y-100591235D01*
X104922212Y-100591235D01*
X104903480Y-100679896D01*
X104852560Y-100732268D01*
X104775585Y-100745411D01*
X104678685Y-100716387D01*
X104670093Y-100712071D01*
X104605342Y-100653641D01*
X104559222Y-100564304D01*
X104541601Y-100463192D01*
X104541600Y-100462978D01*
X104547095Y-100433513D01*
X104572010Y-100420956D01*
X104628992Y-100421462D01*
X104667157Y-100424801D01*
X104792565Y-100449897D01*
X104877490Y-100495993D01*
X104918693Y-100560975D01*
X104922212Y-100591235D01*
X105451531Y-100591235D01*
X105436164Y-100476866D01*
X105374574Y-100355883D01*
X105277361Y-100261939D01*
X105192853Y-100217405D01*
X105075889Y-100179033D01*
X104944793Y-100151597D01*
X104817888Y-100139871D01*
X104808300Y-100139754D01*
X104681064Y-100132357D01*
X104601279Y-100110837D01*
X104567238Y-100073879D01*
X104577233Y-100020167D01*
X104602294Y-99981137D01*
X104666157Y-99934168D01*
X104762929Y-99920182D01*
X104895014Y-99939047D01*
X104974695Y-99960650D01*
X105063134Y-99986036D01*
X105130535Y-100002607D01*
X105164270Y-100007316D01*
X105165736Y-100006731D01*
X105179970Y-99980491D01*
X105208137Y-99920971D01*
X105241244Y-99847551D01*
X105276083Y-99765303D01*
X105290619Y-99716198D01*
X105286571Y-99687600D01*
X105265821Y-99666993D01*
X105187923Y-99629186D01*
X105072534Y-99597344D01*
X104932826Y-99573706D01*
X104781971Y-99560513D01*
X104635834Y-99559881D01*
X104459414Y-99577300D01*
X104459414Y-99577300D01*
G37*
X104459414Y-99577300D02*
X104323059Y-99614674D01*
X104218651Y-99675865D01*
X104138072Y-99764733D01*
X104110120Y-99809919D01*
X104089555Y-99848345D01*
X104073842Y-99885528D01*
X104062209Y-99928882D01*
X104053886Y-99985822D01*
X104048103Y-100063761D01*
X104044090Y-100170112D01*
X104041075Y-100312290D01*
X104038290Y-100497709D01*
X104038234Y-100501750D01*
X104030167Y-101079600D01*
X104219302Y-101079600D01*
X104316208Y-101078722D01*
X104374911Y-101073173D01*
X104408006Y-101058577D01*
X104428091Y-101030559D01*
X104440226Y-101002855D01*
X104473550Y-100936238D01*
X104506466Y-100915915D01*
X104551151Y-100938960D01*
X104584295Y-100968253D01*
X104656357Y-101024291D01*
X104733493Y-101068462D01*
X104737635Y-101070267D01*
X104825677Y-101092612D01*
X104940796Y-101102365D01*
X105061789Y-101099577D01*
X105167454Y-101084298D01*
X105214700Y-101069144D01*
X105328386Y-100995375D01*
X105405342Y-100890098D01*
X105447019Y-100750637D01*
X105456000Y-100624502D01*
X105451531Y-100591235D01*
X104922212Y-100591235D01*
X104903480Y-100679896D01*
X104852560Y-100732268D01*
X104775585Y-100745411D01*
X104678685Y-100716387D01*
X104670093Y-100712071D01*
X104605342Y-100653641D01*
X104559222Y-100564304D01*
X104541601Y-100463192D01*
X104541600Y-100462978D01*
X104547095Y-100433513D01*
X104572010Y-100420956D01*
X104628992Y-100421462D01*
X104667157Y-100424801D01*
X104792565Y-100449897D01*
X104877490Y-100495993D01*
X104918693Y-100560975D01*
X104922212Y-100591235D01*
X105451531Y-100591235D01*
X105436164Y-100476866D01*
X105374574Y-100355883D01*
X105277361Y-100261939D01*
X105192853Y-100217405D01*
X105075889Y-100179033D01*
X104944793Y-100151597D01*
X104817888Y-100139871D01*
X104808300Y-100139754D01*
X104681064Y-100132357D01*
X104601279Y-100110837D01*
X104567238Y-100073879D01*
X104577233Y-100020167D01*
X104602294Y-99981137D01*
X104666157Y-99934168D01*
X104762929Y-99920182D01*
X104895014Y-99939047D01*
X104974695Y-99960650D01*
X105063134Y-99986036D01*
X105130535Y-100002607D01*
X105164270Y-100007316D01*
X105165736Y-100006731D01*
X105179970Y-99980491D01*
X105208137Y-99920971D01*
X105241244Y-99847551D01*
X105276083Y-99765303D01*
X105290619Y-99716198D01*
X105286571Y-99687600D01*
X105265821Y-99666993D01*
X105187923Y-99629186D01*
X105072534Y-99597344D01*
X104932826Y-99573706D01*
X104781971Y-99560513D01*
X104635834Y-99559881D01*
X104459414Y-99577300D01*
G36*
X103068400Y-99581000D02*
X102687400Y-99581000D01*
X102687400Y-99962000D01*
X103068400Y-99962000D01*
X103068400Y-100288263D01*
X103066134Y-100449187D01*
X103055778Y-100565019D01*
X103031995Y-100641390D01*
X102989449Y-100683934D01*
X102922803Y-100698282D01*
X102826721Y-100690068D01*
X102708926Y-100667675D01*
X102689534Y-100677453D01*
X102676787Y-100721355D01*
X102668963Y-100806584D01*
X102667293Y-100841902D01*
X102659886Y-101023304D01*
X102779768Y-101064152D01*
X102920690Y-101096286D01*
X103074934Y-101105728D01*
X103224037Y-101092984D01*
X103349537Y-101058562D01*
X103372697Y-101047850D01*
X103443255Y-101006218D01*
X103496874Y-100957948D01*
X103536049Y-100895579D01*
X103563278Y-100811648D01*
X103581056Y-100698693D01*
X103591879Y-100549250D01*
X103597798Y-100374885D01*
X103607765Y-99962000D01*
X103693683Y-99962000D01*
X103747550Y-99959087D01*
X103772296Y-99940874D01*
X103779227Y-99893147D01*
X103779545Y-99854050D01*
X103775643Y-99788067D01*
X103756680Y-99743236D01*
X103711646Y-99701701D01*
X103665993Y-99669900D01*
X103590710Y-99609557D01*
X103534580Y-99536445D01*
X103484438Y-99434950D01*
X103416380Y-99276200D01*
X103068400Y-99276200D01*
X103068400Y-99581000D01*
X103068400Y-99581000D01*
G37*
X103068400Y-99581000D02*
X102687400Y-99581000D01*
X102687400Y-99962000D01*
X103068400Y-99962000D01*
X103068400Y-100288263D01*
X103066134Y-100449187D01*
X103055778Y-100565019D01*
X103031995Y-100641390D01*
X102989449Y-100683934D01*
X102922803Y-100698282D01*
X102826721Y-100690068D01*
X102708926Y-100667675D01*
X102689534Y-100677453D01*
X102676787Y-100721355D01*
X102668963Y-100806584D01*
X102667293Y-100841902D01*
X102659886Y-101023304D01*
X102779768Y-101064152D01*
X102920690Y-101096286D01*
X103074934Y-101105728D01*
X103224037Y-101092984D01*
X103349537Y-101058562D01*
X103372697Y-101047850D01*
X103443255Y-101006218D01*
X103496874Y-100957948D01*
X103536049Y-100895579D01*
X103563278Y-100811648D01*
X103581056Y-100698693D01*
X103591879Y-100549250D01*
X103597798Y-100374885D01*
X103607765Y-99962000D01*
X103693683Y-99962000D01*
X103747550Y-99959087D01*
X103772296Y-99940874D01*
X103779227Y-99893147D01*
X103779545Y-99854050D01*
X103775643Y-99788067D01*
X103756680Y-99743236D01*
X103711646Y-99701701D01*
X103665993Y-99669900D01*
X103590710Y-99609557D01*
X103534580Y-99536445D01*
X103484438Y-99434950D01*
X103416380Y-99276200D01*
X103068400Y-99276200D01*
X103068400Y-99581000D01*
G36*
X100661726Y-99566550D02*
X100484529Y-99612280D01*
X100336128Y-99699085D01*
X100214961Y-99827747D01*
X100160323Y-99914868D01*
X100122104Y-99992504D01*
X100098155Y-100066200D01*
X100084327Y-100153952D01*
X100076467Y-100273758D01*
X100076217Y-100279500D01*
X100082226Y-100487797D01*
X100121241Y-100662240D01*
X100195393Y-100809314D01*
X100285152Y-100915247D01*
X100413477Y-101007284D01*
X100571805Y-101070513D01*
X100746829Y-101102679D01*
X100925243Y-101101523D01*
X101093742Y-101064789D01*
X101116769Y-101056294D01*
X101251564Y-100992825D01*
X101350277Y-100917004D01*
X101427619Y-100815651D01*
X101467424Y-100742126D01*
X101538027Y-100544337D01*
X101564726Y-100334725D01*
X101564016Y-100326054D01*
X101023700Y-100326054D01*
X101022836Y-100447118D01*
X101018822Y-100528903D01*
X101009526Y-100582919D01*
X100992814Y-100620678D01*
X100966556Y-100653690D01*
X100962123Y-100658453D01*
X100883235Y-100711528D01*
X100794717Y-100723700D01*
X100712097Y-100694399D01*
X100682106Y-100668749D01*
X100640451Y-100606053D01*
X100615481Y-100520439D01*
X100605591Y-100402898D01*
X100608576Y-100255919D01*
X100616662Y-100150406D01*
X100630769Y-100080494D01*
X100655114Y-100031015D01*
X100679291Y-100001707D01*
X100759172Y-99947673D01*
X100847385Y-99942392D01*
X100937690Y-99985948D01*
X100952434Y-99997900D01*
X100984215Y-100027352D01*
X101004790Y-100057472D01*
X101016593Y-100099469D01*
X101022059Y-100164551D01*
X101023622Y-100263924D01*
X101023700Y-100326054D01*
X101564016Y-100326054D01*
X101547526Y-100124909D01*
X101486428Y-99926507D01*
X101467224Y-99885800D01*
X101375152Y-99758602D01*
X101243999Y-99660889D01*
X101077386Y-99594627D01*
X100878933Y-99561780D01*
X100869284Y-99561118D01*
X100661726Y-99566550D01*
X100661726Y-99566550D01*
G37*
X100661726Y-99566550D02*
X100484529Y-99612280D01*
X100336128Y-99699085D01*
X100214961Y-99827747D01*
X100160323Y-99914868D01*
X100122104Y-99992504D01*
X100098155Y-100066200D01*
X100084327Y-100153952D01*
X100076467Y-100273758D01*
X100076217Y-100279500D01*
X100082226Y-100487797D01*
X100121241Y-100662240D01*
X100195393Y-100809314D01*
X100285152Y-100915247D01*
X100413477Y-101007284D01*
X100571805Y-101070513D01*
X100746829Y-101102679D01*
X100925243Y-101101523D01*
X101093742Y-101064789D01*
X101116769Y-101056294D01*
X101251564Y-100992825D01*
X101350277Y-100917004D01*
X101427619Y-100815651D01*
X101467424Y-100742126D01*
X101538027Y-100544337D01*
X101564726Y-100334725D01*
X101564016Y-100326054D01*
X101023700Y-100326054D01*
X101022836Y-100447118D01*
X101018822Y-100528903D01*
X101009526Y-100582919D01*
X100992814Y-100620678D01*
X100966556Y-100653690D01*
X100962123Y-100658453D01*
X100883235Y-100711528D01*
X100794717Y-100723700D01*
X100712097Y-100694399D01*
X100682106Y-100668749D01*
X100640451Y-100606053D01*
X100615481Y-100520439D01*
X100605591Y-100402898D01*
X100608576Y-100255919D01*
X100616662Y-100150406D01*
X100630769Y-100080494D01*
X100655114Y-100031015D01*
X100679291Y-100001707D01*
X100759172Y-99947673D01*
X100847385Y-99942392D01*
X100937690Y-99985948D01*
X100952434Y-99997900D01*
X100984215Y-100027352D01*
X101004790Y-100057472D01*
X101016593Y-100099469D01*
X101022059Y-100164551D01*
X101023622Y-100263924D01*
X101023700Y-100326054D01*
X101564016Y-100326054D01*
X101547526Y-100124909D01*
X101486428Y-99926507D01*
X101467224Y-99885800D01*
X101375152Y-99758602D01*
X101243999Y-99660889D01*
X101077386Y-99594627D01*
X100878933Y-99561780D01*
X100869284Y-99561118D01*
X100661726Y-99566550D01*
G36*
X109154624Y-99568582D02*
X109017926Y-99607465D01*
X108910543Y-99669445D01*
X108879619Y-99698992D01*
X108839302Y-99749277D01*
X108807856Y-99803143D01*
X108784043Y-99867693D01*
X108766626Y-99950028D01*
X108754368Y-100057251D01*
X108746032Y-100196466D01*
X108740380Y-100374774D01*
X108737569Y-100514450D01*
X108727702Y-101079600D01*
X109262187Y-101079600D01*
X109270444Y-100574208D01*
X109273704Y-100399589D01*
X109277480Y-100268515D01*
X109282507Y-100173733D01*
X109289520Y-100107989D01*
X109299254Y-100064029D01*
X109312444Y-100034599D01*
X109327087Y-100015408D01*
X109396781Y-99972417D01*
X109483185Y-99963294D01*
X109564841Y-99988380D01*
X109594551Y-100011150D01*
X109630790Y-100058566D01*
X109657972Y-100123124D01*
X109677172Y-100211667D01*
X109689468Y-100331037D01*
X109695934Y-100488077D01*
X109697659Y-100666850D01*
X109697800Y-101079600D01*
X110231200Y-101079600D01*
X110231200Y-99578945D01*
X110023695Y-99586322D01*
X109921385Y-99590662D01*
X109858364Y-99597494D01*
X109823149Y-99610954D01*
X109804255Y-99635179D01*
X109791618Y-99669900D01*
X109772175Y-99725774D01*
X109759240Y-99755217D01*
X109759038Y-99755468D01*
X109737174Y-99745721D01*
X109689371Y-99710695D01*
X109647089Y-99675868D01*
X109572007Y-99621225D01*
X109497165Y-99581665D01*
X109464900Y-99571249D01*
X109307872Y-99555581D01*
X109154624Y-99568582D01*
X109154624Y-99568582D01*
G37*
X109154624Y-99568582D02*
X109017926Y-99607465D01*
X108910543Y-99669445D01*
X108879619Y-99698992D01*
X108839302Y-99749277D01*
X108807856Y-99803143D01*
X108784043Y-99867693D01*
X108766626Y-99950028D01*
X108754368Y-100057251D01*
X108746032Y-100196466D01*
X108740380Y-100374774D01*
X108737569Y-100514450D01*
X108727702Y-101079600D01*
X109262187Y-101079600D01*
X109270444Y-100574208D01*
X109273704Y-100399589D01*
X109277480Y-100268515D01*
X109282507Y-100173733D01*
X109289520Y-100107989D01*
X109299254Y-100064029D01*
X109312444Y-100034599D01*
X109327087Y-100015408D01*
X109396781Y-99972417D01*
X109483185Y-99963294D01*
X109564841Y-99988380D01*
X109594551Y-100011150D01*
X109630790Y-100058566D01*
X109657972Y-100123124D01*
X109677172Y-100211667D01*
X109689468Y-100331037D01*
X109695934Y-100488077D01*
X109697659Y-100666850D01*
X109697800Y-101079600D01*
X110231200Y-101079600D01*
X110231200Y-99578945D01*
X110023695Y-99586322D01*
X109921385Y-99590662D01*
X109858364Y-99597494D01*
X109823149Y-99610954D01*
X109804255Y-99635179D01*
X109791618Y-99669900D01*
X109772175Y-99725774D01*
X109759240Y-99755217D01*
X109759038Y-99755468D01*
X109737174Y-99745721D01*
X109689371Y-99710695D01*
X109647089Y-99675868D01*
X109572007Y-99621225D01*
X109497165Y-99581665D01*
X109464900Y-99571249D01*
X109307872Y-99555581D01*
X109154624Y-99568582D01*
G36*
X105617482Y-99711725D02*
X105626464Y-99811824D01*
X105632391Y-99905018D01*
X105633800Y-99953025D01*
X105633800Y-100038200D01*
X105776012Y-100038200D01*
X105920230Y-100053239D01*
X106032376Y-100096630D01*
X106106433Y-100165778D01*
X106117653Y-100185474D01*
X106133835Y-100246657D01*
X106146892Y-100357170D01*
X106156696Y-100515630D01*
X106161883Y-100666850D01*
X106172421Y-101079600D01*
X106675200Y-101079600D01*
X106675200Y-99581000D01*
X106275403Y-99581000D01*
X106243400Y-99695300D01*
X106215838Y-99774730D01*
X106189507Y-99805631D01*
X106161265Y-99790085D01*
X106143294Y-99761591D01*
X106108270Y-99721024D01*
X106046003Y-99668535D01*
X105998346Y-99634591D01*
X105909751Y-99583922D01*
X105827813Y-99560580D01*
X105740127Y-99555600D01*
X105601164Y-99555600D01*
X105617482Y-99711725D01*
X105617482Y-99711725D01*
G37*
X105617482Y-99711725D02*
X105626464Y-99811824D01*
X105632391Y-99905018D01*
X105633800Y-99953025D01*
X105633800Y-100038200D01*
X105776012Y-100038200D01*
X105920230Y-100053239D01*
X106032376Y-100096630D01*
X106106433Y-100165778D01*
X106117653Y-100185474D01*
X106133835Y-100246657D01*
X106146892Y-100357170D01*
X106156696Y-100515630D01*
X106161883Y-100666850D01*
X106172421Y-101079600D01*
X106675200Y-101079600D01*
X106675200Y-99581000D01*
X106275403Y-99581000D01*
X106243400Y-99695300D01*
X106215838Y-99774730D01*
X106189507Y-99805631D01*
X106161265Y-99790085D01*
X106143294Y-99761591D01*
X106108270Y-99721024D01*
X106046003Y-99668535D01*
X105998346Y-99634591D01*
X105909751Y-99583922D01*
X105827813Y-99560580D01*
X105740127Y-99555600D01*
X105601164Y-99555600D01*
X105617482Y-99711725D01*
G36*
X101874600Y-101079600D02*
X102408000Y-101079600D01*
X102408000Y-99581000D01*
X101874600Y-99581000D01*
X101874600Y-101079600D01*
X101874600Y-101079600D01*
G37*
X101874600Y-101079600D02*
X102408000Y-101079600D01*
X102408000Y-99581000D01*
X101874600Y-99581000D01*
X101874600Y-101079600D01*
G36*
X98631861Y-99575631D02*
X98496201Y-99636513D01*
X98388185Y-99739427D01*
X98335551Y-99822300D01*
X98317995Y-99858949D01*
X98304492Y-99899019D01*
X98294361Y-99949828D01*
X98286922Y-100018697D01*
X98281493Y-100112946D01*
X98277393Y-100239896D01*
X98273942Y-100406867D01*
X98272342Y-100501750D01*
X98262976Y-101079600D01*
X98797387Y-101079600D01*
X98805644Y-100574208D01*
X98808904Y-100399589D01*
X98812680Y-100268515D01*
X98817707Y-100173733D01*
X98824720Y-100107989D01*
X98834454Y-100064029D01*
X98847644Y-100034599D01*
X98862287Y-100015408D01*
X98928145Y-99974476D01*
X99010843Y-99962691D01*
X99087866Y-99981230D01*
X99117053Y-100002080D01*
X99152037Y-100041132D01*
X99178283Y-100083912D01*
X99197234Y-100138371D01*
X99210338Y-100212458D01*
X99219038Y-100314120D01*
X99224780Y-100451308D01*
X99228700Y-100616050D01*
X99237845Y-101079600D01*
X99766400Y-101079600D01*
X99766400Y-99578945D01*
X99558895Y-99586322D01*
X99456585Y-99590662D01*
X99393564Y-99597494D01*
X99358349Y-99610954D01*
X99339455Y-99635179D01*
X99326818Y-99669900D01*
X99307375Y-99725774D01*
X99294440Y-99755217D01*
X99294238Y-99755468D01*
X99272374Y-99745721D01*
X99224571Y-99710695D01*
X99182289Y-99675868D01*
X99097098Y-99613564D01*
X99009192Y-99576359D01*
X98901487Y-99558919D01*
X98797210Y-99555600D01*
X98631861Y-99575631D01*
X98631861Y-99575631D01*
G37*
X98631861Y-99575631D02*
X98496201Y-99636513D01*
X98388185Y-99739427D01*
X98335551Y-99822300D01*
X98317995Y-99858949D01*
X98304492Y-99899019D01*
X98294361Y-99949828D01*
X98286922Y-100018697D01*
X98281493Y-100112946D01*
X98277393Y-100239896D01*
X98273942Y-100406867D01*
X98272342Y-100501750D01*
X98262976Y-101079600D01*
X98797387Y-101079600D01*
X98805644Y-100574208D01*
X98808904Y-100399589D01*
X98812680Y-100268515D01*
X98817707Y-100173733D01*
X98824720Y-100107989D01*
X98834454Y-100064029D01*
X98847644Y-100034599D01*
X98862287Y-100015408D01*
X98928145Y-99974476D01*
X99010843Y-99962691D01*
X99087866Y-99981230D01*
X99117053Y-100002080D01*
X99152037Y-100041132D01*
X99178283Y-100083912D01*
X99197234Y-100138371D01*
X99210338Y-100212458D01*
X99219038Y-100314120D01*
X99224780Y-100451308D01*
X99228700Y-100616050D01*
X99237845Y-101079600D01*
X99766400Y-101079600D01*
X99766400Y-99578945D01*
X99558895Y-99586322D01*
X99456585Y-99590662D01*
X99393564Y-99597494D01*
X99358349Y-99610954D01*
X99339455Y-99635179D01*
X99326818Y-99669900D01*
X99307375Y-99725774D01*
X99294440Y-99755217D01*
X99294238Y-99755468D01*
X99272374Y-99745721D01*
X99224571Y-99710695D01*
X99182289Y-99675868D01*
X99097098Y-99613564D01*
X99009192Y-99576359D01*
X98901487Y-99558919D01*
X98797210Y-99555600D01*
X98631861Y-99575631D01*
G36*
X102048025Y-98972294D02*
X101956702Y-99002417D01*
X101900879Y-99055812D01*
X101873768Y-99134932D01*
X101875220Y-99223699D01*
X101905082Y-99306035D01*
X101960106Y-99363957D01*
X102051789Y-99401018D01*
X102159191Y-99415991D01*
X102221751Y-99411174D01*
X102311818Y-99371258D01*
X102374071Y-99301045D01*
X102404218Y-99213604D01*
X102397969Y-99122006D01*
X102351033Y-99039321D01*
X102345655Y-99033745D01*
X102266457Y-98986361D01*
X102161187Y-98965389D01*
X102048025Y-98972294D01*
X102048025Y-98972294D01*
G37*
X102048025Y-98972294D02*
X101956702Y-99002417D01*
X101900879Y-99055812D01*
X101873768Y-99134932D01*
X101875220Y-99223699D01*
X101905082Y-99306035D01*
X101960106Y-99363957D01*
X102051789Y-99401018D01*
X102159191Y-99415991D01*
X102221751Y-99411174D01*
X102311818Y-99371258D01*
X102374071Y-99301045D01*
X102404218Y-99213604D01*
X102397969Y-99122006D01*
X102351033Y-99039321D01*
X102345655Y-99033745D01*
X102266457Y-98986361D01*
X102161187Y-98965389D01*
X102048025Y-98972294D01*
G36*
X94355797Y-100424200D02*
X94334680Y-100449547D01*
X94330800Y-100506683D01*
X94349889Y-100596984D01*
X94399711Y-100670884D01*
X94469097Y-100721752D01*
X94546880Y-100742953D01*
X94621894Y-100727854D01*
X94658355Y-100701245D01*
X94696856Y-100654402D01*
X94711800Y-100620730D01*
X94688376Y-100550115D01*
X94626000Y-100487887D01*
X94536517Y-100441899D01*
X94431774Y-100420003D01*
X94407816Y-100419200D01*
X94355797Y-100424200D01*
X94355797Y-100424200D01*
G37*
X94355797Y-100424200D02*
X94334680Y-100449547D01*
X94330800Y-100506683D01*
X94349889Y-100596984D01*
X94399711Y-100670884D01*
X94469097Y-100721752D01*
X94546880Y-100742953D01*
X94621894Y-100727854D01*
X94658355Y-100701245D01*
X94696856Y-100654402D01*
X94711800Y-100620730D01*
X94688376Y-100550115D01*
X94626000Y-100487887D01*
X94536517Y-100441899D01*
X94431774Y-100420003D01*
X94407816Y-100419200D01*
X94355797Y-100424200D01*
G36*
X90816817Y-99944694D02*
X90749330Y-100009691D01*
X90717184Y-100082650D01*
X90712770Y-100109679D01*
X90721582Y-100126476D01*
X90752777Y-100135473D01*
X90815512Y-100139103D01*
X90918944Y-100139798D01*
X90932296Y-100139800D01*
X91041167Y-100138728D01*
X91107800Y-100134444D01*
X91140735Y-100125340D01*
X91148509Y-100109810D01*
X91145818Y-100099622D01*
X91132132Y-100051878D01*
X91130400Y-100037112D01*
X91113537Y-100005416D01*
X91074811Y-99962989D01*
X90992839Y-99916899D01*
X90902414Y-99912282D01*
X90816817Y-99944694D01*
X90816817Y-99944694D01*
G37*
X90816817Y-99944694D02*
X90749330Y-100009691D01*
X90717184Y-100082650D01*
X90712770Y-100109679D01*
X90721582Y-100126476D01*
X90752777Y-100135473D01*
X90815512Y-100139103D01*
X90918944Y-100139798D01*
X90932296Y-100139800D01*
X91041167Y-100138728D01*
X91107800Y-100134444D01*
X91140735Y-100125340D01*
X91148509Y-100109810D01*
X91145818Y-100099622D01*
X91132132Y-100051878D01*
X91130400Y-100037112D01*
X91113537Y-100005416D01*
X91074811Y-99962989D01*
X90992839Y-99916899D01*
X90902414Y-99912282D01*
X90816817Y-99944694D01*
G04 #@! TD*
M02*
