M48
;DRILL file {KiCad 5.0.2-bee76a0~70~ubuntu18.04.1} date Mo 24 Jun 2019 16:55:20 CEST
;FORMAT={-:-/ absolute / metric / decimal}
FMAT,2
METRIC,TZ
T1C0.400
T2C0.600
T3C1.000
%
G90
G05
T1
X52.5Y-80.
X52.6Y-127.75
X54.9Y-105.65
X69.2Y-106.4
X70.55Y-86.15
X72.1Y-103.5
X74.Y-99.55
X74.Y-100.9
X79.7Y-119.5
X82.05Y-100.4
X82.55Y-102.7
X83.5Y-95.1
X83.8Y-123.8
X86.6Y-122.6
X86.9Y-92.1
X88.7Y-118.7
X89.3Y-92.2
X92.5Y-92.6
X94.1Y-92.
X103.5Y-92.6
X104.1Y-89.6
X108.8Y-105.1
X111.2Y-122.
X112.1Y-124.1
X113.2Y-94.4
T2
X70.87Y-84.45
X70.87Y-122.55
X73.41Y-84.45
X73.41Y-122.55
X75.95Y-84.45
X78.49Y-84.45
X81.03Y-84.45
X83.57Y-84.45
X86.11Y-84.45
X88.65Y-84.45
X91.19Y-84.45
X93.73Y-84.45
X96.27Y-84.45
X98.81Y-84.45
X101.35Y-84.45
X101.35Y-122.55
X103.89Y-84.45
X103.89Y-122.55
X70.87Y-81.91
X70.87Y-125.09
X73.41Y-81.91
X73.41Y-125.09
X75.95Y-81.91
X75.95Y-125.09
X78.49Y-81.91
X81.03Y-81.91
X83.57Y-81.91
X86.11Y-81.91
X88.65Y-81.91
X91.19Y-81.91
X93.73Y-81.91
X96.27Y-81.91
X98.81Y-81.91
X101.35Y-81.91
X103.89Y-81.91
X106.43Y-81.91
X108.97Y-81.91
X111.51Y-81.91
X114.05Y-81.91
X114.05Y-125.09
X116.59Y-81.91
X116.59Y-125.09
X119.13Y-81.91
X119.13Y-125.09
X70.87Y-81.91
X70.87Y-109.85
X73.41Y-81.91
X73.41Y-109.85
X75.95Y-81.91
X78.49Y-81.91
X81.03Y-81.91
X83.57Y-81.91
X86.11Y-81.91
X88.65Y-81.91
X91.19Y-81.91
X93.73Y-81.91
X96.27Y-81.91
X98.81Y-81.91
X101.35Y-81.91
X103.89Y-81.91
X106.43Y-81.91
X108.97Y-81.91
X111.51Y-81.91
X114.05Y-81.91
X116.59Y-81.91
X116.59Y-109.85
X119.13Y-81.91
X119.13Y-109.85
T3
X73.496Y-79.2
X76.036Y-79.2
X78.576Y-79.2
X81.116Y-79.2
X82.64Y-127.46
X83.656Y-79.2
X85.18Y-127.46
X86.196Y-79.2
X87.72Y-127.46
X88.736Y-79.2
X90.26Y-127.46
X91.276Y-79.2
X92.8Y-127.46
X93.816Y-79.2
X95.34Y-127.46
X96.356Y-79.2
X97.88Y-127.46
X100.42Y-79.2
X100.42Y-127.46
X102.96Y-79.2
X105.5Y-79.2
X105.5Y-127.46
X108.04Y-79.2
X108.04Y-127.46
X110.58Y-79.2
X110.58Y-127.46
X113.12Y-79.2
X113.12Y-127.46
X115.66Y-79.2
X115.66Y-127.46
X118.2Y-79.2
X118.2Y-127.46
T0
M30
