G04 #@! TF.GenerationSoftware,KiCad,Pcbnew,5.0.0-fee4fd1~66~ubuntu18.04.1*
G04 #@! TF.CreationDate,2018-10-08T02:39:47+02:00*
G04 #@! TF.ProjectId,ArduHMIShield,41726475484D49536869656C642E6B69,1.0*
G04 #@! TF.SameCoordinates,Original*
G04 #@! TF.FileFunction,Soldermask,Top*
G04 #@! TF.FilePolarity,Negative*
%FSLAX46Y46*%
G04 Gerber Fmt 4.6, Leading zero omitted, Abs format (unit mm)*
G04 Created by KiCad (PCBNEW 5.0.0-fee4fd1~66~ubuntu18.04.1) date Mon Oct  8 02:39:47 2018*
%MOMM*%
%LPD*%
G01*
G04 APERTURE LIST*
%ADD10C,2.000000*%
%ADD11C,3.575000*%
%ADD12R,1.200100X1.200100*%
%ADD13R,1.150000X1.200000*%
%ADD14R,1.300000X0.900000*%
%ADD15R,0.900000X1.300000*%
%ADD16C,2.398980*%
%ADD17R,1.200000X1.150000*%
%ADD18C,1.800000*%
%ADD19R,4.057600X2.432000*%
%ADD20R,1.416000X2.432000*%
%ADD21R,1.197560X1.197560*%
%ADD22R,1.050000X1.460000*%
%ADD23C,1.200000*%
G04 APERTURE END LIST*
D10*
G04 #@! TO.C,CN1*
X118200000Y-79200000D03*
X96356000Y-79200000D03*
X93816000Y-79200000D03*
X91276000Y-79200000D03*
X88736000Y-79200000D03*
X86196000Y-79200000D03*
X83656000Y-79200000D03*
X81116000Y-79200000D03*
X78576000Y-79200000D03*
X76036000Y-79200000D03*
X73496000Y-79200000D03*
X115660000Y-79200000D03*
X113120000Y-79200000D03*
X110580000Y-79200000D03*
X108040000Y-79200000D03*
X105500000Y-79200000D03*
X102960000Y-79200000D03*
X100420000Y-79200000D03*
X100420000Y-127460000D03*
X97880000Y-127460000D03*
X95340000Y-127460000D03*
X92800000Y-127460000D03*
X90260000Y-127460000D03*
X87720000Y-127460000D03*
X85180000Y-127460000D03*
X82640000Y-127460000D03*
X118200000Y-127460000D03*
X115660000Y-127460000D03*
X113120000Y-127460000D03*
X110580000Y-127460000D03*
X108040000Y-127460000D03*
X105500000Y-127460000D03*
D11*
X68670000Y-127460000D03*
X69940000Y-79200000D03*
X120740000Y-122380000D03*
X120740000Y-94440000D03*
G04 #@! TD*
D12*
G04 #@! TO.C,Q1*
X111798220Y-120300000D03*
X109799240Y-121250000D03*
X109799240Y-119350000D03*
G04 #@! TD*
D13*
G04 #@! TO.C,C1*
X108950000Y-86000000D03*
X108950000Y-84500000D03*
G04 #@! TD*
G04 #@! TO.C,C2*
X111500000Y-86100000D03*
X111500000Y-84600000D03*
G04 #@! TD*
D14*
G04 #@! TO.C,R1*
X82700000Y-121350000D03*
X82700000Y-122850000D03*
G04 #@! TD*
G04 #@! TO.C,R2*
X65300000Y-92250000D03*
X65300000Y-93750000D03*
G04 #@! TD*
G04 #@! TO.C,R3*
X53100000Y-90850000D03*
X53100000Y-89350000D03*
G04 #@! TD*
G04 #@! TO.C,R6*
X117600000Y-120300000D03*
X117600000Y-121800000D03*
G04 #@! TD*
G04 #@! TO.C,R7*
X115800000Y-120300000D03*
X115800000Y-121800000D03*
G04 #@! TD*
G04 #@! TO.C,R8*
X114000000Y-120350000D03*
X114000000Y-121850000D03*
G04 #@! TD*
G04 #@! TO.C,R9*
X107800000Y-119650000D03*
X107800000Y-121150000D03*
G04 #@! TD*
D15*
G04 #@! TO.C,R4*
X53550000Y-116400000D03*
X55050000Y-116400000D03*
G04 #@! TD*
G04 #@! TO.C,R5*
X55050000Y-118600000D03*
X53550000Y-118600000D03*
G04 #@! TD*
D16*
G04 #@! TO.C,SW1*
X60749560Y-103251200D03*
X65250440Y-96748800D03*
X65250440Y-103251200D03*
X60749560Y-96748800D03*
G04 #@! TD*
G04 #@! TO.C,SW2*
X55748800Y-87749560D03*
X62251200Y-92250440D03*
X55748800Y-92250440D03*
X62251200Y-87749560D03*
G04 #@! TD*
G04 #@! TO.C,SW3*
X55748800Y-107749560D03*
X62251200Y-112250440D03*
X55748800Y-112250440D03*
X62251200Y-107749560D03*
G04 #@! TD*
G04 #@! TO.C,SW5*
X55748800Y-122749560D03*
X62251200Y-127250440D03*
X55748800Y-127250440D03*
X62251200Y-122749560D03*
G04 #@! TD*
G04 #@! TO.C,SW6*
X62251200Y-83250440D03*
X55748800Y-78749560D03*
X62251200Y-78749560D03*
X55748800Y-83250440D03*
G04 #@! TD*
D13*
G04 #@! TO.C,C3*
X114050000Y-86000000D03*
X114050000Y-84500000D03*
G04 #@! TD*
G04 #@! TO.C,C4*
X116600000Y-86000000D03*
X116600000Y-84500000D03*
G04 #@! TD*
D17*
G04 #@! TO.C,C5*
X90050000Y-86500000D03*
X91550000Y-86500000D03*
G04 #@! TD*
D13*
G04 #@! TO.C,C6*
X119150000Y-86050000D03*
X119150000Y-84550000D03*
G04 #@! TD*
D17*
G04 #@! TO.C,C7*
X95150000Y-86500000D03*
X93650000Y-86500000D03*
G04 #@! TD*
G04 #@! TO.C,C8*
X98250000Y-86500000D03*
X96750000Y-86500000D03*
G04 #@! TD*
G04 #@! TO.C,C9*
X102550000Y-86500000D03*
X101050000Y-86500000D03*
G04 #@! TD*
D18*
G04 #@! TO.C,DIS1*
X114050000Y-125090000D03*
X75950000Y-125090000D03*
X70870000Y-81910000D03*
X73410000Y-81910000D03*
X75950000Y-81910000D03*
X78490000Y-81910000D03*
X81030000Y-81910000D03*
X83570000Y-81910000D03*
X86110000Y-81910000D03*
X88650000Y-81910000D03*
X91190000Y-81910000D03*
X93730000Y-81910000D03*
X96270000Y-81910000D03*
X98810000Y-81910000D03*
X101350000Y-81910000D03*
X103890000Y-81910000D03*
X106430000Y-81910000D03*
X108970000Y-81910000D03*
X111510000Y-81910000D03*
X114050000Y-81910000D03*
X116590000Y-81910000D03*
X119130000Y-81910000D03*
X116590000Y-125090000D03*
X119130000Y-125090000D03*
X73410000Y-125090000D03*
X70870000Y-125090000D03*
G04 #@! TD*
D16*
G04 #@! TO.C,SW4*
X57250440Y-96748800D03*
X52749560Y-103251200D03*
X52749560Y-96748800D03*
X57250440Y-103251200D03*
G04 #@! TD*
D18*
G04 #@! TO.C,DIS2*
X70870000Y-109850000D03*
X73410000Y-109850000D03*
X119130000Y-109850000D03*
X116590000Y-109850000D03*
X119130000Y-81910000D03*
X116590000Y-81910000D03*
X114050000Y-81910000D03*
X111510000Y-81910000D03*
X108970000Y-81910000D03*
X106430000Y-81910000D03*
X103890000Y-81910000D03*
X101350000Y-81910000D03*
X98810000Y-81910000D03*
X96270000Y-81910000D03*
X93730000Y-81910000D03*
X91190000Y-81910000D03*
X88650000Y-81910000D03*
X86110000Y-81910000D03*
X83570000Y-81910000D03*
X81030000Y-81910000D03*
X78490000Y-81910000D03*
X75950000Y-81910000D03*
X73410000Y-81910000D03*
X70870000Y-81910000D03*
G04 #@! TD*
G04 #@! TO.C,DIS3*
X103890000Y-84450000D03*
X101350000Y-84450000D03*
X98810000Y-84450000D03*
X96270000Y-84450000D03*
X93730000Y-84450000D03*
X91190000Y-84450000D03*
X88650000Y-84450000D03*
X86110000Y-84450000D03*
X83570000Y-84450000D03*
X81030000Y-84450000D03*
X78490000Y-84450000D03*
X75950000Y-84450000D03*
X73410000Y-84450000D03*
X70870000Y-84450000D03*
X70870000Y-122550000D03*
X73410000Y-122550000D03*
X103890000Y-122550000D03*
X101350000Y-122550000D03*
G04 #@! TD*
D17*
G04 #@! TO.C,C10*
X111550000Y-108100000D03*
X113050000Y-108100000D03*
G04 #@! TD*
G04 #@! TO.C,C11*
X113050000Y-106400000D03*
X111550000Y-106400000D03*
G04 #@! TD*
D19*
G04 #@! TO.C,U1*
X113300000Y-97198000D03*
D20*
X113300000Y-103802000D03*
X115586000Y-103802000D03*
X111014000Y-103802000D03*
G04 #@! TD*
D17*
G04 #@! TO.C,C12*
X70250000Y-87600000D03*
X71750000Y-87600000D03*
G04 #@! TD*
G04 #@! TO.C,C13*
X78250000Y-87600000D03*
X76750000Y-87600000D03*
G04 #@! TD*
G04 #@! TO.C,C14*
X83350000Y-87600000D03*
X84850000Y-87600000D03*
G04 #@! TD*
D14*
G04 #@! TO.C,R10*
X81600000Y-89650000D03*
X81600000Y-91150000D03*
G04 #@! TD*
G04 #@! TO.C,R11*
X79900000Y-91150000D03*
X79900000Y-89650000D03*
G04 #@! TD*
G04 #@! TO.C,R12*
X75100000Y-89650000D03*
X75100000Y-91150000D03*
G04 #@! TD*
G04 #@! TO.C,R13*
X68600000Y-91150000D03*
X68600000Y-89650000D03*
G04 #@! TD*
G04 #@! TO.C,R14*
X73400000Y-89650000D03*
X73400000Y-91150000D03*
G04 #@! TD*
D15*
G04 #@! TO.C,R15*
X86650000Y-100300000D03*
X88150000Y-100300000D03*
G04 #@! TD*
G04 #@! TO.C,R16*
X78550000Y-97400000D03*
X77050000Y-97400000D03*
G04 #@! TD*
G04 #@! TO.C,R17*
X86650000Y-96900000D03*
X88150000Y-96900000D03*
G04 #@! TD*
G04 #@! TO.C,R18*
X88150000Y-98600000D03*
X86650000Y-98600000D03*
G04 #@! TD*
G04 #@! TO.C,R19*
X78550000Y-95700000D03*
X77050000Y-95700000D03*
G04 #@! TD*
G04 #@! TO.C,R20*
X86650000Y-95200000D03*
X88150000Y-95200000D03*
G04 #@! TD*
D14*
G04 #@! TO.C,R21*
X66200000Y-122050000D03*
X66200000Y-120550000D03*
G04 #@! TD*
D21*
G04 #@! TO.C,D1*
X66200000Y-123950700D03*
X66200000Y-125449300D03*
G04 #@! TD*
D22*
G04 #@! TO.C,U2*
X117950000Y-103500000D03*
X118900000Y-103500000D03*
X119850000Y-103500000D03*
X119850000Y-101300000D03*
X117950000Y-101300000D03*
G04 #@! TD*
G04 #@! TO.C,U3*
X83150000Y-91600000D03*
X84100000Y-91600000D03*
X85050000Y-91600000D03*
X85050000Y-89400000D03*
X83150000Y-89400000D03*
X84100000Y-89400000D03*
G04 #@! TD*
G04 #@! TO.C,U4*
X76550000Y-91600000D03*
X77500000Y-91600000D03*
X78450000Y-91600000D03*
X78450000Y-89400000D03*
X76550000Y-89400000D03*
X77500000Y-89400000D03*
G04 #@! TD*
G04 #@! TO.C,U5*
X71000000Y-89400000D03*
X70050000Y-89400000D03*
X71950000Y-89400000D03*
X71950000Y-91600000D03*
X71000000Y-91600000D03*
X70050000Y-91600000D03*
G04 #@! TD*
D23*
X72100000Y-93430000D03*
X85100000Y-93400000D03*
X76600000Y-93400000D03*
X79600000Y-87600000D03*
X73000000Y-87600000D03*
X104100000Y-89600000D03*
X111200000Y-122000000D03*
X86300000Y-87600000D03*
X108800000Y-105100000D03*
X118900000Y-98300000D03*
X83800000Y-123800000D03*
X88700000Y-118700000D03*
X86600000Y-122600000D03*
X112100000Y-124100000D03*
X103500000Y-92600000D03*
X113200000Y-94400000D03*
X69200000Y-106400000D03*
X72100000Y-103500000D03*
X79700000Y-119500000D03*
X84700000Y-96800000D03*
X83600000Y-96300000D03*
X89300000Y-92200000D03*
X79600000Y-95700000D03*
X86900000Y-92100000D03*
X94100000Y-92000000D03*
X79500000Y-97400000D03*
X92500000Y-92600000D03*
M02*
