G04 #@! TF.GenerationSoftware,KiCad,Pcbnew,5.0.0-fee4fd1~66~ubuntu18.04.1*
G04 #@! TF.CreationDate,2018-10-08T02:39:47+02:00*
G04 #@! TF.ProjectId,ArduHMIShield,41726475484D49536869656C642E6B69,1.0*
G04 #@! TF.SameCoordinates,Original*
G04 #@! TF.FileFunction,Legend,Top*
G04 #@! TF.FilePolarity,Positive*
%FSLAX46Y46*%
G04 Gerber Fmt 4.6, Leading zero omitted, Abs format (unit mm)*
G04 Created by KiCad (PCBNEW 5.0.0-fee4fd1~66~ubuntu18.04.1) date Mon Oct  8 02:39:47 2018*
%MOMM*%
%LPD*%
G01*
G04 APERTURE LIST*
%ADD10C,0.300000*%
%ADD11C,0.150000*%
%ADD12C,2.540000*%
%ADD13C,0.304800*%
G04 APERTURE END LIST*
D10*
X73642857Y-115242857D02*
X73071428Y-115242857D01*
X73071428Y-114042857D01*
X74042857Y-115242857D02*
X74042857Y-114442857D01*
X74042857Y-114042857D02*
X73985714Y-114100000D01*
X74042857Y-114157142D01*
X74100000Y-114100000D01*
X74042857Y-114042857D01*
X74042857Y-114157142D01*
X75128571Y-115185714D02*
X75014285Y-115242857D01*
X74785714Y-115242857D01*
X74671428Y-115185714D01*
X74614285Y-115128571D01*
X74557142Y-115014285D01*
X74557142Y-114671428D01*
X74614285Y-114557142D01*
X74671428Y-114500000D01*
X74785714Y-114442857D01*
X75014285Y-114442857D01*
X75128571Y-114500000D01*
X76100000Y-115185714D02*
X75985714Y-115242857D01*
X75757142Y-115242857D01*
X75642857Y-115185714D01*
X75585714Y-115071428D01*
X75585714Y-114614285D01*
X75642857Y-114500000D01*
X75757142Y-114442857D01*
X75985714Y-114442857D01*
X76100000Y-114500000D01*
X76157142Y-114614285D01*
X76157142Y-114728571D01*
X75585714Y-114842857D01*
X76671428Y-114442857D02*
X76671428Y-115242857D01*
X76671428Y-114557142D02*
X76728571Y-114500000D01*
X76842857Y-114442857D01*
X77014285Y-114442857D01*
X77128571Y-114500000D01*
X77185714Y-114614285D01*
X77185714Y-115242857D01*
X77700000Y-115185714D02*
X77814285Y-115242857D01*
X78042857Y-115242857D01*
X78157142Y-115185714D01*
X78214285Y-115071428D01*
X78214285Y-115014285D01*
X78157142Y-114900000D01*
X78042857Y-114842857D01*
X77871428Y-114842857D01*
X77757142Y-114785714D01*
X77700000Y-114671428D01*
X77700000Y-114614285D01*
X77757142Y-114500000D01*
X77871428Y-114442857D01*
X78042857Y-114442857D01*
X78157142Y-114500000D01*
X79185714Y-115185714D02*
X79071428Y-115242857D01*
X78842857Y-115242857D01*
X78728571Y-115185714D01*
X78671428Y-115071428D01*
X78671428Y-114614285D01*
X78728571Y-114500000D01*
X78842857Y-114442857D01*
X79071428Y-114442857D01*
X79185714Y-114500000D01*
X79242857Y-114614285D01*
X79242857Y-114728571D01*
X78671428Y-114842857D01*
X80271428Y-115242857D02*
X80271428Y-114042857D01*
X80271428Y-115185714D02*
X80157142Y-115242857D01*
X79928571Y-115242857D01*
X79814285Y-115185714D01*
X79757142Y-115128571D01*
X79700000Y-115014285D01*
X79700000Y-114671428D01*
X79757142Y-114557142D01*
X79814285Y-114500000D01*
X79928571Y-114442857D01*
X80157142Y-114442857D01*
X80271428Y-114500000D01*
X82271428Y-114442857D02*
X82271428Y-115242857D01*
X81757142Y-114442857D02*
X81757142Y-115071428D01*
X81814285Y-115185714D01*
X81928571Y-115242857D01*
X82100000Y-115242857D01*
X82214285Y-115185714D01*
X82271428Y-115128571D01*
X82842857Y-114442857D02*
X82842857Y-115242857D01*
X82842857Y-114557142D02*
X82900000Y-114500000D01*
X83014285Y-114442857D01*
X83185714Y-114442857D01*
X83300000Y-114500000D01*
X83357142Y-114614285D01*
X83357142Y-115242857D01*
X84442857Y-115242857D02*
X84442857Y-114042857D01*
X84442857Y-115185714D02*
X84328571Y-115242857D01*
X84100000Y-115242857D01*
X83985714Y-115185714D01*
X83928571Y-115128571D01*
X83871428Y-115014285D01*
X83871428Y-114671428D01*
X83928571Y-114557142D01*
X83985714Y-114500000D01*
X84100000Y-114442857D01*
X84328571Y-114442857D01*
X84442857Y-114500000D01*
X85471428Y-115185714D02*
X85357142Y-115242857D01*
X85128571Y-115242857D01*
X85014285Y-115185714D01*
X84957142Y-115071428D01*
X84957142Y-114614285D01*
X85014285Y-114500000D01*
X85128571Y-114442857D01*
X85357142Y-114442857D01*
X85471428Y-114500000D01*
X85528571Y-114614285D01*
X85528571Y-114728571D01*
X84957142Y-114842857D01*
X86042857Y-115242857D02*
X86042857Y-114442857D01*
X86042857Y-114671428D02*
X86100000Y-114557142D01*
X86157142Y-114500000D01*
X86271428Y-114442857D01*
X86385714Y-114442857D01*
X88385714Y-115128571D02*
X88328571Y-115185714D01*
X88157142Y-115242857D01*
X88042857Y-115242857D01*
X87871428Y-115185714D01*
X87757142Y-115071428D01*
X87700000Y-114957142D01*
X87642857Y-114728571D01*
X87642857Y-114557142D01*
X87700000Y-114328571D01*
X87757142Y-114214285D01*
X87871428Y-114100000D01*
X88042857Y-114042857D01*
X88157142Y-114042857D01*
X88328571Y-114100000D01*
X88385714Y-114157142D01*
X88900000Y-114614285D02*
X89300000Y-114614285D01*
X89471428Y-115242857D02*
X88900000Y-115242857D01*
X88900000Y-114042857D01*
X89471428Y-114042857D01*
X90671428Y-115242857D02*
X90271428Y-114671428D01*
X89985714Y-115242857D02*
X89985714Y-114042857D01*
X90442857Y-114042857D01*
X90557142Y-114100000D01*
X90614285Y-114157142D01*
X90671428Y-114271428D01*
X90671428Y-114442857D01*
X90614285Y-114557142D01*
X90557142Y-114614285D01*
X90442857Y-114671428D01*
X89985714Y-114671428D01*
X91185714Y-115242857D02*
X91185714Y-114042857D01*
X91871428Y-115242857D01*
X91871428Y-114042857D01*
X93585714Y-114042857D02*
X93814285Y-114042857D01*
X93928571Y-114100000D01*
X94042857Y-114214285D01*
X94100000Y-114442857D01*
X94100000Y-114842857D01*
X94042857Y-115071428D01*
X93928571Y-115185714D01*
X93814285Y-115242857D01*
X93585714Y-115242857D01*
X93471428Y-115185714D01*
X93357142Y-115071428D01*
X93300000Y-114842857D01*
X93300000Y-114442857D01*
X93357142Y-114214285D01*
X93471428Y-114100000D01*
X93585714Y-114042857D01*
X94614285Y-115242857D02*
X94614285Y-114042857D01*
X94614285Y-114614285D02*
X95300000Y-114614285D01*
X95300000Y-115242857D02*
X95300000Y-114042857D01*
X96442857Y-115242857D02*
X95871428Y-115242857D01*
X95871428Y-114042857D01*
X97642857Y-114442857D02*
X97928571Y-115242857D01*
X98214285Y-114442857D01*
X98671428Y-115128571D02*
X98728571Y-115185714D01*
X98671428Y-115242857D01*
X98614285Y-115185714D01*
X98671428Y-115128571D01*
X98671428Y-115242857D01*
X99871428Y-115242857D02*
X99185714Y-115242857D01*
X99528571Y-115242857D02*
X99528571Y-114042857D01*
X99414285Y-114214285D01*
X99300000Y-114328571D01*
X99185714Y-114385714D01*
X100385714Y-115128571D02*
X100442857Y-115185714D01*
X100385714Y-115242857D01*
X100328571Y-115185714D01*
X100385714Y-115128571D01*
X100385714Y-115242857D01*
X100900000Y-114157142D02*
X100957142Y-114100000D01*
X101071428Y-114042857D01*
X101357142Y-114042857D01*
X101471428Y-114100000D01*
X101528571Y-114157142D01*
X101585714Y-114271428D01*
X101585714Y-114385714D01*
X101528571Y-114557142D01*
X100842857Y-115242857D01*
X101585714Y-115242857D01*
D11*
G04 #@! TO.C,Q1*
X111450240Y-121799820D02*
X110749200Y-121799820D01*
X111450240Y-121599160D02*
X111450240Y-121799820D01*
X111450240Y-118800180D02*
X111450240Y-119049100D01*
X110749200Y-118800180D02*
X111450240Y-118800180D01*
X111450240Y-121599160D02*
X111450240Y-121550900D01*
G04 #@! TO.C,C1*
X108350000Y-85600000D02*
X108350000Y-84900000D01*
X109550000Y-84900000D02*
X109550000Y-85600000D01*
G04 #@! TO.C,C2*
X110900000Y-85700000D02*
X110900000Y-85000000D01*
X112100000Y-85000000D02*
X112100000Y-85700000D01*
G04 #@! TO.C,R1*
X82025000Y-122600000D02*
X82025000Y-121600000D01*
X83375000Y-121600000D02*
X83375000Y-122600000D01*
G04 #@! TO.C,R2*
X64625000Y-93500000D02*
X64625000Y-92500000D01*
X65975000Y-92500000D02*
X65975000Y-93500000D01*
G04 #@! TO.C,R3*
X53775000Y-89600000D02*
X53775000Y-90600000D01*
X52425000Y-90600000D02*
X52425000Y-89600000D01*
G04 #@! TO.C,R6*
X116925000Y-121550000D02*
X116925000Y-120550000D01*
X118275000Y-120550000D02*
X118275000Y-121550000D01*
G04 #@! TO.C,R7*
X115125000Y-121550000D02*
X115125000Y-120550000D01*
X116475000Y-120550000D02*
X116475000Y-121550000D01*
G04 #@! TO.C,R8*
X113325000Y-121600000D02*
X113325000Y-120600000D01*
X114675000Y-120600000D02*
X114675000Y-121600000D01*
G04 #@! TO.C,R9*
X107125000Y-120900000D02*
X107125000Y-119900000D01*
X108475000Y-119900000D02*
X108475000Y-120900000D01*
G04 #@! TO.C,R4*
X54800000Y-117075000D02*
X53800000Y-117075000D01*
X53800000Y-115725000D02*
X54800000Y-115725000D01*
G04 #@! TO.C,R5*
X53800000Y-117925000D02*
X54800000Y-117925000D01*
X54800000Y-119275000D02*
X53800000Y-119275000D01*
D12*
G04 #@! TO.C,SW1*
X63803219Y-100000000D02*
G75*
G03X63803219Y-100000000I-803219J0D01*
G01*
D13*
X59952000Y-103048000D02*
X59952000Y-96952000D01*
X66048000Y-103048000D02*
X59952000Y-103048000D01*
X66048000Y-96952000D02*
X66048000Y-103048000D01*
X59952000Y-96952000D02*
X66048000Y-96952000D01*
D12*
G04 #@! TO.C,SW2*
X59803219Y-90000000D02*
G75*
G03X59803219Y-90000000I-803219J0D01*
G01*
D13*
X55952000Y-86952000D02*
X62048000Y-86952000D01*
X55952000Y-93048000D02*
X55952000Y-86952000D01*
X62048000Y-93048000D02*
X55952000Y-93048000D01*
X62048000Y-86952000D02*
X62048000Y-93048000D01*
D12*
G04 #@! TO.C,SW3*
X59803219Y-110000000D02*
G75*
G03X59803219Y-110000000I-803219J0D01*
G01*
D13*
X55952000Y-106952000D02*
X62048000Y-106952000D01*
X55952000Y-113048000D02*
X55952000Y-106952000D01*
X62048000Y-113048000D02*
X55952000Y-113048000D01*
X62048000Y-106952000D02*
X62048000Y-113048000D01*
D12*
G04 #@! TO.C,SW5*
X59803219Y-125000000D02*
G75*
G03X59803219Y-125000000I-803219J0D01*
G01*
D13*
X55952000Y-121952000D02*
X62048000Y-121952000D01*
X55952000Y-128048000D02*
X55952000Y-121952000D01*
X62048000Y-128048000D02*
X55952000Y-128048000D01*
X62048000Y-121952000D02*
X62048000Y-128048000D01*
D12*
G04 #@! TO.C,SW6*
X59803219Y-81000000D02*
G75*
G03X59803219Y-81000000I-803219J0D01*
G01*
D13*
X62048000Y-84048000D02*
X55952000Y-84048000D01*
X62048000Y-77952000D02*
X62048000Y-84048000D01*
X55952000Y-77952000D02*
X62048000Y-77952000D01*
X55952000Y-84048000D02*
X55952000Y-77952000D01*
D11*
G04 #@! TO.C,C3*
X113450000Y-85600000D02*
X113450000Y-84900000D01*
X114650000Y-84900000D02*
X114650000Y-85600000D01*
G04 #@! TO.C,C4*
X116000000Y-85600000D02*
X116000000Y-84900000D01*
X117200000Y-84900000D02*
X117200000Y-85600000D01*
G04 #@! TO.C,C5*
X90450000Y-85900000D02*
X91150000Y-85900000D01*
X91150000Y-87100000D02*
X90450000Y-87100000D01*
G04 #@! TO.C,C6*
X118550000Y-85650000D02*
X118550000Y-84950000D01*
X119750000Y-84950000D02*
X119750000Y-85650000D01*
G04 #@! TO.C,C7*
X94750000Y-87100000D02*
X94050000Y-87100000D01*
X94050000Y-85900000D02*
X94750000Y-85900000D01*
G04 #@! TO.C,C8*
X97850000Y-87100000D02*
X97150000Y-87100000D01*
X97150000Y-85900000D02*
X97850000Y-85900000D01*
G04 #@! TO.C,C9*
X102150000Y-87100000D02*
X101450000Y-87100000D01*
X101450000Y-85900000D02*
X102150000Y-85900000D01*
G04 #@! TO.C,DIS1*
X67500000Y-125120000D02*
X67500000Y-81880000D01*
X122500000Y-125120000D02*
X67500000Y-125120000D01*
X122500000Y-81880000D02*
X122500000Y-125120000D01*
X67500000Y-81880000D02*
X122500000Y-81880000D01*
X67500000Y-90300000D02*
X122500000Y-90300000D01*
X122500000Y-121300000D02*
X67500000Y-121300000D01*
X70750000Y-119700000D02*
X70750000Y-91900000D01*
X119250000Y-119700000D02*
X70750000Y-119700000D01*
X119250000Y-91900000D02*
X119250000Y-119700000D01*
X70750000Y-91900000D02*
X119250000Y-91900000D01*
D12*
G04 #@! TO.C,SW4*
X55803219Y-100000000D02*
G75*
G03X55803219Y-100000000I-803219J0D01*
G01*
D13*
X58048000Y-96952000D02*
X58048000Y-103048000D01*
X51952000Y-96952000D02*
X58048000Y-96952000D01*
X51952000Y-103048000D02*
X51952000Y-96952000D01*
X58048000Y-103048000D02*
X51952000Y-103048000D01*
D11*
G04 #@! TO.C,DIS2*
X70750000Y-91630000D02*
X119250000Y-91630000D01*
X119250000Y-91630000D02*
X119250000Y-103630000D01*
X119250000Y-103630000D02*
X70750000Y-103630000D01*
X70750000Y-103630000D02*
X70750000Y-91630000D01*
X122500000Y-106380000D02*
X67500000Y-106380000D01*
X67500000Y-88880000D02*
X122500000Y-88880000D01*
X67500000Y-81880000D02*
X122500000Y-81880000D01*
X122500000Y-81880000D02*
X122500000Y-109880000D01*
X122500000Y-109880000D02*
X67500000Y-109880000D01*
X67500000Y-109880000D02*
X67500000Y-81880000D01*
G04 #@! TO.C,DIS3*
X70555000Y-94150000D02*
X104205000Y-94150000D01*
X104205000Y-94150000D02*
X104205000Y-116550000D01*
X104205000Y-116550000D02*
X70555000Y-116550000D01*
X70555000Y-116550000D02*
X70555000Y-94150000D01*
X106880000Y-117850000D02*
X67880000Y-117850000D01*
X67880000Y-92850000D02*
X106880000Y-92850000D01*
X67880000Y-84450000D02*
X106880000Y-84450000D01*
X106880000Y-84420000D02*
X106880000Y-122580000D01*
X106880000Y-122580000D02*
X67880000Y-122580000D01*
X67880000Y-122580000D02*
X67880000Y-84420000D01*
G04 #@! TO.C,C10*
X111950000Y-107500000D02*
X112650000Y-107500000D01*
X112650000Y-108700000D02*
X111950000Y-108700000D01*
G04 #@! TO.C,C11*
X112650000Y-107000000D02*
X111950000Y-107000000D01*
X111950000Y-105800000D02*
X112650000Y-105800000D01*
G04 #@! TO.C,U1*
X109744000Y-102024000D02*
X109744000Y-105072000D01*
X109744000Y-105072000D02*
X116856000Y-105072000D01*
X116856000Y-105072000D02*
X116856000Y-102024000D01*
X109744000Y-98976000D02*
X109744000Y-98214000D01*
X109744000Y-98214000D02*
X111268000Y-95928000D01*
X111268000Y-95928000D02*
X115332000Y-95928000D01*
X115332000Y-95928000D02*
X116856000Y-98214000D01*
X116856000Y-98214000D02*
X116856000Y-98976000D01*
G04 #@! TO.C,C12*
X70650000Y-87000000D02*
X71350000Y-87000000D01*
X71350000Y-88200000D02*
X70650000Y-88200000D01*
G04 #@! TO.C,C13*
X77850000Y-88200000D02*
X77150000Y-88200000D01*
X77150000Y-87000000D02*
X77850000Y-87000000D01*
G04 #@! TO.C,C14*
X83750000Y-87000000D02*
X84450000Y-87000000D01*
X84450000Y-88200000D02*
X83750000Y-88200000D01*
G04 #@! TO.C,R10*
X80925000Y-90900000D02*
X80925000Y-89900000D01*
X82275000Y-89900000D02*
X82275000Y-90900000D01*
G04 #@! TO.C,R11*
X80575000Y-89900000D02*
X80575000Y-90900000D01*
X79225000Y-90900000D02*
X79225000Y-89900000D01*
G04 #@! TO.C,R12*
X74425000Y-90900000D02*
X74425000Y-89900000D01*
X75775000Y-89900000D02*
X75775000Y-90900000D01*
G04 #@! TO.C,R13*
X69275000Y-89900000D02*
X69275000Y-90900000D01*
X67925000Y-90900000D02*
X67925000Y-89900000D01*
G04 #@! TO.C,R14*
X72725000Y-90900000D02*
X72725000Y-89900000D01*
X74075000Y-89900000D02*
X74075000Y-90900000D01*
G04 #@! TO.C,R15*
X87900000Y-100975000D02*
X86900000Y-100975000D01*
X86900000Y-99625000D02*
X87900000Y-99625000D01*
G04 #@! TO.C,R16*
X77300000Y-96725000D02*
X78300000Y-96725000D01*
X78300000Y-98075000D02*
X77300000Y-98075000D01*
G04 #@! TO.C,R17*
X87900000Y-97575000D02*
X86900000Y-97575000D01*
X86900000Y-96225000D02*
X87900000Y-96225000D01*
G04 #@! TO.C,R18*
X86900000Y-97925000D02*
X87900000Y-97925000D01*
X87900000Y-99275000D02*
X86900000Y-99275000D01*
G04 #@! TO.C,R19*
X77300000Y-95025000D02*
X78300000Y-95025000D01*
X78300000Y-96375000D02*
X77300000Y-96375000D01*
G04 #@! TO.C,R20*
X87900000Y-95875000D02*
X86900000Y-95875000D01*
X86900000Y-94525000D02*
X87900000Y-94525000D01*
G04 #@! TO.C,R21*
X66875000Y-120800000D02*
X66875000Y-121800000D01*
X65525000Y-121800000D02*
X65525000Y-120800000D01*
G04 #@! TO.C,D1*
X66750000Y-125800000D02*
X66750000Y-123900000D01*
X65650000Y-125800000D02*
X65650000Y-123900000D01*
X66200000Y-124900000D02*
X66200000Y-124450000D01*
X65950000Y-124950000D02*
X66450000Y-124950000D01*
X66200000Y-124950000D02*
X65950000Y-124700000D01*
X65950000Y-124700000D02*
X66450000Y-124700000D01*
X66450000Y-124700000D02*
X66200000Y-124950000D01*
G04 #@! TO.C,U2*
X117300000Y-102700000D02*
G75*
G03X117300000Y-102700000I-100000J0D01*
G01*
X117450000Y-102150000D02*
X117450000Y-102650000D01*
X120350000Y-102150000D02*
X117450000Y-102150000D01*
X120350000Y-102650000D02*
X120350000Y-102150000D01*
X117450000Y-102650000D02*
X120350000Y-102650000D01*
G04 #@! TO.C,U3*
X82500000Y-90900000D02*
G75*
G03X82500000Y-90900000I-100000J0D01*
G01*
X82650000Y-90250000D02*
X82650000Y-90750000D01*
X85550000Y-90250000D02*
X82650000Y-90250000D01*
X85550000Y-90750000D02*
X85550000Y-90250000D01*
X82650000Y-90750000D02*
X85550000Y-90750000D01*
G04 #@! TO.C,U4*
X75900000Y-90900000D02*
G75*
G03X75900000Y-90900000I-100000J0D01*
G01*
X76050000Y-90250000D02*
X76050000Y-90750000D01*
X78950000Y-90250000D02*
X76050000Y-90250000D01*
X78950000Y-90750000D02*
X78950000Y-90250000D01*
X76050000Y-90750000D02*
X78950000Y-90750000D01*
G04 #@! TO.C,U5*
X69550000Y-90750000D02*
X72450000Y-90750000D01*
X72450000Y-90750000D02*
X72450000Y-90250000D01*
X72450000Y-90250000D02*
X69550000Y-90250000D01*
X69550000Y-90250000D02*
X69550000Y-90750000D01*
X69400000Y-90900000D02*
G75*
G03X69400000Y-90900000I-100000J0D01*
G01*
G04 #@! TO.C,Q1*
X111804761Y-118547619D02*
X111709523Y-118500000D01*
X111614285Y-118404761D01*
X111471428Y-118261904D01*
X111376190Y-118214285D01*
X111280952Y-118214285D01*
X111328571Y-118452380D02*
X111233333Y-118404761D01*
X111138095Y-118309523D01*
X111090476Y-118119047D01*
X111090476Y-117785714D01*
X111138095Y-117595238D01*
X111233333Y-117500000D01*
X111328571Y-117452380D01*
X111519047Y-117452380D01*
X111614285Y-117500000D01*
X111709523Y-117595238D01*
X111757142Y-117785714D01*
X111757142Y-118119047D01*
X111709523Y-118309523D01*
X111614285Y-118404761D01*
X111519047Y-118452380D01*
X111328571Y-118452380D01*
X112709523Y-118452380D02*
X112138095Y-118452380D01*
X112423809Y-118452380D02*
X112423809Y-117452380D01*
X112328571Y-117595238D01*
X112233333Y-117690476D01*
X112138095Y-117738095D01*
G04 #@! TO.C,C1*
X109257142Y-87866666D02*
X109304761Y-87914285D01*
X109352380Y-88057142D01*
X109352380Y-88152380D01*
X109304761Y-88295238D01*
X109209523Y-88390476D01*
X109114285Y-88438095D01*
X108923809Y-88485714D01*
X108780952Y-88485714D01*
X108590476Y-88438095D01*
X108495238Y-88390476D01*
X108400000Y-88295238D01*
X108352380Y-88152380D01*
X108352380Y-88057142D01*
X108400000Y-87914285D01*
X108447619Y-87866666D01*
X109352380Y-86914285D02*
X109352380Y-87485714D01*
X109352380Y-87200000D02*
X108352380Y-87200000D01*
X108495238Y-87295238D01*
X108590476Y-87390476D01*
X108638095Y-87485714D01*
G04 #@! TO.C,C2*
X111857142Y-87866666D02*
X111904761Y-87914285D01*
X111952380Y-88057142D01*
X111952380Y-88152380D01*
X111904761Y-88295238D01*
X111809523Y-88390476D01*
X111714285Y-88438095D01*
X111523809Y-88485714D01*
X111380952Y-88485714D01*
X111190476Y-88438095D01*
X111095238Y-88390476D01*
X111000000Y-88295238D01*
X110952380Y-88152380D01*
X110952380Y-88057142D01*
X111000000Y-87914285D01*
X111047619Y-87866666D01*
X111047619Y-87485714D02*
X111000000Y-87438095D01*
X110952380Y-87342857D01*
X110952380Y-87104761D01*
X111000000Y-87009523D01*
X111047619Y-86961904D01*
X111142857Y-86914285D01*
X111238095Y-86914285D01*
X111380952Y-86961904D01*
X111952380Y-87533333D01*
X111952380Y-86914285D01*
G04 #@! TO.C,R1*
X81652380Y-123866666D02*
X81176190Y-124200000D01*
X81652380Y-124438095D02*
X80652380Y-124438095D01*
X80652380Y-124057142D01*
X80700000Y-123961904D01*
X80747619Y-123914285D01*
X80842857Y-123866666D01*
X80985714Y-123866666D01*
X81080952Y-123914285D01*
X81128571Y-123961904D01*
X81176190Y-124057142D01*
X81176190Y-124438095D01*
X81652380Y-122914285D02*
X81652380Y-123485714D01*
X81652380Y-123200000D02*
X80652380Y-123200000D01*
X80795238Y-123295238D01*
X80890476Y-123390476D01*
X80938095Y-123485714D01*
G04 #@! TO.C,R2*
X65752380Y-90466666D02*
X65276190Y-90800000D01*
X65752380Y-91038095D02*
X64752380Y-91038095D01*
X64752380Y-90657142D01*
X64800000Y-90561904D01*
X64847619Y-90514285D01*
X64942857Y-90466666D01*
X65085714Y-90466666D01*
X65180952Y-90514285D01*
X65228571Y-90561904D01*
X65276190Y-90657142D01*
X65276190Y-91038095D01*
X64847619Y-90085714D02*
X64800000Y-90038095D01*
X64752380Y-89942857D01*
X64752380Y-89704761D01*
X64800000Y-89609523D01*
X64847619Y-89561904D01*
X64942857Y-89514285D01*
X65038095Y-89514285D01*
X65180952Y-89561904D01*
X65752380Y-90133333D01*
X65752380Y-89514285D01*
G04 #@! TO.C,R3*
X53552380Y-87666666D02*
X53076190Y-88000000D01*
X53552380Y-88238095D02*
X52552380Y-88238095D01*
X52552380Y-87857142D01*
X52600000Y-87761904D01*
X52647619Y-87714285D01*
X52742857Y-87666666D01*
X52885714Y-87666666D01*
X52980952Y-87714285D01*
X53028571Y-87761904D01*
X53076190Y-87857142D01*
X53076190Y-88238095D01*
X52552380Y-87333333D02*
X52552380Y-86714285D01*
X52933333Y-87047619D01*
X52933333Y-86904761D01*
X52980952Y-86809523D01*
X53028571Y-86761904D01*
X53123809Y-86714285D01*
X53361904Y-86714285D01*
X53457142Y-86761904D01*
X53504761Y-86809523D01*
X53552380Y-86904761D01*
X53552380Y-87190476D01*
X53504761Y-87285714D01*
X53457142Y-87333333D01*
G04 #@! TO.C,R6*
X118152380Y-118766666D02*
X117676190Y-119100000D01*
X118152380Y-119338095D02*
X117152380Y-119338095D01*
X117152380Y-118957142D01*
X117200000Y-118861904D01*
X117247619Y-118814285D01*
X117342857Y-118766666D01*
X117485714Y-118766666D01*
X117580952Y-118814285D01*
X117628571Y-118861904D01*
X117676190Y-118957142D01*
X117676190Y-119338095D01*
X117152380Y-117909523D02*
X117152380Y-118100000D01*
X117200000Y-118195238D01*
X117247619Y-118242857D01*
X117390476Y-118338095D01*
X117580952Y-118385714D01*
X117961904Y-118385714D01*
X118057142Y-118338095D01*
X118104761Y-118290476D01*
X118152380Y-118195238D01*
X118152380Y-118004761D01*
X118104761Y-117909523D01*
X118057142Y-117861904D01*
X117961904Y-117814285D01*
X117723809Y-117814285D01*
X117628571Y-117861904D01*
X117580952Y-117909523D01*
X117533333Y-118004761D01*
X117533333Y-118195238D01*
X117580952Y-118290476D01*
X117628571Y-118338095D01*
X117723809Y-118385714D01*
G04 #@! TO.C,R7*
X116352380Y-118866666D02*
X115876190Y-119200000D01*
X116352380Y-119438095D02*
X115352380Y-119438095D01*
X115352380Y-119057142D01*
X115400000Y-118961904D01*
X115447619Y-118914285D01*
X115542857Y-118866666D01*
X115685714Y-118866666D01*
X115780952Y-118914285D01*
X115828571Y-118961904D01*
X115876190Y-119057142D01*
X115876190Y-119438095D01*
X115352380Y-118533333D02*
X115352380Y-117866666D01*
X116352380Y-118295238D01*
G04 #@! TO.C,R8*
X114452380Y-118766666D02*
X113976190Y-119100000D01*
X114452380Y-119338095D02*
X113452380Y-119338095D01*
X113452380Y-118957142D01*
X113500000Y-118861904D01*
X113547619Y-118814285D01*
X113642857Y-118766666D01*
X113785714Y-118766666D01*
X113880952Y-118814285D01*
X113928571Y-118861904D01*
X113976190Y-118957142D01*
X113976190Y-119338095D01*
X113880952Y-118195238D02*
X113833333Y-118290476D01*
X113785714Y-118338095D01*
X113690476Y-118385714D01*
X113642857Y-118385714D01*
X113547619Y-118338095D01*
X113500000Y-118290476D01*
X113452380Y-118195238D01*
X113452380Y-118004761D01*
X113500000Y-117909523D01*
X113547619Y-117861904D01*
X113642857Y-117814285D01*
X113690476Y-117814285D01*
X113785714Y-117861904D01*
X113833333Y-117909523D01*
X113880952Y-118004761D01*
X113880952Y-118195238D01*
X113928571Y-118290476D01*
X113976190Y-118338095D01*
X114071428Y-118385714D01*
X114261904Y-118385714D01*
X114357142Y-118338095D01*
X114404761Y-118290476D01*
X114452380Y-118195238D01*
X114452380Y-118004761D01*
X114404761Y-117909523D01*
X114357142Y-117861904D01*
X114261904Y-117814285D01*
X114071428Y-117814285D01*
X113976190Y-117861904D01*
X113928571Y-117909523D01*
X113880952Y-118004761D01*
G04 #@! TO.C,R9*
X108252380Y-118266666D02*
X107776190Y-118600000D01*
X108252380Y-118838095D02*
X107252380Y-118838095D01*
X107252380Y-118457142D01*
X107300000Y-118361904D01*
X107347619Y-118314285D01*
X107442857Y-118266666D01*
X107585714Y-118266666D01*
X107680952Y-118314285D01*
X107728571Y-118361904D01*
X107776190Y-118457142D01*
X107776190Y-118838095D01*
X108252380Y-117790476D02*
X108252380Y-117600000D01*
X108204761Y-117504761D01*
X108157142Y-117457142D01*
X108014285Y-117361904D01*
X107823809Y-117314285D01*
X107442857Y-117314285D01*
X107347619Y-117361904D01*
X107300000Y-117409523D01*
X107252380Y-117504761D01*
X107252380Y-117695238D01*
X107300000Y-117790476D01*
X107347619Y-117838095D01*
X107442857Y-117885714D01*
X107680952Y-117885714D01*
X107776190Y-117838095D01*
X107823809Y-117790476D01*
X107871428Y-117695238D01*
X107871428Y-117504761D01*
X107823809Y-117409523D01*
X107776190Y-117361904D01*
X107680952Y-117314285D01*
G04 #@! TO.C,R4*
X54033333Y-120652380D02*
X53700000Y-120176190D01*
X53461904Y-120652380D02*
X53461904Y-119652380D01*
X53842857Y-119652380D01*
X53938095Y-119700000D01*
X53985714Y-119747619D01*
X54033333Y-119842857D01*
X54033333Y-119985714D01*
X53985714Y-120080952D01*
X53938095Y-120128571D01*
X53842857Y-120176190D01*
X53461904Y-120176190D01*
X54890476Y-119985714D02*
X54890476Y-120652380D01*
X54652380Y-119604761D02*
X54414285Y-120319047D01*
X55033333Y-120319047D01*
G04 #@! TO.C,R5*
X54133333Y-115252380D02*
X53800000Y-114776190D01*
X53561904Y-115252380D02*
X53561904Y-114252380D01*
X53942857Y-114252380D01*
X54038095Y-114300000D01*
X54085714Y-114347619D01*
X54133333Y-114442857D01*
X54133333Y-114585714D01*
X54085714Y-114680952D01*
X54038095Y-114728571D01*
X53942857Y-114776190D01*
X53561904Y-114776190D01*
X55038095Y-114252380D02*
X54561904Y-114252380D01*
X54514285Y-114728571D01*
X54561904Y-114680952D01*
X54657142Y-114633333D01*
X54895238Y-114633333D01*
X54990476Y-114680952D01*
X55038095Y-114728571D01*
X55085714Y-114823809D01*
X55085714Y-115061904D01*
X55038095Y-115157142D01*
X54990476Y-115204761D01*
X54895238Y-115252380D01*
X54657142Y-115252380D01*
X54561904Y-115204761D01*
X54514285Y-115157142D01*
G04 #@! TO.C,SW1*
X61666666Y-95704761D02*
X61809523Y-95752380D01*
X62047619Y-95752380D01*
X62142857Y-95704761D01*
X62190476Y-95657142D01*
X62238095Y-95561904D01*
X62238095Y-95466666D01*
X62190476Y-95371428D01*
X62142857Y-95323809D01*
X62047619Y-95276190D01*
X61857142Y-95228571D01*
X61761904Y-95180952D01*
X61714285Y-95133333D01*
X61666666Y-95038095D01*
X61666666Y-94942857D01*
X61714285Y-94847619D01*
X61761904Y-94800000D01*
X61857142Y-94752380D01*
X62095238Y-94752380D01*
X62238095Y-94800000D01*
X62571428Y-94752380D02*
X62809523Y-95752380D01*
X63000000Y-95038095D01*
X63190476Y-95752380D01*
X63428571Y-94752380D01*
X64333333Y-95752380D02*
X63761904Y-95752380D01*
X64047619Y-95752380D02*
X64047619Y-94752380D01*
X63952380Y-94895238D01*
X63857142Y-94990476D01*
X63761904Y-95038095D01*
G04 #@! TO.C,SW2*
X57666666Y-86404761D02*
X57809523Y-86452380D01*
X58047619Y-86452380D01*
X58142857Y-86404761D01*
X58190476Y-86357142D01*
X58238095Y-86261904D01*
X58238095Y-86166666D01*
X58190476Y-86071428D01*
X58142857Y-86023809D01*
X58047619Y-85976190D01*
X57857142Y-85928571D01*
X57761904Y-85880952D01*
X57714285Y-85833333D01*
X57666666Y-85738095D01*
X57666666Y-85642857D01*
X57714285Y-85547619D01*
X57761904Y-85500000D01*
X57857142Y-85452380D01*
X58095238Y-85452380D01*
X58238095Y-85500000D01*
X58571428Y-85452380D02*
X58809523Y-86452380D01*
X59000000Y-85738095D01*
X59190476Y-86452380D01*
X59428571Y-85452380D01*
X59761904Y-85547619D02*
X59809523Y-85500000D01*
X59904761Y-85452380D01*
X60142857Y-85452380D01*
X60238095Y-85500000D01*
X60285714Y-85547619D01*
X60333333Y-85642857D01*
X60333333Y-85738095D01*
X60285714Y-85880952D01*
X59714285Y-86452380D01*
X60333333Y-86452380D01*
G04 #@! TO.C,SW3*
X57666666Y-106404761D02*
X57809523Y-106452380D01*
X58047619Y-106452380D01*
X58142857Y-106404761D01*
X58190476Y-106357142D01*
X58238095Y-106261904D01*
X58238095Y-106166666D01*
X58190476Y-106071428D01*
X58142857Y-106023809D01*
X58047619Y-105976190D01*
X57857142Y-105928571D01*
X57761904Y-105880952D01*
X57714285Y-105833333D01*
X57666666Y-105738095D01*
X57666666Y-105642857D01*
X57714285Y-105547619D01*
X57761904Y-105500000D01*
X57857142Y-105452380D01*
X58095238Y-105452380D01*
X58238095Y-105500000D01*
X58571428Y-105452380D02*
X58809523Y-106452380D01*
X59000000Y-105738095D01*
X59190476Y-106452380D01*
X59428571Y-105452380D01*
X59714285Y-105452380D02*
X60333333Y-105452380D01*
X60000000Y-105833333D01*
X60142857Y-105833333D01*
X60238095Y-105880952D01*
X60285714Y-105928571D01*
X60333333Y-106023809D01*
X60333333Y-106261904D01*
X60285714Y-106357142D01*
X60238095Y-106404761D01*
X60142857Y-106452380D01*
X59857142Y-106452380D01*
X59761904Y-106404761D01*
X59714285Y-106357142D01*
G04 #@! TO.C,SW5*
X57666666Y-121404761D02*
X57809523Y-121452380D01*
X58047619Y-121452380D01*
X58142857Y-121404761D01*
X58190476Y-121357142D01*
X58238095Y-121261904D01*
X58238095Y-121166666D01*
X58190476Y-121071428D01*
X58142857Y-121023809D01*
X58047619Y-120976190D01*
X57857142Y-120928571D01*
X57761904Y-120880952D01*
X57714285Y-120833333D01*
X57666666Y-120738095D01*
X57666666Y-120642857D01*
X57714285Y-120547619D01*
X57761904Y-120500000D01*
X57857142Y-120452380D01*
X58095238Y-120452380D01*
X58238095Y-120500000D01*
X58571428Y-120452380D02*
X58809523Y-121452380D01*
X59000000Y-120738095D01*
X59190476Y-121452380D01*
X59428571Y-120452380D01*
X60285714Y-120452380D02*
X59809523Y-120452380D01*
X59761904Y-120928571D01*
X59809523Y-120880952D01*
X59904761Y-120833333D01*
X60142857Y-120833333D01*
X60238095Y-120880952D01*
X60285714Y-120928571D01*
X60333333Y-121023809D01*
X60333333Y-121261904D01*
X60285714Y-121357142D01*
X60238095Y-121404761D01*
X60142857Y-121452380D01*
X59904761Y-121452380D01*
X59809523Y-121404761D01*
X59761904Y-121357142D01*
G04 #@! TO.C,SW6*
X54324761Y-82333333D02*
X54372380Y-82190476D01*
X54372380Y-81952380D01*
X54324761Y-81857142D01*
X54277142Y-81809523D01*
X54181904Y-81761904D01*
X54086666Y-81761904D01*
X53991428Y-81809523D01*
X53943809Y-81857142D01*
X53896190Y-81952380D01*
X53848571Y-82142857D01*
X53800952Y-82238095D01*
X53753333Y-82285714D01*
X53658095Y-82333333D01*
X53562857Y-82333333D01*
X53467619Y-82285714D01*
X53420000Y-82238095D01*
X53372380Y-82142857D01*
X53372380Y-81904761D01*
X53420000Y-81761904D01*
X53372380Y-81428571D02*
X54372380Y-81190476D01*
X53658095Y-81000000D01*
X54372380Y-80809523D01*
X53372380Y-80571428D01*
X53372380Y-79761904D02*
X53372380Y-79952380D01*
X53420000Y-80047619D01*
X53467619Y-80095238D01*
X53610476Y-80190476D01*
X53800952Y-80238095D01*
X54181904Y-80238095D01*
X54277142Y-80190476D01*
X54324761Y-80142857D01*
X54372380Y-80047619D01*
X54372380Y-79857142D01*
X54324761Y-79761904D01*
X54277142Y-79714285D01*
X54181904Y-79666666D01*
X53943809Y-79666666D01*
X53848571Y-79714285D01*
X53800952Y-79761904D01*
X53753333Y-79857142D01*
X53753333Y-80047619D01*
X53800952Y-80142857D01*
X53848571Y-80190476D01*
X53943809Y-80238095D01*
G04 #@! TO.C,C3*
X114357142Y-87966666D02*
X114404761Y-88014285D01*
X114452380Y-88157142D01*
X114452380Y-88252380D01*
X114404761Y-88395238D01*
X114309523Y-88490476D01*
X114214285Y-88538095D01*
X114023809Y-88585714D01*
X113880952Y-88585714D01*
X113690476Y-88538095D01*
X113595238Y-88490476D01*
X113500000Y-88395238D01*
X113452380Y-88252380D01*
X113452380Y-88157142D01*
X113500000Y-88014285D01*
X113547619Y-87966666D01*
X113452380Y-87633333D02*
X113452380Y-87014285D01*
X113833333Y-87347619D01*
X113833333Y-87204761D01*
X113880952Y-87109523D01*
X113928571Y-87061904D01*
X114023809Y-87014285D01*
X114261904Y-87014285D01*
X114357142Y-87061904D01*
X114404761Y-87109523D01*
X114452380Y-87204761D01*
X114452380Y-87490476D01*
X114404761Y-87585714D01*
X114357142Y-87633333D01*
G04 #@! TO.C,C4*
X116957142Y-87966666D02*
X117004761Y-88014285D01*
X117052380Y-88157142D01*
X117052380Y-88252380D01*
X117004761Y-88395238D01*
X116909523Y-88490476D01*
X116814285Y-88538095D01*
X116623809Y-88585714D01*
X116480952Y-88585714D01*
X116290476Y-88538095D01*
X116195238Y-88490476D01*
X116100000Y-88395238D01*
X116052380Y-88252380D01*
X116052380Y-88157142D01*
X116100000Y-88014285D01*
X116147619Y-87966666D01*
X116385714Y-87109523D02*
X117052380Y-87109523D01*
X116004761Y-87347619D02*
X116719047Y-87585714D01*
X116719047Y-86966666D01*
G04 #@! TO.C,C5*
X90633333Y-88457142D02*
X90585714Y-88504761D01*
X90442857Y-88552380D01*
X90347619Y-88552380D01*
X90204761Y-88504761D01*
X90109523Y-88409523D01*
X90061904Y-88314285D01*
X90014285Y-88123809D01*
X90014285Y-87980952D01*
X90061904Y-87790476D01*
X90109523Y-87695238D01*
X90204761Y-87600000D01*
X90347619Y-87552380D01*
X90442857Y-87552380D01*
X90585714Y-87600000D01*
X90633333Y-87647619D01*
X91538095Y-87552380D02*
X91061904Y-87552380D01*
X91014285Y-88028571D01*
X91061904Y-87980952D01*
X91157142Y-87933333D01*
X91395238Y-87933333D01*
X91490476Y-87980952D01*
X91538095Y-88028571D01*
X91585714Y-88123809D01*
X91585714Y-88361904D01*
X91538095Y-88457142D01*
X91490476Y-88504761D01*
X91395238Y-88552380D01*
X91157142Y-88552380D01*
X91061904Y-88504761D01*
X91014285Y-88457142D01*
G04 #@! TO.C,C6*
X119457142Y-87966666D02*
X119504761Y-88014285D01*
X119552380Y-88157142D01*
X119552380Y-88252380D01*
X119504761Y-88395238D01*
X119409523Y-88490476D01*
X119314285Y-88538095D01*
X119123809Y-88585714D01*
X118980952Y-88585714D01*
X118790476Y-88538095D01*
X118695238Y-88490476D01*
X118600000Y-88395238D01*
X118552380Y-88252380D01*
X118552380Y-88157142D01*
X118600000Y-88014285D01*
X118647619Y-87966666D01*
X118552380Y-87109523D02*
X118552380Y-87300000D01*
X118600000Y-87395238D01*
X118647619Y-87442857D01*
X118790476Y-87538095D01*
X118980952Y-87585714D01*
X119361904Y-87585714D01*
X119457142Y-87538095D01*
X119504761Y-87490476D01*
X119552380Y-87395238D01*
X119552380Y-87204761D01*
X119504761Y-87109523D01*
X119457142Y-87061904D01*
X119361904Y-87014285D01*
X119123809Y-87014285D01*
X119028571Y-87061904D01*
X118980952Y-87109523D01*
X118933333Y-87204761D01*
X118933333Y-87395238D01*
X118980952Y-87490476D01*
X119028571Y-87538095D01*
X119123809Y-87585714D01*
G04 #@! TO.C,C7*
X94233333Y-88457142D02*
X94185714Y-88504761D01*
X94042857Y-88552380D01*
X93947619Y-88552380D01*
X93804761Y-88504761D01*
X93709523Y-88409523D01*
X93661904Y-88314285D01*
X93614285Y-88123809D01*
X93614285Y-87980952D01*
X93661904Y-87790476D01*
X93709523Y-87695238D01*
X93804761Y-87600000D01*
X93947619Y-87552380D01*
X94042857Y-87552380D01*
X94185714Y-87600000D01*
X94233333Y-87647619D01*
X94566666Y-87552380D02*
X95233333Y-87552380D01*
X94804761Y-88552380D01*
G04 #@! TO.C,C8*
X97333333Y-88457142D02*
X97285714Y-88504761D01*
X97142857Y-88552380D01*
X97047619Y-88552380D01*
X96904761Y-88504761D01*
X96809523Y-88409523D01*
X96761904Y-88314285D01*
X96714285Y-88123809D01*
X96714285Y-87980952D01*
X96761904Y-87790476D01*
X96809523Y-87695238D01*
X96904761Y-87600000D01*
X97047619Y-87552380D01*
X97142857Y-87552380D01*
X97285714Y-87600000D01*
X97333333Y-87647619D01*
X97904761Y-87980952D02*
X97809523Y-87933333D01*
X97761904Y-87885714D01*
X97714285Y-87790476D01*
X97714285Y-87742857D01*
X97761904Y-87647619D01*
X97809523Y-87600000D01*
X97904761Y-87552380D01*
X98095238Y-87552380D01*
X98190476Y-87600000D01*
X98238095Y-87647619D01*
X98285714Y-87742857D01*
X98285714Y-87790476D01*
X98238095Y-87885714D01*
X98190476Y-87933333D01*
X98095238Y-87980952D01*
X97904761Y-87980952D01*
X97809523Y-88028571D01*
X97761904Y-88076190D01*
X97714285Y-88171428D01*
X97714285Y-88361904D01*
X97761904Y-88457142D01*
X97809523Y-88504761D01*
X97904761Y-88552380D01*
X98095238Y-88552380D01*
X98190476Y-88504761D01*
X98238095Y-88457142D01*
X98285714Y-88361904D01*
X98285714Y-88171428D01*
X98238095Y-88076190D01*
X98190476Y-88028571D01*
X98095238Y-87980952D01*
G04 #@! TO.C,C9*
X101633333Y-88357142D02*
X101585714Y-88404761D01*
X101442857Y-88452380D01*
X101347619Y-88452380D01*
X101204761Y-88404761D01*
X101109523Y-88309523D01*
X101061904Y-88214285D01*
X101014285Y-88023809D01*
X101014285Y-87880952D01*
X101061904Y-87690476D01*
X101109523Y-87595238D01*
X101204761Y-87500000D01*
X101347619Y-87452380D01*
X101442857Y-87452380D01*
X101585714Y-87500000D01*
X101633333Y-87547619D01*
X102109523Y-88452380D02*
X102300000Y-88452380D01*
X102395238Y-88404761D01*
X102442857Y-88357142D01*
X102538095Y-88214285D01*
X102585714Y-88023809D01*
X102585714Y-87642857D01*
X102538095Y-87547619D01*
X102490476Y-87500000D01*
X102395238Y-87452380D01*
X102204761Y-87452380D01*
X102109523Y-87500000D01*
X102061904Y-87547619D01*
X102014285Y-87642857D01*
X102014285Y-87880952D01*
X102061904Y-87976190D01*
X102109523Y-88023809D01*
X102204761Y-88071428D01*
X102395238Y-88071428D01*
X102490476Y-88023809D01*
X102538095Y-87976190D01*
X102585714Y-87880952D01*
G04 #@! TO.C,DIS1*
X92547619Y-100152380D02*
X92547619Y-99152380D01*
X92785714Y-99152380D01*
X92928571Y-99200000D01*
X93023809Y-99295238D01*
X93071428Y-99390476D01*
X93119047Y-99580952D01*
X93119047Y-99723809D01*
X93071428Y-99914285D01*
X93023809Y-100009523D01*
X92928571Y-100104761D01*
X92785714Y-100152380D01*
X92547619Y-100152380D01*
X93547619Y-100152380D02*
X93547619Y-99152380D01*
X93976190Y-100104761D02*
X94119047Y-100152380D01*
X94357142Y-100152380D01*
X94452380Y-100104761D01*
X94500000Y-100057142D01*
X94547619Y-99961904D01*
X94547619Y-99866666D01*
X94500000Y-99771428D01*
X94452380Y-99723809D01*
X94357142Y-99676190D01*
X94166666Y-99628571D01*
X94071428Y-99580952D01*
X94023809Y-99533333D01*
X93976190Y-99438095D01*
X93976190Y-99342857D01*
X94023809Y-99247619D01*
X94071428Y-99200000D01*
X94166666Y-99152380D01*
X94404761Y-99152380D01*
X94547619Y-99200000D01*
X95500000Y-100152380D02*
X94928571Y-100152380D01*
X95214285Y-100152380D02*
X95214285Y-99152380D01*
X95119047Y-99295238D01*
X95023809Y-99390476D01*
X94928571Y-99438095D01*
G04 #@! TO.C,SW4*
X53666666Y-95604761D02*
X53809523Y-95652380D01*
X54047619Y-95652380D01*
X54142857Y-95604761D01*
X54190476Y-95557142D01*
X54238095Y-95461904D01*
X54238095Y-95366666D01*
X54190476Y-95271428D01*
X54142857Y-95223809D01*
X54047619Y-95176190D01*
X53857142Y-95128571D01*
X53761904Y-95080952D01*
X53714285Y-95033333D01*
X53666666Y-94938095D01*
X53666666Y-94842857D01*
X53714285Y-94747619D01*
X53761904Y-94700000D01*
X53857142Y-94652380D01*
X54095238Y-94652380D01*
X54238095Y-94700000D01*
X54571428Y-94652380D02*
X54809523Y-95652380D01*
X55000000Y-94938095D01*
X55190476Y-95652380D01*
X55428571Y-94652380D01*
X56238095Y-94985714D02*
X56238095Y-95652380D01*
X56000000Y-94604761D02*
X55761904Y-95319047D01*
X56380952Y-95319047D01*
G04 #@! TO.C,DIS2*
X92547619Y-101452380D02*
X92547619Y-100452380D01*
X92785714Y-100452380D01*
X92928571Y-100500000D01*
X93023809Y-100595238D01*
X93071428Y-100690476D01*
X93119047Y-100880952D01*
X93119047Y-101023809D01*
X93071428Y-101214285D01*
X93023809Y-101309523D01*
X92928571Y-101404761D01*
X92785714Y-101452380D01*
X92547619Y-101452380D01*
X93547619Y-101452380D02*
X93547619Y-100452380D01*
X93976190Y-101404761D02*
X94119047Y-101452380D01*
X94357142Y-101452380D01*
X94452380Y-101404761D01*
X94500000Y-101357142D01*
X94547619Y-101261904D01*
X94547619Y-101166666D01*
X94500000Y-101071428D01*
X94452380Y-101023809D01*
X94357142Y-100976190D01*
X94166666Y-100928571D01*
X94071428Y-100880952D01*
X94023809Y-100833333D01*
X93976190Y-100738095D01*
X93976190Y-100642857D01*
X94023809Y-100547619D01*
X94071428Y-100500000D01*
X94166666Y-100452380D01*
X94404761Y-100452380D01*
X94547619Y-100500000D01*
X94928571Y-100547619D02*
X94976190Y-100500000D01*
X95071428Y-100452380D01*
X95309523Y-100452380D01*
X95404761Y-100500000D01*
X95452380Y-100547619D01*
X95500000Y-100642857D01*
X95500000Y-100738095D01*
X95452380Y-100880952D01*
X94880952Y-101452380D01*
X95500000Y-101452380D01*
G04 #@! TO.C,DIS3*
X92547619Y-102752380D02*
X92547619Y-101752380D01*
X92785714Y-101752380D01*
X92928571Y-101800000D01*
X93023809Y-101895238D01*
X93071428Y-101990476D01*
X93119047Y-102180952D01*
X93119047Y-102323809D01*
X93071428Y-102514285D01*
X93023809Y-102609523D01*
X92928571Y-102704761D01*
X92785714Y-102752380D01*
X92547619Y-102752380D01*
X93547619Y-102752380D02*
X93547619Y-101752380D01*
X93976190Y-102704761D02*
X94119047Y-102752380D01*
X94357142Y-102752380D01*
X94452380Y-102704761D01*
X94500000Y-102657142D01*
X94547619Y-102561904D01*
X94547619Y-102466666D01*
X94500000Y-102371428D01*
X94452380Y-102323809D01*
X94357142Y-102276190D01*
X94166666Y-102228571D01*
X94071428Y-102180952D01*
X94023809Y-102133333D01*
X93976190Y-102038095D01*
X93976190Y-101942857D01*
X94023809Y-101847619D01*
X94071428Y-101800000D01*
X94166666Y-101752380D01*
X94404761Y-101752380D01*
X94547619Y-101800000D01*
X94880952Y-101752380D02*
X95500000Y-101752380D01*
X95166666Y-102133333D01*
X95309523Y-102133333D01*
X95404761Y-102180952D01*
X95452380Y-102228571D01*
X95500000Y-102323809D01*
X95500000Y-102561904D01*
X95452380Y-102657142D01*
X95404761Y-102704761D01*
X95309523Y-102752380D01*
X95023809Y-102752380D01*
X94928571Y-102704761D01*
X94880952Y-102657142D01*
G04 #@! TO.C,C10*
X108857142Y-109057142D02*
X108809523Y-109104761D01*
X108666666Y-109152380D01*
X108571428Y-109152380D01*
X108428571Y-109104761D01*
X108333333Y-109009523D01*
X108285714Y-108914285D01*
X108238095Y-108723809D01*
X108238095Y-108580952D01*
X108285714Y-108390476D01*
X108333333Y-108295238D01*
X108428571Y-108200000D01*
X108571428Y-108152380D01*
X108666666Y-108152380D01*
X108809523Y-108200000D01*
X108857142Y-108247619D01*
X109809523Y-109152380D02*
X109238095Y-109152380D01*
X109523809Y-109152380D02*
X109523809Y-108152380D01*
X109428571Y-108295238D01*
X109333333Y-108390476D01*
X109238095Y-108438095D01*
X110428571Y-108152380D02*
X110523809Y-108152380D01*
X110619047Y-108200000D01*
X110666666Y-108247619D01*
X110714285Y-108342857D01*
X110761904Y-108533333D01*
X110761904Y-108771428D01*
X110714285Y-108961904D01*
X110666666Y-109057142D01*
X110619047Y-109104761D01*
X110523809Y-109152380D01*
X110428571Y-109152380D01*
X110333333Y-109104761D01*
X110285714Y-109057142D01*
X110238095Y-108961904D01*
X110190476Y-108771428D01*
X110190476Y-108533333D01*
X110238095Y-108342857D01*
X110285714Y-108247619D01*
X110333333Y-108200000D01*
X110428571Y-108152380D01*
G04 #@! TO.C,C11*
X108857142Y-107557142D02*
X108809523Y-107604761D01*
X108666666Y-107652380D01*
X108571428Y-107652380D01*
X108428571Y-107604761D01*
X108333333Y-107509523D01*
X108285714Y-107414285D01*
X108238095Y-107223809D01*
X108238095Y-107080952D01*
X108285714Y-106890476D01*
X108333333Y-106795238D01*
X108428571Y-106700000D01*
X108571428Y-106652380D01*
X108666666Y-106652380D01*
X108809523Y-106700000D01*
X108857142Y-106747619D01*
X109809523Y-107652380D02*
X109238095Y-107652380D01*
X109523809Y-107652380D02*
X109523809Y-106652380D01*
X109428571Y-106795238D01*
X109333333Y-106890476D01*
X109238095Y-106938095D01*
X110761904Y-107652380D02*
X110190476Y-107652380D01*
X110476190Y-107652380D02*
X110476190Y-106652380D01*
X110380952Y-106795238D01*
X110285714Y-106890476D01*
X110190476Y-106938095D01*
G04 #@! TO.C,U1*
X110338095Y-94452380D02*
X110338095Y-95261904D01*
X110385714Y-95357142D01*
X110433333Y-95404761D01*
X110528571Y-95452380D01*
X110719047Y-95452380D01*
X110814285Y-95404761D01*
X110861904Y-95357142D01*
X110909523Y-95261904D01*
X110909523Y-94452380D01*
X111909523Y-95452380D02*
X111338095Y-95452380D01*
X111623809Y-95452380D02*
X111623809Y-94452380D01*
X111528571Y-94595238D01*
X111433333Y-94690476D01*
X111338095Y-94738095D01*
G04 #@! TO.C,C12*
X70357142Y-86557142D02*
X70309523Y-86604761D01*
X70166666Y-86652380D01*
X70071428Y-86652380D01*
X69928571Y-86604761D01*
X69833333Y-86509523D01*
X69785714Y-86414285D01*
X69738095Y-86223809D01*
X69738095Y-86080952D01*
X69785714Y-85890476D01*
X69833333Y-85795238D01*
X69928571Y-85700000D01*
X70071428Y-85652380D01*
X70166666Y-85652380D01*
X70309523Y-85700000D01*
X70357142Y-85747619D01*
X71309523Y-86652380D02*
X70738095Y-86652380D01*
X71023809Y-86652380D02*
X71023809Y-85652380D01*
X70928571Y-85795238D01*
X70833333Y-85890476D01*
X70738095Y-85938095D01*
X71690476Y-85747619D02*
X71738095Y-85700000D01*
X71833333Y-85652380D01*
X72071428Y-85652380D01*
X72166666Y-85700000D01*
X72214285Y-85747619D01*
X72261904Y-85842857D01*
X72261904Y-85938095D01*
X72214285Y-86080952D01*
X71642857Y-86652380D01*
X72261904Y-86652380D01*
G04 #@! TO.C,C13*
X76857142Y-86557142D02*
X76809523Y-86604761D01*
X76666666Y-86652380D01*
X76571428Y-86652380D01*
X76428571Y-86604761D01*
X76333333Y-86509523D01*
X76285714Y-86414285D01*
X76238095Y-86223809D01*
X76238095Y-86080952D01*
X76285714Y-85890476D01*
X76333333Y-85795238D01*
X76428571Y-85700000D01*
X76571428Y-85652380D01*
X76666666Y-85652380D01*
X76809523Y-85700000D01*
X76857142Y-85747619D01*
X77809523Y-86652380D02*
X77238095Y-86652380D01*
X77523809Y-86652380D02*
X77523809Y-85652380D01*
X77428571Y-85795238D01*
X77333333Y-85890476D01*
X77238095Y-85938095D01*
X78142857Y-85652380D02*
X78761904Y-85652380D01*
X78428571Y-86033333D01*
X78571428Y-86033333D01*
X78666666Y-86080952D01*
X78714285Y-86128571D01*
X78761904Y-86223809D01*
X78761904Y-86461904D01*
X78714285Y-86557142D01*
X78666666Y-86604761D01*
X78571428Y-86652380D01*
X78285714Y-86652380D01*
X78190476Y-86604761D01*
X78142857Y-86557142D01*
G04 #@! TO.C,C14*
X83457142Y-86557142D02*
X83409523Y-86604761D01*
X83266666Y-86652380D01*
X83171428Y-86652380D01*
X83028571Y-86604761D01*
X82933333Y-86509523D01*
X82885714Y-86414285D01*
X82838095Y-86223809D01*
X82838095Y-86080952D01*
X82885714Y-85890476D01*
X82933333Y-85795238D01*
X83028571Y-85700000D01*
X83171428Y-85652380D01*
X83266666Y-85652380D01*
X83409523Y-85700000D01*
X83457142Y-85747619D01*
X84409523Y-86652380D02*
X83838095Y-86652380D01*
X84123809Y-86652380D02*
X84123809Y-85652380D01*
X84028571Y-85795238D01*
X83933333Y-85890476D01*
X83838095Y-85938095D01*
X85266666Y-85985714D02*
X85266666Y-86652380D01*
X85028571Y-85604761D02*
X84790476Y-86319047D01*
X85409523Y-86319047D01*
G04 #@! TO.C,R10*
X82052380Y-94142857D02*
X81576190Y-94476190D01*
X82052380Y-94714285D02*
X81052380Y-94714285D01*
X81052380Y-94333333D01*
X81100000Y-94238095D01*
X81147619Y-94190476D01*
X81242857Y-94142857D01*
X81385714Y-94142857D01*
X81480952Y-94190476D01*
X81528571Y-94238095D01*
X81576190Y-94333333D01*
X81576190Y-94714285D01*
X82052380Y-93190476D02*
X82052380Y-93761904D01*
X82052380Y-93476190D02*
X81052380Y-93476190D01*
X81195238Y-93571428D01*
X81290476Y-93666666D01*
X81338095Y-93761904D01*
X81052380Y-92571428D02*
X81052380Y-92476190D01*
X81100000Y-92380952D01*
X81147619Y-92333333D01*
X81242857Y-92285714D01*
X81433333Y-92238095D01*
X81671428Y-92238095D01*
X81861904Y-92285714D01*
X81957142Y-92333333D01*
X82004761Y-92380952D01*
X82052380Y-92476190D01*
X82052380Y-92571428D01*
X82004761Y-92666666D01*
X81957142Y-92714285D01*
X81861904Y-92761904D01*
X81671428Y-92809523D01*
X81433333Y-92809523D01*
X81242857Y-92761904D01*
X81147619Y-92714285D01*
X81100000Y-92666666D01*
X81052380Y-92571428D01*
G04 #@! TO.C,R11*
X80352380Y-94042857D02*
X79876190Y-94376190D01*
X80352380Y-94614285D02*
X79352380Y-94614285D01*
X79352380Y-94233333D01*
X79400000Y-94138095D01*
X79447619Y-94090476D01*
X79542857Y-94042857D01*
X79685714Y-94042857D01*
X79780952Y-94090476D01*
X79828571Y-94138095D01*
X79876190Y-94233333D01*
X79876190Y-94614285D01*
X80352380Y-93090476D02*
X80352380Y-93661904D01*
X80352380Y-93376190D02*
X79352380Y-93376190D01*
X79495238Y-93471428D01*
X79590476Y-93566666D01*
X79638095Y-93661904D01*
X80352380Y-92138095D02*
X80352380Y-92709523D01*
X80352380Y-92423809D02*
X79352380Y-92423809D01*
X79495238Y-92519047D01*
X79590476Y-92614285D01*
X79638095Y-92709523D01*
G04 #@! TO.C,R12*
X75552380Y-94042857D02*
X75076190Y-94376190D01*
X75552380Y-94614285D02*
X74552380Y-94614285D01*
X74552380Y-94233333D01*
X74600000Y-94138095D01*
X74647619Y-94090476D01*
X74742857Y-94042857D01*
X74885714Y-94042857D01*
X74980952Y-94090476D01*
X75028571Y-94138095D01*
X75076190Y-94233333D01*
X75076190Y-94614285D01*
X75552380Y-93090476D02*
X75552380Y-93661904D01*
X75552380Y-93376190D02*
X74552380Y-93376190D01*
X74695238Y-93471428D01*
X74790476Y-93566666D01*
X74838095Y-93661904D01*
X74647619Y-92709523D02*
X74600000Y-92661904D01*
X74552380Y-92566666D01*
X74552380Y-92328571D01*
X74600000Y-92233333D01*
X74647619Y-92185714D01*
X74742857Y-92138095D01*
X74838095Y-92138095D01*
X74980952Y-92185714D01*
X75552380Y-92757142D01*
X75552380Y-92138095D01*
G04 #@! TO.C,R13*
X69052380Y-94042857D02*
X68576190Y-94376190D01*
X69052380Y-94614285D02*
X68052380Y-94614285D01*
X68052380Y-94233333D01*
X68100000Y-94138095D01*
X68147619Y-94090476D01*
X68242857Y-94042857D01*
X68385714Y-94042857D01*
X68480952Y-94090476D01*
X68528571Y-94138095D01*
X68576190Y-94233333D01*
X68576190Y-94614285D01*
X69052380Y-93090476D02*
X69052380Y-93661904D01*
X69052380Y-93376190D02*
X68052380Y-93376190D01*
X68195238Y-93471428D01*
X68290476Y-93566666D01*
X68338095Y-93661904D01*
X68052380Y-92757142D02*
X68052380Y-92138095D01*
X68433333Y-92471428D01*
X68433333Y-92328571D01*
X68480952Y-92233333D01*
X68528571Y-92185714D01*
X68623809Y-92138095D01*
X68861904Y-92138095D01*
X68957142Y-92185714D01*
X69004761Y-92233333D01*
X69052380Y-92328571D01*
X69052380Y-92614285D01*
X69004761Y-92709523D01*
X68957142Y-92757142D01*
G04 #@! TO.C,R14*
X73852380Y-94042857D02*
X73376190Y-94376190D01*
X73852380Y-94614285D02*
X72852380Y-94614285D01*
X72852380Y-94233333D01*
X72900000Y-94138095D01*
X72947619Y-94090476D01*
X73042857Y-94042857D01*
X73185714Y-94042857D01*
X73280952Y-94090476D01*
X73328571Y-94138095D01*
X73376190Y-94233333D01*
X73376190Y-94614285D01*
X73852380Y-93090476D02*
X73852380Y-93661904D01*
X73852380Y-93376190D02*
X72852380Y-93376190D01*
X72995238Y-93471428D01*
X73090476Y-93566666D01*
X73138095Y-93661904D01*
X73185714Y-92233333D02*
X73852380Y-92233333D01*
X72804761Y-92471428D02*
X73519047Y-92709523D01*
X73519047Y-92090476D01*
G04 #@! TO.C,R15*
X89657142Y-100852380D02*
X89323809Y-100376190D01*
X89085714Y-100852380D02*
X89085714Y-99852380D01*
X89466666Y-99852380D01*
X89561904Y-99900000D01*
X89609523Y-99947619D01*
X89657142Y-100042857D01*
X89657142Y-100185714D01*
X89609523Y-100280952D01*
X89561904Y-100328571D01*
X89466666Y-100376190D01*
X89085714Y-100376190D01*
X90609523Y-100852380D02*
X90038095Y-100852380D01*
X90323809Y-100852380D02*
X90323809Y-99852380D01*
X90228571Y-99995238D01*
X90133333Y-100090476D01*
X90038095Y-100138095D01*
X91514285Y-99852380D02*
X91038095Y-99852380D01*
X90990476Y-100328571D01*
X91038095Y-100280952D01*
X91133333Y-100233333D01*
X91371428Y-100233333D01*
X91466666Y-100280952D01*
X91514285Y-100328571D01*
X91561904Y-100423809D01*
X91561904Y-100661904D01*
X91514285Y-100757142D01*
X91466666Y-100804761D01*
X91371428Y-100852380D01*
X91133333Y-100852380D01*
X91038095Y-100804761D01*
X90990476Y-100757142D01*
G04 #@! TO.C,R16*
X74257142Y-97852380D02*
X73923809Y-97376190D01*
X73685714Y-97852380D02*
X73685714Y-96852380D01*
X74066666Y-96852380D01*
X74161904Y-96900000D01*
X74209523Y-96947619D01*
X74257142Y-97042857D01*
X74257142Y-97185714D01*
X74209523Y-97280952D01*
X74161904Y-97328571D01*
X74066666Y-97376190D01*
X73685714Y-97376190D01*
X75209523Y-97852380D02*
X74638095Y-97852380D01*
X74923809Y-97852380D02*
X74923809Y-96852380D01*
X74828571Y-96995238D01*
X74733333Y-97090476D01*
X74638095Y-97138095D01*
X76066666Y-96852380D02*
X75876190Y-96852380D01*
X75780952Y-96900000D01*
X75733333Y-96947619D01*
X75638095Y-97090476D01*
X75590476Y-97280952D01*
X75590476Y-97661904D01*
X75638095Y-97757142D01*
X75685714Y-97804761D01*
X75780952Y-97852380D01*
X75971428Y-97852380D01*
X76066666Y-97804761D01*
X76114285Y-97757142D01*
X76161904Y-97661904D01*
X76161904Y-97423809D01*
X76114285Y-97328571D01*
X76066666Y-97280952D01*
X75971428Y-97233333D01*
X75780952Y-97233333D01*
X75685714Y-97280952D01*
X75638095Y-97328571D01*
X75590476Y-97423809D01*
G04 #@! TO.C,R17*
X89757142Y-97352380D02*
X89423809Y-96876190D01*
X89185714Y-97352380D02*
X89185714Y-96352380D01*
X89566666Y-96352380D01*
X89661904Y-96400000D01*
X89709523Y-96447619D01*
X89757142Y-96542857D01*
X89757142Y-96685714D01*
X89709523Y-96780952D01*
X89661904Y-96828571D01*
X89566666Y-96876190D01*
X89185714Y-96876190D01*
X90709523Y-97352380D02*
X90138095Y-97352380D01*
X90423809Y-97352380D02*
X90423809Y-96352380D01*
X90328571Y-96495238D01*
X90233333Y-96590476D01*
X90138095Y-96638095D01*
X91042857Y-96352380D02*
X91709523Y-96352380D01*
X91280952Y-97352380D01*
G04 #@! TO.C,R18*
X89657142Y-99052380D02*
X89323809Y-98576190D01*
X89085714Y-99052380D02*
X89085714Y-98052380D01*
X89466666Y-98052380D01*
X89561904Y-98100000D01*
X89609523Y-98147619D01*
X89657142Y-98242857D01*
X89657142Y-98385714D01*
X89609523Y-98480952D01*
X89561904Y-98528571D01*
X89466666Y-98576190D01*
X89085714Y-98576190D01*
X90609523Y-99052380D02*
X90038095Y-99052380D01*
X90323809Y-99052380D02*
X90323809Y-98052380D01*
X90228571Y-98195238D01*
X90133333Y-98290476D01*
X90038095Y-98338095D01*
X91180952Y-98480952D02*
X91085714Y-98433333D01*
X91038095Y-98385714D01*
X90990476Y-98290476D01*
X90990476Y-98242857D01*
X91038095Y-98147619D01*
X91085714Y-98100000D01*
X91180952Y-98052380D01*
X91371428Y-98052380D01*
X91466666Y-98100000D01*
X91514285Y-98147619D01*
X91561904Y-98242857D01*
X91561904Y-98290476D01*
X91514285Y-98385714D01*
X91466666Y-98433333D01*
X91371428Y-98480952D01*
X91180952Y-98480952D01*
X91085714Y-98528571D01*
X91038095Y-98576190D01*
X90990476Y-98671428D01*
X90990476Y-98861904D01*
X91038095Y-98957142D01*
X91085714Y-99004761D01*
X91180952Y-99052380D01*
X91371428Y-99052380D01*
X91466666Y-99004761D01*
X91514285Y-98957142D01*
X91561904Y-98861904D01*
X91561904Y-98671428D01*
X91514285Y-98576190D01*
X91466666Y-98528571D01*
X91371428Y-98480952D01*
G04 #@! TO.C,R19*
X74157142Y-96152380D02*
X73823809Y-95676190D01*
X73585714Y-96152380D02*
X73585714Y-95152380D01*
X73966666Y-95152380D01*
X74061904Y-95200000D01*
X74109523Y-95247619D01*
X74157142Y-95342857D01*
X74157142Y-95485714D01*
X74109523Y-95580952D01*
X74061904Y-95628571D01*
X73966666Y-95676190D01*
X73585714Y-95676190D01*
X75109523Y-96152380D02*
X74538095Y-96152380D01*
X74823809Y-96152380D02*
X74823809Y-95152380D01*
X74728571Y-95295238D01*
X74633333Y-95390476D01*
X74538095Y-95438095D01*
X75585714Y-96152380D02*
X75776190Y-96152380D01*
X75871428Y-96104761D01*
X75919047Y-96057142D01*
X76014285Y-95914285D01*
X76061904Y-95723809D01*
X76061904Y-95342857D01*
X76014285Y-95247619D01*
X75966666Y-95200000D01*
X75871428Y-95152380D01*
X75680952Y-95152380D01*
X75585714Y-95200000D01*
X75538095Y-95247619D01*
X75490476Y-95342857D01*
X75490476Y-95580952D01*
X75538095Y-95676190D01*
X75585714Y-95723809D01*
X75680952Y-95771428D01*
X75871428Y-95771428D01*
X75966666Y-95723809D01*
X76014285Y-95676190D01*
X76061904Y-95580952D01*
G04 #@! TO.C,R20*
X89757142Y-95652380D02*
X89423809Y-95176190D01*
X89185714Y-95652380D02*
X89185714Y-94652380D01*
X89566666Y-94652380D01*
X89661904Y-94700000D01*
X89709523Y-94747619D01*
X89757142Y-94842857D01*
X89757142Y-94985714D01*
X89709523Y-95080952D01*
X89661904Y-95128571D01*
X89566666Y-95176190D01*
X89185714Y-95176190D01*
X90138095Y-94747619D02*
X90185714Y-94700000D01*
X90280952Y-94652380D01*
X90519047Y-94652380D01*
X90614285Y-94700000D01*
X90661904Y-94747619D01*
X90709523Y-94842857D01*
X90709523Y-94938095D01*
X90661904Y-95080952D01*
X90090476Y-95652380D01*
X90709523Y-95652380D01*
X91328571Y-94652380D02*
X91423809Y-94652380D01*
X91519047Y-94700000D01*
X91566666Y-94747619D01*
X91614285Y-94842857D01*
X91661904Y-95033333D01*
X91661904Y-95271428D01*
X91614285Y-95461904D01*
X91566666Y-95557142D01*
X91519047Y-95604761D01*
X91423809Y-95652380D01*
X91328571Y-95652380D01*
X91233333Y-95604761D01*
X91185714Y-95557142D01*
X91138095Y-95461904D01*
X91090476Y-95271428D01*
X91090476Y-95033333D01*
X91138095Y-94842857D01*
X91185714Y-94747619D01*
X91233333Y-94700000D01*
X91328571Y-94652380D01*
G04 #@! TO.C,R21*
X64752380Y-121942857D02*
X64276190Y-122276190D01*
X64752380Y-122514285D02*
X63752380Y-122514285D01*
X63752380Y-122133333D01*
X63800000Y-122038095D01*
X63847619Y-121990476D01*
X63942857Y-121942857D01*
X64085714Y-121942857D01*
X64180952Y-121990476D01*
X64228571Y-122038095D01*
X64276190Y-122133333D01*
X64276190Y-122514285D01*
X63847619Y-121561904D02*
X63800000Y-121514285D01*
X63752380Y-121419047D01*
X63752380Y-121180952D01*
X63800000Y-121085714D01*
X63847619Y-121038095D01*
X63942857Y-120990476D01*
X64038095Y-120990476D01*
X64180952Y-121038095D01*
X64752380Y-121609523D01*
X64752380Y-120990476D01*
X64752380Y-120038095D02*
X64752380Y-120609523D01*
X64752380Y-120323809D02*
X63752380Y-120323809D01*
X63895238Y-120419047D01*
X63990476Y-120514285D01*
X64038095Y-120609523D01*
G04 #@! TO.C,D1*
X65152380Y-125438095D02*
X64152380Y-125438095D01*
X64152380Y-125200000D01*
X64200000Y-125057142D01*
X64295238Y-124961904D01*
X64390476Y-124914285D01*
X64580952Y-124866666D01*
X64723809Y-124866666D01*
X64914285Y-124914285D01*
X65009523Y-124961904D01*
X65104761Y-125057142D01*
X65152380Y-125200000D01*
X65152380Y-125438095D01*
X65152380Y-123914285D02*
X65152380Y-124485714D01*
X65152380Y-124200000D02*
X64152380Y-124200000D01*
X64295238Y-124295238D01*
X64390476Y-124390476D01*
X64438095Y-124485714D01*
G04 #@! TO.C,U2*
X118038095Y-99152380D02*
X118038095Y-99961904D01*
X118085714Y-100057142D01*
X118133333Y-100104761D01*
X118228571Y-100152380D01*
X118419047Y-100152380D01*
X118514285Y-100104761D01*
X118561904Y-100057142D01*
X118609523Y-99961904D01*
X118609523Y-99152380D01*
X119038095Y-99247619D02*
X119085714Y-99200000D01*
X119180952Y-99152380D01*
X119419047Y-99152380D01*
X119514285Y-99200000D01*
X119561904Y-99247619D01*
X119609523Y-99342857D01*
X119609523Y-99438095D01*
X119561904Y-99580952D01*
X118990476Y-100152380D01*
X119609523Y-100152380D01*
G04 #@! TO.C,U3*
X82838095Y-92552380D02*
X82838095Y-93361904D01*
X82885714Y-93457142D01*
X82933333Y-93504761D01*
X83028571Y-93552380D01*
X83219047Y-93552380D01*
X83314285Y-93504761D01*
X83361904Y-93457142D01*
X83409523Y-93361904D01*
X83409523Y-92552380D01*
X83790476Y-92552380D02*
X84409523Y-92552380D01*
X84076190Y-92933333D01*
X84219047Y-92933333D01*
X84314285Y-92980952D01*
X84361904Y-93028571D01*
X84409523Y-93123809D01*
X84409523Y-93361904D01*
X84361904Y-93457142D01*
X84314285Y-93504761D01*
X84219047Y-93552380D01*
X83933333Y-93552380D01*
X83838095Y-93504761D01*
X83790476Y-93457142D01*
G04 #@! TO.C,U4*
X77338095Y-92652380D02*
X77338095Y-93461904D01*
X77385714Y-93557142D01*
X77433333Y-93604761D01*
X77528571Y-93652380D01*
X77719047Y-93652380D01*
X77814285Y-93604761D01*
X77861904Y-93557142D01*
X77909523Y-93461904D01*
X77909523Y-92652380D01*
X78814285Y-92985714D02*
X78814285Y-93652380D01*
X78576190Y-92604761D02*
X78338095Y-93319047D01*
X78957142Y-93319047D01*
G04 #@! TO.C,U5*
X69738095Y-92652380D02*
X69738095Y-93461904D01*
X69785714Y-93557142D01*
X69833333Y-93604761D01*
X69928571Y-93652380D01*
X70119047Y-93652380D01*
X70214285Y-93604761D01*
X70261904Y-93557142D01*
X70309523Y-93461904D01*
X70309523Y-92652380D01*
X71261904Y-92652380D02*
X70785714Y-92652380D01*
X70738095Y-93128571D01*
X70785714Y-93080952D01*
X70880952Y-93033333D01*
X71119047Y-93033333D01*
X71214285Y-93080952D01*
X71261904Y-93128571D01*
X71309523Y-93223809D01*
X71309523Y-93461904D01*
X71261904Y-93557142D01*
X71214285Y-93604761D01*
X71119047Y-93652380D01*
X70880952Y-93652380D01*
X70785714Y-93604761D01*
X70738095Y-93557142D01*
G04 #@! TD*
M02*
