G04 #@! TF.GenerationSoftware,KiCad,Pcbnew,5.0.0-fee4fd1~66~ubuntu18.04.1*
G04 #@! TF.CreationDate,2018-10-08T02:39:47+02:00*
G04 #@! TF.ProjectId,ArduHMIShield,41726475484D49536869656C642E6B69,1.0*
G04 #@! TF.SameCoordinates,Original*
G04 #@! TF.FileFunction,Copper,L2,Bot,Signal*
G04 #@! TF.FilePolarity,Positive*
%FSLAX46Y46*%
G04 Gerber Fmt 4.6, Leading zero omitted, Abs format (unit mm)*
G04 Created by KiCad (PCBNEW 5.0.0-fee4fd1~66~ubuntu18.04.1) date Mon Oct  8 02:39:47 2018*
%MOMM*%
%LPD*%
G01*
G04 APERTURE LIST*
G04 #@! TA.AperFunction,NonConductor*
%ADD10C,0.300000*%
G04 #@! TD*
G04 #@! TA.AperFunction,ComponentPad*
%ADD11C,1.600000*%
G04 #@! TD*
G04 #@! TA.AperFunction,ComponentPad*
%ADD12C,1.998980*%
G04 #@! TD*
G04 #@! TA.AperFunction,ComponentPad*
%ADD13C,1.400000*%
G04 #@! TD*
G04 #@! TA.AperFunction,ViaPad*
%ADD14C,0.800000*%
G04 #@! TD*
G04 #@! TA.AperFunction,Conductor*
%ADD15C,0.200000*%
G04 #@! TD*
G04 #@! TA.AperFunction,Conductor*
%ADD16C,1.000000*%
G04 #@! TD*
G04 #@! TA.AperFunction,Conductor*
%ADD17C,0.400000*%
G04 #@! TD*
G04 #@! TA.AperFunction,Conductor*
%ADD18C,0.254000*%
G04 #@! TD*
G04 APERTURE END LIST*
D10*
X121528571Y-105871428D02*
X120028571Y-105871428D01*
X120600000Y-105871428D02*
X120528571Y-106014285D01*
X120528571Y-106300000D01*
X120600000Y-106442857D01*
X120671428Y-106514285D01*
X120814285Y-106585714D01*
X121242857Y-106585714D01*
X121385714Y-106514285D01*
X121457142Y-106442857D01*
X121528571Y-106300000D01*
X121528571Y-106014285D01*
X121457142Y-105871428D01*
X121528571Y-107442857D02*
X121457142Y-107300000D01*
X121385714Y-107228571D01*
X121242857Y-107157142D01*
X120814285Y-107157142D01*
X120671428Y-107228571D01*
X120600000Y-107300000D01*
X120528571Y-107442857D01*
X120528571Y-107657142D01*
X120600000Y-107800000D01*
X120671428Y-107871428D01*
X120814285Y-107942857D01*
X121242857Y-107942857D01*
X121385714Y-107871428D01*
X121457142Y-107800000D01*
X121528571Y-107657142D01*
X121528571Y-107442857D01*
X120528571Y-108371428D02*
X120528571Y-108942857D01*
X120028571Y-108585714D02*
X121314285Y-108585714D01*
X121457142Y-108657142D01*
X121528571Y-108800000D01*
X121528571Y-108942857D01*
X106871428Y-110100000D02*
X106928571Y-110042857D01*
X107042857Y-109871428D01*
X107100000Y-109757142D01*
X107157142Y-109585714D01*
X107214285Y-109300000D01*
X107214285Y-109071428D01*
X107157142Y-108785714D01*
X107100000Y-108614285D01*
X107042857Y-108500000D01*
X106928571Y-108328571D01*
X106871428Y-108271428D01*
X105900000Y-109585714D02*
X106014285Y-109642857D01*
X106242857Y-109642857D01*
X106357142Y-109585714D01*
X106414285Y-109528571D01*
X106471428Y-109414285D01*
X106471428Y-109071428D01*
X106414285Y-108957142D01*
X106357142Y-108900000D01*
X106242857Y-108842857D01*
X106014285Y-108842857D01*
X105900000Y-108900000D01*
X105500000Y-110100000D02*
X105442857Y-110042857D01*
X105328571Y-109871428D01*
X105271428Y-109757142D01*
X105214285Y-109585714D01*
X105157142Y-109300000D01*
X105157142Y-109071428D01*
X105214285Y-108785714D01*
X105271428Y-108614285D01*
X105328571Y-108500000D01*
X105442857Y-108328571D01*
X105500000Y-108271428D01*
X103728571Y-108557142D02*
X103671428Y-108500000D01*
X103557142Y-108442857D01*
X103271428Y-108442857D01*
X103157142Y-108500000D01*
X103100000Y-108557142D01*
X103042857Y-108671428D01*
X103042857Y-108785714D01*
X103100000Y-108957142D01*
X103785714Y-109642857D01*
X103042857Y-109642857D01*
X102300000Y-108442857D02*
X102185714Y-108442857D01*
X102071428Y-108500000D01*
X102014285Y-108557142D01*
X101957142Y-108671428D01*
X101900000Y-108900000D01*
X101900000Y-109185714D01*
X101957142Y-109414285D01*
X102014285Y-109528571D01*
X102071428Y-109585714D01*
X102185714Y-109642857D01*
X102300000Y-109642857D01*
X102414285Y-109585714D01*
X102471428Y-109528571D01*
X102528571Y-109414285D01*
X102585714Y-109185714D01*
X102585714Y-108900000D01*
X102528571Y-108671428D01*
X102471428Y-108557142D01*
X102414285Y-108500000D01*
X102300000Y-108442857D01*
X100757142Y-109642857D02*
X101442857Y-109642857D01*
X101100000Y-109642857D02*
X101100000Y-108442857D01*
X101214285Y-108614285D01*
X101328571Y-108728571D01*
X101442857Y-108785714D01*
X100071428Y-108957142D02*
X100185714Y-108900000D01*
X100242857Y-108842857D01*
X100300000Y-108728571D01*
X100300000Y-108671428D01*
X100242857Y-108557142D01*
X100185714Y-108500000D01*
X100071428Y-108442857D01*
X99842857Y-108442857D01*
X99728571Y-108500000D01*
X99671428Y-108557142D01*
X99614285Y-108671428D01*
X99614285Y-108728571D01*
X99671428Y-108842857D01*
X99728571Y-108900000D01*
X99842857Y-108957142D01*
X100071428Y-108957142D01*
X100185714Y-109014285D01*
X100242857Y-109071428D01*
X100300000Y-109185714D01*
X100300000Y-109414285D01*
X100242857Y-109528571D01*
X100185714Y-109585714D01*
X100071428Y-109642857D01*
X99842857Y-109642857D01*
X99728571Y-109585714D01*
X99671428Y-109528571D01*
X99614285Y-109414285D01*
X99614285Y-109185714D01*
X99671428Y-109071428D01*
X99728571Y-109014285D01*
X99842857Y-108957142D01*
X97671428Y-108842857D02*
X97671428Y-109814285D01*
X97728571Y-109928571D01*
X97785714Y-109985714D01*
X97900000Y-110042857D01*
X98071428Y-110042857D01*
X98185714Y-109985714D01*
X97671428Y-109585714D02*
X97785714Y-109642857D01*
X98014285Y-109642857D01*
X98128571Y-109585714D01*
X98185714Y-109528571D01*
X98242857Y-109414285D01*
X98242857Y-109071428D01*
X98185714Y-108957142D01*
X98128571Y-108900000D01*
X98014285Y-108842857D01*
X97785714Y-108842857D01*
X97671428Y-108900000D01*
X96642857Y-109585714D02*
X96757142Y-109642857D01*
X96985714Y-109642857D01*
X97100000Y-109585714D01*
X97157142Y-109471428D01*
X97157142Y-109014285D01*
X97100000Y-108900000D01*
X96985714Y-108842857D01*
X96757142Y-108842857D01*
X96642857Y-108900000D01*
X96585714Y-109014285D01*
X96585714Y-109128571D01*
X97157142Y-109242857D01*
X96071428Y-108842857D02*
X96071428Y-109642857D01*
X96071428Y-108957142D02*
X96014285Y-108900000D01*
X95900000Y-108842857D01*
X95728571Y-108842857D01*
X95614285Y-108900000D01*
X95557142Y-109014285D01*
X95557142Y-109642857D01*
X94528571Y-109585714D02*
X94642857Y-109642857D01*
X94871428Y-109642857D01*
X94985714Y-109585714D01*
X95042857Y-109471428D01*
X95042857Y-109014285D01*
X94985714Y-108900000D01*
X94871428Y-108842857D01*
X94642857Y-108842857D01*
X94528571Y-108900000D01*
X94471428Y-109014285D01*
X94471428Y-109128571D01*
X95042857Y-109242857D01*
X93957142Y-109642857D02*
X93957142Y-108842857D01*
X93957142Y-109071428D02*
X93900000Y-108957142D01*
X93842857Y-108900000D01*
X93728571Y-108842857D01*
X93614285Y-108842857D01*
X92700000Y-109642857D02*
X92700000Y-109014285D01*
X92757142Y-108900000D01*
X92871428Y-108842857D01*
X93100000Y-108842857D01*
X93214285Y-108900000D01*
X92700000Y-109585714D02*
X92814285Y-109642857D01*
X93100000Y-109642857D01*
X93214285Y-109585714D01*
X93271428Y-109471428D01*
X93271428Y-109357142D01*
X93214285Y-109242857D01*
X93100000Y-109185714D01*
X92814285Y-109185714D01*
X92700000Y-109128571D01*
X92300000Y-108842857D02*
X91842857Y-108842857D01*
X92128571Y-108442857D02*
X92128571Y-109471428D01*
X92071428Y-109585714D01*
X91957142Y-109642857D01*
X91842857Y-109642857D01*
X91442857Y-109642857D02*
X91442857Y-108842857D01*
X91442857Y-108442857D02*
X91500000Y-108500000D01*
X91442857Y-108557142D01*
X91385714Y-108500000D01*
X91442857Y-108442857D01*
X91442857Y-108557142D01*
X90700000Y-109642857D02*
X90814285Y-109585714D01*
X90871428Y-109528571D01*
X90928571Y-109414285D01*
X90928571Y-109071428D01*
X90871428Y-108957142D01*
X90814285Y-108900000D01*
X90700000Y-108842857D01*
X90528571Y-108842857D01*
X90414285Y-108900000D01*
X90357142Y-108957142D01*
X90300000Y-109071428D01*
X90300000Y-109414285D01*
X90357142Y-109528571D01*
X90414285Y-109585714D01*
X90528571Y-109642857D01*
X90700000Y-109642857D01*
X89785714Y-108842857D02*
X89785714Y-109642857D01*
X89785714Y-108957142D02*
X89728571Y-108900000D01*
X89614285Y-108842857D01*
X89442857Y-108842857D01*
X89328571Y-108900000D01*
X89271428Y-109014285D01*
X89271428Y-109642857D01*
X88700000Y-109642857D02*
X88700000Y-108842857D01*
X88700000Y-108957142D02*
X88642857Y-108900000D01*
X88528571Y-108842857D01*
X88357142Y-108842857D01*
X88242857Y-108900000D01*
X88185714Y-109014285D01*
X88185714Y-109642857D01*
X88185714Y-109014285D02*
X88128571Y-108900000D01*
X88014285Y-108842857D01*
X87842857Y-108842857D01*
X87728571Y-108900000D01*
X87671428Y-109014285D01*
X87671428Y-109642857D01*
X86585714Y-109642857D02*
X86585714Y-109014285D01*
X86642857Y-108900000D01*
X86757142Y-108842857D01*
X86985714Y-108842857D01*
X87100000Y-108900000D01*
X86585714Y-109585714D02*
X86700000Y-109642857D01*
X86985714Y-109642857D01*
X87100000Y-109585714D01*
X87157142Y-109471428D01*
X87157142Y-109357142D01*
X87100000Y-109242857D01*
X86985714Y-109185714D01*
X86700000Y-109185714D01*
X86585714Y-109128571D01*
X86014285Y-109642857D02*
X86014285Y-108442857D01*
X85900000Y-109185714D02*
X85557142Y-109642857D01*
X85557142Y-108842857D02*
X86014285Y-109300000D01*
X84585714Y-109585714D02*
X84700000Y-109642857D01*
X84928571Y-109642857D01*
X85042857Y-109585714D01*
X85100000Y-109471428D01*
X85100000Y-109014285D01*
X85042857Y-108900000D01*
X84928571Y-108842857D01*
X84700000Y-108842857D01*
X84585714Y-108900000D01*
X84528571Y-109014285D01*
X84528571Y-109128571D01*
X85100000Y-109242857D01*
D11*
G04 #@! TO.P,CN1,0*
G04 #@! TO.N,Net-(CN1-Pad0)*
X118200000Y-79200000D03*
G04 #@! TO.P,CN1,8*
G04 #@! TO.N,/ARDU_A0*
X96356000Y-79200000D03*
G04 #@! TO.P,CN1,9*
G04 #@! TO.N,/ARDU_RESET*
X93816000Y-79200000D03*
G04 #@! TO.P,CN1,10*
G04 #@! TO.N,/DISPLAY_BL*
X91276000Y-79200000D03*
G04 #@! TO.P,CN1,11*
G04 #@! TO.N,/ARDU_SI_1*
X88736000Y-79200000D03*
G04 #@! TO.P,CN1,12*
G04 #@! TO.N,/ARDU_CS_1*
X86196000Y-79200000D03*
G04 #@! TO.P,CN1,13*
G04 #@! TO.N,/ARDU_CLK_1*
X83656000Y-79200000D03*
G04 #@! TO.P,CN1,14*
G04 #@! TO.N,GND*
X81116000Y-79200000D03*
G04 #@! TO.P,CN1,15*
G04 #@! TO.N,Net-(CN1-Pad15)*
X78576000Y-79200000D03*
G04 #@! TO.P,CN1,16*
G04 #@! TO.N,Net-(CN1-Pad16)*
X76036000Y-79200000D03*
G04 #@! TO.P,CN1,17*
G04 #@! TO.N,Net-(CN1-Pad17)*
X73496000Y-79200000D03*
G04 #@! TO.P,CN1,1*
G04 #@! TO.N,Net-(CN1-Pad1)*
X115660000Y-79200000D03*
G04 #@! TO.P,CN1,2*
G04 #@! TO.N,Net-(CN1-Pad2)*
X113120000Y-79200000D03*
G04 #@! TO.P,CN1,3*
G04 #@! TO.N,Net-(CN1-Pad3)*
X110580000Y-79200000D03*
G04 #@! TO.P,CN1,4*
G04 #@! TO.N,Net-(CN1-Pad4)*
X108040000Y-79200000D03*
G04 #@! TO.P,CN1,5*
G04 #@! TO.N,/ARDU_SI_2*
X105500000Y-79200000D03*
G04 #@! TO.P,CN1,6*
G04 #@! TO.N,/ARDU_CS_2*
X102960000Y-79200000D03*
G04 #@! TO.P,CN1,7*
G04 #@! TO.N,/ARDU_CLK_2*
X100420000Y-79200000D03*
G04 #@! TO.P,CN1,24*
G04 #@! TO.N,VIN*
X100420000Y-127460000D03*
G04 #@! TO.P,CN1,25*
G04 #@! TO.N,GND*
X97880000Y-127460000D03*
G04 #@! TO.P,CN1,26*
X95340000Y-127460000D03*
G04 #@! TO.P,CN1,27*
G04 #@! TO.N,+5V*
X92800000Y-127460000D03*
G04 #@! TO.P,CN1,28*
G04 #@! TO.N,Net-(CN1-Pad28)*
X90260000Y-127460000D03*
G04 #@! TO.P,CN1,29*
G04 #@! TO.N,/RESET*
X87720000Y-127460000D03*
G04 #@! TO.P,CN1,30*
G04 #@! TO.N,VIO*
X85180000Y-127460000D03*
G04 #@! TO.P,CN1,31*
G04 #@! TO.N,Net-(CN1-Pad31)*
X82640000Y-127460000D03*
G04 #@! TO.P,CN1,18*
G04 #@! TO.N,/ENC_SW*
X118200000Y-127460000D03*
G04 #@! TO.P,CN1,19*
G04 #@! TO.N,/ENC_B*
X115660000Y-127460000D03*
G04 #@! TO.P,CN1,20*
G04 #@! TO.N,/ENC_A*
X113120000Y-127460000D03*
G04 #@! TO.P,CN1,21*
G04 #@! TO.N,Net-(CN1-Pad21)*
X110580000Y-127460000D03*
G04 #@! TO.P,CN1,22*
G04 #@! TO.N,Net-(CN1-Pad22)*
X108040000Y-127460000D03*
G04 #@! TO.P,CN1,23*
G04 #@! TO.N,/KEYPAD_A0*
X105500000Y-127460000D03*
G04 #@! TD*
D12*
G04 #@! TO.P,SW1,3*
G04 #@! TO.N,/KEYPAD_A0*
X60749560Y-103251200D03*
G04 #@! TO.P,SW1,4*
X65250440Y-96748800D03*
G04 #@! TO.P,SW1,2*
G04 #@! TO.N,GND*
X65250440Y-103251200D03*
G04 #@! TO.P,SW1,1*
X60749560Y-96748800D03*
G04 #@! TD*
G04 #@! TO.P,SW2,3*
G04 #@! TO.N,/BUTTON_UP*
X55748800Y-87749560D03*
G04 #@! TO.P,SW2,4*
X62251200Y-92250440D03*
G04 #@! TO.P,SW2,2*
G04 #@! TO.N,GND*
X55748800Y-92250440D03*
G04 #@! TO.P,SW2,1*
X62251200Y-87749560D03*
G04 #@! TD*
G04 #@! TO.P,SW3,3*
G04 #@! TO.N,/BUTTON_DOWN*
X55748800Y-107749560D03*
G04 #@! TO.P,SW3,4*
X62251200Y-112250440D03*
G04 #@! TO.P,SW3,2*
G04 #@! TO.N,GND*
X55748800Y-112250440D03*
G04 #@! TO.P,SW3,1*
X62251200Y-107749560D03*
G04 #@! TD*
G04 #@! TO.P,SW5,3*
G04 #@! TO.N,/BUTTON_SELECT*
X55748800Y-122749560D03*
G04 #@! TO.P,SW5,4*
X62251200Y-127250440D03*
G04 #@! TO.P,SW5,2*
G04 #@! TO.N,GND*
X55748800Y-127250440D03*
G04 #@! TO.P,SW5,1*
X62251200Y-122749560D03*
G04 #@! TD*
G04 #@! TO.P,SW6,3*
G04 #@! TO.N,/RESET*
X62251200Y-83250440D03*
G04 #@! TO.P,SW6,4*
X55748800Y-78749560D03*
G04 #@! TO.P,SW6,2*
G04 #@! TO.N,GND*
X62251200Y-78749560D03*
G04 #@! TO.P,SW6,1*
X55748800Y-83250440D03*
G04 #@! TD*
D13*
G04 #@! TO.P,DIS1,18*
G04 #@! TO.N,/DIS_C1*
X114050000Y-125090000D03*
G04 #@! TO.P,DIS1,3*
G04 #@! TO.N,+5V*
X75950000Y-125090000D03*
G04 #@! TO.P,DIS1,40*
G04 #@! TO.N,/DIS_CS*
X70870000Y-81910000D03*
G04 #@! TO.P,DIS1,39*
G04 #@! TO.N,/DIS_RESET*
X73410000Y-81910000D03*
G04 #@! TO.P,DIS1,38*
G04 #@! TO.N,/DIS_A0*
X75950000Y-81910000D03*
G04 #@! TO.P,DIS1,37*
G04 #@! TO.N,/DIS_CLK*
X78490000Y-81910000D03*
G04 #@! TO.P,DIS1,36*
G04 #@! TO.N,/DIS_SI*
X81030000Y-81910000D03*
G04 #@! TO.P,DIS1,35*
G04 #@! TO.N,+3V3*
X83570000Y-81910000D03*
G04 #@! TO.P,DIS1,34*
X86110000Y-81910000D03*
G04 #@! TO.P,DIS1,33*
G04 #@! TO.N,GND*
X88650000Y-81910000D03*
G04 #@! TO.P,DIS1,32*
G04 #@! TO.N,/DIS_VOUT*
X91190000Y-81910000D03*
G04 #@! TO.P,DIS1,31*
G04 #@! TO.N,/DIS_CAP3P*
X93730000Y-81910000D03*
G04 #@! TO.P,DIS1,30*
G04 #@! TO.N,/DIS_CAP1N*
X96270000Y-81910000D03*
G04 #@! TO.P,DIS1,29*
G04 #@! TO.N,/DIS_CAP1P*
X98810000Y-81910000D03*
G04 #@! TO.P,DIS1,28*
G04 #@! TO.N,/DIS_CAP2P*
X101350000Y-81910000D03*
G04 #@! TO.P,DIS1,27*
G04 #@! TO.N,/DIS_CAP2N*
X103890000Y-81910000D03*
G04 #@! TO.P,DIS1,26*
G04 #@! TO.N,GND*
X106430000Y-81910000D03*
G04 #@! TO.P,DIS1,25*
G04 #@! TO.N,/DIS_V4*
X108970000Y-81910000D03*
G04 #@! TO.P,DIS1,24*
G04 #@! TO.N,/DIS_V3*
X111510000Y-81910000D03*
G04 #@! TO.P,DIS1,23*
G04 #@! TO.N,/DIS_V2*
X114050000Y-81910000D03*
G04 #@! TO.P,DIS1,22*
G04 #@! TO.N,/DIS_V1*
X116590000Y-81910000D03*
G04 #@! TO.P,DIS1,21*
G04 #@! TO.N,/DIS_V0*
X119130000Y-81910000D03*
G04 #@! TO.P,DIS1,19*
G04 #@! TO.N,/DIS_C2*
X116590000Y-125090000D03*
G04 #@! TO.P,DIS1,20*
G04 #@! TO.N,/DIS_C3*
X119130000Y-125090000D03*
G04 #@! TO.P,DIS1,2*
G04 #@! TO.N,+5V*
X73410000Y-125090000D03*
G04 #@! TO.P,DIS1,1*
X70870000Y-125090000D03*
G04 #@! TD*
D12*
G04 #@! TO.P,SW4,3*
G04 #@! TO.N,/BUTTON_LEFT*
X57250440Y-96748800D03*
G04 #@! TO.P,SW4,4*
X52749560Y-103251200D03*
G04 #@! TO.P,SW4,2*
G04 #@! TO.N,GND*
X52749560Y-96748800D03*
G04 #@! TO.P,SW4,1*
X57250440Y-103251200D03*
G04 #@! TD*
D13*
G04 #@! TO.P,DIS2,1*
G04 #@! TO.N,+5V*
X70870000Y-109850000D03*
G04 #@! TO.P,DIS2,2*
G04 #@! TO.N,/DIS_C1*
X73410000Y-109850000D03*
G04 #@! TO.P,DIS2,20*
G04 #@! TO.N,+5V*
X119130000Y-109850000D03*
G04 #@! TO.P,DIS2,19*
G04 #@! TO.N,/DIS_C2*
X116590000Y-109850000D03*
G04 #@! TO.P,DIS2,21*
G04 #@! TO.N,/DIS_V0*
X119130000Y-81910000D03*
G04 #@! TO.P,DIS2,22*
G04 #@! TO.N,/DIS_V1*
X116590000Y-81910000D03*
G04 #@! TO.P,DIS2,23*
G04 #@! TO.N,/DIS_V2*
X114050000Y-81910000D03*
G04 #@! TO.P,DIS2,24*
G04 #@! TO.N,/DIS_V3*
X111510000Y-81910000D03*
G04 #@! TO.P,DIS2,25*
G04 #@! TO.N,/DIS_V4*
X108970000Y-81910000D03*
G04 #@! TO.P,DIS2,26*
G04 #@! TO.N,GND*
X106430000Y-81910000D03*
G04 #@! TO.P,DIS2,27*
G04 #@! TO.N,/DIS_CAP2N*
X103890000Y-81910000D03*
G04 #@! TO.P,DIS2,28*
G04 #@! TO.N,/DIS_CAP2P*
X101350000Y-81910000D03*
G04 #@! TO.P,DIS2,29*
G04 #@! TO.N,/DIS_CAP1P*
X98810000Y-81910000D03*
G04 #@! TO.P,DIS2,30*
G04 #@! TO.N,/DIS_CAP1N*
X96270000Y-81910000D03*
G04 #@! TO.P,DIS2,31*
G04 #@! TO.N,/DIS_CAP3P*
X93730000Y-81910000D03*
G04 #@! TO.P,DIS2,32*
G04 #@! TO.N,/DIS_VOUT*
X91190000Y-81910000D03*
G04 #@! TO.P,DIS2,33*
G04 #@! TO.N,GND*
X88650000Y-81910000D03*
G04 #@! TO.P,DIS2,34*
G04 #@! TO.N,+3V3*
X86110000Y-81910000D03*
G04 #@! TO.P,DIS2,35*
X83570000Y-81910000D03*
G04 #@! TO.P,DIS2,36*
G04 #@! TO.N,/DIS_SI*
X81030000Y-81910000D03*
G04 #@! TO.P,DIS2,37*
G04 #@! TO.N,/DIS_CLK*
X78490000Y-81910000D03*
G04 #@! TO.P,DIS2,38*
G04 #@! TO.N,/DIS_A0*
X75950000Y-81910000D03*
G04 #@! TO.P,DIS2,39*
G04 #@! TO.N,/DIS_RESET*
X73410000Y-81910000D03*
G04 #@! TO.P,DIS2,40*
G04 #@! TO.N,/DIS_CS*
X70870000Y-81910000D03*
G04 #@! TD*
G04 #@! TO.P,DIS3,15*
G04 #@! TO.N,/DIS_VOUT*
X103890000Y-84450000D03*
G04 #@! TO.P,DIS3,16*
G04 #@! TO.N,/DIS_CAP2P*
X101350000Y-84450000D03*
G04 #@! TO.P,DIS3,17*
G04 #@! TO.N,/DIS_CAP1P*
X98810000Y-84450000D03*
G04 #@! TO.P,DIS3,18*
G04 #@! TO.N,/DIS_CAP1N*
X96270000Y-84450000D03*
G04 #@! TO.P,DIS3,19*
G04 #@! TO.N,/DIS_CAP2N*
X93730000Y-84450000D03*
G04 #@! TO.P,DIS3,20*
G04 #@! TO.N,GND*
X91190000Y-84450000D03*
G04 #@! TO.P,DIS3,21*
X88650000Y-84450000D03*
G04 #@! TO.P,DIS3,22*
G04 #@! TO.N,+3V3*
X86110000Y-84450000D03*
G04 #@! TO.P,DIS3,23*
X83570000Y-84450000D03*
G04 #@! TO.P,DIS3,24*
G04 #@! TO.N,/DIS_SI*
X81030000Y-84450000D03*
G04 #@! TO.P,DIS3,25*
G04 #@! TO.N,/DIS_CLK*
X78490000Y-84450000D03*
G04 #@! TO.P,DIS3,26*
G04 #@! TO.N,/DIS_A0*
X75950000Y-84450000D03*
G04 #@! TO.P,DIS3,27*
G04 #@! TO.N,/DIS_RESET*
X73410000Y-84450000D03*
G04 #@! TO.P,DIS3,28*
G04 #@! TO.N,/DIS_CS*
X70870000Y-84450000D03*
G04 #@! TO.P,DIS3,1*
G04 #@! TO.N,+5V*
X70870000Y-122550000D03*
G04 #@! TO.P,DIS3,2*
G04 #@! TO.N,/DIS_C1*
X73410000Y-122550000D03*
G04 #@! TO.P,DIS3,14*
G04 #@! TO.N,+5V*
X103890000Y-122550000D03*
G04 #@! TO.P,DIS3,13*
G04 #@! TO.N,/DIS_C2*
X101350000Y-122550000D03*
G04 #@! TD*
D14*
G04 #@! TO.N,GND*
X72100000Y-93430000D03*
X85100000Y-93400000D03*
X76600000Y-93400000D03*
X79600000Y-87600000D03*
X73000000Y-87600000D03*
X104100000Y-89600000D03*
X111200000Y-122000000D03*
X86300000Y-87600000D03*
X108800000Y-105100000D03*
X118900000Y-98300000D03*
G04 #@! TO.N,VIO*
X83800000Y-123800000D03*
X88700000Y-118700000D03*
G04 #@! TO.N,/RESET*
X86600000Y-122600000D03*
G04 #@! TO.N,/DIS_C2*
X112100000Y-124100000D03*
G04 #@! TO.N,+3V3*
X103500000Y-92600000D03*
X113200000Y-94400000D03*
X69200000Y-106400000D03*
X72100000Y-103500000D03*
G04 #@! TO.N,/DIS_C1*
X79700000Y-119500000D03*
G04 #@! TO.N,/ARDU_A0*
X84700000Y-96800000D03*
G04 #@! TO.N,/ARDU_RESET*
X83600000Y-96300000D03*
G04 #@! TO.N,/ARDU_SI_1*
X89300000Y-92200000D03*
G04 #@! TO.N,/ARDU_CS_1*
X79600000Y-95700000D03*
G04 #@! TO.N,/ARDU_CLK_1*
X86900000Y-92100000D03*
G04 #@! TO.N,/ARDU_SI_2*
X94100000Y-92000000D03*
G04 #@! TO.N,/ARDU_CS_2*
X79500000Y-97400000D03*
G04 #@! TO.N,/ARDU_CLK_2*
X92500000Y-92600000D03*
G04 #@! TD*
D15*
G04 #@! TO.N,GND*
X57750320Y-127250440D02*
X62251200Y-122749560D01*
X55748800Y-127250440D02*
X57750320Y-127250440D01*
X55748800Y-116247160D02*
X55748800Y-112250440D01*
X62251200Y-122749560D02*
X55748800Y-116247160D01*
X60249680Y-107749560D02*
X62251200Y-107749560D01*
X55748800Y-112250440D02*
X60249680Y-107749560D01*
X62251200Y-106250440D02*
X65250440Y-103251200D01*
X62251200Y-107749560D02*
X62251200Y-106250440D01*
X60749560Y-98750320D02*
X60749560Y-96748800D01*
X65250440Y-103251200D02*
X60749560Y-98750320D01*
X58249929Y-104250689D02*
X58249929Y-105849929D01*
X57250440Y-103251200D02*
X58249929Y-104250689D01*
X60149560Y-107749560D02*
X62251200Y-107749560D01*
X58249929Y-105849929D02*
X60149560Y-107749560D01*
X57250440Y-101249680D02*
X52749560Y-96748800D01*
X57250440Y-103251200D02*
X57250440Y-101249680D01*
X52749560Y-95249680D02*
X55748800Y-92250440D01*
X52749560Y-96748800D02*
X52749560Y-95249680D01*
X60249680Y-87749560D02*
X62251200Y-87749560D01*
X55748800Y-92250440D02*
X60249680Y-87749560D01*
X60247920Y-87749560D02*
X55748800Y-83250440D01*
X62251200Y-87749560D02*
X60247920Y-87749560D01*
X57750320Y-83250440D02*
X62251200Y-78749560D01*
X55748800Y-83250440D02*
X57750320Y-83250440D01*
X72130000Y-93400000D02*
X72100000Y-93430000D01*
X85100000Y-93400000D02*
X76600000Y-93400000D01*
X76600000Y-93400000D02*
X72130000Y-93400000D01*
X78000000Y-86200000D02*
X78100000Y-86100000D01*
X72000000Y-86200000D02*
X78000000Y-86200000D01*
X70450440Y-87749560D02*
X72000000Y-86200000D01*
X62251200Y-87749560D02*
X70450440Y-87749560D01*
X70450440Y-91214755D02*
X70450440Y-87749560D01*
X72100000Y-92864315D02*
X70450440Y-91214755D01*
X72100000Y-93430000D02*
X72100000Y-92864315D01*
X80316001Y-79999999D02*
X80316001Y-80383999D01*
X81116000Y-79200000D02*
X80316001Y-79999999D01*
X80316001Y-80383999D02*
X79700000Y-81000000D01*
X79700000Y-81000000D02*
X79700000Y-85900000D01*
X79500000Y-86100000D02*
X79400000Y-86100000D01*
X79700000Y-85900000D02*
X79500000Y-86100000D01*
X84800000Y-86100000D02*
X79400000Y-86100000D01*
X79400000Y-86100000D02*
X78100000Y-86100000D01*
X106430000Y-87270000D02*
X106430000Y-81910000D01*
X104100000Y-89600000D02*
X106430000Y-87270000D01*
X96471370Y-127460000D02*
X97880000Y-127460000D01*
X95340000Y-127460000D02*
X96471370Y-127460000D01*
X98679999Y-126660001D02*
X98679999Y-125920001D01*
X97880000Y-127460000D02*
X98679999Y-126660001D01*
X98679999Y-125920001D02*
X99500000Y-125100000D01*
X102820002Y-125100000D02*
X110020002Y-117900000D01*
X99500000Y-125100000D02*
X102820002Y-125100000D01*
X110020002Y-117900000D02*
X110400000Y-117900000D01*
D16*
X108800000Y-105100000D02*
X103900000Y-105100000D01*
X103900000Y-105100000D02*
X99100000Y-100300000D01*
X99100000Y-94600000D02*
X104100000Y-89600000D01*
X99100000Y-100300000D02*
X99100000Y-94600000D01*
D17*
X115600000Y-98300000D02*
X108800000Y-105100000D01*
X118900000Y-98300000D02*
X115600000Y-98300000D01*
D16*
G04 #@! TO.N,+5V*
X103190001Y-123249999D02*
X103890000Y-122550000D01*
X102140010Y-124299990D02*
X103190001Y-123249999D01*
X94828640Y-124299990D02*
X102140010Y-124299990D01*
X92800000Y-126328630D02*
X94828640Y-124299990D01*
X92800000Y-127460000D02*
X92800000Y-126328630D01*
X112500000Y-113940000D02*
X103890000Y-122550000D01*
X112500000Y-110300000D02*
X112500000Y-113940000D01*
X114800000Y-108000000D02*
X112500000Y-110300000D01*
X117280000Y-108000000D02*
X114800000Y-108000000D01*
X119130000Y-109850000D02*
X117280000Y-108000000D01*
D15*
G04 #@! TO.N,VIO*
X83800000Y-126080000D02*
X85180000Y-127460000D01*
X83800000Y-123800000D02*
X83800000Y-126080000D01*
X83800000Y-123234315D02*
X83800000Y-123800000D01*
X83800000Y-123034315D02*
X83800000Y-123234315D01*
X88134315Y-118700000D02*
X83800000Y-123034315D01*
X88700000Y-118700000D02*
X88134315Y-118700000D01*
G04 #@! TO.N,/RESET*
X87200000Y-124000000D02*
X87200000Y-126940000D01*
X86600000Y-122900000D02*
X86600000Y-122600000D01*
X87200000Y-123500000D02*
X86600000Y-122900000D01*
X87200000Y-124000000D02*
X87200000Y-123500000D01*
X87200000Y-126940000D02*
X87720000Y-127460000D01*
D17*
G04 #@! TO.N,/DIS_C2*
X116590000Y-124178002D02*
X116590000Y-125090000D01*
X116390000Y-123500000D02*
X116590000Y-123700000D01*
X112700000Y-123500000D02*
X116390000Y-123500000D01*
X112100000Y-124100000D02*
X112700000Y-123500000D01*
X116590000Y-109850000D02*
X116590000Y-123700000D01*
X116590000Y-123700000D02*
X116590000Y-124178002D01*
G04 #@! TO.N,+3V3*
X105300000Y-94400000D02*
X103500000Y-92600000D01*
X113200000Y-94400000D02*
X105300000Y-94400000D01*
D15*
X69200000Y-106400000D02*
X72100000Y-103500000D01*
D17*
G04 #@! TO.N,/DIS_C1*
X79134315Y-119500000D02*
X79700000Y-119500000D01*
X75470051Y-119500000D02*
X79134315Y-119500000D01*
X73410000Y-121560051D02*
X75470051Y-119500000D01*
X73410000Y-122550000D02*
X73410000Y-121560051D01*
D15*
G04 #@! TO.N,/ARDU_A0*
X85099980Y-96400020D02*
X84700000Y-96800000D01*
X87965679Y-96400020D02*
X85099980Y-96400020D01*
X90265698Y-94100000D02*
X87965679Y-96400020D01*
X91097094Y-93302906D02*
X90300000Y-94100000D01*
X96356000Y-79200000D02*
X95000000Y-80556000D01*
X95000000Y-80556000D02*
X95000000Y-85000000D01*
X95000000Y-85000000D02*
X92900000Y-87100000D01*
X92900000Y-87100000D02*
X92900000Y-88500000D01*
X92900000Y-88500000D02*
X91097094Y-90302906D01*
X90300000Y-94100000D02*
X90265698Y-94100000D01*
X91097094Y-90302906D02*
X91097094Y-93302906D01*
G04 #@! TO.N,/ARDU_RESET*
X92500000Y-80516000D02*
X93816000Y-79200000D01*
X92500000Y-88300000D02*
X92500000Y-80516000D01*
X83600000Y-96300000D02*
X83600000Y-96200000D01*
X83600000Y-96200000D02*
X83799990Y-96000010D01*
X83799990Y-96000010D02*
X87799990Y-96000010D01*
X87799990Y-96000010D02*
X90697086Y-93102914D01*
X90697086Y-93102914D02*
X90697086Y-90102914D01*
X90697086Y-90102914D02*
X92500000Y-88300000D01*
G04 #@! TO.N,/ARDU_SI_1*
X88736000Y-79200000D02*
X89650001Y-80114001D01*
X89650001Y-80114001D02*
X89650001Y-87400000D01*
X89650001Y-87400000D02*
X89650001Y-87900000D01*
X89300000Y-88250001D02*
X89500000Y-88050001D01*
X89300000Y-92200000D02*
X89300000Y-88250001D01*
X89500000Y-88050001D02*
X89650001Y-87900000D01*
G04 #@! TO.N,/ARDU_CS_1*
X87600000Y-80604000D02*
X87600000Y-92501700D01*
X86196000Y-79200000D02*
X87600000Y-80604000D01*
X80798300Y-94501700D02*
X79600000Y-95700000D01*
X85600000Y-94501700D02*
X80798300Y-94501700D01*
X87600000Y-92501700D02*
X85600000Y-94501700D01*
G04 #@! TO.N,/ARDU_CLK_1*
X84900000Y-84900000D02*
X84900000Y-80444000D01*
X87200000Y-87200000D02*
X84900000Y-84900000D01*
X84900000Y-80444000D02*
X83656000Y-79200000D01*
X86900000Y-92100000D02*
X86900000Y-92000000D01*
X87200000Y-91700000D02*
X87200000Y-91300000D01*
X86900000Y-92000000D02*
X87200000Y-91700000D01*
X87200000Y-91300000D02*
X87200000Y-87200000D01*
G04 #@! TO.N,/ARDU_SI_2*
X105500000Y-80331370D02*
X105100000Y-80731370D01*
X105500000Y-79200000D02*
X105500000Y-80331370D01*
X105100000Y-83000000D02*
X105100000Y-85200000D01*
X105100000Y-80731370D02*
X105100000Y-83000000D01*
X105100000Y-85200000D02*
X103099990Y-87200010D01*
X102300000Y-87200010D02*
X97499990Y-87200010D01*
X102300000Y-87200010D02*
X101765689Y-87200010D01*
X103099990Y-87200010D02*
X102300000Y-87200010D01*
X93800000Y-90900000D02*
X93800000Y-91600000D01*
X97499990Y-87200010D02*
X93800000Y-90900000D01*
X93800000Y-91600000D02*
X94100000Y-91900000D01*
G04 #@! TO.N,/ARDU_CS_2*
X80000000Y-97400000D02*
X79900000Y-97400000D01*
X79900000Y-97400000D02*
X79500000Y-97400000D01*
X88500000Y-97700000D02*
X80300000Y-97700000D01*
X93200000Y-93000000D02*
X88500000Y-97700000D01*
X93200000Y-90865698D02*
X93200000Y-93000000D01*
X102960000Y-79200000D02*
X102960000Y-80331370D01*
X101600000Y-86800000D02*
X97265698Y-86800000D01*
X102960000Y-80331370D02*
X102500000Y-80791370D01*
X102500000Y-80791370D02*
X102500000Y-85900000D01*
X80300000Y-97700000D02*
X80000000Y-97400000D01*
X102500000Y-85900000D02*
X101600000Y-86800000D01*
X97265698Y-86800000D02*
X93200000Y-90865698D01*
G04 #@! TO.N,/ARDU_CLK_2*
X100420000Y-80331370D02*
X100420000Y-79200000D01*
X100000000Y-80751370D02*
X100420000Y-80331370D01*
X99400000Y-86300000D02*
X100000000Y-85700000D01*
X92500000Y-92600000D02*
X92500000Y-92500000D01*
X92500000Y-92500000D02*
X92662792Y-92337208D01*
X92662792Y-90837208D02*
X97200000Y-86300000D01*
X92662792Y-92337208D02*
X92662792Y-90837208D01*
X100000000Y-85700000D02*
X100000000Y-80751370D01*
X97200000Y-86300000D02*
X99400000Y-86300000D01*
G04 #@! TD*
D18*
G04 #@! TO.N,GND*
G36*
X54940758Y-77540240D02*
X54539480Y-77941518D01*
X54322310Y-78465813D01*
X54322310Y-79033307D01*
X54539480Y-79557602D01*
X54940758Y-79958880D01*
X55465053Y-80176050D01*
X56032547Y-80176050D01*
X56556842Y-79958880D01*
X56613999Y-79901723D01*
X61278643Y-79901723D01*
X61377242Y-80168525D01*
X61986782Y-80394961D01*
X62636577Y-80370901D01*
X63125158Y-80168525D01*
X63223757Y-79901723D01*
X62251200Y-78929165D01*
X61278643Y-79901723D01*
X56613999Y-79901723D01*
X56958120Y-79557602D01*
X57175290Y-79033307D01*
X57175290Y-78485142D01*
X60605799Y-78485142D01*
X60629859Y-79134937D01*
X60832235Y-79623518D01*
X61099037Y-79722117D01*
X62071595Y-78749560D01*
X62430805Y-78749560D01*
X63403363Y-79722117D01*
X63670165Y-79623518D01*
X63896601Y-79013978D01*
X63872541Y-78364183D01*
X63670165Y-77875602D01*
X63403363Y-77777003D01*
X62430805Y-78749560D01*
X62071595Y-78749560D01*
X61099037Y-77777003D01*
X60832235Y-77875602D01*
X60605799Y-78485142D01*
X57175290Y-78485142D01*
X57175290Y-78465813D01*
X56958120Y-77941518D01*
X56556842Y-77540240D01*
X56464522Y-77502000D01*
X61313898Y-77502000D01*
X61278643Y-77597397D01*
X62251200Y-78569955D01*
X63223757Y-77597397D01*
X63188502Y-77502000D01*
X68789068Y-77502000D01*
X68232190Y-78058878D01*
X67925500Y-78799291D01*
X67925500Y-79600709D01*
X68232190Y-80341122D01*
X68798878Y-80907810D01*
X69539291Y-81214500D01*
X69971682Y-81214500D01*
X69914576Y-81271606D01*
X69743000Y-81685826D01*
X69743000Y-82134174D01*
X69914576Y-82548394D01*
X70231606Y-82865424D01*
X70645826Y-83037000D01*
X71094174Y-83037000D01*
X71508394Y-82865424D01*
X71825424Y-82548394D01*
X71997000Y-82134174D01*
X71997000Y-81685826D01*
X72283000Y-81685826D01*
X72283000Y-82134174D01*
X72454576Y-82548394D01*
X72771606Y-82865424D01*
X73185826Y-83037000D01*
X73634174Y-83037000D01*
X74048394Y-82865424D01*
X74365424Y-82548394D01*
X74537000Y-82134174D01*
X74537000Y-81685826D01*
X74823000Y-81685826D01*
X74823000Y-82134174D01*
X74994576Y-82548394D01*
X75311606Y-82865424D01*
X75725826Y-83037000D01*
X76174174Y-83037000D01*
X76588394Y-82865424D01*
X76905424Y-82548394D01*
X77077000Y-82134174D01*
X77077000Y-81685826D01*
X77363000Y-81685826D01*
X77363000Y-82134174D01*
X77534576Y-82548394D01*
X77851606Y-82865424D01*
X78265826Y-83037000D01*
X78714174Y-83037000D01*
X79128394Y-82865424D01*
X79445424Y-82548394D01*
X79617000Y-82134174D01*
X79617000Y-81685826D01*
X79903000Y-81685826D01*
X79903000Y-82134174D01*
X80074576Y-82548394D01*
X80391606Y-82865424D01*
X80805826Y-83037000D01*
X81254174Y-83037000D01*
X81668394Y-82865424D01*
X81985424Y-82548394D01*
X82157000Y-82134174D01*
X82157000Y-81685826D01*
X81985424Y-81271606D01*
X81668394Y-80954576D01*
X81254174Y-80783000D01*
X80805826Y-80783000D01*
X80391606Y-80954576D01*
X80074576Y-81271606D01*
X79903000Y-81685826D01*
X79617000Y-81685826D01*
X79445424Y-81271606D01*
X79128394Y-80954576D01*
X78714174Y-80783000D01*
X78265826Y-80783000D01*
X77851606Y-80954576D01*
X77534576Y-81271606D01*
X77363000Y-81685826D01*
X77077000Y-81685826D01*
X76905424Y-81271606D01*
X76588394Y-80954576D01*
X76174174Y-80783000D01*
X75725826Y-80783000D01*
X75311606Y-80954576D01*
X74994576Y-81271606D01*
X74823000Y-81685826D01*
X74537000Y-81685826D01*
X74365424Y-81271606D01*
X74048394Y-80954576D01*
X73634174Y-80783000D01*
X73185826Y-80783000D01*
X72771606Y-80954576D01*
X72454576Y-81271606D01*
X72283000Y-81685826D01*
X71997000Y-81685826D01*
X71825424Y-81271606D01*
X71508394Y-80954576D01*
X71173199Y-80815733D01*
X71647810Y-80341122D01*
X71954500Y-79600709D01*
X71954500Y-78955935D01*
X72269000Y-78955935D01*
X72269000Y-79444065D01*
X72455800Y-79895039D01*
X72800961Y-80240200D01*
X73251935Y-80427000D01*
X73740065Y-80427000D01*
X74191039Y-80240200D01*
X74536200Y-79895039D01*
X74723000Y-79444065D01*
X74723000Y-78955935D01*
X74809000Y-78955935D01*
X74809000Y-79444065D01*
X74995800Y-79895039D01*
X75340961Y-80240200D01*
X75791935Y-80427000D01*
X76280065Y-80427000D01*
X76731039Y-80240200D01*
X77076200Y-79895039D01*
X77263000Y-79444065D01*
X77263000Y-78955935D01*
X77349000Y-78955935D01*
X77349000Y-79444065D01*
X77535800Y-79895039D01*
X77880961Y-80240200D01*
X78331935Y-80427000D01*
X78820065Y-80427000D01*
X79271039Y-80240200D01*
X79303494Y-80207745D01*
X80287861Y-80207745D01*
X80361995Y-80453864D01*
X80899223Y-80646965D01*
X81469454Y-80619778D01*
X81870005Y-80453864D01*
X81944139Y-80207745D01*
X81116000Y-79379605D01*
X80287861Y-80207745D01*
X79303494Y-80207745D01*
X79616200Y-79895039D01*
X79726956Y-79627652D01*
X79862136Y-79954005D01*
X80108255Y-80028139D01*
X80936395Y-79200000D01*
X80108255Y-78371861D01*
X79862136Y-78445995D01*
X79736527Y-78795454D01*
X79616200Y-78504961D01*
X79303494Y-78192255D01*
X80287861Y-78192255D01*
X81116000Y-79020395D01*
X81944139Y-78192255D01*
X81870005Y-77946136D01*
X81332777Y-77753035D01*
X80762546Y-77780222D01*
X80361995Y-77946136D01*
X80287861Y-78192255D01*
X79303494Y-78192255D01*
X79271039Y-78159800D01*
X78820065Y-77973000D01*
X78331935Y-77973000D01*
X77880961Y-78159800D01*
X77535800Y-78504961D01*
X77349000Y-78955935D01*
X77263000Y-78955935D01*
X77076200Y-78504961D01*
X76731039Y-78159800D01*
X76280065Y-77973000D01*
X75791935Y-77973000D01*
X75340961Y-78159800D01*
X74995800Y-78504961D01*
X74809000Y-78955935D01*
X74723000Y-78955935D01*
X74536200Y-78504961D01*
X74191039Y-78159800D01*
X73740065Y-77973000D01*
X73251935Y-77973000D01*
X72800961Y-78159800D01*
X72455800Y-78504961D01*
X72269000Y-78955935D01*
X71954500Y-78955935D01*
X71954500Y-78799291D01*
X71647810Y-78058878D01*
X71090932Y-77502000D01*
X122498001Y-77502000D01*
X122498001Y-93420049D01*
X122447810Y-93298878D01*
X121881122Y-92732190D01*
X121140709Y-92425500D01*
X120339291Y-92425500D01*
X119598878Y-92732190D01*
X119032190Y-93298878D01*
X118725500Y-94039291D01*
X118725500Y-94840709D01*
X119032190Y-95581122D01*
X119598878Y-96147810D01*
X120339291Y-96454500D01*
X121140709Y-96454500D01*
X121881122Y-96147810D01*
X122447810Y-95581122D01*
X122498001Y-95459951D01*
X122498000Y-104937285D01*
X119268000Y-104937285D01*
X119268000Y-108677024D01*
X118000051Y-107409075D01*
X117948330Y-107331670D01*
X117641697Y-107126785D01*
X117371302Y-107073000D01*
X117371300Y-107073000D01*
X117280000Y-107054839D01*
X117188700Y-107073000D01*
X114891300Y-107073000D01*
X114799999Y-107054839D01*
X114708699Y-107073000D01*
X114708698Y-107073000D01*
X114438303Y-107126785D01*
X114131670Y-107331670D01*
X114079951Y-107409073D01*
X111909075Y-109579949D01*
X111831670Y-109631670D01*
X111626785Y-109938304D01*
X111599759Y-110074174D01*
X111554839Y-110300000D01*
X111573000Y-110391300D01*
X111573001Y-113556023D01*
X103706025Y-121423000D01*
X103665826Y-121423000D01*
X103251606Y-121594576D01*
X102934576Y-121911606D01*
X102763000Y-122325826D01*
X102763000Y-122366025D01*
X102599076Y-122529949D01*
X102599073Y-122529951D01*
X102477000Y-122652024D01*
X102477000Y-122325826D01*
X102305424Y-121911606D01*
X101988394Y-121594576D01*
X101574174Y-121423000D01*
X101125826Y-121423000D01*
X100711606Y-121594576D01*
X100394576Y-121911606D01*
X100223000Y-122325826D01*
X100223000Y-122774174D01*
X100394576Y-123188394D01*
X100579172Y-123372990D01*
X94919940Y-123372990D01*
X94828639Y-123354829D01*
X94737339Y-123372990D01*
X94737338Y-123372990D01*
X94466943Y-123426775D01*
X94160310Y-123631660D01*
X94108591Y-123709063D01*
X92209073Y-125608581D01*
X92131671Y-125660300D01*
X92079952Y-125737703D01*
X91926786Y-125966933D01*
X91854839Y-126328630D01*
X91873001Y-126419935D01*
X91873001Y-126651760D01*
X91759800Y-126764961D01*
X91573000Y-127215935D01*
X91573000Y-127704065D01*
X91759800Y-128155039D01*
X92104961Y-128500200D01*
X92555935Y-128687000D01*
X93044065Y-128687000D01*
X93495039Y-128500200D01*
X93527494Y-128467745D01*
X94511861Y-128467745D01*
X94585995Y-128713864D01*
X95123223Y-128906965D01*
X95693454Y-128879778D01*
X96094005Y-128713864D01*
X96168139Y-128467745D01*
X97051861Y-128467745D01*
X97125995Y-128713864D01*
X97663223Y-128906965D01*
X98233454Y-128879778D01*
X98634005Y-128713864D01*
X98708139Y-128467745D01*
X97880000Y-127639605D01*
X97051861Y-128467745D01*
X96168139Y-128467745D01*
X95340000Y-127639605D01*
X94511861Y-128467745D01*
X93527494Y-128467745D01*
X93840200Y-128155039D01*
X93950956Y-127887652D01*
X94086136Y-128214005D01*
X94332255Y-128288139D01*
X95160395Y-127460000D01*
X95519605Y-127460000D01*
X96347745Y-128288139D01*
X96593864Y-128214005D01*
X96608858Y-128172291D01*
X96626136Y-128214005D01*
X96872255Y-128288139D01*
X97700395Y-127460000D01*
X98059605Y-127460000D01*
X98887745Y-128288139D01*
X99133864Y-128214005D01*
X99259473Y-127864546D01*
X99379800Y-128155039D01*
X99724961Y-128500200D01*
X100175935Y-128687000D01*
X100664065Y-128687000D01*
X101115039Y-128500200D01*
X101460200Y-128155039D01*
X101647000Y-127704065D01*
X101647000Y-127215935D01*
X104273000Y-127215935D01*
X104273000Y-127704065D01*
X104459800Y-128155039D01*
X104804961Y-128500200D01*
X105255935Y-128687000D01*
X105744065Y-128687000D01*
X106195039Y-128500200D01*
X106540200Y-128155039D01*
X106727000Y-127704065D01*
X106727000Y-127215935D01*
X106813000Y-127215935D01*
X106813000Y-127704065D01*
X106999800Y-128155039D01*
X107344961Y-128500200D01*
X107795935Y-128687000D01*
X108284065Y-128687000D01*
X108735039Y-128500200D01*
X109080200Y-128155039D01*
X109267000Y-127704065D01*
X109267000Y-127215935D01*
X109353000Y-127215935D01*
X109353000Y-127704065D01*
X109539800Y-128155039D01*
X109884961Y-128500200D01*
X110335935Y-128687000D01*
X110824065Y-128687000D01*
X111275039Y-128500200D01*
X111620200Y-128155039D01*
X111807000Y-127704065D01*
X111807000Y-127215935D01*
X111893000Y-127215935D01*
X111893000Y-127704065D01*
X112079800Y-128155039D01*
X112424961Y-128500200D01*
X112875935Y-128687000D01*
X113364065Y-128687000D01*
X113815039Y-128500200D01*
X114160200Y-128155039D01*
X114347000Y-127704065D01*
X114347000Y-127215935D01*
X114433000Y-127215935D01*
X114433000Y-127704065D01*
X114619800Y-128155039D01*
X114964961Y-128500200D01*
X115415935Y-128687000D01*
X115904065Y-128687000D01*
X116355039Y-128500200D01*
X116700200Y-128155039D01*
X116887000Y-127704065D01*
X116887000Y-127215935D01*
X116973000Y-127215935D01*
X116973000Y-127704065D01*
X117159800Y-128155039D01*
X117504961Y-128500200D01*
X117955935Y-128687000D01*
X118444065Y-128687000D01*
X118895039Y-128500200D01*
X119240200Y-128155039D01*
X119427000Y-127704065D01*
X119427000Y-127215935D01*
X119240200Y-126764961D01*
X118895039Y-126419800D01*
X118444065Y-126233000D01*
X117955935Y-126233000D01*
X117504961Y-126419800D01*
X117159800Y-126764961D01*
X116973000Y-127215935D01*
X116887000Y-127215935D01*
X116700200Y-126764961D01*
X116355039Y-126419800D01*
X115904065Y-126233000D01*
X115415935Y-126233000D01*
X114964961Y-126419800D01*
X114619800Y-126764961D01*
X114433000Y-127215935D01*
X114347000Y-127215935D01*
X114160200Y-126764961D01*
X113815039Y-126419800D01*
X113364065Y-126233000D01*
X112875935Y-126233000D01*
X112424961Y-126419800D01*
X112079800Y-126764961D01*
X111893000Y-127215935D01*
X111807000Y-127215935D01*
X111620200Y-126764961D01*
X111275039Y-126419800D01*
X110824065Y-126233000D01*
X110335935Y-126233000D01*
X109884961Y-126419800D01*
X109539800Y-126764961D01*
X109353000Y-127215935D01*
X109267000Y-127215935D01*
X109080200Y-126764961D01*
X108735039Y-126419800D01*
X108284065Y-126233000D01*
X107795935Y-126233000D01*
X107344961Y-126419800D01*
X106999800Y-126764961D01*
X106813000Y-127215935D01*
X106727000Y-127215935D01*
X106540200Y-126764961D01*
X106195039Y-126419800D01*
X105744065Y-126233000D01*
X105255935Y-126233000D01*
X104804961Y-126419800D01*
X104459800Y-126764961D01*
X104273000Y-127215935D01*
X101647000Y-127215935D01*
X101460200Y-126764961D01*
X101115039Y-126419800D01*
X100664065Y-126233000D01*
X100175935Y-126233000D01*
X99724961Y-126419800D01*
X99379800Y-126764961D01*
X99269044Y-127032348D01*
X99133864Y-126705995D01*
X98887745Y-126631861D01*
X98059605Y-127460000D01*
X97700395Y-127460000D01*
X96872255Y-126631861D01*
X96626136Y-126705995D01*
X96611142Y-126747709D01*
X96593864Y-126705995D01*
X96347745Y-126631861D01*
X95519605Y-127460000D01*
X95160395Y-127460000D01*
X94332255Y-126631861D01*
X94086136Y-126705995D01*
X93960527Y-127055454D01*
X93840200Y-126764961D01*
X93757422Y-126682183D01*
X93987350Y-126452255D01*
X94511861Y-126452255D01*
X95340000Y-127280395D01*
X96168139Y-126452255D01*
X97051861Y-126452255D01*
X97880000Y-127280395D01*
X98708139Y-126452255D01*
X98634005Y-126206136D01*
X98096777Y-126013035D01*
X97526546Y-126040222D01*
X97125995Y-126206136D01*
X97051861Y-126452255D01*
X96168139Y-126452255D01*
X96094005Y-126206136D01*
X95556777Y-126013035D01*
X94986546Y-126040222D01*
X94585995Y-126206136D01*
X94511861Y-126452255D01*
X93987350Y-126452255D01*
X95212616Y-125226990D01*
X102048710Y-125226990D01*
X102140010Y-125245151D01*
X102231310Y-125226990D01*
X102231312Y-125226990D01*
X102501707Y-125173205D01*
X102808340Y-124968320D01*
X102860060Y-124890915D01*
X103910049Y-123840927D01*
X103910051Y-123840924D01*
X104073975Y-123677000D01*
X104114174Y-123677000D01*
X104528394Y-123505424D01*
X104845424Y-123188394D01*
X105017000Y-122774174D01*
X105017000Y-122733975D01*
X113090927Y-114660049D01*
X113168330Y-114608330D01*
X113373215Y-114301697D01*
X113427000Y-114031302D01*
X113427000Y-114031301D01*
X113445161Y-113940000D01*
X113427000Y-113848699D01*
X113427000Y-110683975D01*
X115183976Y-108927000D01*
X115919182Y-108927000D01*
X115634576Y-109211606D01*
X115463000Y-109625826D01*
X115463000Y-110074174D01*
X115634576Y-110488394D01*
X115951606Y-110805424D01*
X115963000Y-110810144D01*
X115963001Y-122873000D01*
X112761745Y-122873000D01*
X112699999Y-122860718D01*
X112638253Y-122873000D01*
X112638250Y-122873000D01*
X112455357Y-122909380D01*
X112247959Y-123047959D01*
X112212981Y-123100307D01*
X112040288Y-123273000D01*
X111935499Y-123273000D01*
X111631542Y-123398903D01*
X111398903Y-123631542D01*
X111273000Y-123935499D01*
X111273000Y-124264501D01*
X111398903Y-124568458D01*
X111631542Y-124801097D01*
X111935499Y-124927000D01*
X112264501Y-124927000D01*
X112568458Y-124801097D01*
X112801097Y-124568458D01*
X112927000Y-124264501D01*
X112927000Y-124159712D01*
X112959712Y-124127000D01*
X113429896Y-124127000D01*
X113411606Y-124134576D01*
X113094576Y-124451606D01*
X112923000Y-124865826D01*
X112923000Y-125314174D01*
X113094576Y-125728394D01*
X113411606Y-126045424D01*
X113825826Y-126217000D01*
X114274174Y-126217000D01*
X114688394Y-126045424D01*
X115005424Y-125728394D01*
X115177000Y-125314174D01*
X115177000Y-124865826D01*
X115005424Y-124451606D01*
X114688394Y-124134576D01*
X114670104Y-124127000D01*
X115963000Y-124127000D01*
X115963000Y-124129856D01*
X115951606Y-124134576D01*
X115634576Y-124451606D01*
X115463000Y-124865826D01*
X115463000Y-125314174D01*
X115634576Y-125728394D01*
X115951606Y-126045424D01*
X116365826Y-126217000D01*
X116814174Y-126217000D01*
X117228394Y-126045424D01*
X117545424Y-125728394D01*
X117717000Y-125314174D01*
X117717000Y-124865826D01*
X117545424Y-124451606D01*
X117228394Y-124134576D01*
X117217000Y-124129856D01*
X117217000Y-123761746D01*
X117229282Y-123700000D01*
X117217000Y-123638254D01*
X117217000Y-110810144D01*
X117228394Y-110805424D01*
X117545424Y-110488394D01*
X117717000Y-110074174D01*
X117717000Y-109747976D01*
X118003000Y-110033976D01*
X118003000Y-110074174D01*
X118174576Y-110488394D01*
X118491606Y-110805424D01*
X118905826Y-110977000D01*
X119354174Y-110977000D01*
X119768394Y-110805424D01*
X120085424Y-110488394D01*
X120257000Y-110074174D01*
X120257000Y-109662714D01*
X122498000Y-109662714D01*
X122498000Y-121360047D01*
X122447810Y-121238878D01*
X121881122Y-120672190D01*
X121140709Y-120365500D01*
X120339291Y-120365500D01*
X119598878Y-120672190D01*
X119032190Y-121238878D01*
X118725500Y-121979291D01*
X118725500Y-122780709D01*
X119032190Y-123521122D01*
X119558846Y-124047778D01*
X119354174Y-123963000D01*
X118905826Y-123963000D01*
X118491606Y-124134576D01*
X118174576Y-124451606D01*
X118003000Y-124865826D01*
X118003000Y-125314174D01*
X118174576Y-125728394D01*
X118491606Y-126045424D01*
X118905826Y-126217000D01*
X119354174Y-126217000D01*
X119768394Y-126045424D01*
X120085424Y-125728394D01*
X120257000Y-125314174D01*
X120257000Y-124865826D01*
X120085424Y-124451606D01*
X119808426Y-124174608D01*
X120339291Y-124394500D01*
X121140709Y-124394500D01*
X121881122Y-124087810D01*
X122447810Y-123521122D01*
X122498000Y-123399953D01*
X122498000Y-129498000D01*
X51502000Y-129498000D01*
X51502000Y-128402603D01*
X54776243Y-128402603D01*
X54874842Y-128669405D01*
X55484382Y-128895841D01*
X56134177Y-128871781D01*
X56622758Y-128669405D01*
X56721357Y-128402603D01*
X55748800Y-127430045D01*
X54776243Y-128402603D01*
X51502000Y-128402603D01*
X51502000Y-126986022D01*
X54103399Y-126986022D01*
X54127459Y-127635817D01*
X54329835Y-128124398D01*
X54596637Y-128222997D01*
X55569195Y-127250440D01*
X55928405Y-127250440D01*
X56900963Y-128222997D01*
X57167765Y-128124398D01*
X57394201Y-127514858D01*
X57373905Y-126966693D01*
X60824710Y-126966693D01*
X60824710Y-127534187D01*
X61041880Y-128058482D01*
X61443158Y-128459760D01*
X61967453Y-128676930D01*
X62534947Y-128676930D01*
X63059242Y-128459760D01*
X63460520Y-128058482D01*
X63677690Y-127534187D01*
X63677690Y-127059291D01*
X66655500Y-127059291D01*
X66655500Y-127860709D01*
X66962190Y-128601122D01*
X67528878Y-129167810D01*
X68269291Y-129474500D01*
X69070709Y-129474500D01*
X69811122Y-129167810D01*
X70377810Y-128601122D01*
X70684500Y-127860709D01*
X70684500Y-127215935D01*
X81413000Y-127215935D01*
X81413000Y-127704065D01*
X81599800Y-128155039D01*
X81944961Y-128500200D01*
X82395935Y-128687000D01*
X82884065Y-128687000D01*
X83335039Y-128500200D01*
X83680200Y-128155039D01*
X83867000Y-127704065D01*
X83867000Y-127215935D01*
X83680200Y-126764961D01*
X83335039Y-126419800D01*
X82884065Y-126233000D01*
X82395935Y-126233000D01*
X81944961Y-126419800D01*
X81599800Y-126764961D01*
X81413000Y-127215935D01*
X70684500Y-127215935D01*
X70684500Y-127059291D01*
X70377810Y-126318878D01*
X69811122Y-125752190D01*
X69070709Y-125445500D01*
X68269291Y-125445500D01*
X67528878Y-125752190D01*
X66962190Y-126318878D01*
X66655500Y-127059291D01*
X63677690Y-127059291D01*
X63677690Y-126966693D01*
X63460520Y-126442398D01*
X63059242Y-126041120D01*
X62534947Y-125823950D01*
X61967453Y-125823950D01*
X61443158Y-126041120D01*
X61041880Y-126442398D01*
X60824710Y-126966693D01*
X57373905Y-126966693D01*
X57370141Y-126865063D01*
X57167765Y-126376482D01*
X56900963Y-126277883D01*
X55928405Y-127250440D01*
X55569195Y-127250440D01*
X54596637Y-126277883D01*
X54329835Y-126376482D01*
X54103399Y-126986022D01*
X51502000Y-126986022D01*
X51502000Y-126098277D01*
X54776243Y-126098277D01*
X55748800Y-127070835D01*
X56721357Y-126098277D01*
X56622758Y-125831475D01*
X56013218Y-125605039D01*
X55363423Y-125629099D01*
X54874842Y-125831475D01*
X54776243Y-126098277D01*
X51502000Y-126098277D01*
X51502000Y-124865826D01*
X69743000Y-124865826D01*
X69743000Y-125314174D01*
X69914576Y-125728394D01*
X70231606Y-126045424D01*
X70645826Y-126217000D01*
X71094174Y-126217000D01*
X71508394Y-126045424D01*
X71825424Y-125728394D01*
X71997000Y-125314174D01*
X71997000Y-124865826D01*
X72283000Y-124865826D01*
X72283000Y-125314174D01*
X72454576Y-125728394D01*
X72771606Y-126045424D01*
X73185826Y-126217000D01*
X73634174Y-126217000D01*
X74048394Y-126045424D01*
X74365424Y-125728394D01*
X74537000Y-125314174D01*
X74537000Y-124865826D01*
X74823000Y-124865826D01*
X74823000Y-125314174D01*
X74994576Y-125728394D01*
X75311606Y-126045424D01*
X75725826Y-126217000D01*
X76174174Y-126217000D01*
X76588394Y-126045424D01*
X76905424Y-125728394D01*
X77077000Y-125314174D01*
X77077000Y-124865826D01*
X76905424Y-124451606D01*
X76588394Y-124134576D01*
X76174174Y-123963000D01*
X75725826Y-123963000D01*
X75311606Y-124134576D01*
X74994576Y-124451606D01*
X74823000Y-124865826D01*
X74537000Y-124865826D01*
X74365424Y-124451606D01*
X74048394Y-124134576D01*
X73634174Y-123963000D01*
X73185826Y-123963000D01*
X72771606Y-124134576D01*
X72454576Y-124451606D01*
X72283000Y-124865826D01*
X71997000Y-124865826D01*
X71825424Y-124451606D01*
X71508394Y-124134576D01*
X71094174Y-123963000D01*
X70645826Y-123963000D01*
X70231606Y-124134576D01*
X69914576Y-124451606D01*
X69743000Y-124865826D01*
X51502000Y-124865826D01*
X51502000Y-122465813D01*
X54322310Y-122465813D01*
X54322310Y-123033307D01*
X54539480Y-123557602D01*
X54940758Y-123958880D01*
X55465053Y-124176050D01*
X56032547Y-124176050D01*
X56556842Y-123958880D01*
X56613999Y-123901723D01*
X61278643Y-123901723D01*
X61377242Y-124168525D01*
X61986782Y-124394961D01*
X62636577Y-124370901D01*
X63125158Y-124168525D01*
X63223757Y-123901723D01*
X62251200Y-122929165D01*
X61278643Y-123901723D01*
X56613999Y-123901723D01*
X56958120Y-123557602D01*
X57175290Y-123033307D01*
X57175290Y-122485142D01*
X60605799Y-122485142D01*
X60629859Y-123134937D01*
X60832235Y-123623518D01*
X61099037Y-123722117D01*
X62071595Y-122749560D01*
X62430805Y-122749560D01*
X63403363Y-123722117D01*
X63670165Y-123623518D01*
X63896601Y-123013978D01*
X63872541Y-122364183D01*
X63856654Y-122325826D01*
X69743000Y-122325826D01*
X69743000Y-122774174D01*
X69914576Y-123188394D01*
X70231606Y-123505424D01*
X70645826Y-123677000D01*
X71094174Y-123677000D01*
X71508394Y-123505424D01*
X71825424Y-123188394D01*
X71997000Y-122774174D01*
X71997000Y-122325826D01*
X72283000Y-122325826D01*
X72283000Y-122774174D01*
X72454576Y-123188394D01*
X72771606Y-123505424D01*
X73185826Y-123677000D01*
X73634174Y-123677000D01*
X73734366Y-123635499D01*
X82973000Y-123635499D01*
X82973000Y-123964501D01*
X83098903Y-124268458D01*
X83273000Y-124442555D01*
X83273001Y-126028098D01*
X83262677Y-126080000D01*
X83303578Y-126285625D01*
X83390654Y-126415944D01*
X83390658Y-126415948D01*
X83420056Y-126459945D01*
X83464053Y-126489343D01*
X84022605Y-127047895D01*
X83953000Y-127215935D01*
X83953000Y-127704065D01*
X84139800Y-128155039D01*
X84484961Y-128500200D01*
X84935935Y-128687000D01*
X85424065Y-128687000D01*
X85875039Y-128500200D01*
X86220200Y-128155039D01*
X86407000Y-127704065D01*
X86407000Y-127215935D01*
X86220200Y-126764961D01*
X85875039Y-126419800D01*
X85424065Y-126233000D01*
X84935935Y-126233000D01*
X84767895Y-126302605D01*
X84327000Y-125861710D01*
X84327000Y-124442555D01*
X84501097Y-124268458D01*
X84627000Y-123964501D01*
X84627000Y-123635499D01*
X84501097Y-123331542D01*
X84374580Y-123205025D01*
X85144106Y-122435499D01*
X85773000Y-122435499D01*
X85773000Y-122764501D01*
X85898903Y-123068458D01*
X86131542Y-123301097D01*
X86343675Y-123388965D01*
X86673000Y-123718291D01*
X86673000Y-123948098D01*
X86673001Y-126781375D01*
X86493000Y-127215935D01*
X86493000Y-127704065D01*
X86679800Y-128155039D01*
X87024961Y-128500200D01*
X87475935Y-128687000D01*
X87964065Y-128687000D01*
X88415039Y-128500200D01*
X88760200Y-128155039D01*
X88947000Y-127704065D01*
X88947000Y-127215935D01*
X89033000Y-127215935D01*
X89033000Y-127704065D01*
X89219800Y-128155039D01*
X89564961Y-128500200D01*
X90015935Y-128687000D01*
X90504065Y-128687000D01*
X90955039Y-128500200D01*
X91300200Y-128155039D01*
X91487000Y-127704065D01*
X91487000Y-127215935D01*
X91300200Y-126764961D01*
X90955039Y-126419800D01*
X90504065Y-126233000D01*
X90015935Y-126233000D01*
X89564961Y-126419800D01*
X89219800Y-126764961D01*
X89033000Y-127215935D01*
X88947000Y-127215935D01*
X88760200Y-126764961D01*
X88415039Y-126419800D01*
X87964065Y-126233000D01*
X87727000Y-126233000D01*
X87727000Y-123551897D01*
X87737323Y-123499999D01*
X87727000Y-123448101D01*
X87727000Y-123448097D01*
X87696423Y-123294375D01*
X87665409Y-123247959D01*
X87609346Y-123164055D01*
X87609343Y-123164052D01*
X87579945Y-123120055D01*
X87535947Y-123090656D01*
X87363381Y-122918091D01*
X87427000Y-122764501D01*
X87427000Y-122435499D01*
X87301097Y-122131542D01*
X87068458Y-121898903D01*
X86764501Y-121773000D01*
X86435499Y-121773000D01*
X86131542Y-121898903D01*
X85898903Y-122131542D01*
X85773000Y-122435499D01*
X85144106Y-122435499D01*
X88205025Y-119374580D01*
X88231542Y-119401097D01*
X88535499Y-119527000D01*
X88864501Y-119527000D01*
X89168458Y-119401097D01*
X89401097Y-119168458D01*
X89527000Y-118864501D01*
X89527000Y-118535499D01*
X89401097Y-118231542D01*
X89168458Y-117998903D01*
X88864501Y-117873000D01*
X88535499Y-117873000D01*
X88231542Y-117998903D01*
X88051246Y-118179199D01*
X87928690Y-118203577D01*
X87928688Y-118203578D01*
X87928689Y-118203578D01*
X87798370Y-118290654D01*
X87798367Y-118290657D01*
X87754370Y-118320055D01*
X87724972Y-118364052D01*
X83464055Y-122624970D01*
X83420055Y-122654370D01*
X83303577Y-122828691D01*
X83273000Y-122982413D01*
X83273000Y-122982417D01*
X83262677Y-123034315D01*
X83273000Y-123086213D01*
X83273000Y-123157445D01*
X83098903Y-123331542D01*
X82973000Y-123635499D01*
X73734366Y-123635499D01*
X74048394Y-123505424D01*
X74365424Y-123188394D01*
X74537000Y-122774174D01*
X74537000Y-122325826D01*
X74365424Y-121911606D01*
X74155290Y-121701472D01*
X75729763Y-120127000D01*
X79157445Y-120127000D01*
X79231542Y-120201097D01*
X79535499Y-120327000D01*
X79864501Y-120327000D01*
X80168458Y-120201097D01*
X80401097Y-119968458D01*
X80527000Y-119664501D01*
X80527000Y-119335499D01*
X80401097Y-119031542D01*
X80168458Y-118798903D01*
X79864501Y-118673000D01*
X79535499Y-118673000D01*
X79231542Y-118798903D01*
X79157445Y-118873000D01*
X75531796Y-118873000D01*
X75470050Y-118860718D01*
X75408304Y-118873000D01*
X75408301Y-118873000D01*
X75225408Y-118909380D01*
X75018010Y-119047959D01*
X74983032Y-119100307D01*
X73010307Y-121073033D01*
X72957960Y-121108010D01*
X72922982Y-121160358D01*
X72922981Y-121160359D01*
X72819380Y-121315409D01*
X72770718Y-121560051D01*
X72777130Y-121592288D01*
X72771606Y-121594576D01*
X72454576Y-121911606D01*
X72283000Y-122325826D01*
X71997000Y-122325826D01*
X71825424Y-121911606D01*
X71508394Y-121594576D01*
X71094174Y-121423000D01*
X70645826Y-121423000D01*
X70231606Y-121594576D01*
X69914576Y-121911606D01*
X69743000Y-122325826D01*
X63856654Y-122325826D01*
X63670165Y-121875602D01*
X63403363Y-121777003D01*
X62430805Y-122749560D01*
X62071595Y-122749560D01*
X61099037Y-121777003D01*
X60832235Y-121875602D01*
X60605799Y-122485142D01*
X57175290Y-122485142D01*
X57175290Y-122465813D01*
X56958120Y-121941518D01*
X56613999Y-121597397D01*
X61278643Y-121597397D01*
X62251200Y-122569955D01*
X63223757Y-121597397D01*
X63125158Y-121330595D01*
X62515618Y-121104159D01*
X61865823Y-121128219D01*
X61377242Y-121330595D01*
X61278643Y-121597397D01*
X56613999Y-121597397D01*
X56556842Y-121540240D01*
X56032547Y-121323070D01*
X55465053Y-121323070D01*
X54940758Y-121540240D01*
X54539480Y-121941518D01*
X54322310Y-122465813D01*
X51502000Y-122465813D01*
X51502000Y-113402603D01*
X54776243Y-113402603D01*
X54874842Y-113669405D01*
X55484382Y-113895841D01*
X56134177Y-113871781D01*
X56622758Y-113669405D01*
X56721357Y-113402603D01*
X55748800Y-112430045D01*
X54776243Y-113402603D01*
X51502000Y-113402603D01*
X51502000Y-111986022D01*
X54103399Y-111986022D01*
X54127459Y-112635817D01*
X54329835Y-113124398D01*
X54596637Y-113222997D01*
X55569195Y-112250440D01*
X55928405Y-112250440D01*
X56900963Y-113222997D01*
X57167765Y-113124398D01*
X57394201Y-112514858D01*
X57373905Y-111966693D01*
X60824710Y-111966693D01*
X60824710Y-112534187D01*
X61041880Y-113058482D01*
X61443158Y-113459760D01*
X61967453Y-113676930D01*
X62534947Y-113676930D01*
X63059242Y-113459760D01*
X63460520Y-113058482D01*
X63677690Y-112534187D01*
X63677690Y-111966693D01*
X63460520Y-111442398D01*
X63059242Y-111041120D01*
X62534947Y-110823950D01*
X61967453Y-110823950D01*
X61443158Y-111041120D01*
X61041880Y-111442398D01*
X60824710Y-111966693D01*
X57373905Y-111966693D01*
X57370141Y-111865063D01*
X57167765Y-111376482D01*
X56900963Y-111277883D01*
X55928405Y-112250440D01*
X55569195Y-112250440D01*
X54596637Y-111277883D01*
X54329835Y-111376482D01*
X54103399Y-111986022D01*
X51502000Y-111986022D01*
X51502000Y-111098277D01*
X54776243Y-111098277D01*
X55748800Y-112070835D01*
X56721357Y-111098277D01*
X56622758Y-110831475D01*
X56013218Y-110605039D01*
X55363423Y-110629099D01*
X54874842Y-110831475D01*
X54776243Y-111098277D01*
X51502000Y-111098277D01*
X51502000Y-109625826D01*
X69743000Y-109625826D01*
X69743000Y-110074174D01*
X69914576Y-110488394D01*
X70231606Y-110805424D01*
X70645826Y-110977000D01*
X71094174Y-110977000D01*
X71508394Y-110805424D01*
X71825424Y-110488394D01*
X71997000Y-110074174D01*
X71997000Y-109625826D01*
X72283000Y-109625826D01*
X72283000Y-110074174D01*
X72454576Y-110488394D01*
X72771606Y-110805424D01*
X73185826Y-110977000D01*
X73634174Y-110977000D01*
X74048394Y-110805424D01*
X74365424Y-110488394D01*
X74537000Y-110074174D01*
X74537000Y-109625826D01*
X74365424Y-109211606D01*
X74048394Y-108894576D01*
X73634174Y-108723000D01*
X73185826Y-108723000D01*
X72771606Y-108894576D01*
X72454576Y-109211606D01*
X72283000Y-109625826D01*
X71997000Y-109625826D01*
X71825424Y-109211606D01*
X71508394Y-108894576D01*
X71094174Y-108723000D01*
X70645826Y-108723000D01*
X70231606Y-108894576D01*
X69914576Y-109211606D01*
X69743000Y-109625826D01*
X51502000Y-109625826D01*
X51502000Y-107465813D01*
X54322310Y-107465813D01*
X54322310Y-108033307D01*
X54539480Y-108557602D01*
X54940758Y-108958880D01*
X55465053Y-109176050D01*
X56032547Y-109176050D01*
X56556842Y-108958880D01*
X56613999Y-108901723D01*
X61278643Y-108901723D01*
X61377242Y-109168525D01*
X61986782Y-109394961D01*
X62636577Y-109370901D01*
X63125158Y-109168525D01*
X63223757Y-108901723D01*
X62251200Y-107929165D01*
X61278643Y-108901723D01*
X56613999Y-108901723D01*
X56958120Y-108557602D01*
X57175290Y-108033307D01*
X57175290Y-107485142D01*
X60605799Y-107485142D01*
X60629859Y-108134937D01*
X60832235Y-108623518D01*
X61099037Y-108722117D01*
X62071595Y-107749560D01*
X62430805Y-107749560D01*
X63403363Y-108722117D01*
X63670165Y-108623518D01*
X63896601Y-108013978D01*
X63886235Y-107734000D01*
X83723000Y-107734000D01*
X83723000Y-110688000D01*
X108077000Y-110688000D01*
X108077000Y-107734000D01*
X83723000Y-107734000D01*
X63886235Y-107734000D01*
X63872541Y-107364183D01*
X63670165Y-106875602D01*
X63403363Y-106777003D01*
X62430805Y-107749560D01*
X62071595Y-107749560D01*
X61099037Y-106777003D01*
X60832235Y-106875602D01*
X60605799Y-107485142D01*
X57175290Y-107485142D01*
X57175290Y-107465813D01*
X56958120Y-106941518D01*
X56613999Y-106597397D01*
X61278643Y-106597397D01*
X62251200Y-107569955D01*
X63223757Y-106597397D01*
X63125158Y-106330595D01*
X62869171Y-106235499D01*
X68373000Y-106235499D01*
X68373000Y-106564501D01*
X68498903Y-106868458D01*
X68731542Y-107101097D01*
X69035499Y-107227000D01*
X69364501Y-107227000D01*
X69668458Y-107101097D01*
X69901097Y-106868458D01*
X70027000Y-106564501D01*
X70027000Y-106318290D01*
X72018291Y-104327000D01*
X72264501Y-104327000D01*
X72568458Y-104201097D01*
X72801097Y-103968458D01*
X72927000Y-103664501D01*
X72927000Y-103335499D01*
X72801097Y-103031542D01*
X72568458Y-102798903D01*
X72264501Y-102673000D01*
X71935499Y-102673000D01*
X71631542Y-102798903D01*
X71398903Y-103031542D01*
X71273000Y-103335499D01*
X71273000Y-103581709D01*
X69281710Y-105573000D01*
X69035499Y-105573000D01*
X68731542Y-105698903D01*
X68498903Y-105931542D01*
X68373000Y-106235499D01*
X62869171Y-106235499D01*
X62515618Y-106104159D01*
X61865823Y-106128219D01*
X61377242Y-106330595D01*
X61278643Y-106597397D01*
X56613999Y-106597397D01*
X56556842Y-106540240D01*
X56032547Y-106323070D01*
X55465053Y-106323070D01*
X54940758Y-106540240D01*
X54539480Y-106941518D01*
X54322310Y-107465813D01*
X51502000Y-107465813D01*
X51502000Y-103966922D01*
X51540240Y-104059242D01*
X51941518Y-104460520D01*
X52465813Y-104677690D01*
X53033307Y-104677690D01*
X53557602Y-104460520D01*
X53614759Y-104403363D01*
X56277883Y-104403363D01*
X56376482Y-104670165D01*
X56986022Y-104896601D01*
X57635817Y-104872541D01*
X58124398Y-104670165D01*
X58222997Y-104403363D01*
X57250440Y-103430805D01*
X56277883Y-104403363D01*
X53614759Y-104403363D01*
X53958880Y-104059242D01*
X54176050Y-103534947D01*
X54176050Y-102986782D01*
X55605039Y-102986782D01*
X55629099Y-103636577D01*
X55831475Y-104125158D01*
X56098277Y-104223757D01*
X57070835Y-103251200D01*
X57430045Y-103251200D01*
X58402603Y-104223757D01*
X58669405Y-104125158D01*
X58895841Y-103515618D01*
X58875545Y-102967453D01*
X59323070Y-102967453D01*
X59323070Y-103534947D01*
X59540240Y-104059242D01*
X59941518Y-104460520D01*
X60465813Y-104677690D01*
X61033307Y-104677690D01*
X61557602Y-104460520D01*
X61614759Y-104403363D01*
X64277883Y-104403363D01*
X64376482Y-104670165D01*
X64986022Y-104896601D01*
X65635817Y-104872541D01*
X66124398Y-104670165D01*
X66222997Y-104403363D01*
X65250440Y-103430805D01*
X64277883Y-104403363D01*
X61614759Y-104403363D01*
X61958880Y-104059242D01*
X62176050Y-103534947D01*
X62176050Y-102986782D01*
X63605039Y-102986782D01*
X63629099Y-103636577D01*
X63831475Y-104125158D01*
X64098277Y-104223757D01*
X65070835Y-103251200D01*
X65430045Y-103251200D01*
X66402603Y-104223757D01*
X66669405Y-104125158D01*
X66895841Y-103515618D01*
X66871781Y-102865823D01*
X66669405Y-102377242D01*
X66402603Y-102278643D01*
X65430045Y-103251200D01*
X65070835Y-103251200D01*
X64098277Y-102278643D01*
X63831475Y-102377242D01*
X63605039Y-102986782D01*
X62176050Y-102986782D01*
X62176050Y-102967453D01*
X61958880Y-102443158D01*
X61614759Y-102099037D01*
X64277883Y-102099037D01*
X65250440Y-103071595D01*
X66222997Y-102099037D01*
X66124398Y-101832235D01*
X65514858Y-101605799D01*
X64865063Y-101629859D01*
X64376482Y-101832235D01*
X64277883Y-102099037D01*
X61614759Y-102099037D01*
X61557602Y-102041880D01*
X61033307Y-101824710D01*
X60465813Y-101824710D01*
X59941518Y-102041880D01*
X59540240Y-102443158D01*
X59323070Y-102967453D01*
X58875545Y-102967453D01*
X58871781Y-102865823D01*
X58669405Y-102377242D01*
X58402603Y-102278643D01*
X57430045Y-103251200D01*
X57070835Y-103251200D01*
X56098277Y-102278643D01*
X55831475Y-102377242D01*
X55605039Y-102986782D01*
X54176050Y-102986782D01*
X54176050Y-102967453D01*
X53958880Y-102443158D01*
X53614759Y-102099037D01*
X56277883Y-102099037D01*
X57250440Y-103071595D01*
X58222997Y-102099037D01*
X58124398Y-101832235D01*
X57514858Y-101605799D01*
X56865063Y-101629859D01*
X56376482Y-101832235D01*
X56277883Y-102099037D01*
X53614759Y-102099037D01*
X53557602Y-102041880D01*
X53033307Y-101824710D01*
X52465813Y-101824710D01*
X51941518Y-102041880D01*
X51540240Y-102443158D01*
X51502000Y-102535478D01*
X51502000Y-97900963D01*
X51777003Y-97900963D01*
X51875602Y-98167765D01*
X52485142Y-98394201D01*
X53134937Y-98370141D01*
X53623518Y-98167765D01*
X53722117Y-97900963D01*
X52749560Y-96928405D01*
X51777003Y-97900963D01*
X51502000Y-97900963D01*
X51502000Y-97686102D01*
X51597397Y-97721357D01*
X52569955Y-96748800D01*
X52929165Y-96748800D01*
X53901723Y-97721357D01*
X54168525Y-97622758D01*
X54394961Y-97013218D01*
X54374665Y-96465053D01*
X55823950Y-96465053D01*
X55823950Y-97032547D01*
X56041120Y-97556842D01*
X56442398Y-97958120D01*
X56966693Y-98175290D01*
X57534187Y-98175290D01*
X58058482Y-97958120D01*
X58115639Y-97900963D01*
X59777003Y-97900963D01*
X59875602Y-98167765D01*
X60485142Y-98394201D01*
X61134937Y-98370141D01*
X61623518Y-98167765D01*
X61722117Y-97900963D01*
X60749560Y-96928405D01*
X59777003Y-97900963D01*
X58115639Y-97900963D01*
X58459760Y-97556842D01*
X58676930Y-97032547D01*
X58676930Y-96484382D01*
X59104159Y-96484382D01*
X59128219Y-97134177D01*
X59330595Y-97622758D01*
X59597397Y-97721357D01*
X60569955Y-96748800D01*
X60929165Y-96748800D01*
X61901723Y-97721357D01*
X62168525Y-97622758D01*
X62394961Y-97013218D01*
X62374665Y-96465053D01*
X63823950Y-96465053D01*
X63823950Y-97032547D01*
X64041120Y-97556842D01*
X64442398Y-97958120D01*
X64966693Y-98175290D01*
X65534187Y-98175290D01*
X66058482Y-97958120D01*
X66459760Y-97556842D01*
X66592864Y-97235499D01*
X78673000Y-97235499D01*
X78673000Y-97564501D01*
X78798903Y-97868458D01*
X79031542Y-98101097D01*
X79335499Y-98227000D01*
X79664501Y-98227000D01*
X79958120Y-98105379D01*
X80094375Y-98196423D01*
X80248097Y-98227000D01*
X80248101Y-98227000D01*
X80299999Y-98237323D01*
X80351897Y-98227000D01*
X88448102Y-98227000D01*
X88500000Y-98237323D01*
X88551898Y-98227000D01*
X88551903Y-98227000D01*
X88705625Y-98196423D01*
X88879945Y-98079945D01*
X88909345Y-98035945D01*
X93535948Y-93409343D01*
X93579945Y-93379945D01*
X93609343Y-93335948D01*
X93609346Y-93335945D01*
X93696423Y-93205626D01*
X93716853Y-93102915D01*
X93727000Y-93051903D01*
X93727000Y-93051899D01*
X93737323Y-93000000D01*
X93727000Y-92948101D01*
X93727000Y-92740637D01*
X93935499Y-92827000D01*
X94264501Y-92827000D01*
X94568458Y-92701097D01*
X94801097Y-92468458D01*
X94814749Y-92435499D01*
X102673000Y-92435499D01*
X102673000Y-92764501D01*
X102798903Y-93068458D01*
X103031542Y-93301097D01*
X103335499Y-93427000D01*
X103440289Y-93427000D01*
X104812981Y-94799693D01*
X104847959Y-94852041D01*
X105055357Y-94990620D01*
X105238250Y-95027000D01*
X105238254Y-95027000D01*
X105299999Y-95039282D01*
X105361744Y-95027000D01*
X112657445Y-95027000D01*
X112731542Y-95101097D01*
X113035499Y-95227000D01*
X113364501Y-95227000D01*
X113668458Y-95101097D01*
X113901097Y-94868458D01*
X114027000Y-94564501D01*
X114027000Y-94235499D01*
X113901097Y-93931542D01*
X113668458Y-93698903D01*
X113364501Y-93573000D01*
X113035499Y-93573000D01*
X112731542Y-93698903D01*
X112657445Y-93773000D01*
X105559712Y-93773000D01*
X104327000Y-92540289D01*
X104327000Y-92435499D01*
X104201097Y-92131542D01*
X103968458Y-91898903D01*
X103664501Y-91773000D01*
X103335499Y-91773000D01*
X103031542Y-91898903D01*
X102798903Y-92131542D01*
X102673000Y-92435499D01*
X94814749Y-92435499D01*
X94927000Y-92164501D01*
X94927000Y-91835499D01*
X94801097Y-91531542D01*
X94568458Y-91298903D01*
X94327000Y-91198888D01*
X94327000Y-91118290D01*
X97718281Y-87727010D01*
X103048092Y-87727010D01*
X103099990Y-87737333D01*
X103151888Y-87727010D01*
X103151893Y-87727010D01*
X103305615Y-87696433D01*
X103479935Y-87579955D01*
X103509335Y-87535955D01*
X105435947Y-85609343D01*
X105479945Y-85579945D01*
X105509343Y-85535948D01*
X105509346Y-85535945D01*
X105596422Y-85405626D01*
X105596423Y-85405625D01*
X105627000Y-85251903D01*
X105627000Y-85251899D01*
X105637323Y-85200001D01*
X105627000Y-85148103D01*
X105627000Y-82892608D01*
X105674331Y-82845277D01*
X105736169Y-83081042D01*
X106237122Y-83257419D01*
X106767440Y-83228664D01*
X107123831Y-83081042D01*
X107185669Y-82845275D01*
X106430000Y-82089605D01*
X106415858Y-82103748D01*
X106236252Y-81924142D01*
X106250395Y-81910000D01*
X106609605Y-81910000D01*
X107365275Y-82665669D01*
X107601042Y-82603831D01*
X107777419Y-82102878D01*
X107754806Y-81685826D01*
X107843000Y-81685826D01*
X107843000Y-82134174D01*
X108014576Y-82548394D01*
X108331606Y-82865424D01*
X108745826Y-83037000D01*
X109194174Y-83037000D01*
X109608394Y-82865424D01*
X109925424Y-82548394D01*
X110097000Y-82134174D01*
X110097000Y-81685826D01*
X110383000Y-81685826D01*
X110383000Y-82134174D01*
X110554576Y-82548394D01*
X110871606Y-82865424D01*
X111285826Y-83037000D01*
X111734174Y-83037000D01*
X112148394Y-82865424D01*
X112465424Y-82548394D01*
X112637000Y-82134174D01*
X112637000Y-81685826D01*
X112923000Y-81685826D01*
X112923000Y-82134174D01*
X113094576Y-82548394D01*
X113411606Y-82865424D01*
X113825826Y-83037000D01*
X114274174Y-83037000D01*
X114688394Y-82865424D01*
X115005424Y-82548394D01*
X115177000Y-82134174D01*
X115177000Y-81685826D01*
X115463000Y-81685826D01*
X115463000Y-82134174D01*
X115634576Y-82548394D01*
X115951606Y-82865424D01*
X116365826Y-83037000D01*
X116814174Y-83037000D01*
X117228394Y-82865424D01*
X117545424Y-82548394D01*
X117717000Y-82134174D01*
X117717000Y-81685826D01*
X118003000Y-81685826D01*
X118003000Y-82134174D01*
X118174576Y-82548394D01*
X118491606Y-82865424D01*
X118905826Y-83037000D01*
X119354174Y-83037000D01*
X119768394Y-82865424D01*
X120085424Y-82548394D01*
X120257000Y-82134174D01*
X120257000Y-81685826D01*
X120085424Y-81271606D01*
X119768394Y-80954576D01*
X119354174Y-80783000D01*
X118905826Y-80783000D01*
X118491606Y-80954576D01*
X118174576Y-81271606D01*
X118003000Y-81685826D01*
X117717000Y-81685826D01*
X117545424Y-81271606D01*
X117228394Y-80954576D01*
X116814174Y-80783000D01*
X116365826Y-80783000D01*
X115951606Y-80954576D01*
X115634576Y-81271606D01*
X115463000Y-81685826D01*
X115177000Y-81685826D01*
X115005424Y-81271606D01*
X114688394Y-80954576D01*
X114274174Y-80783000D01*
X113825826Y-80783000D01*
X113411606Y-80954576D01*
X113094576Y-81271606D01*
X112923000Y-81685826D01*
X112637000Y-81685826D01*
X112465424Y-81271606D01*
X112148394Y-80954576D01*
X111734174Y-80783000D01*
X111285826Y-80783000D01*
X110871606Y-80954576D01*
X110554576Y-81271606D01*
X110383000Y-81685826D01*
X110097000Y-81685826D01*
X109925424Y-81271606D01*
X109608394Y-80954576D01*
X109194174Y-80783000D01*
X108745826Y-80783000D01*
X108331606Y-80954576D01*
X108014576Y-81271606D01*
X107843000Y-81685826D01*
X107754806Y-81685826D01*
X107748664Y-81572560D01*
X107601042Y-81216169D01*
X107365275Y-81154331D01*
X106609605Y-81910000D01*
X106250395Y-81910000D01*
X106236252Y-81895858D01*
X106415858Y-81716252D01*
X106430000Y-81730395D01*
X107185669Y-80974725D01*
X107123831Y-80738958D01*
X106622878Y-80562581D01*
X106092560Y-80591336D01*
X105909427Y-80667192D01*
X105996423Y-80536995D01*
X106027000Y-80383273D01*
X106027000Y-80383269D01*
X106037323Y-80331371D01*
X106032574Y-80307495D01*
X106195039Y-80240200D01*
X106540200Y-79895039D01*
X106727000Y-79444065D01*
X106727000Y-78955935D01*
X106813000Y-78955935D01*
X106813000Y-79444065D01*
X106999800Y-79895039D01*
X107344961Y-80240200D01*
X107795935Y-80427000D01*
X108284065Y-80427000D01*
X108735039Y-80240200D01*
X109080200Y-79895039D01*
X109267000Y-79444065D01*
X109267000Y-78955935D01*
X109353000Y-78955935D01*
X109353000Y-79444065D01*
X109539800Y-79895039D01*
X109884961Y-80240200D01*
X110335935Y-80427000D01*
X110824065Y-80427000D01*
X111275039Y-80240200D01*
X111620200Y-79895039D01*
X111807000Y-79444065D01*
X111807000Y-78955935D01*
X111893000Y-78955935D01*
X111893000Y-79444065D01*
X112079800Y-79895039D01*
X112424961Y-80240200D01*
X112875935Y-80427000D01*
X113364065Y-80427000D01*
X113815039Y-80240200D01*
X114160200Y-79895039D01*
X114347000Y-79444065D01*
X114347000Y-78955935D01*
X114433000Y-78955935D01*
X114433000Y-79444065D01*
X114619800Y-79895039D01*
X114964961Y-80240200D01*
X115415935Y-80427000D01*
X115904065Y-80427000D01*
X116355039Y-80240200D01*
X116700200Y-79895039D01*
X116887000Y-79444065D01*
X116887000Y-78955935D01*
X116973000Y-78955935D01*
X116973000Y-79444065D01*
X117159800Y-79895039D01*
X117504961Y-80240200D01*
X117955935Y-80427000D01*
X118444065Y-80427000D01*
X118895039Y-80240200D01*
X119240200Y-79895039D01*
X119427000Y-79444065D01*
X119427000Y-78955935D01*
X119240200Y-78504961D01*
X118895039Y-78159800D01*
X118444065Y-77973000D01*
X117955935Y-77973000D01*
X117504961Y-78159800D01*
X117159800Y-78504961D01*
X116973000Y-78955935D01*
X116887000Y-78955935D01*
X116700200Y-78504961D01*
X116355039Y-78159800D01*
X115904065Y-77973000D01*
X115415935Y-77973000D01*
X114964961Y-78159800D01*
X114619800Y-78504961D01*
X114433000Y-78955935D01*
X114347000Y-78955935D01*
X114160200Y-78504961D01*
X113815039Y-78159800D01*
X113364065Y-77973000D01*
X112875935Y-77973000D01*
X112424961Y-78159800D01*
X112079800Y-78504961D01*
X111893000Y-78955935D01*
X111807000Y-78955935D01*
X111620200Y-78504961D01*
X111275039Y-78159800D01*
X110824065Y-77973000D01*
X110335935Y-77973000D01*
X109884961Y-78159800D01*
X109539800Y-78504961D01*
X109353000Y-78955935D01*
X109267000Y-78955935D01*
X109080200Y-78504961D01*
X108735039Y-78159800D01*
X108284065Y-77973000D01*
X107795935Y-77973000D01*
X107344961Y-78159800D01*
X106999800Y-78504961D01*
X106813000Y-78955935D01*
X106727000Y-78955935D01*
X106540200Y-78504961D01*
X106195039Y-78159800D01*
X105744065Y-77973000D01*
X105255935Y-77973000D01*
X104804961Y-78159800D01*
X104459800Y-78504961D01*
X104273000Y-78955935D01*
X104273000Y-79444065D01*
X104459800Y-79895039D01*
X104804961Y-80240200D01*
X104833895Y-80252185D01*
X104764055Y-80322025D01*
X104720055Y-80351425D01*
X104690655Y-80395425D01*
X104690654Y-80395426D01*
X104669557Y-80427000D01*
X104603577Y-80525746D01*
X104573000Y-80679468D01*
X104573000Y-80679472D01*
X104562677Y-80731370D01*
X104573000Y-80783268D01*
X104573000Y-80999182D01*
X104528394Y-80954576D01*
X104114174Y-80783000D01*
X103665826Y-80783000D01*
X103251606Y-80954576D01*
X103027000Y-81179182D01*
X103027000Y-81009660D01*
X103295947Y-80740714D01*
X103339945Y-80711315D01*
X103369343Y-80667318D01*
X103369346Y-80667315D01*
X103456422Y-80536996D01*
X103456423Y-80536995D01*
X103487000Y-80383273D01*
X103487000Y-80383269D01*
X103497323Y-80331371D01*
X103492574Y-80307495D01*
X103655039Y-80240200D01*
X104000200Y-79895039D01*
X104187000Y-79444065D01*
X104187000Y-78955935D01*
X104000200Y-78504961D01*
X103655039Y-78159800D01*
X103204065Y-77973000D01*
X102715935Y-77973000D01*
X102264961Y-78159800D01*
X101919800Y-78504961D01*
X101733000Y-78955935D01*
X101733000Y-79444065D01*
X101919800Y-79895039D01*
X102264961Y-80240200D01*
X102293895Y-80252185D01*
X102164055Y-80382025D01*
X102120055Y-80411425D01*
X102090655Y-80455425D01*
X102090654Y-80455426D01*
X102064916Y-80493946D01*
X102003577Y-80585746D01*
X101973000Y-80739468D01*
X101973000Y-80739472D01*
X101962677Y-80791370D01*
X101973000Y-80843268D01*
X101973000Y-80948200D01*
X101574174Y-80783000D01*
X101125826Y-80783000D01*
X100711606Y-80954576D01*
X100527000Y-81139182D01*
X100527000Y-80969660D01*
X100755948Y-80740713D01*
X100799945Y-80711315D01*
X100829343Y-80667318D01*
X100829346Y-80667315D01*
X100916423Y-80536996D01*
X100932648Y-80455426D01*
X100947000Y-80383273D01*
X100947000Y-80383269D01*
X100957323Y-80331370D01*
X100952574Y-80307495D01*
X101115039Y-80240200D01*
X101460200Y-79895039D01*
X101647000Y-79444065D01*
X101647000Y-78955935D01*
X101460200Y-78504961D01*
X101115039Y-78159800D01*
X100664065Y-77973000D01*
X100175935Y-77973000D01*
X99724961Y-78159800D01*
X99379800Y-78504961D01*
X99193000Y-78955935D01*
X99193000Y-79444065D01*
X99379800Y-79895039D01*
X99724961Y-80240200D01*
X99753895Y-80252185D01*
X99664053Y-80342027D01*
X99620056Y-80371425D01*
X99590658Y-80415422D01*
X99590654Y-80415426D01*
X99503578Y-80545745D01*
X99462677Y-80751370D01*
X99473001Y-80803273D01*
X99473001Y-80979183D01*
X99448394Y-80954576D01*
X99034174Y-80783000D01*
X98585826Y-80783000D01*
X98171606Y-80954576D01*
X97854576Y-81271606D01*
X97683000Y-81685826D01*
X97683000Y-82134174D01*
X97854576Y-82548394D01*
X98171606Y-82865424D01*
X98585826Y-83037000D01*
X99034174Y-83037000D01*
X99448394Y-82865424D01*
X99473001Y-82840817D01*
X99473000Y-83519182D01*
X99448394Y-83494576D01*
X99034174Y-83323000D01*
X98585826Y-83323000D01*
X98171606Y-83494576D01*
X97854576Y-83811606D01*
X97683000Y-84225826D01*
X97683000Y-84674174D01*
X97854576Y-85088394D01*
X98171606Y-85405424D01*
X98585826Y-85577000D01*
X99034174Y-85577000D01*
X99448394Y-85405424D01*
X99473000Y-85380818D01*
X99473000Y-85481709D01*
X99181710Y-85773000D01*
X97251897Y-85773000D01*
X97199999Y-85762677D01*
X97148101Y-85773000D01*
X97148097Y-85773000D01*
X96994375Y-85803577D01*
X96994373Y-85803578D01*
X96994374Y-85803578D01*
X96864055Y-85890654D01*
X96864052Y-85890657D01*
X96820055Y-85920055D01*
X96790657Y-85964052D01*
X92326845Y-90427865D01*
X92282848Y-90457263D01*
X92253450Y-90501260D01*
X92253446Y-90501264D01*
X92166370Y-90631583D01*
X92125469Y-90837208D01*
X92135793Y-90889110D01*
X92135792Y-91855721D01*
X92031542Y-91898903D01*
X91798903Y-92131542D01*
X91673000Y-92435499D01*
X91673000Y-92764501D01*
X91798903Y-93068458D01*
X92031542Y-93301097D01*
X92117859Y-93336850D01*
X88281710Y-97173000D01*
X85440637Y-97173000D01*
X85527000Y-96964501D01*
X85527000Y-96927020D01*
X87913781Y-96927020D01*
X87965679Y-96937343D01*
X88017577Y-96927020D01*
X88017582Y-96927020D01*
X88171304Y-96896443D01*
X88345624Y-96779965D01*
X88375024Y-96735965D01*
X90532571Y-94578418D01*
X90679945Y-94479945D01*
X90709345Y-94435945D01*
X91433041Y-93712250D01*
X91477039Y-93682851D01*
X91506437Y-93638854D01*
X91506440Y-93638851D01*
X91593516Y-93508532D01*
X91593517Y-93508531D01*
X91624094Y-93354809D01*
X91624094Y-93354805D01*
X91634417Y-93302907D01*
X91624094Y-93251009D01*
X91624094Y-90521196D01*
X93235947Y-88909343D01*
X93279945Y-88879945D01*
X93309343Y-88835948D01*
X93309346Y-88835945D01*
X93396422Y-88705626D01*
X93396423Y-88705625D01*
X93427000Y-88551903D01*
X93427000Y-88551899D01*
X93437323Y-88500001D01*
X93427000Y-88448103D01*
X93427000Y-87318290D01*
X95335945Y-85409345D01*
X95379945Y-85379945D01*
X95470541Y-85244359D01*
X95631606Y-85405424D01*
X96045826Y-85577000D01*
X96494174Y-85577000D01*
X96908394Y-85405424D01*
X97225424Y-85088394D01*
X97397000Y-84674174D01*
X97397000Y-84225826D01*
X97225424Y-83811606D01*
X96908394Y-83494576D01*
X96494174Y-83323000D01*
X96045826Y-83323000D01*
X95631606Y-83494576D01*
X95527000Y-83599182D01*
X95527000Y-82760818D01*
X95631606Y-82865424D01*
X96045826Y-83037000D01*
X96494174Y-83037000D01*
X96908394Y-82865424D01*
X97225424Y-82548394D01*
X97397000Y-82134174D01*
X97397000Y-81685826D01*
X97225424Y-81271606D01*
X96908394Y-80954576D01*
X96494174Y-80783000D01*
X96045826Y-80783000D01*
X95631606Y-80954576D01*
X95527000Y-81059182D01*
X95527000Y-80774290D01*
X95943895Y-80357395D01*
X96111935Y-80427000D01*
X96600065Y-80427000D01*
X97051039Y-80240200D01*
X97396200Y-79895039D01*
X97583000Y-79444065D01*
X97583000Y-78955935D01*
X97396200Y-78504961D01*
X97051039Y-78159800D01*
X96600065Y-77973000D01*
X96111935Y-77973000D01*
X95660961Y-78159800D01*
X95315800Y-78504961D01*
X95129000Y-78955935D01*
X95129000Y-79444065D01*
X95198605Y-79612105D01*
X94664055Y-80146655D01*
X94620055Y-80176055D01*
X94590655Y-80220055D01*
X94590654Y-80220056D01*
X94567943Y-80254046D01*
X94503577Y-80350376D01*
X94473000Y-80504098D01*
X94473000Y-80504102D01*
X94462677Y-80556000D01*
X94473000Y-80607898D01*
X94473000Y-81059182D01*
X94368394Y-80954576D01*
X93954174Y-80783000D01*
X93505826Y-80783000D01*
X93091606Y-80954576D01*
X93027000Y-81019182D01*
X93027000Y-80734290D01*
X93403895Y-80357395D01*
X93571935Y-80427000D01*
X94060065Y-80427000D01*
X94511039Y-80240200D01*
X94856200Y-79895039D01*
X95043000Y-79444065D01*
X95043000Y-78955935D01*
X94856200Y-78504961D01*
X94511039Y-78159800D01*
X94060065Y-77973000D01*
X93571935Y-77973000D01*
X93120961Y-78159800D01*
X92775800Y-78504961D01*
X92589000Y-78955935D01*
X92589000Y-79444065D01*
X92658605Y-79612105D01*
X92164053Y-80106657D01*
X92120056Y-80136055D01*
X92090658Y-80180052D01*
X92090654Y-80180056D01*
X92013887Y-80294947D01*
X92003578Y-80310375D01*
X91975037Y-80453864D01*
X91962677Y-80516000D01*
X91973001Y-80567903D01*
X91973001Y-81099183D01*
X91828394Y-80954576D01*
X91414174Y-80783000D01*
X90965826Y-80783000D01*
X90551606Y-80954576D01*
X90234576Y-81271606D01*
X90177001Y-81410604D01*
X90177001Y-80165900D01*
X90187324Y-80114001D01*
X90177001Y-80062102D01*
X90177001Y-80062098D01*
X90146424Y-79908376D01*
X90141979Y-79901723D01*
X90059347Y-79778056D01*
X90059344Y-79778053D01*
X90029946Y-79734056D01*
X89985949Y-79704658D01*
X89893396Y-79612105D01*
X89963000Y-79444065D01*
X89963000Y-78955935D01*
X90049000Y-78955935D01*
X90049000Y-79444065D01*
X90235800Y-79895039D01*
X90580961Y-80240200D01*
X91031935Y-80427000D01*
X91520065Y-80427000D01*
X91971039Y-80240200D01*
X92316200Y-79895039D01*
X92503000Y-79444065D01*
X92503000Y-78955935D01*
X92316200Y-78504961D01*
X91971039Y-78159800D01*
X91520065Y-77973000D01*
X91031935Y-77973000D01*
X90580961Y-78159800D01*
X90235800Y-78504961D01*
X90049000Y-78955935D01*
X89963000Y-78955935D01*
X89776200Y-78504961D01*
X89431039Y-78159800D01*
X88980065Y-77973000D01*
X88491935Y-77973000D01*
X88040961Y-78159800D01*
X87695800Y-78504961D01*
X87509000Y-78955935D01*
X87509000Y-79444065D01*
X87695800Y-79895039D01*
X88040961Y-80240200D01*
X88491935Y-80427000D01*
X88980065Y-80427000D01*
X89123001Y-80367794D01*
X89123001Y-80661208D01*
X88842878Y-80562581D01*
X88312560Y-80591336D01*
X88127000Y-80668197D01*
X88127000Y-80655899D01*
X88137323Y-80604000D01*
X88127000Y-80552101D01*
X88127000Y-80552097D01*
X88096423Y-80398375D01*
X88096423Y-80398374D01*
X88009346Y-80268055D01*
X88009343Y-80268052D01*
X87979945Y-80224055D01*
X87935948Y-80194657D01*
X87353395Y-79612105D01*
X87423000Y-79444065D01*
X87423000Y-78955935D01*
X87236200Y-78504961D01*
X86891039Y-78159800D01*
X86440065Y-77973000D01*
X85951935Y-77973000D01*
X85500961Y-78159800D01*
X85155800Y-78504961D01*
X84969000Y-78955935D01*
X84969000Y-79444065D01*
X85155800Y-79895039D01*
X85500961Y-80240200D01*
X85951935Y-80427000D01*
X86440065Y-80427000D01*
X86608105Y-80357395D01*
X87073000Y-80822291D01*
X87073000Y-81289896D01*
X87065424Y-81271606D01*
X86748394Y-80954576D01*
X86334174Y-80783000D01*
X85885826Y-80783000D01*
X85471606Y-80954576D01*
X85427000Y-80999182D01*
X85427000Y-80495899D01*
X85437323Y-80444000D01*
X85427000Y-80392101D01*
X85427000Y-80392097D01*
X85396423Y-80238375D01*
X85396423Y-80238374D01*
X85309346Y-80108055D01*
X85309343Y-80108052D01*
X85279945Y-80064055D01*
X85235947Y-80034656D01*
X84813395Y-79612105D01*
X84883000Y-79444065D01*
X84883000Y-78955935D01*
X84696200Y-78504961D01*
X84351039Y-78159800D01*
X83900065Y-77973000D01*
X83411935Y-77973000D01*
X82960961Y-78159800D01*
X82615800Y-78504961D01*
X82505044Y-78772348D01*
X82369864Y-78445995D01*
X82123745Y-78371861D01*
X81295605Y-79200000D01*
X82123745Y-80028139D01*
X82369864Y-79954005D01*
X82495473Y-79604546D01*
X82615800Y-79895039D01*
X82960961Y-80240200D01*
X83411935Y-80427000D01*
X83900065Y-80427000D01*
X84068105Y-80357395D01*
X84373001Y-80662292D01*
X84373001Y-81119183D01*
X84208394Y-80954576D01*
X83794174Y-80783000D01*
X83345826Y-80783000D01*
X82931606Y-80954576D01*
X82614576Y-81271606D01*
X82443000Y-81685826D01*
X82443000Y-82134174D01*
X82614576Y-82548394D01*
X82931606Y-82865424D01*
X83345826Y-83037000D01*
X83794174Y-83037000D01*
X84208394Y-82865424D01*
X84373000Y-82700818D01*
X84373000Y-83659182D01*
X84208394Y-83494576D01*
X83794174Y-83323000D01*
X83345826Y-83323000D01*
X82931606Y-83494576D01*
X82614576Y-83811606D01*
X82443000Y-84225826D01*
X82443000Y-84674174D01*
X82614576Y-85088394D01*
X82931606Y-85405424D01*
X83345826Y-85577000D01*
X83794174Y-85577000D01*
X84208394Y-85405424D01*
X84445481Y-85168337D01*
X84520055Y-85279945D01*
X84564055Y-85309345D01*
X86673001Y-87418292D01*
X86673000Y-91248097D01*
X86673000Y-91298888D01*
X86431542Y-91398903D01*
X86198903Y-91631542D01*
X86073000Y-91935499D01*
X86073000Y-92264501D01*
X86198903Y-92568458D01*
X86431542Y-92801097D01*
X86519061Y-92837348D01*
X85381710Y-93974700D01*
X80850197Y-93974700D01*
X80798299Y-93964377D01*
X80746401Y-93974700D01*
X80746397Y-93974700D01*
X80592675Y-94005277D01*
X80592673Y-94005278D01*
X80592674Y-94005278D01*
X80462355Y-94092354D01*
X80462352Y-94092357D01*
X80418355Y-94121755D01*
X80388956Y-94165753D01*
X79681710Y-94873000D01*
X79435499Y-94873000D01*
X79131542Y-94998903D01*
X78898903Y-95231542D01*
X78773000Y-95535499D01*
X78773000Y-95864501D01*
X78898903Y-96168458D01*
X79131542Y-96401097D01*
X79435499Y-96527000D01*
X79764501Y-96527000D01*
X80068458Y-96401097D01*
X80301097Y-96168458D01*
X80427000Y-95864501D01*
X80427000Y-95618290D01*
X81016591Y-95028700D01*
X85548102Y-95028700D01*
X85600000Y-95039023D01*
X85651898Y-95028700D01*
X85651903Y-95028700D01*
X85805625Y-94998123D01*
X85979945Y-94881645D01*
X86009345Y-94837645D01*
X87935947Y-92911043D01*
X87979945Y-92881645D01*
X88009343Y-92837648D01*
X88009346Y-92837645D01*
X88076378Y-92737324D01*
X88096423Y-92707325D01*
X88127000Y-92553603D01*
X88127000Y-92553599D01*
X88137323Y-92501701D01*
X88127000Y-92449803D01*
X88127000Y-85681189D01*
X88457122Y-85797419D01*
X88987440Y-85768664D01*
X89123002Y-85712512D01*
X89123002Y-87348093D01*
X89123001Y-87348098D01*
X89123001Y-87681710D01*
X88964053Y-87840658D01*
X88920056Y-87870056D01*
X88890658Y-87914053D01*
X88890654Y-87914057D01*
X88803578Y-88044376D01*
X88762677Y-88250001D01*
X88773001Y-88301904D01*
X88773000Y-91557445D01*
X88598903Y-91731542D01*
X88473000Y-92035499D01*
X88473000Y-92364501D01*
X88598903Y-92668458D01*
X88831542Y-92901097D01*
X89135499Y-93027000D01*
X89464501Y-93027000D01*
X89768458Y-92901097D01*
X90001097Y-92668458D01*
X90127000Y-92364501D01*
X90127000Y-92035499D01*
X90001097Y-91731542D01*
X89827000Y-91557445D01*
X89827000Y-88468291D01*
X89985944Y-88309347D01*
X90029946Y-88279945D01*
X90146424Y-88105625D01*
X90177001Y-87951903D01*
X90177001Y-87951898D01*
X90187324Y-87900001D01*
X90177001Y-87848103D01*
X90177001Y-85185283D01*
X90254725Y-85205669D01*
X91010395Y-84450000D01*
X90254725Y-83694331D01*
X90177001Y-83714717D01*
X90177001Y-82409396D01*
X90234576Y-82548394D01*
X90551606Y-82865424D01*
X90965826Y-83037000D01*
X91414174Y-83037000D01*
X91828394Y-82865424D01*
X91973001Y-82720817D01*
X91973001Y-83487391D01*
X91945669Y-83514723D01*
X91883831Y-83278958D01*
X91382878Y-83102581D01*
X90852560Y-83131336D01*
X90496169Y-83278958D01*
X90434331Y-83514725D01*
X91190000Y-84270395D01*
X91204142Y-84256252D01*
X91383748Y-84435858D01*
X91369605Y-84450000D01*
X91383748Y-84464143D01*
X91204142Y-84643748D01*
X91190000Y-84629605D01*
X90434331Y-85385275D01*
X90496169Y-85621042D01*
X90997122Y-85797419D01*
X91527440Y-85768664D01*
X91883831Y-85621042D01*
X91945669Y-85385277D01*
X91973000Y-85412608D01*
X91973000Y-88081710D01*
X90361139Y-89693571D01*
X90317142Y-89722969D01*
X90287744Y-89766966D01*
X90287740Y-89766970D01*
X90200664Y-89897289D01*
X90159763Y-90102914D01*
X90170087Y-90154817D01*
X90170086Y-92884624D01*
X87581700Y-95473010D01*
X83851889Y-95473010D01*
X83799990Y-95462687D01*
X83748142Y-95473000D01*
X83435499Y-95473000D01*
X83131542Y-95598903D01*
X82898903Y-95831542D01*
X82773000Y-96135499D01*
X82773000Y-96464501D01*
X82898903Y-96768458D01*
X83131542Y-97001097D01*
X83435499Y-97127000D01*
X83764501Y-97127000D01*
X83914563Y-97064842D01*
X83959363Y-97173000D01*
X80518290Y-97173000D01*
X80409345Y-97064055D01*
X80379945Y-97020055D01*
X80205625Y-96903577D01*
X80165064Y-96895509D01*
X79968458Y-96698903D01*
X79664501Y-96573000D01*
X79335499Y-96573000D01*
X79031542Y-96698903D01*
X78798903Y-96931542D01*
X78673000Y-97235499D01*
X66592864Y-97235499D01*
X66676930Y-97032547D01*
X66676930Y-96465053D01*
X66459760Y-95940758D01*
X66058482Y-95539480D01*
X65534187Y-95322310D01*
X64966693Y-95322310D01*
X64442398Y-95539480D01*
X64041120Y-95940758D01*
X63823950Y-96465053D01*
X62374665Y-96465053D01*
X62370901Y-96363423D01*
X62168525Y-95874842D01*
X61901723Y-95776243D01*
X60929165Y-96748800D01*
X60569955Y-96748800D01*
X59597397Y-95776243D01*
X59330595Y-95874842D01*
X59104159Y-96484382D01*
X58676930Y-96484382D01*
X58676930Y-96465053D01*
X58459760Y-95940758D01*
X58115639Y-95596637D01*
X59777003Y-95596637D01*
X60749560Y-96569195D01*
X61722117Y-95596637D01*
X61623518Y-95329835D01*
X61013978Y-95103399D01*
X60364183Y-95127459D01*
X59875602Y-95329835D01*
X59777003Y-95596637D01*
X58115639Y-95596637D01*
X58058482Y-95539480D01*
X57534187Y-95322310D01*
X56966693Y-95322310D01*
X56442398Y-95539480D01*
X56041120Y-95940758D01*
X55823950Y-96465053D01*
X54374665Y-96465053D01*
X54370901Y-96363423D01*
X54168525Y-95874842D01*
X53901723Y-95776243D01*
X52929165Y-96748800D01*
X52569955Y-96748800D01*
X51597397Y-95776243D01*
X51502000Y-95811498D01*
X51502000Y-95596637D01*
X51777003Y-95596637D01*
X52749560Y-96569195D01*
X53722117Y-95596637D01*
X53623518Y-95329835D01*
X53013978Y-95103399D01*
X52364183Y-95127459D01*
X51875602Y-95329835D01*
X51777003Y-95596637D01*
X51502000Y-95596637D01*
X51502000Y-93402603D01*
X54776243Y-93402603D01*
X54874842Y-93669405D01*
X55484382Y-93895841D01*
X56134177Y-93871781D01*
X56622758Y-93669405D01*
X56721357Y-93402603D01*
X55748800Y-92430045D01*
X54776243Y-93402603D01*
X51502000Y-93402603D01*
X51502000Y-91986022D01*
X54103399Y-91986022D01*
X54127459Y-92635817D01*
X54329835Y-93124398D01*
X54596637Y-93222997D01*
X55569195Y-92250440D01*
X55928405Y-92250440D01*
X56900963Y-93222997D01*
X57167765Y-93124398D01*
X57394201Y-92514858D01*
X57373905Y-91966693D01*
X60824710Y-91966693D01*
X60824710Y-92534187D01*
X61041880Y-93058482D01*
X61443158Y-93459760D01*
X61967453Y-93676930D01*
X62534947Y-93676930D01*
X63059242Y-93459760D01*
X63460520Y-93058482D01*
X63677690Y-92534187D01*
X63677690Y-91966693D01*
X63460520Y-91442398D01*
X63059242Y-91041120D01*
X62534947Y-90823950D01*
X61967453Y-90823950D01*
X61443158Y-91041120D01*
X61041880Y-91442398D01*
X60824710Y-91966693D01*
X57373905Y-91966693D01*
X57370141Y-91865063D01*
X57167765Y-91376482D01*
X56900963Y-91277883D01*
X55928405Y-92250440D01*
X55569195Y-92250440D01*
X54596637Y-91277883D01*
X54329835Y-91376482D01*
X54103399Y-91986022D01*
X51502000Y-91986022D01*
X51502000Y-91098277D01*
X54776243Y-91098277D01*
X55748800Y-92070835D01*
X56721357Y-91098277D01*
X56622758Y-90831475D01*
X56013218Y-90605039D01*
X55363423Y-90629099D01*
X54874842Y-90831475D01*
X54776243Y-91098277D01*
X51502000Y-91098277D01*
X51502000Y-87465813D01*
X54322310Y-87465813D01*
X54322310Y-88033307D01*
X54539480Y-88557602D01*
X54940758Y-88958880D01*
X55465053Y-89176050D01*
X56032547Y-89176050D01*
X56556842Y-88958880D01*
X56613999Y-88901723D01*
X61278643Y-88901723D01*
X61377242Y-89168525D01*
X61986782Y-89394961D01*
X62636577Y-89370901D01*
X63125158Y-89168525D01*
X63223757Y-88901723D01*
X62251200Y-87929165D01*
X61278643Y-88901723D01*
X56613999Y-88901723D01*
X56958120Y-88557602D01*
X57175290Y-88033307D01*
X57175290Y-87485142D01*
X60605799Y-87485142D01*
X60629859Y-88134937D01*
X60832235Y-88623518D01*
X61099037Y-88722117D01*
X62071595Y-87749560D01*
X62430805Y-87749560D01*
X63403363Y-88722117D01*
X63670165Y-88623518D01*
X63896601Y-88013978D01*
X63872541Y-87364183D01*
X63670165Y-86875602D01*
X63403363Y-86777003D01*
X62430805Y-87749560D01*
X62071595Y-87749560D01*
X61099037Y-86777003D01*
X60832235Y-86875602D01*
X60605799Y-87485142D01*
X57175290Y-87485142D01*
X57175290Y-87465813D01*
X56958120Y-86941518D01*
X56613999Y-86597397D01*
X61278643Y-86597397D01*
X62251200Y-87569955D01*
X63223757Y-86597397D01*
X63125158Y-86330595D01*
X62515618Y-86104159D01*
X61865823Y-86128219D01*
X61377242Y-86330595D01*
X61278643Y-86597397D01*
X56613999Y-86597397D01*
X56556842Y-86540240D01*
X56032547Y-86323070D01*
X55465053Y-86323070D01*
X54940758Y-86540240D01*
X54539480Y-86941518D01*
X54322310Y-87465813D01*
X51502000Y-87465813D01*
X51502000Y-84402603D01*
X54776243Y-84402603D01*
X54874842Y-84669405D01*
X55484382Y-84895841D01*
X56134177Y-84871781D01*
X56622758Y-84669405D01*
X56721357Y-84402603D01*
X55748800Y-83430045D01*
X54776243Y-84402603D01*
X51502000Y-84402603D01*
X51502000Y-82986022D01*
X54103399Y-82986022D01*
X54127459Y-83635817D01*
X54329835Y-84124398D01*
X54596637Y-84222997D01*
X55569195Y-83250440D01*
X55928405Y-83250440D01*
X56900963Y-84222997D01*
X57167765Y-84124398D01*
X57394201Y-83514858D01*
X57373905Y-82966693D01*
X60824710Y-82966693D01*
X60824710Y-83534187D01*
X61041880Y-84058482D01*
X61443158Y-84459760D01*
X61967453Y-84676930D01*
X62534947Y-84676930D01*
X63059242Y-84459760D01*
X63293176Y-84225826D01*
X69743000Y-84225826D01*
X69743000Y-84674174D01*
X69914576Y-85088394D01*
X70231606Y-85405424D01*
X70645826Y-85577000D01*
X71094174Y-85577000D01*
X71508394Y-85405424D01*
X71825424Y-85088394D01*
X71997000Y-84674174D01*
X71997000Y-84225826D01*
X72283000Y-84225826D01*
X72283000Y-84674174D01*
X72454576Y-85088394D01*
X72771606Y-85405424D01*
X73185826Y-85577000D01*
X73634174Y-85577000D01*
X74048394Y-85405424D01*
X74365424Y-85088394D01*
X74537000Y-84674174D01*
X74537000Y-84225826D01*
X74823000Y-84225826D01*
X74823000Y-84674174D01*
X74994576Y-85088394D01*
X75311606Y-85405424D01*
X75725826Y-85577000D01*
X76174174Y-85577000D01*
X76588394Y-85405424D01*
X76905424Y-85088394D01*
X77077000Y-84674174D01*
X77077000Y-84225826D01*
X77363000Y-84225826D01*
X77363000Y-84674174D01*
X77534576Y-85088394D01*
X77851606Y-85405424D01*
X78265826Y-85577000D01*
X78714174Y-85577000D01*
X79128394Y-85405424D01*
X79445424Y-85088394D01*
X79617000Y-84674174D01*
X79617000Y-84225826D01*
X79903000Y-84225826D01*
X79903000Y-84674174D01*
X80074576Y-85088394D01*
X80391606Y-85405424D01*
X80805826Y-85577000D01*
X81254174Y-85577000D01*
X81668394Y-85405424D01*
X81985424Y-85088394D01*
X82157000Y-84674174D01*
X82157000Y-84225826D01*
X81985424Y-83811606D01*
X81668394Y-83494576D01*
X81254174Y-83323000D01*
X80805826Y-83323000D01*
X80391606Y-83494576D01*
X80074576Y-83811606D01*
X79903000Y-84225826D01*
X79617000Y-84225826D01*
X79445424Y-83811606D01*
X79128394Y-83494576D01*
X78714174Y-83323000D01*
X78265826Y-83323000D01*
X77851606Y-83494576D01*
X77534576Y-83811606D01*
X77363000Y-84225826D01*
X77077000Y-84225826D01*
X76905424Y-83811606D01*
X76588394Y-83494576D01*
X76174174Y-83323000D01*
X75725826Y-83323000D01*
X75311606Y-83494576D01*
X74994576Y-83811606D01*
X74823000Y-84225826D01*
X74537000Y-84225826D01*
X74365424Y-83811606D01*
X74048394Y-83494576D01*
X73634174Y-83323000D01*
X73185826Y-83323000D01*
X72771606Y-83494576D01*
X72454576Y-83811606D01*
X72283000Y-84225826D01*
X71997000Y-84225826D01*
X71825424Y-83811606D01*
X71508394Y-83494576D01*
X71094174Y-83323000D01*
X70645826Y-83323000D01*
X70231606Y-83494576D01*
X69914576Y-83811606D01*
X69743000Y-84225826D01*
X63293176Y-84225826D01*
X63460520Y-84058482D01*
X63677690Y-83534187D01*
X63677690Y-82966693D01*
X63460520Y-82442398D01*
X63059242Y-82041120D01*
X62534947Y-81823950D01*
X61967453Y-81823950D01*
X61443158Y-82041120D01*
X61041880Y-82442398D01*
X60824710Y-82966693D01*
X57373905Y-82966693D01*
X57370141Y-82865063D01*
X57167765Y-82376482D01*
X56900963Y-82277883D01*
X55928405Y-83250440D01*
X55569195Y-83250440D01*
X54596637Y-82277883D01*
X54329835Y-82376482D01*
X54103399Y-82986022D01*
X51502000Y-82986022D01*
X51502000Y-82098277D01*
X54776243Y-82098277D01*
X55748800Y-83070835D01*
X56721357Y-82098277D01*
X56622758Y-81831475D01*
X56013218Y-81605039D01*
X55363423Y-81629099D01*
X54874842Y-81831475D01*
X54776243Y-82098277D01*
X51502000Y-82098277D01*
X51502000Y-77502000D01*
X55033078Y-77502000D01*
X54940758Y-77540240D01*
X54940758Y-77540240D01*
G37*
X54940758Y-77540240D02*
X54539480Y-77941518D01*
X54322310Y-78465813D01*
X54322310Y-79033307D01*
X54539480Y-79557602D01*
X54940758Y-79958880D01*
X55465053Y-80176050D01*
X56032547Y-80176050D01*
X56556842Y-79958880D01*
X56613999Y-79901723D01*
X61278643Y-79901723D01*
X61377242Y-80168525D01*
X61986782Y-80394961D01*
X62636577Y-80370901D01*
X63125158Y-80168525D01*
X63223757Y-79901723D01*
X62251200Y-78929165D01*
X61278643Y-79901723D01*
X56613999Y-79901723D01*
X56958120Y-79557602D01*
X57175290Y-79033307D01*
X57175290Y-78485142D01*
X60605799Y-78485142D01*
X60629859Y-79134937D01*
X60832235Y-79623518D01*
X61099037Y-79722117D01*
X62071595Y-78749560D01*
X62430805Y-78749560D01*
X63403363Y-79722117D01*
X63670165Y-79623518D01*
X63896601Y-79013978D01*
X63872541Y-78364183D01*
X63670165Y-77875602D01*
X63403363Y-77777003D01*
X62430805Y-78749560D01*
X62071595Y-78749560D01*
X61099037Y-77777003D01*
X60832235Y-77875602D01*
X60605799Y-78485142D01*
X57175290Y-78485142D01*
X57175290Y-78465813D01*
X56958120Y-77941518D01*
X56556842Y-77540240D01*
X56464522Y-77502000D01*
X61313898Y-77502000D01*
X61278643Y-77597397D01*
X62251200Y-78569955D01*
X63223757Y-77597397D01*
X63188502Y-77502000D01*
X68789068Y-77502000D01*
X68232190Y-78058878D01*
X67925500Y-78799291D01*
X67925500Y-79600709D01*
X68232190Y-80341122D01*
X68798878Y-80907810D01*
X69539291Y-81214500D01*
X69971682Y-81214500D01*
X69914576Y-81271606D01*
X69743000Y-81685826D01*
X69743000Y-82134174D01*
X69914576Y-82548394D01*
X70231606Y-82865424D01*
X70645826Y-83037000D01*
X71094174Y-83037000D01*
X71508394Y-82865424D01*
X71825424Y-82548394D01*
X71997000Y-82134174D01*
X71997000Y-81685826D01*
X72283000Y-81685826D01*
X72283000Y-82134174D01*
X72454576Y-82548394D01*
X72771606Y-82865424D01*
X73185826Y-83037000D01*
X73634174Y-83037000D01*
X74048394Y-82865424D01*
X74365424Y-82548394D01*
X74537000Y-82134174D01*
X74537000Y-81685826D01*
X74823000Y-81685826D01*
X74823000Y-82134174D01*
X74994576Y-82548394D01*
X75311606Y-82865424D01*
X75725826Y-83037000D01*
X76174174Y-83037000D01*
X76588394Y-82865424D01*
X76905424Y-82548394D01*
X77077000Y-82134174D01*
X77077000Y-81685826D01*
X77363000Y-81685826D01*
X77363000Y-82134174D01*
X77534576Y-82548394D01*
X77851606Y-82865424D01*
X78265826Y-83037000D01*
X78714174Y-83037000D01*
X79128394Y-82865424D01*
X79445424Y-82548394D01*
X79617000Y-82134174D01*
X79617000Y-81685826D01*
X79903000Y-81685826D01*
X79903000Y-82134174D01*
X80074576Y-82548394D01*
X80391606Y-82865424D01*
X80805826Y-83037000D01*
X81254174Y-83037000D01*
X81668394Y-82865424D01*
X81985424Y-82548394D01*
X82157000Y-82134174D01*
X82157000Y-81685826D01*
X81985424Y-81271606D01*
X81668394Y-80954576D01*
X81254174Y-80783000D01*
X80805826Y-80783000D01*
X80391606Y-80954576D01*
X80074576Y-81271606D01*
X79903000Y-81685826D01*
X79617000Y-81685826D01*
X79445424Y-81271606D01*
X79128394Y-80954576D01*
X78714174Y-80783000D01*
X78265826Y-80783000D01*
X77851606Y-80954576D01*
X77534576Y-81271606D01*
X77363000Y-81685826D01*
X77077000Y-81685826D01*
X76905424Y-81271606D01*
X76588394Y-80954576D01*
X76174174Y-80783000D01*
X75725826Y-80783000D01*
X75311606Y-80954576D01*
X74994576Y-81271606D01*
X74823000Y-81685826D01*
X74537000Y-81685826D01*
X74365424Y-81271606D01*
X74048394Y-80954576D01*
X73634174Y-80783000D01*
X73185826Y-80783000D01*
X72771606Y-80954576D01*
X72454576Y-81271606D01*
X72283000Y-81685826D01*
X71997000Y-81685826D01*
X71825424Y-81271606D01*
X71508394Y-80954576D01*
X71173199Y-80815733D01*
X71647810Y-80341122D01*
X71954500Y-79600709D01*
X71954500Y-78955935D01*
X72269000Y-78955935D01*
X72269000Y-79444065D01*
X72455800Y-79895039D01*
X72800961Y-80240200D01*
X73251935Y-80427000D01*
X73740065Y-80427000D01*
X74191039Y-80240200D01*
X74536200Y-79895039D01*
X74723000Y-79444065D01*
X74723000Y-78955935D01*
X74809000Y-78955935D01*
X74809000Y-79444065D01*
X74995800Y-79895039D01*
X75340961Y-80240200D01*
X75791935Y-80427000D01*
X76280065Y-80427000D01*
X76731039Y-80240200D01*
X77076200Y-79895039D01*
X77263000Y-79444065D01*
X77263000Y-78955935D01*
X77349000Y-78955935D01*
X77349000Y-79444065D01*
X77535800Y-79895039D01*
X77880961Y-80240200D01*
X78331935Y-80427000D01*
X78820065Y-80427000D01*
X79271039Y-80240200D01*
X79303494Y-80207745D01*
X80287861Y-80207745D01*
X80361995Y-80453864D01*
X80899223Y-80646965D01*
X81469454Y-80619778D01*
X81870005Y-80453864D01*
X81944139Y-80207745D01*
X81116000Y-79379605D01*
X80287861Y-80207745D01*
X79303494Y-80207745D01*
X79616200Y-79895039D01*
X79726956Y-79627652D01*
X79862136Y-79954005D01*
X80108255Y-80028139D01*
X80936395Y-79200000D01*
X80108255Y-78371861D01*
X79862136Y-78445995D01*
X79736527Y-78795454D01*
X79616200Y-78504961D01*
X79303494Y-78192255D01*
X80287861Y-78192255D01*
X81116000Y-79020395D01*
X81944139Y-78192255D01*
X81870005Y-77946136D01*
X81332777Y-77753035D01*
X80762546Y-77780222D01*
X80361995Y-77946136D01*
X80287861Y-78192255D01*
X79303494Y-78192255D01*
X79271039Y-78159800D01*
X78820065Y-77973000D01*
X78331935Y-77973000D01*
X77880961Y-78159800D01*
X77535800Y-78504961D01*
X77349000Y-78955935D01*
X77263000Y-78955935D01*
X77076200Y-78504961D01*
X76731039Y-78159800D01*
X76280065Y-77973000D01*
X75791935Y-77973000D01*
X75340961Y-78159800D01*
X74995800Y-78504961D01*
X74809000Y-78955935D01*
X74723000Y-78955935D01*
X74536200Y-78504961D01*
X74191039Y-78159800D01*
X73740065Y-77973000D01*
X73251935Y-77973000D01*
X72800961Y-78159800D01*
X72455800Y-78504961D01*
X72269000Y-78955935D01*
X71954500Y-78955935D01*
X71954500Y-78799291D01*
X71647810Y-78058878D01*
X71090932Y-77502000D01*
X122498001Y-77502000D01*
X122498001Y-93420049D01*
X122447810Y-93298878D01*
X121881122Y-92732190D01*
X121140709Y-92425500D01*
X120339291Y-92425500D01*
X119598878Y-92732190D01*
X119032190Y-93298878D01*
X118725500Y-94039291D01*
X118725500Y-94840709D01*
X119032190Y-95581122D01*
X119598878Y-96147810D01*
X120339291Y-96454500D01*
X121140709Y-96454500D01*
X121881122Y-96147810D01*
X122447810Y-95581122D01*
X122498001Y-95459951D01*
X122498000Y-104937285D01*
X119268000Y-104937285D01*
X119268000Y-108677024D01*
X118000051Y-107409075D01*
X117948330Y-107331670D01*
X117641697Y-107126785D01*
X117371302Y-107073000D01*
X117371300Y-107073000D01*
X117280000Y-107054839D01*
X117188700Y-107073000D01*
X114891300Y-107073000D01*
X114799999Y-107054839D01*
X114708699Y-107073000D01*
X114708698Y-107073000D01*
X114438303Y-107126785D01*
X114131670Y-107331670D01*
X114079951Y-107409073D01*
X111909075Y-109579949D01*
X111831670Y-109631670D01*
X111626785Y-109938304D01*
X111599759Y-110074174D01*
X111554839Y-110300000D01*
X111573000Y-110391300D01*
X111573001Y-113556023D01*
X103706025Y-121423000D01*
X103665826Y-121423000D01*
X103251606Y-121594576D01*
X102934576Y-121911606D01*
X102763000Y-122325826D01*
X102763000Y-122366025D01*
X102599076Y-122529949D01*
X102599073Y-122529951D01*
X102477000Y-122652024D01*
X102477000Y-122325826D01*
X102305424Y-121911606D01*
X101988394Y-121594576D01*
X101574174Y-121423000D01*
X101125826Y-121423000D01*
X100711606Y-121594576D01*
X100394576Y-121911606D01*
X100223000Y-122325826D01*
X100223000Y-122774174D01*
X100394576Y-123188394D01*
X100579172Y-123372990D01*
X94919940Y-123372990D01*
X94828639Y-123354829D01*
X94737339Y-123372990D01*
X94737338Y-123372990D01*
X94466943Y-123426775D01*
X94160310Y-123631660D01*
X94108591Y-123709063D01*
X92209073Y-125608581D01*
X92131671Y-125660300D01*
X92079952Y-125737703D01*
X91926786Y-125966933D01*
X91854839Y-126328630D01*
X91873001Y-126419935D01*
X91873001Y-126651760D01*
X91759800Y-126764961D01*
X91573000Y-127215935D01*
X91573000Y-127704065D01*
X91759800Y-128155039D01*
X92104961Y-128500200D01*
X92555935Y-128687000D01*
X93044065Y-128687000D01*
X93495039Y-128500200D01*
X93527494Y-128467745D01*
X94511861Y-128467745D01*
X94585995Y-128713864D01*
X95123223Y-128906965D01*
X95693454Y-128879778D01*
X96094005Y-128713864D01*
X96168139Y-128467745D01*
X97051861Y-128467745D01*
X97125995Y-128713864D01*
X97663223Y-128906965D01*
X98233454Y-128879778D01*
X98634005Y-128713864D01*
X98708139Y-128467745D01*
X97880000Y-127639605D01*
X97051861Y-128467745D01*
X96168139Y-128467745D01*
X95340000Y-127639605D01*
X94511861Y-128467745D01*
X93527494Y-128467745D01*
X93840200Y-128155039D01*
X93950956Y-127887652D01*
X94086136Y-128214005D01*
X94332255Y-128288139D01*
X95160395Y-127460000D01*
X95519605Y-127460000D01*
X96347745Y-128288139D01*
X96593864Y-128214005D01*
X96608858Y-128172291D01*
X96626136Y-128214005D01*
X96872255Y-128288139D01*
X97700395Y-127460000D01*
X98059605Y-127460000D01*
X98887745Y-128288139D01*
X99133864Y-128214005D01*
X99259473Y-127864546D01*
X99379800Y-128155039D01*
X99724961Y-128500200D01*
X100175935Y-128687000D01*
X100664065Y-128687000D01*
X101115039Y-128500200D01*
X101460200Y-128155039D01*
X101647000Y-127704065D01*
X101647000Y-127215935D01*
X104273000Y-127215935D01*
X104273000Y-127704065D01*
X104459800Y-128155039D01*
X104804961Y-128500200D01*
X105255935Y-128687000D01*
X105744065Y-128687000D01*
X106195039Y-128500200D01*
X106540200Y-128155039D01*
X106727000Y-127704065D01*
X106727000Y-127215935D01*
X106813000Y-127215935D01*
X106813000Y-127704065D01*
X106999800Y-128155039D01*
X107344961Y-128500200D01*
X107795935Y-128687000D01*
X108284065Y-128687000D01*
X108735039Y-128500200D01*
X109080200Y-128155039D01*
X109267000Y-127704065D01*
X109267000Y-127215935D01*
X109353000Y-127215935D01*
X109353000Y-127704065D01*
X109539800Y-128155039D01*
X109884961Y-128500200D01*
X110335935Y-128687000D01*
X110824065Y-128687000D01*
X111275039Y-128500200D01*
X111620200Y-128155039D01*
X111807000Y-127704065D01*
X111807000Y-127215935D01*
X111893000Y-127215935D01*
X111893000Y-127704065D01*
X112079800Y-128155039D01*
X112424961Y-128500200D01*
X112875935Y-128687000D01*
X113364065Y-128687000D01*
X113815039Y-128500200D01*
X114160200Y-128155039D01*
X114347000Y-127704065D01*
X114347000Y-127215935D01*
X114433000Y-127215935D01*
X114433000Y-127704065D01*
X114619800Y-128155039D01*
X114964961Y-128500200D01*
X115415935Y-128687000D01*
X115904065Y-128687000D01*
X116355039Y-128500200D01*
X116700200Y-128155039D01*
X116887000Y-127704065D01*
X116887000Y-127215935D01*
X116973000Y-127215935D01*
X116973000Y-127704065D01*
X117159800Y-128155039D01*
X117504961Y-128500200D01*
X117955935Y-128687000D01*
X118444065Y-128687000D01*
X118895039Y-128500200D01*
X119240200Y-128155039D01*
X119427000Y-127704065D01*
X119427000Y-127215935D01*
X119240200Y-126764961D01*
X118895039Y-126419800D01*
X118444065Y-126233000D01*
X117955935Y-126233000D01*
X117504961Y-126419800D01*
X117159800Y-126764961D01*
X116973000Y-127215935D01*
X116887000Y-127215935D01*
X116700200Y-126764961D01*
X116355039Y-126419800D01*
X115904065Y-126233000D01*
X115415935Y-126233000D01*
X114964961Y-126419800D01*
X114619800Y-126764961D01*
X114433000Y-127215935D01*
X114347000Y-127215935D01*
X114160200Y-126764961D01*
X113815039Y-126419800D01*
X113364065Y-126233000D01*
X112875935Y-126233000D01*
X112424961Y-126419800D01*
X112079800Y-126764961D01*
X111893000Y-127215935D01*
X111807000Y-127215935D01*
X111620200Y-126764961D01*
X111275039Y-126419800D01*
X110824065Y-126233000D01*
X110335935Y-126233000D01*
X109884961Y-126419800D01*
X109539800Y-126764961D01*
X109353000Y-127215935D01*
X109267000Y-127215935D01*
X109080200Y-126764961D01*
X108735039Y-126419800D01*
X108284065Y-126233000D01*
X107795935Y-126233000D01*
X107344961Y-126419800D01*
X106999800Y-126764961D01*
X106813000Y-127215935D01*
X106727000Y-127215935D01*
X106540200Y-126764961D01*
X106195039Y-126419800D01*
X105744065Y-126233000D01*
X105255935Y-126233000D01*
X104804961Y-126419800D01*
X104459800Y-126764961D01*
X104273000Y-127215935D01*
X101647000Y-127215935D01*
X101460200Y-126764961D01*
X101115039Y-126419800D01*
X100664065Y-126233000D01*
X100175935Y-126233000D01*
X99724961Y-126419800D01*
X99379800Y-126764961D01*
X99269044Y-127032348D01*
X99133864Y-126705995D01*
X98887745Y-126631861D01*
X98059605Y-127460000D01*
X97700395Y-127460000D01*
X96872255Y-126631861D01*
X96626136Y-126705995D01*
X96611142Y-126747709D01*
X96593864Y-126705995D01*
X96347745Y-126631861D01*
X95519605Y-127460000D01*
X95160395Y-127460000D01*
X94332255Y-126631861D01*
X94086136Y-126705995D01*
X93960527Y-127055454D01*
X93840200Y-126764961D01*
X93757422Y-126682183D01*
X93987350Y-126452255D01*
X94511861Y-126452255D01*
X95340000Y-127280395D01*
X96168139Y-126452255D01*
X97051861Y-126452255D01*
X97880000Y-127280395D01*
X98708139Y-126452255D01*
X98634005Y-126206136D01*
X98096777Y-126013035D01*
X97526546Y-126040222D01*
X97125995Y-126206136D01*
X97051861Y-126452255D01*
X96168139Y-126452255D01*
X96094005Y-126206136D01*
X95556777Y-126013035D01*
X94986546Y-126040222D01*
X94585995Y-126206136D01*
X94511861Y-126452255D01*
X93987350Y-126452255D01*
X95212616Y-125226990D01*
X102048710Y-125226990D01*
X102140010Y-125245151D01*
X102231310Y-125226990D01*
X102231312Y-125226990D01*
X102501707Y-125173205D01*
X102808340Y-124968320D01*
X102860060Y-124890915D01*
X103910049Y-123840927D01*
X103910051Y-123840924D01*
X104073975Y-123677000D01*
X104114174Y-123677000D01*
X104528394Y-123505424D01*
X104845424Y-123188394D01*
X105017000Y-122774174D01*
X105017000Y-122733975D01*
X113090927Y-114660049D01*
X113168330Y-114608330D01*
X113373215Y-114301697D01*
X113427000Y-114031302D01*
X113427000Y-114031301D01*
X113445161Y-113940000D01*
X113427000Y-113848699D01*
X113427000Y-110683975D01*
X115183976Y-108927000D01*
X115919182Y-108927000D01*
X115634576Y-109211606D01*
X115463000Y-109625826D01*
X115463000Y-110074174D01*
X115634576Y-110488394D01*
X115951606Y-110805424D01*
X115963000Y-110810144D01*
X115963001Y-122873000D01*
X112761745Y-122873000D01*
X112699999Y-122860718D01*
X112638253Y-122873000D01*
X112638250Y-122873000D01*
X112455357Y-122909380D01*
X112247959Y-123047959D01*
X112212981Y-123100307D01*
X112040288Y-123273000D01*
X111935499Y-123273000D01*
X111631542Y-123398903D01*
X111398903Y-123631542D01*
X111273000Y-123935499D01*
X111273000Y-124264501D01*
X111398903Y-124568458D01*
X111631542Y-124801097D01*
X111935499Y-124927000D01*
X112264501Y-124927000D01*
X112568458Y-124801097D01*
X112801097Y-124568458D01*
X112927000Y-124264501D01*
X112927000Y-124159712D01*
X112959712Y-124127000D01*
X113429896Y-124127000D01*
X113411606Y-124134576D01*
X113094576Y-124451606D01*
X112923000Y-124865826D01*
X112923000Y-125314174D01*
X113094576Y-125728394D01*
X113411606Y-126045424D01*
X113825826Y-126217000D01*
X114274174Y-126217000D01*
X114688394Y-126045424D01*
X115005424Y-125728394D01*
X115177000Y-125314174D01*
X115177000Y-124865826D01*
X115005424Y-124451606D01*
X114688394Y-124134576D01*
X114670104Y-124127000D01*
X115963000Y-124127000D01*
X115963000Y-124129856D01*
X115951606Y-124134576D01*
X115634576Y-124451606D01*
X115463000Y-124865826D01*
X115463000Y-125314174D01*
X115634576Y-125728394D01*
X115951606Y-126045424D01*
X116365826Y-126217000D01*
X116814174Y-126217000D01*
X117228394Y-126045424D01*
X117545424Y-125728394D01*
X117717000Y-125314174D01*
X117717000Y-124865826D01*
X117545424Y-124451606D01*
X117228394Y-124134576D01*
X117217000Y-124129856D01*
X117217000Y-123761746D01*
X117229282Y-123700000D01*
X117217000Y-123638254D01*
X117217000Y-110810144D01*
X117228394Y-110805424D01*
X117545424Y-110488394D01*
X117717000Y-110074174D01*
X117717000Y-109747976D01*
X118003000Y-110033976D01*
X118003000Y-110074174D01*
X118174576Y-110488394D01*
X118491606Y-110805424D01*
X118905826Y-110977000D01*
X119354174Y-110977000D01*
X119768394Y-110805424D01*
X120085424Y-110488394D01*
X120257000Y-110074174D01*
X120257000Y-109662714D01*
X122498000Y-109662714D01*
X122498000Y-121360047D01*
X122447810Y-121238878D01*
X121881122Y-120672190D01*
X121140709Y-120365500D01*
X120339291Y-120365500D01*
X119598878Y-120672190D01*
X119032190Y-121238878D01*
X118725500Y-121979291D01*
X118725500Y-122780709D01*
X119032190Y-123521122D01*
X119558846Y-124047778D01*
X119354174Y-123963000D01*
X118905826Y-123963000D01*
X118491606Y-124134576D01*
X118174576Y-124451606D01*
X118003000Y-124865826D01*
X118003000Y-125314174D01*
X118174576Y-125728394D01*
X118491606Y-126045424D01*
X118905826Y-126217000D01*
X119354174Y-126217000D01*
X119768394Y-126045424D01*
X120085424Y-125728394D01*
X120257000Y-125314174D01*
X120257000Y-124865826D01*
X120085424Y-124451606D01*
X119808426Y-124174608D01*
X120339291Y-124394500D01*
X121140709Y-124394500D01*
X121881122Y-124087810D01*
X122447810Y-123521122D01*
X122498000Y-123399953D01*
X122498000Y-129498000D01*
X51502000Y-129498000D01*
X51502000Y-128402603D01*
X54776243Y-128402603D01*
X54874842Y-128669405D01*
X55484382Y-128895841D01*
X56134177Y-128871781D01*
X56622758Y-128669405D01*
X56721357Y-128402603D01*
X55748800Y-127430045D01*
X54776243Y-128402603D01*
X51502000Y-128402603D01*
X51502000Y-126986022D01*
X54103399Y-126986022D01*
X54127459Y-127635817D01*
X54329835Y-128124398D01*
X54596637Y-128222997D01*
X55569195Y-127250440D01*
X55928405Y-127250440D01*
X56900963Y-128222997D01*
X57167765Y-128124398D01*
X57394201Y-127514858D01*
X57373905Y-126966693D01*
X60824710Y-126966693D01*
X60824710Y-127534187D01*
X61041880Y-128058482D01*
X61443158Y-128459760D01*
X61967453Y-128676930D01*
X62534947Y-128676930D01*
X63059242Y-128459760D01*
X63460520Y-128058482D01*
X63677690Y-127534187D01*
X63677690Y-127059291D01*
X66655500Y-127059291D01*
X66655500Y-127860709D01*
X66962190Y-128601122D01*
X67528878Y-129167810D01*
X68269291Y-129474500D01*
X69070709Y-129474500D01*
X69811122Y-129167810D01*
X70377810Y-128601122D01*
X70684500Y-127860709D01*
X70684500Y-127215935D01*
X81413000Y-127215935D01*
X81413000Y-127704065D01*
X81599800Y-128155039D01*
X81944961Y-128500200D01*
X82395935Y-128687000D01*
X82884065Y-128687000D01*
X83335039Y-128500200D01*
X83680200Y-128155039D01*
X83867000Y-127704065D01*
X83867000Y-127215935D01*
X83680200Y-126764961D01*
X83335039Y-126419800D01*
X82884065Y-126233000D01*
X82395935Y-126233000D01*
X81944961Y-126419800D01*
X81599800Y-126764961D01*
X81413000Y-127215935D01*
X70684500Y-127215935D01*
X70684500Y-127059291D01*
X70377810Y-126318878D01*
X69811122Y-125752190D01*
X69070709Y-125445500D01*
X68269291Y-125445500D01*
X67528878Y-125752190D01*
X66962190Y-126318878D01*
X66655500Y-127059291D01*
X63677690Y-127059291D01*
X63677690Y-126966693D01*
X63460520Y-126442398D01*
X63059242Y-126041120D01*
X62534947Y-125823950D01*
X61967453Y-125823950D01*
X61443158Y-126041120D01*
X61041880Y-126442398D01*
X60824710Y-126966693D01*
X57373905Y-126966693D01*
X57370141Y-126865063D01*
X57167765Y-126376482D01*
X56900963Y-126277883D01*
X55928405Y-127250440D01*
X55569195Y-127250440D01*
X54596637Y-126277883D01*
X54329835Y-126376482D01*
X54103399Y-126986022D01*
X51502000Y-126986022D01*
X51502000Y-126098277D01*
X54776243Y-126098277D01*
X55748800Y-127070835D01*
X56721357Y-126098277D01*
X56622758Y-125831475D01*
X56013218Y-125605039D01*
X55363423Y-125629099D01*
X54874842Y-125831475D01*
X54776243Y-126098277D01*
X51502000Y-126098277D01*
X51502000Y-124865826D01*
X69743000Y-124865826D01*
X69743000Y-125314174D01*
X69914576Y-125728394D01*
X70231606Y-126045424D01*
X70645826Y-126217000D01*
X71094174Y-126217000D01*
X71508394Y-126045424D01*
X71825424Y-125728394D01*
X71997000Y-125314174D01*
X71997000Y-124865826D01*
X72283000Y-124865826D01*
X72283000Y-125314174D01*
X72454576Y-125728394D01*
X72771606Y-126045424D01*
X73185826Y-126217000D01*
X73634174Y-126217000D01*
X74048394Y-126045424D01*
X74365424Y-125728394D01*
X74537000Y-125314174D01*
X74537000Y-124865826D01*
X74823000Y-124865826D01*
X74823000Y-125314174D01*
X74994576Y-125728394D01*
X75311606Y-126045424D01*
X75725826Y-126217000D01*
X76174174Y-126217000D01*
X76588394Y-126045424D01*
X76905424Y-125728394D01*
X77077000Y-125314174D01*
X77077000Y-124865826D01*
X76905424Y-124451606D01*
X76588394Y-124134576D01*
X76174174Y-123963000D01*
X75725826Y-123963000D01*
X75311606Y-124134576D01*
X74994576Y-124451606D01*
X74823000Y-124865826D01*
X74537000Y-124865826D01*
X74365424Y-124451606D01*
X74048394Y-124134576D01*
X73634174Y-123963000D01*
X73185826Y-123963000D01*
X72771606Y-124134576D01*
X72454576Y-124451606D01*
X72283000Y-124865826D01*
X71997000Y-124865826D01*
X71825424Y-124451606D01*
X71508394Y-124134576D01*
X71094174Y-123963000D01*
X70645826Y-123963000D01*
X70231606Y-124134576D01*
X69914576Y-124451606D01*
X69743000Y-124865826D01*
X51502000Y-124865826D01*
X51502000Y-122465813D01*
X54322310Y-122465813D01*
X54322310Y-123033307D01*
X54539480Y-123557602D01*
X54940758Y-123958880D01*
X55465053Y-124176050D01*
X56032547Y-124176050D01*
X56556842Y-123958880D01*
X56613999Y-123901723D01*
X61278643Y-123901723D01*
X61377242Y-124168525D01*
X61986782Y-124394961D01*
X62636577Y-124370901D01*
X63125158Y-124168525D01*
X63223757Y-123901723D01*
X62251200Y-122929165D01*
X61278643Y-123901723D01*
X56613999Y-123901723D01*
X56958120Y-123557602D01*
X57175290Y-123033307D01*
X57175290Y-122485142D01*
X60605799Y-122485142D01*
X60629859Y-123134937D01*
X60832235Y-123623518D01*
X61099037Y-123722117D01*
X62071595Y-122749560D01*
X62430805Y-122749560D01*
X63403363Y-123722117D01*
X63670165Y-123623518D01*
X63896601Y-123013978D01*
X63872541Y-122364183D01*
X63856654Y-122325826D01*
X69743000Y-122325826D01*
X69743000Y-122774174D01*
X69914576Y-123188394D01*
X70231606Y-123505424D01*
X70645826Y-123677000D01*
X71094174Y-123677000D01*
X71508394Y-123505424D01*
X71825424Y-123188394D01*
X71997000Y-122774174D01*
X71997000Y-122325826D01*
X72283000Y-122325826D01*
X72283000Y-122774174D01*
X72454576Y-123188394D01*
X72771606Y-123505424D01*
X73185826Y-123677000D01*
X73634174Y-123677000D01*
X73734366Y-123635499D01*
X82973000Y-123635499D01*
X82973000Y-123964501D01*
X83098903Y-124268458D01*
X83273000Y-124442555D01*
X83273001Y-126028098D01*
X83262677Y-126080000D01*
X83303578Y-126285625D01*
X83390654Y-126415944D01*
X83390658Y-126415948D01*
X83420056Y-126459945D01*
X83464053Y-126489343D01*
X84022605Y-127047895D01*
X83953000Y-127215935D01*
X83953000Y-127704065D01*
X84139800Y-128155039D01*
X84484961Y-128500200D01*
X84935935Y-128687000D01*
X85424065Y-128687000D01*
X85875039Y-128500200D01*
X86220200Y-128155039D01*
X86407000Y-127704065D01*
X86407000Y-127215935D01*
X86220200Y-126764961D01*
X85875039Y-126419800D01*
X85424065Y-126233000D01*
X84935935Y-126233000D01*
X84767895Y-126302605D01*
X84327000Y-125861710D01*
X84327000Y-124442555D01*
X84501097Y-124268458D01*
X84627000Y-123964501D01*
X84627000Y-123635499D01*
X84501097Y-123331542D01*
X84374580Y-123205025D01*
X85144106Y-122435499D01*
X85773000Y-122435499D01*
X85773000Y-122764501D01*
X85898903Y-123068458D01*
X86131542Y-123301097D01*
X86343675Y-123388965D01*
X86673000Y-123718291D01*
X86673000Y-123948098D01*
X86673001Y-126781375D01*
X86493000Y-127215935D01*
X86493000Y-127704065D01*
X86679800Y-128155039D01*
X87024961Y-128500200D01*
X87475935Y-128687000D01*
X87964065Y-128687000D01*
X88415039Y-128500200D01*
X88760200Y-128155039D01*
X88947000Y-127704065D01*
X88947000Y-127215935D01*
X89033000Y-127215935D01*
X89033000Y-127704065D01*
X89219800Y-128155039D01*
X89564961Y-128500200D01*
X90015935Y-128687000D01*
X90504065Y-128687000D01*
X90955039Y-128500200D01*
X91300200Y-128155039D01*
X91487000Y-127704065D01*
X91487000Y-127215935D01*
X91300200Y-126764961D01*
X90955039Y-126419800D01*
X90504065Y-126233000D01*
X90015935Y-126233000D01*
X89564961Y-126419800D01*
X89219800Y-126764961D01*
X89033000Y-127215935D01*
X88947000Y-127215935D01*
X88760200Y-126764961D01*
X88415039Y-126419800D01*
X87964065Y-126233000D01*
X87727000Y-126233000D01*
X87727000Y-123551897D01*
X87737323Y-123499999D01*
X87727000Y-123448101D01*
X87727000Y-123448097D01*
X87696423Y-123294375D01*
X87665409Y-123247959D01*
X87609346Y-123164055D01*
X87609343Y-123164052D01*
X87579945Y-123120055D01*
X87535947Y-123090656D01*
X87363381Y-122918091D01*
X87427000Y-122764501D01*
X87427000Y-122435499D01*
X87301097Y-122131542D01*
X87068458Y-121898903D01*
X86764501Y-121773000D01*
X86435499Y-121773000D01*
X86131542Y-121898903D01*
X85898903Y-122131542D01*
X85773000Y-122435499D01*
X85144106Y-122435499D01*
X88205025Y-119374580D01*
X88231542Y-119401097D01*
X88535499Y-119527000D01*
X88864501Y-119527000D01*
X89168458Y-119401097D01*
X89401097Y-119168458D01*
X89527000Y-118864501D01*
X89527000Y-118535499D01*
X89401097Y-118231542D01*
X89168458Y-117998903D01*
X88864501Y-117873000D01*
X88535499Y-117873000D01*
X88231542Y-117998903D01*
X88051246Y-118179199D01*
X87928690Y-118203577D01*
X87928688Y-118203578D01*
X87928689Y-118203578D01*
X87798370Y-118290654D01*
X87798367Y-118290657D01*
X87754370Y-118320055D01*
X87724972Y-118364052D01*
X83464055Y-122624970D01*
X83420055Y-122654370D01*
X83303577Y-122828691D01*
X83273000Y-122982413D01*
X83273000Y-122982417D01*
X83262677Y-123034315D01*
X83273000Y-123086213D01*
X83273000Y-123157445D01*
X83098903Y-123331542D01*
X82973000Y-123635499D01*
X73734366Y-123635499D01*
X74048394Y-123505424D01*
X74365424Y-123188394D01*
X74537000Y-122774174D01*
X74537000Y-122325826D01*
X74365424Y-121911606D01*
X74155290Y-121701472D01*
X75729763Y-120127000D01*
X79157445Y-120127000D01*
X79231542Y-120201097D01*
X79535499Y-120327000D01*
X79864501Y-120327000D01*
X80168458Y-120201097D01*
X80401097Y-119968458D01*
X80527000Y-119664501D01*
X80527000Y-119335499D01*
X80401097Y-119031542D01*
X80168458Y-118798903D01*
X79864501Y-118673000D01*
X79535499Y-118673000D01*
X79231542Y-118798903D01*
X79157445Y-118873000D01*
X75531796Y-118873000D01*
X75470050Y-118860718D01*
X75408304Y-118873000D01*
X75408301Y-118873000D01*
X75225408Y-118909380D01*
X75018010Y-119047959D01*
X74983032Y-119100307D01*
X73010307Y-121073033D01*
X72957960Y-121108010D01*
X72922982Y-121160358D01*
X72922981Y-121160359D01*
X72819380Y-121315409D01*
X72770718Y-121560051D01*
X72777130Y-121592288D01*
X72771606Y-121594576D01*
X72454576Y-121911606D01*
X72283000Y-122325826D01*
X71997000Y-122325826D01*
X71825424Y-121911606D01*
X71508394Y-121594576D01*
X71094174Y-121423000D01*
X70645826Y-121423000D01*
X70231606Y-121594576D01*
X69914576Y-121911606D01*
X69743000Y-122325826D01*
X63856654Y-122325826D01*
X63670165Y-121875602D01*
X63403363Y-121777003D01*
X62430805Y-122749560D01*
X62071595Y-122749560D01*
X61099037Y-121777003D01*
X60832235Y-121875602D01*
X60605799Y-122485142D01*
X57175290Y-122485142D01*
X57175290Y-122465813D01*
X56958120Y-121941518D01*
X56613999Y-121597397D01*
X61278643Y-121597397D01*
X62251200Y-122569955D01*
X63223757Y-121597397D01*
X63125158Y-121330595D01*
X62515618Y-121104159D01*
X61865823Y-121128219D01*
X61377242Y-121330595D01*
X61278643Y-121597397D01*
X56613999Y-121597397D01*
X56556842Y-121540240D01*
X56032547Y-121323070D01*
X55465053Y-121323070D01*
X54940758Y-121540240D01*
X54539480Y-121941518D01*
X54322310Y-122465813D01*
X51502000Y-122465813D01*
X51502000Y-113402603D01*
X54776243Y-113402603D01*
X54874842Y-113669405D01*
X55484382Y-113895841D01*
X56134177Y-113871781D01*
X56622758Y-113669405D01*
X56721357Y-113402603D01*
X55748800Y-112430045D01*
X54776243Y-113402603D01*
X51502000Y-113402603D01*
X51502000Y-111986022D01*
X54103399Y-111986022D01*
X54127459Y-112635817D01*
X54329835Y-113124398D01*
X54596637Y-113222997D01*
X55569195Y-112250440D01*
X55928405Y-112250440D01*
X56900963Y-113222997D01*
X57167765Y-113124398D01*
X57394201Y-112514858D01*
X57373905Y-111966693D01*
X60824710Y-111966693D01*
X60824710Y-112534187D01*
X61041880Y-113058482D01*
X61443158Y-113459760D01*
X61967453Y-113676930D01*
X62534947Y-113676930D01*
X63059242Y-113459760D01*
X63460520Y-113058482D01*
X63677690Y-112534187D01*
X63677690Y-111966693D01*
X63460520Y-111442398D01*
X63059242Y-111041120D01*
X62534947Y-110823950D01*
X61967453Y-110823950D01*
X61443158Y-111041120D01*
X61041880Y-111442398D01*
X60824710Y-111966693D01*
X57373905Y-111966693D01*
X57370141Y-111865063D01*
X57167765Y-111376482D01*
X56900963Y-111277883D01*
X55928405Y-112250440D01*
X55569195Y-112250440D01*
X54596637Y-111277883D01*
X54329835Y-111376482D01*
X54103399Y-111986022D01*
X51502000Y-111986022D01*
X51502000Y-111098277D01*
X54776243Y-111098277D01*
X55748800Y-112070835D01*
X56721357Y-111098277D01*
X56622758Y-110831475D01*
X56013218Y-110605039D01*
X55363423Y-110629099D01*
X54874842Y-110831475D01*
X54776243Y-111098277D01*
X51502000Y-111098277D01*
X51502000Y-109625826D01*
X69743000Y-109625826D01*
X69743000Y-110074174D01*
X69914576Y-110488394D01*
X70231606Y-110805424D01*
X70645826Y-110977000D01*
X71094174Y-110977000D01*
X71508394Y-110805424D01*
X71825424Y-110488394D01*
X71997000Y-110074174D01*
X71997000Y-109625826D01*
X72283000Y-109625826D01*
X72283000Y-110074174D01*
X72454576Y-110488394D01*
X72771606Y-110805424D01*
X73185826Y-110977000D01*
X73634174Y-110977000D01*
X74048394Y-110805424D01*
X74365424Y-110488394D01*
X74537000Y-110074174D01*
X74537000Y-109625826D01*
X74365424Y-109211606D01*
X74048394Y-108894576D01*
X73634174Y-108723000D01*
X73185826Y-108723000D01*
X72771606Y-108894576D01*
X72454576Y-109211606D01*
X72283000Y-109625826D01*
X71997000Y-109625826D01*
X71825424Y-109211606D01*
X71508394Y-108894576D01*
X71094174Y-108723000D01*
X70645826Y-108723000D01*
X70231606Y-108894576D01*
X69914576Y-109211606D01*
X69743000Y-109625826D01*
X51502000Y-109625826D01*
X51502000Y-107465813D01*
X54322310Y-107465813D01*
X54322310Y-108033307D01*
X54539480Y-108557602D01*
X54940758Y-108958880D01*
X55465053Y-109176050D01*
X56032547Y-109176050D01*
X56556842Y-108958880D01*
X56613999Y-108901723D01*
X61278643Y-108901723D01*
X61377242Y-109168525D01*
X61986782Y-109394961D01*
X62636577Y-109370901D01*
X63125158Y-109168525D01*
X63223757Y-108901723D01*
X62251200Y-107929165D01*
X61278643Y-108901723D01*
X56613999Y-108901723D01*
X56958120Y-108557602D01*
X57175290Y-108033307D01*
X57175290Y-107485142D01*
X60605799Y-107485142D01*
X60629859Y-108134937D01*
X60832235Y-108623518D01*
X61099037Y-108722117D01*
X62071595Y-107749560D01*
X62430805Y-107749560D01*
X63403363Y-108722117D01*
X63670165Y-108623518D01*
X63896601Y-108013978D01*
X63886235Y-107734000D01*
X83723000Y-107734000D01*
X83723000Y-110688000D01*
X108077000Y-110688000D01*
X108077000Y-107734000D01*
X83723000Y-107734000D01*
X63886235Y-107734000D01*
X63872541Y-107364183D01*
X63670165Y-106875602D01*
X63403363Y-106777003D01*
X62430805Y-107749560D01*
X62071595Y-107749560D01*
X61099037Y-106777003D01*
X60832235Y-106875602D01*
X60605799Y-107485142D01*
X57175290Y-107485142D01*
X57175290Y-107465813D01*
X56958120Y-106941518D01*
X56613999Y-106597397D01*
X61278643Y-106597397D01*
X62251200Y-107569955D01*
X63223757Y-106597397D01*
X63125158Y-106330595D01*
X62869171Y-106235499D01*
X68373000Y-106235499D01*
X68373000Y-106564501D01*
X68498903Y-106868458D01*
X68731542Y-107101097D01*
X69035499Y-107227000D01*
X69364501Y-107227000D01*
X69668458Y-107101097D01*
X69901097Y-106868458D01*
X70027000Y-106564501D01*
X70027000Y-106318290D01*
X72018291Y-104327000D01*
X72264501Y-104327000D01*
X72568458Y-104201097D01*
X72801097Y-103968458D01*
X72927000Y-103664501D01*
X72927000Y-103335499D01*
X72801097Y-103031542D01*
X72568458Y-102798903D01*
X72264501Y-102673000D01*
X71935499Y-102673000D01*
X71631542Y-102798903D01*
X71398903Y-103031542D01*
X71273000Y-103335499D01*
X71273000Y-103581709D01*
X69281710Y-105573000D01*
X69035499Y-105573000D01*
X68731542Y-105698903D01*
X68498903Y-105931542D01*
X68373000Y-106235499D01*
X62869171Y-106235499D01*
X62515618Y-106104159D01*
X61865823Y-106128219D01*
X61377242Y-106330595D01*
X61278643Y-106597397D01*
X56613999Y-106597397D01*
X56556842Y-106540240D01*
X56032547Y-106323070D01*
X55465053Y-106323070D01*
X54940758Y-106540240D01*
X54539480Y-106941518D01*
X54322310Y-107465813D01*
X51502000Y-107465813D01*
X51502000Y-103966922D01*
X51540240Y-104059242D01*
X51941518Y-104460520D01*
X52465813Y-104677690D01*
X53033307Y-104677690D01*
X53557602Y-104460520D01*
X53614759Y-104403363D01*
X56277883Y-104403363D01*
X56376482Y-104670165D01*
X56986022Y-104896601D01*
X57635817Y-104872541D01*
X58124398Y-104670165D01*
X58222997Y-104403363D01*
X57250440Y-103430805D01*
X56277883Y-104403363D01*
X53614759Y-104403363D01*
X53958880Y-104059242D01*
X54176050Y-103534947D01*
X54176050Y-102986782D01*
X55605039Y-102986782D01*
X55629099Y-103636577D01*
X55831475Y-104125158D01*
X56098277Y-104223757D01*
X57070835Y-103251200D01*
X57430045Y-103251200D01*
X58402603Y-104223757D01*
X58669405Y-104125158D01*
X58895841Y-103515618D01*
X58875545Y-102967453D01*
X59323070Y-102967453D01*
X59323070Y-103534947D01*
X59540240Y-104059242D01*
X59941518Y-104460520D01*
X60465813Y-104677690D01*
X61033307Y-104677690D01*
X61557602Y-104460520D01*
X61614759Y-104403363D01*
X64277883Y-104403363D01*
X64376482Y-104670165D01*
X64986022Y-104896601D01*
X65635817Y-104872541D01*
X66124398Y-104670165D01*
X66222997Y-104403363D01*
X65250440Y-103430805D01*
X64277883Y-104403363D01*
X61614759Y-104403363D01*
X61958880Y-104059242D01*
X62176050Y-103534947D01*
X62176050Y-102986782D01*
X63605039Y-102986782D01*
X63629099Y-103636577D01*
X63831475Y-104125158D01*
X64098277Y-104223757D01*
X65070835Y-103251200D01*
X65430045Y-103251200D01*
X66402603Y-104223757D01*
X66669405Y-104125158D01*
X66895841Y-103515618D01*
X66871781Y-102865823D01*
X66669405Y-102377242D01*
X66402603Y-102278643D01*
X65430045Y-103251200D01*
X65070835Y-103251200D01*
X64098277Y-102278643D01*
X63831475Y-102377242D01*
X63605039Y-102986782D01*
X62176050Y-102986782D01*
X62176050Y-102967453D01*
X61958880Y-102443158D01*
X61614759Y-102099037D01*
X64277883Y-102099037D01*
X65250440Y-103071595D01*
X66222997Y-102099037D01*
X66124398Y-101832235D01*
X65514858Y-101605799D01*
X64865063Y-101629859D01*
X64376482Y-101832235D01*
X64277883Y-102099037D01*
X61614759Y-102099037D01*
X61557602Y-102041880D01*
X61033307Y-101824710D01*
X60465813Y-101824710D01*
X59941518Y-102041880D01*
X59540240Y-102443158D01*
X59323070Y-102967453D01*
X58875545Y-102967453D01*
X58871781Y-102865823D01*
X58669405Y-102377242D01*
X58402603Y-102278643D01*
X57430045Y-103251200D01*
X57070835Y-103251200D01*
X56098277Y-102278643D01*
X55831475Y-102377242D01*
X55605039Y-102986782D01*
X54176050Y-102986782D01*
X54176050Y-102967453D01*
X53958880Y-102443158D01*
X53614759Y-102099037D01*
X56277883Y-102099037D01*
X57250440Y-103071595D01*
X58222997Y-102099037D01*
X58124398Y-101832235D01*
X57514858Y-101605799D01*
X56865063Y-101629859D01*
X56376482Y-101832235D01*
X56277883Y-102099037D01*
X53614759Y-102099037D01*
X53557602Y-102041880D01*
X53033307Y-101824710D01*
X52465813Y-101824710D01*
X51941518Y-102041880D01*
X51540240Y-102443158D01*
X51502000Y-102535478D01*
X51502000Y-97900963D01*
X51777003Y-97900963D01*
X51875602Y-98167765D01*
X52485142Y-98394201D01*
X53134937Y-98370141D01*
X53623518Y-98167765D01*
X53722117Y-97900963D01*
X52749560Y-96928405D01*
X51777003Y-97900963D01*
X51502000Y-97900963D01*
X51502000Y-97686102D01*
X51597397Y-97721357D01*
X52569955Y-96748800D01*
X52929165Y-96748800D01*
X53901723Y-97721357D01*
X54168525Y-97622758D01*
X54394961Y-97013218D01*
X54374665Y-96465053D01*
X55823950Y-96465053D01*
X55823950Y-97032547D01*
X56041120Y-97556842D01*
X56442398Y-97958120D01*
X56966693Y-98175290D01*
X57534187Y-98175290D01*
X58058482Y-97958120D01*
X58115639Y-97900963D01*
X59777003Y-97900963D01*
X59875602Y-98167765D01*
X60485142Y-98394201D01*
X61134937Y-98370141D01*
X61623518Y-98167765D01*
X61722117Y-97900963D01*
X60749560Y-96928405D01*
X59777003Y-97900963D01*
X58115639Y-97900963D01*
X58459760Y-97556842D01*
X58676930Y-97032547D01*
X58676930Y-96484382D01*
X59104159Y-96484382D01*
X59128219Y-97134177D01*
X59330595Y-97622758D01*
X59597397Y-97721357D01*
X60569955Y-96748800D01*
X60929165Y-96748800D01*
X61901723Y-97721357D01*
X62168525Y-97622758D01*
X62394961Y-97013218D01*
X62374665Y-96465053D01*
X63823950Y-96465053D01*
X63823950Y-97032547D01*
X64041120Y-97556842D01*
X64442398Y-97958120D01*
X64966693Y-98175290D01*
X65534187Y-98175290D01*
X66058482Y-97958120D01*
X66459760Y-97556842D01*
X66592864Y-97235499D01*
X78673000Y-97235499D01*
X78673000Y-97564501D01*
X78798903Y-97868458D01*
X79031542Y-98101097D01*
X79335499Y-98227000D01*
X79664501Y-98227000D01*
X79958120Y-98105379D01*
X80094375Y-98196423D01*
X80248097Y-98227000D01*
X80248101Y-98227000D01*
X80299999Y-98237323D01*
X80351897Y-98227000D01*
X88448102Y-98227000D01*
X88500000Y-98237323D01*
X88551898Y-98227000D01*
X88551903Y-98227000D01*
X88705625Y-98196423D01*
X88879945Y-98079945D01*
X88909345Y-98035945D01*
X93535948Y-93409343D01*
X93579945Y-93379945D01*
X93609343Y-93335948D01*
X93609346Y-93335945D01*
X93696423Y-93205626D01*
X93716853Y-93102915D01*
X93727000Y-93051903D01*
X93727000Y-93051899D01*
X93737323Y-93000000D01*
X93727000Y-92948101D01*
X93727000Y-92740637D01*
X93935499Y-92827000D01*
X94264501Y-92827000D01*
X94568458Y-92701097D01*
X94801097Y-92468458D01*
X94814749Y-92435499D01*
X102673000Y-92435499D01*
X102673000Y-92764501D01*
X102798903Y-93068458D01*
X103031542Y-93301097D01*
X103335499Y-93427000D01*
X103440289Y-93427000D01*
X104812981Y-94799693D01*
X104847959Y-94852041D01*
X105055357Y-94990620D01*
X105238250Y-95027000D01*
X105238254Y-95027000D01*
X105299999Y-95039282D01*
X105361744Y-95027000D01*
X112657445Y-95027000D01*
X112731542Y-95101097D01*
X113035499Y-95227000D01*
X113364501Y-95227000D01*
X113668458Y-95101097D01*
X113901097Y-94868458D01*
X114027000Y-94564501D01*
X114027000Y-94235499D01*
X113901097Y-93931542D01*
X113668458Y-93698903D01*
X113364501Y-93573000D01*
X113035499Y-93573000D01*
X112731542Y-93698903D01*
X112657445Y-93773000D01*
X105559712Y-93773000D01*
X104327000Y-92540289D01*
X104327000Y-92435499D01*
X104201097Y-92131542D01*
X103968458Y-91898903D01*
X103664501Y-91773000D01*
X103335499Y-91773000D01*
X103031542Y-91898903D01*
X102798903Y-92131542D01*
X102673000Y-92435499D01*
X94814749Y-92435499D01*
X94927000Y-92164501D01*
X94927000Y-91835499D01*
X94801097Y-91531542D01*
X94568458Y-91298903D01*
X94327000Y-91198888D01*
X94327000Y-91118290D01*
X97718281Y-87727010D01*
X103048092Y-87727010D01*
X103099990Y-87737333D01*
X103151888Y-87727010D01*
X103151893Y-87727010D01*
X103305615Y-87696433D01*
X103479935Y-87579955D01*
X103509335Y-87535955D01*
X105435947Y-85609343D01*
X105479945Y-85579945D01*
X105509343Y-85535948D01*
X105509346Y-85535945D01*
X105596422Y-85405626D01*
X105596423Y-85405625D01*
X105627000Y-85251903D01*
X105627000Y-85251899D01*
X105637323Y-85200001D01*
X105627000Y-85148103D01*
X105627000Y-82892608D01*
X105674331Y-82845277D01*
X105736169Y-83081042D01*
X106237122Y-83257419D01*
X106767440Y-83228664D01*
X107123831Y-83081042D01*
X107185669Y-82845275D01*
X106430000Y-82089605D01*
X106415858Y-82103748D01*
X106236252Y-81924142D01*
X106250395Y-81910000D01*
X106609605Y-81910000D01*
X107365275Y-82665669D01*
X107601042Y-82603831D01*
X107777419Y-82102878D01*
X107754806Y-81685826D01*
X107843000Y-81685826D01*
X107843000Y-82134174D01*
X108014576Y-82548394D01*
X108331606Y-82865424D01*
X108745826Y-83037000D01*
X109194174Y-83037000D01*
X109608394Y-82865424D01*
X109925424Y-82548394D01*
X110097000Y-82134174D01*
X110097000Y-81685826D01*
X110383000Y-81685826D01*
X110383000Y-82134174D01*
X110554576Y-82548394D01*
X110871606Y-82865424D01*
X111285826Y-83037000D01*
X111734174Y-83037000D01*
X112148394Y-82865424D01*
X112465424Y-82548394D01*
X112637000Y-82134174D01*
X112637000Y-81685826D01*
X112923000Y-81685826D01*
X112923000Y-82134174D01*
X113094576Y-82548394D01*
X113411606Y-82865424D01*
X113825826Y-83037000D01*
X114274174Y-83037000D01*
X114688394Y-82865424D01*
X115005424Y-82548394D01*
X115177000Y-82134174D01*
X115177000Y-81685826D01*
X115463000Y-81685826D01*
X115463000Y-82134174D01*
X115634576Y-82548394D01*
X115951606Y-82865424D01*
X116365826Y-83037000D01*
X116814174Y-83037000D01*
X117228394Y-82865424D01*
X117545424Y-82548394D01*
X117717000Y-82134174D01*
X117717000Y-81685826D01*
X118003000Y-81685826D01*
X118003000Y-82134174D01*
X118174576Y-82548394D01*
X118491606Y-82865424D01*
X118905826Y-83037000D01*
X119354174Y-83037000D01*
X119768394Y-82865424D01*
X120085424Y-82548394D01*
X120257000Y-82134174D01*
X120257000Y-81685826D01*
X120085424Y-81271606D01*
X119768394Y-80954576D01*
X119354174Y-80783000D01*
X118905826Y-80783000D01*
X118491606Y-80954576D01*
X118174576Y-81271606D01*
X118003000Y-81685826D01*
X117717000Y-81685826D01*
X117545424Y-81271606D01*
X117228394Y-80954576D01*
X116814174Y-80783000D01*
X116365826Y-80783000D01*
X115951606Y-80954576D01*
X115634576Y-81271606D01*
X115463000Y-81685826D01*
X115177000Y-81685826D01*
X115005424Y-81271606D01*
X114688394Y-80954576D01*
X114274174Y-80783000D01*
X113825826Y-80783000D01*
X113411606Y-80954576D01*
X113094576Y-81271606D01*
X112923000Y-81685826D01*
X112637000Y-81685826D01*
X112465424Y-81271606D01*
X112148394Y-80954576D01*
X111734174Y-80783000D01*
X111285826Y-80783000D01*
X110871606Y-80954576D01*
X110554576Y-81271606D01*
X110383000Y-81685826D01*
X110097000Y-81685826D01*
X109925424Y-81271606D01*
X109608394Y-80954576D01*
X109194174Y-80783000D01*
X108745826Y-80783000D01*
X108331606Y-80954576D01*
X108014576Y-81271606D01*
X107843000Y-81685826D01*
X107754806Y-81685826D01*
X107748664Y-81572560D01*
X107601042Y-81216169D01*
X107365275Y-81154331D01*
X106609605Y-81910000D01*
X106250395Y-81910000D01*
X106236252Y-81895858D01*
X106415858Y-81716252D01*
X106430000Y-81730395D01*
X107185669Y-80974725D01*
X107123831Y-80738958D01*
X106622878Y-80562581D01*
X106092560Y-80591336D01*
X105909427Y-80667192D01*
X105996423Y-80536995D01*
X106027000Y-80383273D01*
X106027000Y-80383269D01*
X106037323Y-80331371D01*
X106032574Y-80307495D01*
X106195039Y-80240200D01*
X106540200Y-79895039D01*
X106727000Y-79444065D01*
X106727000Y-78955935D01*
X106813000Y-78955935D01*
X106813000Y-79444065D01*
X106999800Y-79895039D01*
X107344961Y-80240200D01*
X107795935Y-80427000D01*
X108284065Y-80427000D01*
X108735039Y-80240200D01*
X109080200Y-79895039D01*
X109267000Y-79444065D01*
X109267000Y-78955935D01*
X109353000Y-78955935D01*
X109353000Y-79444065D01*
X109539800Y-79895039D01*
X109884961Y-80240200D01*
X110335935Y-80427000D01*
X110824065Y-80427000D01*
X111275039Y-80240200D01*
X111620200Y-79895039D01*
X111807000Y-79444065D01*
X111807000Y-78955935D01*
X111893000Y-78955935D01*
X111893000Y-79444065D01*
X112079800Y-79895039D01*
X112424961Y-80240200D01*
X112875935Y-80427000D01*
X113364065Y-80427000D01*
X113815039Y-80240200D01*
X114160200Y-79895039D01*
X114347000Y-79444065D01*
X114347000Y-78955935D01*
X114433000Y-78955935D01*
X114433000Y-79444065D01*
X114619800Y-79895039D01*
X114964961Y-80240200D01*
X115415935Y-80427000D01*
X115904065Y-80427000D01*
X116355039Y-80240200D01*
X116700200Y-79895039D01*
X116887000Y-79444065D01*
X116887000Y-78955935D01*
X116973000Y-78955935D01*
X116973000Y-79444065D01*
X117159800Y-79895039D01*
X117504961Y-80240200D01*
X117955935Y-80427000D01*
X118444065Y-80427000D01*
X118895039Y-80240200D01*
X119240200Y-79895039D01*
X119427000Y-79444065D01*
X119427000Y-78955935D01*
X119240200Y-78504961D01*
X118895039Y-78159800D01*
X118444065Y-77973000D01*
X117955935Y-77973000D01*
X117504961Y-78159800D01*
X117159800Y-78504961D01*
X116973000Y-78955935D01*
X116887000Y-78955935D01*
X116700200Y-78504961D01*
X116355039Y-78159800D01*
X115904065Y-77973000D01*
X115415935Y-77973000D01*
X114964961Y-78159800D01*
X114619800Y-78504961D01*
X114433000Y-78955935D01*
X114347000Y-78955935D01*
X114160200Y-78504961D01*
X113815039Y-78159800D01*
X113364065Y-77973000D01*
X112875935Y-77973000D01*
X112424961Y-78159800D01*
X112079800Y-78504961D01*
X111893000Y-78955935D01*
X111807000Y-78955935D01*
X111620200Y-78504961D01*
X111275039Y-78159800D01*
X110824065Y-77973000D01*
X110335935Y-77973000D01*
X109884961Y-78159800D01*
X109539800Y-78504961D01*
X109353000Y-78955935D01*
X109267000Y-78955935D01*
X109080200Y-78504961D01*
X108735039Y-78159800D01*
X108284065Y-77973000D01*
X107795935Y-77973000D01*
X107344961Y-78159800D01*
X106999800Y-78504961D01*
X106813000Y-78955935D01*
X106727000Y-78955935D01*
X106540200Y-78504961D01*
X106195039Y-78159800D01*
X105744065Y-77973000D01*
X105255935Y-77973000D01*
X104804961Y-78159800D01*
X104459800Y-78504961D01*
X104273000Y-78955935D01*
X104273000Y-79444065D01*
X104459800Y-79895039D01*
X104804961Y-80240200D01*
X104833895Y-80252185D01*
X104764055Y-80322025D01*
X104720055Y-80351425D01*
X104690655Y-80395425D01*
X104690654Y-80395426D01*
X104669557Y-80427000D01*
X104603577Y-80525746D01*
X104573000Y-80679468D01*
X104573000Y-80679472D01*
X104562677Y-80731370D01*
X104573000Y-80783268D01*
X104573000Y-80999182D01*
X104528394Y-80954576D01*
X104114174Y-80783000D01*
X103665826Y-80783000D01*
X103251606Y-80954576D01*
X103027000Y-81179182D01*
X103027000Y-81009660D01*
X103295947Y-80740714D01*
X103339945Y-80711315D01*
X103369343Y-80667318D01*
X103369346Y-80667315D01*
X103456422Y-80536996D01*
X103456423Y-80536995D01*
X103487000Y-80383273D01*
X103487000Y-80383269D01*
X103497323Y-80331371D01*
X103492574Y-80307495D01*
X103655039Y-80240200D01*
X104000200Y-79895039D01*
X104187000Y-79444065D01*
X104187000Y-78955935D01*
X104000200Y-78504961D01*
X103655039Y-78159800D01*
X103204065Y-77973000D01*
X102715935Y-77973000D01*
X102264961Y-78159800D01*
X101919800Y-78504961D01*
X101733000Y-78955935D01*
X101733000Y-79444065D01*
X101919800Y-79895039D01*
X102264961Y-80240200D01*
X102293895Y-80252185D01*
X102164055Y-80382025D01*
X102120055Y-80411425D01*
X102090655Y-80455425D01*
X102090654Y-80455426D01*
X102064916Y-80493946D01*
X102003577Y-80585746D01*
X101973000Y-80739468D01*
X101973000Y-80739472D01*
X101962677Y-80791370D01*
X101973000Y-80843268D01*
X101973000Y-80948200D01*
X101574174Y-80783000D01*
X101125826Y-80783000D01*
X100711606Y-80954576D01*
X100527000Y-81139182D01*
X100527000Y-80969660D01*
X100755948Y-80740713D01*
X100799945Y-80711315D01*
X100829343Y-80667318D01*
X100829346Y-80667315D01*
X100916423Y-80536996D01*
X100932648Y-80455426D01*
X100947000Y-80383273D01*
X100947000Y-80383269D01*
X100957323Y-80331370D01*
X100952574Y-80307495D01*
X101115039Y-80240200D01*
X101460200Y-79895039D01*
X101647000Y-79444065D01*
X101647000Y-78955935D01*
X101460200Y-78504961D01*
X101115039Y-78159800D01*
X100664065Y-77973000D01*
X100175935Y-77973000D01*
X99724961Y-78159800D01*
X99379800Y-78504961D01*
X99193000Y-78955935D01*
X99193000Y-79444065D01*
X99379800Y-79895039D01*
X99724961Y-80240200D01*
X99753895Y-80252185D01*
X99664053Y-80342027D01*
X99620056Y-80371425D01*
X99590658Y-80415422D01*
X99590654Y-80415426D01*
X99503578Y-80545745D01*
X99462677Y-80751370D01*
X99473001Y-80803273D01*
X99473001Y-80979183D01*
X99448394Y-80954576D01*
X99034174Y-80783000D01*
X98585826Y-80783000D01*
X98171606Y-80954576D01*
X97854576Y-81271606D01*
X97683000Y-81685826D01*
X97683000Y-82134174D01*
X97854576Y-82548394D01*
X98171606Y-82865424D01*
X98585826Y-83037000D01*
X99034174Y-83037000D01*
X99448394Y-82865424D01*
X99473001Y-82840817D01*
X99473000Y-83519182D01*
X99448394Y-83494576D01*
X99034174Y-83323000D01*
X98585826Y-83323000D01*
X98171606Y-83494576D01*
X97854576Y-83811606D01*
X97683000Y-84225826D01*
X97683000Y-84674174D01*
X97854576Y-85088394D01*
X98171606Y-85405424D01*
X98585826Y-85577000D01*
X99034174Y-85577000D01*
X99448394Y-85405424D01*
X99473000Y-85380818D01*
X99473000Y-85481709D01*
X99181710Y-85773000D01*
X97251897Y-85773000D01*
X97199999Y-85762677D01*
X97148101Y-85773000D01*
X97148097Y-85773000D01*
X96994375Y-85803577D01*
X96994373Y-85803578D01*
X96994374Y-85803578D01*
X96864055Y-85890654D01*
X96864052Y-85890657D01*
X96820055Y-85920055D01*
X96790657Y-85964052D01*
X92326845Y-90427865D01*
X92282848Y-90457263D01*
X92253450Y-90501260D01*
X92253446Y-90501264D01*
X92166370Y-90631583D01*
X92125469Y-90837208D01*
X92135793Y-90889110D01*
X92135792Y-91855721D01*
X92031542Y-91898903D01*
X91798903Y-92131542D01*
X91673000Y-92435499D01*
X91673000Y-92764501D01*
X91798903Y-93068458D01*
X92031542Y-93301097D01*
X92117859Y-93336850D01*
X88281710Y-97173000D01*
X85440637Y-97173000D01*
X85527000Y-96964501D01*
X85527000Y-96927020D01*
X87913781Y-96927020D01*
X87965679Y-96937343D01*
X88017577Y-96927020D01*
X88017582Y-96927020D01*
X88171304Y-96896443D01*
X88345624Y-96779965D01*
X88375024Y-96735965D01*
X90532571Y-94578418D01*
X90679945Y-94479945D01*
X90709345Y-94435945D01*
X91433041Y-93712250D01*
X91477039Y-93682851D01*
X91506437Y-93638854D01*
X91506440Y-93638851D01*
X91593516Y-93508532D01*
X91593517Y-93508531D01*
X91624094Y-93354809D01*
X91624094Y-93354805D01*
X91634417Y-93302907D01*
X91624094Y-93251009D01*
X91624094Y-90521196D01*
X93235947Y-88909343D01*
X93279945Y-88879945D01*
X93309343Y-88835948D01*
X93309346Y-88835945D01*
X93396422Y-88705626D01*
X93396423Y-88705625D01*
X93427000Y-88551903D01*
X93427000Y-88551899D01*
X93437323Y-88500001D01*
X93427000Y-88448103D01*
X93427000Y-87318290D01*
X95335945Y-85409345D01*
X95379945Y-85379945D01*
X95470541Y-85244359D01*
X95631606Y-85405424D01*
X96045826Y-85577000D01*
X96494174Y-85577000D01*
X96908394Y-85405424D01*
X97225424Y-85088394D01*
X97397000Y-84674174D01*
X97397000Y-84225826D01*
X97225424Y-83811606D01*
X96908394Y-83494576D01*
X96494174Y-83323000D01*
X96045826Y-83323000D01*
X95631606Y-83494576D01*
X95527000Y-83599182D01*
X95527000Y-82760818D01*
X95631606Y-82865424D01*
X96045826Y-83037000D01*
X96494174Y-83037000D01*
X96908394Y-82865424D01*
X97225424Y-82548394D01*
X97397000Y-82134174D01*
X97397000Y-81685826D01*
X97225424Y-81271606D01*
X96908394Y-80954576D01*
X96494174Y-80783000D01*
X96045826Y-80783000D01*
X95631606Y-80954576D01*
X95527000Y-81059182D01*
X95527000Y-80774290D01*
X95943895Y-80357395D01*
X96111935Y-80427000D01*
X96600065Y-80427000D01*
X97051039Y-80240200D01*
X97396200Y-79895039D01*
X97583000Y-79444065D01*
X97583000Y-78955935D01*
X97396200Y-78504961D01*
X97051039Y-78159800D01*
X96600065Y-77973000D01*
X96111935Y-77973000D01*
X95660961Y-78159800D01*
X95315800Y-78504961D01*
X95129000Y-78955935D01*
X95129000Y-79444065D01*
X95198605Y-79612105D01*
X94664055Y-80146655D01*
X94620055Y-80176055D01*
X94590655Y-80220055D01*
X94590654Y-80220056D01*
X94567943Y-80254046D01*
X94503577Y-80350376D01*
X94473000Y-80504098D01*
X94473000Y-80504102D01*
X94462677Y-80556000D01*
X94473000Y-80607898D01*
X94473000Y-81059182D01*
X94368394Y-80954576D01*
X93954174Y-80783000D01*
X93505826Y-80783000D01*
X93091606Y-80954576D01*
X93027000Y-81019182D01*
X93027000Y-80734290D01*
X93403895Y-80357395D01*
X93571935Y-80427000D01*
X94060065Y-80427000D01*
X94511039Y-80240200D01*
X94856200Y-79895039D01*
X95043000Y-79444065D01*
X95043000Y-78955935D01*
X94856200Y-78504961D01*
X94511039Y-78159800D01*
X94060065Y-77973000D01*
X93571935Y-77973000D01*
X93120961Y-78159800D01*
X92775800Y-78504961D01*
X92589000Y-78955935D01*
X92589000Y-79444065D01*
X92658605Y-79612105D01*
X92164053Y-80106657D01*
X92120056Y-80136055D01*
X92090658Y-80180052D01*
X92090654Y-80180056D01*
X92013887Y-80294947D01*
X92003578Y-80310375D01*
X91975037Y-80453864D01*
X91962677Y-80516000D01*
X91973001Y-80567903D01*
X91973001Y-81099183D01*
X91828394Y-80954576D01*
X91414174Y-80783000D01*
X90965826Y-80783000D01*
X90551606Y-80954576D01*
X90234576Y-81271606D01*
X90177001Y-81410604D01*
X90177001Y-80165900D01*
X90187324Y-80114001D01*
X90177001Y-80062102D01*
X90177001Y-80062098D01*
X90146424Y-79908376D01*
X90141979Y-79901723D01*
X90059347Y-79778056D01*
X90059344Y-79778053D01*
X90029946Y-79734056D01*
X89985949Y-79704658D01*
X89893396Y-79612105D01*
X89963000Y-79444065D01*
X89963000Y-78955935D01*
X90049000Y-78955935D01*
X90049000Y-79444065D01*
X90235800Y-79895039D01*
X90580961Y-80240200D01*
X91031935Y-80427000D01*
X91520065Y-80427000D01*
X91971039Y-80240200D01*
X92316200Y-79895039D01*
X92503000Y-79444065D01*
X92503000Y-78955935D01*
X92316200Y-78504961D01*
X91971039Y-78159800D01*
X91520065Y-77973000D01*
X91031935Y-77973000D01*
X90580961Y-78159800D01*
X90235800Y-78504961D01*
X90049000Y-78955935D01*
X89963000Y-78955935D01*
X89776200Y-78504961D01*
X89431039Y-78159800D01*
X88980065Y-77973000D01*
X88491935Y-77973000D01*
X88040961Y-78159800D01*
X87695800Y-78504961D01*
X87509000Y-78955935D01*
X87509000Y-79444065D01*
X87695800Y-79895039D01*
X88040961Y-80240200D01*
X88491935Y-80427000D01*
X88980065Y-80427000D01*
X89123001Y-80367794D01*
X89123001Y-80661208D01*
X88842878Y-80562581D01*
X88312560Y-80591336D01*
X88127000Y-80668197D01*
X88127000Y-80655899D01*
X88137323Y-80604000D01*
X88127000Y-80552101D01*
X88127000Y-80552097D01*
X88096423Y-80398375D01*
X88096423Y-80398374D01*
X88009346Y-80268055D01*
X88009343Y-80268052D01*
X87979945Y-80224055D01*
X87935948Y-80194657D01*
X87353395Y-79612105D01*
X87423000Y-79444065D01*
X87423000Y-78955935D01*
X87236200Y-78504961D01*
X86891039Y-78159800D01*
X86440065Y-77973000D01*
X85951935Y-77973000D01*
X85500961Y-78159800D01*
X85155800Y-78504961D01*
X84969000Y-78955935D01*
X84969000Y-79444065D01*
X85155800Y-79895039D01*
X85500961Y-80240200D01*
X85951935Y-80427000D01*
X86440065Y-80427000D01*
X86608105Y-80357395D01*
X87073000Y-80822291D01*
X87073000Y-81289896D01*
X87065424Y-81271606D01*
X86748394Y-80954576D01*
X86334174Y-80783000D01*
X85885826Y-80783000D01*
X85471606Y-80954576D01*
X85427000Y-80999182D01*
X85427000Y-80495899D01*
X85437323Y-80444000D01*
X85427000Y-80392101D01*
X85427000Y-80392097D01*
X85396423Y-80238375D01*
X85396423Y-80238374D01*
X85309346Y-80108055D01*
X85309343Y-80108052D01*
X85279945Y-80064055D01*
X85235947Y-80034656D01*
X84813395Y-79612105D01*
X84883000Y-79444065D01*
X84883000Y-78955935D01*
X84696200Y-78504961D01*
X84351039Y-78159800D01*
X83900065Y-77973000D01*
X83411935Y-77973000D01*
X82960961Y-78159800D01*
X82615800Y-78504961D01*
X82505044Y-78772348D01*
X82369864Y-78445995D01*
X82123745Y-78371861D01*
X81295605Y-79200000D01*
X82123745Y-80028139D01*
X82369864Y-79954005D01*
X82495473Y-79604546D01*
X82615800Y-79895039D01*
X82960961Y-80240200D01*
X83411935Y-80427000D01*
X83900065Y-80427000D01*
X84068105Y-80357395D01*
X84373001Y-80662292D01*
X84373001Y-81119183D01*
X84208394Y-80954576D01*
X83794174Y-80783000D01*
X83345826Y-80783000D01*
X82931606Y-80954576D01*
X82614576Y-81271606D01*
X82443000Y-81685826D01*
X82443000Y-82134174D01*
X82614576Y-82548394D01*
X82931606Y-82865424D01*
X83345826Y-83037000D01*
X83794174Y-83037000D01*
X84208394Y-82865424D01*
X84373000Y-82700818D01*
X84373000Y-83659182D01*
X84208394Y-83494576D01*
X83794174Y-83323000D01*
X83345826Y-83323000D01*
X82931606Y-83494576D01*
X82614576Y-83811606D01*
X82443000Y-84225826D01*
X82443000Y-84674174D01*
X82614576Y-85088394D01*
X82931606Y-85405424D01*
X83345826Y-85577000D01*
X83794174Y-85577000D01*
X84208394Y-85405424D01*
X84445481Y-85168337D01*
X84520055Y-85279945D01*
X84564055Y-85309345D01*
X86673001Y-87418292D01*
X86673000Y-91248097D01*
X86673000Y-91298888D01*
X86431542Y-91398903D01*
X86198903Y-91631542D01*
X86073000Y-91935499D01*
X86073000Y-92264501D01*
X86198903Y-92568458D01*
X86431542Y-92801097D01*
X86519061Y-92837348D01*
X85381710Y-93974700D01*
X80850197Y-93974700D01*
X80798299Y-93964377D01*
X80746401Y-93974700D01*
X80746397Y-93974700D01*
X80592675Y-94005277D01*
X80592673Y-94005278D01*
X80592674Y-94005278D01*
X80462355Y-94092354D01*
X80462352Y-94092357D01*
X80418355Y-94121755D01*
X80388956Y-94165753D01*
X79681710Y-94873000D01*
X79435499Y-94873000D01*
X79131542Y-94998903D01*
X78898903Y-95231542D01*
X78773000Y-95535499D01*
X78773000Y-95864501D01*
X78898903Y-96168458D01*
X79131542Y-96401097D01*
X79435499Y-96527000D01*
X79764501Y-96527000D01*
X80068458Y-96401097D01*
X80301097Y-96168458D01*
X80427000Y-95864501D01*
X80427000Y-95618290D01*
X81016591Y-95028700D01*
X85548102Y-95028700D01*
X85600000Y-95039023D01*
X85651898Y-95028700D01*
X85651903Y-95028700D01*
X85805625Y-94998123D01*
X85979945Y-94881645D01*
X86009345Y-94837645D01*
X87935947Y-92911043D01*
X87979945Y-92881645D01*
X88009343Y-92837648D01*
X88009346Y-92837645D01*
X88076378Y-92737324D01*
X88096423Y-92707325D01*
X88127000Y-92553603D01*
X88127000Y-92553599D01*
X88137323Y-92501701D01*
X88127000Y-92449803D01*
X88127000Y-85681189D01*
X88457122Y-85797419D01*
X88987440Y-85768664D01*
X89123002Y-85712512D01*
X89123002Y-87348093D01*
X89123001Y-87348098D01*
X89123001Y-87681710D01*
X88964053Y-87840658D01*
X88920056Y-87870056D01*
X88890658Y-87914053D01*
X88890654Y-87914057D01*
X88803578Y-88044376D01*
X88762677Y-88250001D01*
X88773001Y-88301904D01*
X88773000Y-91557445D01*
X88598903Y-91731542D01*
X88473000Y-92035499D01*
X88473000Y-92364501D01*
X88598903Y-92668458D01*
X88831542Y-92901097D01*
X89135499Y-93027000D01*
X89464501Y-93027000D01*
X89768458Y-92901097D01*
X90001097Y-92668458D01*
X90127000Y-92364501D01*
X90127000Y-92035499D01*
X90001097Y-91731542D01*
X89827000Y-91557445D01*
X89827000Y-88468291D01*
X89985944Y-88309347D01*
X90029946Y-88279945D01*
X90146424Y-88105625D01*
X90177001Y-87951903D01*
X90177001Y-87951898D01*
X90187324Y-87900001D01*
X90177001Y-87848103D01*
X90177001Y-85185283D01*
X90254725Y-85205669D01*
X91010395Y-84450000D01*
X90254725Y-83694331D01*
X90177001Y-83714717D01*
X90177001Y-82409396D01*
X90234576Y-82548394D01*
X90551606Y-82865424D01*
X90965826Y-83037000D01*
X91414174Y-83037000D01*
X91828394Y-82865424D01*
X91973001Y-82720817D01*
X91973001Y-83487391D01*
X91945669Y-83514723D01*
X91883831Y-83278958D01*
X91382878Y-83102581D01*
X90852560Y-83131336D01*
X90496169Y-83278958D01*
X90434331Y-83514725D01*
X91190000Y-84270395D01*
X91204142Y-84256252D01*
X91383748Y-84435858D01*
X91369605Y-84450000D01*
X91383748Y-84464143D01*
X91204142Y-84643748D01*
X91190000Y-84629605D01*
X90434331Y-85385275D01*
X90496169Y-85621042D01*
X90997122Y-85797419D01*
X91527440Y-85768664D01*
X91883831Y-85621042D01*
X91945669Y-85385277D01*
X91973000Y-85412608D01*
X91973000Y-88081710D01*
X90361139Y-89693571D01*
X90317142Y-89722969D01*
X90287744Y-89766966D01*
X90287740Y-89766970D01*
X90200664Y-89897289D01*
X90159763Y-90102914D01*
X90170087Y-90154817D01*
X90170086Y-92884624D01*
X87581700Y-95473010D01*
X83851889Y-95473010D01*
X83799990Y-95462687D01*
X83748142Y-95473000D01*
X83435499Y-95473000D01*
X83131542Y-95598903D01*
X82898903Y-95831542D01*
X82773000Y-96135499D01*
X82773000Y-96464501D01*
X82898903Y-96768458D01*
X83131542Y-97001097D01*
X83435499Y-97127000D01*
X83764501Y-97127000D01*
X83914563Y-97064842D01*
X83959363Y-97173000D01*
X80518290Y-97173000D01*
X80409345Y-97064055D01*
X80379945Y-97020055D01*
X80205625Y-96903577D01*
X80165064Y-96895509D01*
X79968458Y-96698903D01*
X79664501Y-96573000D01*
X79335499Y-96573000D01*
X79031542Y-96698903D01*
X78798903Y-96931542D01*
X78673000Y-97235499D01*
X66592864Y-97235499D01*
X66676930Y-97032547D01*
X66676930Y-96465053D01*
X66459760Y-95940758D01*
X66058482Y-95539480D01*
X65534187Y-95322310D01*
X64966693Y-95322310D01*
X64442398Y-95539480D01*
X64041120Y-95940758D01*
X63823950Y-96465053D01*
X62374665Y-96465053D01*
X62370901Y-96363423D01*
X62168525Y-95874842D01*
X61901723Y-95776243D01*
X60929165Y-96748800D01*
X60569955Y-96748800D01*
X59597397Y-95776243D01*
X59330595Y-95874842D01*
X59104159Y-96484382D01*
X58676930Y-96484382D01*
X58676930Y-96465053D01*
X58459760Y-95940758D01*
X58115639Y-95596637D01*
X59777003Y-95596637D01*
X60749560Y-96569195D01*
X61722117Y-95596637D01*
X61623518Y-95329835D01*
X61013978Y-95103399D01*
X60364183Y-95127459D01*
X59875602Y-95329835D01*
X59777003Y-95596637D01*
X58115639Y-95596637D01*
X58058482Y-95539480D01*
X57534187Y-95322310D01*
X56966693Y-95322310D01*
X56442398Y-95539480D01*
X56041120Y-95940758D01*
X55823950Y-96465053D01*
X54374665Y-96465053D01*
X54370901Y-96363423D01*
X54168525Y-95874842D01*
X53901723Y-95776243D01*
X52929165Y-96748800D01*
X52569955Y-96748800D01*
X51597397Y-95776243D01*
X51502000Y-95811498D01*
X51502000Y-95596637D01*
X51777003Y-95596637D01*
X52749560Y-96569195D01*
X53722117Y-95596637D01*
X53623518Y-95329835D01*
X53013978Y-95103399D01*
X52364183Y-95127459D01*
X51875602Y-95329835D01*
X51777003Y-95596637D01*
X51502000Y-95596637D01*
X51502000Y-93402603D01*
X54776243Y-93402603D01*
X54874842Y-93669405D01*
X55484382Y-93895841D01*
X56134177Y-93871781D01*
X56622758Y-93669405D01*
X56721357Y-93402603D01*
X55748800Y-92430045D01*
X54776243Y-93402603D01*
X51502000Y-93402603D01*
X51502000Y-91986022D01*
X54103399Y-91986022D01*
X54127459Y-92635817D01*
X54329835Y-93124398D01*
X54596637Y-93222997D01*
X55569195Y-92250440D01*
X55928405Y-92250440D01*
X56900963Y-93222997D01*
X57167765Y-93124398D01*
X57394201Y-92514858D01*
X57373905Y-91966693D01*
X60824710Y-91966693D01*
X60824710Y-92534187D01*
X61041880Y-93058482D01*
X61443158Y-93459760D01*
X61967453Y-93676930D01*
X62534947Y-93676930D01*
X63059242Y-93459760D01*
X63460520Y-93058482D01*
X63677690Y-92534187D01*
X63677690Y-91966693D01*
X63460520Y-91442398D01*
X63059242Y-91041120D01*
X62534947Y-90823950D01*
X61967453Y-90823950D01*
X61443158Y-91041120D01*
X61041880Y-91442398D01*
X60824710Y-91966693D01*
X57373905Y-91966693D01*
X57370141Y-91865063D01*
X57167765Y-91376482D01*
X56900963Y-91277883D01*
X55928405Y-92250440D01*
X55569195Y-92250440D01*
X54596637Y-91277883D01*
X54329835Y-91376482D01*
X54103399Y-91986022D01*
X51502000Y-91986022D01*
X51502000Y-91098277D01*
X54776243Y-91098277D01*
X55748800Y-92070835D01*
X56721357Y-91098277D01*
X56622758Y-90831475D01*
X56013218Y-90605039D01*
X55363423Y-90629099D01*
X54874842Y-90831475D01*
X54776243Y-91098277D01*
X51502000Y-91098277D01*
X51502000Y-87465813D01*
X54322310Y-87465813D01*
X54322310Y-88033307D01*
X54539480Y-88557602D01*
X54940758Y-88958880D01*
X55465053Y-89176050D01*
X56032547Y-89176050D01*
X56556842Y-88958880D01*
X56613999Y-88901723D01*
X61278643Y-88901723D01*
X61377242Y-89168525D01*
X61986782Y-89394961D01*
X62636577Y-89370901D01*
X63125158Y-89168525D01*
X63223757Y-88901723D01*
X62251200Y-87929165D01*
X61278643Y-88901723D01*
X56613999Y-88901723D01*
X56958120Y-88557602D01*
X57175290Y-88033307D01*
X57175290Y-87485142D01*
X60605799Y-87485142D01*
X60629859Y-88134937D01*
X60832235Y-88623518D01*
X61099037Y-88722117D01*
X62071595Y-87749560D01*
X62430805Y-87749560D01*
X63403363Y-88722117D01*
X63670165Y-88623518D01*
X63896601Y-88013978D01*
X63872541Y-87364183D01*
X63670165Y-86875602D01*
X63403363Y-86777003D01*
X62430805Y-87749560D01*
X62071595Y-87749560D01*
X61099037Y-86777003D01*
X60832235Y-86875602D01*
X60605799Y-87485142D01*
X57175290Y-87485142D01*
X57175290Y-87465813D01*
X56958120Y-86941518D01*
X56613999Y-86597397D01*
X61278643Y-86597397D01*
X62251200Y-87569955D01*
X63223757Y-86597397D01*
X63125158Y-86330595D01*
X62515618Y-86104159D01*
X61865823Y-86128219D01*
X61377242Y-86330595D01*
X61278643Y-86597397D01*
X56613999Y-86597397D01*
X56556842Y-86540240D01*
X56032547Y-86323070D01*
X55465053Y-86323070D01*
X54940758Y-86540240D01*
X54539480Y-86941518D01*
X54322310Y-87465813D01*
X51502000Y-87465813D01*
X51502000Y-84402603D01*
X54776243Y-84402603D01*
X54874842Y-84669405D01*
X55484382Y-84895841D01*
X56134177Y-84871781D01*
X56622758Y-84669405D01*
X56721357Y-84402603D01*
X55748800Y-83430045D01*
X54776243Y-84402603D01*
X51502000Y-84402603D01*
X51502000Y-82986022D01*
X54103399Y-82986022D01*
X54127459Y-83635817D01*
X54329835Y-84124398D01*
X54596637Y-84222997D01*
X55569195Y-83250440D01*
X55928405Y-83250440D01*
X56900963Y-84222997D01*
X57167765Y-84124398D01*
X57394201Y-83514858D01*
X57373905Y-82966693D01*
X60824710Y-82966693D01*
X60824710Y-83534187D01*
X61041880Y-84058482D01*
X61443158Y-84459760D01*
X61967453Y-84676930D01*
X62534947Y-84676930D01*
X63059242Y-84459760D01*
X63293176Y-84225826D01*
X69743000Y-84225826D01*
X69743000Y-84674174D01*
X69914576Y-85088394D01*
X70231606Y-85405424D01*
X70645826Y-85577000D01*
X71094174Y-85577000D01*
X71508394Y-85405424D01*
X71825424Y-85088394D01*
X71997000Y-84674174D01*
X71997000Y-84225826D01*
X72283000Y-84225826D01*
X72283000Y-84674174D01*
X72454576Y-85088394D01*
X72771606Y-85405424D01*
X73185826Y-85577000D01*
X73634174Y-85577000D01*
X74048394Y-85405424D01*
X74365424Y-85088394D01*
X74537000Y-84674174D01*
X74537000Y-84225826D01*
X74823000Y-84225826D01*
X74823000Y-84674174D01*
X74994576Y-85088394D01*
X75311606Y-85405424D01*
X75725826Y-85577000D01*
X76174174Y-85577000D01*
X76588394Y-85405424D01*
X76905424Y-85088394D01*
X77077000Y-84674174D01*
X77077000Y-84225826D01*
X77363000Y-84225826D01*
X77363000Y-84674174D01*
X77534576Y-85088394D01*
X77851606Y-85405424D01*
X78265826Y-85577000D01*
X78714174Y-85577000D01*
X79128394Y-85405424D01*
X79445424Y-85088394D01*
X79617000Y-84674174D01*
X79617000Y-84225826D01*
X79903000Y-84225826D01*
X79903000Y-84674174D01*
X80074576Y-85088394D01*
X80391606Y-85405424D01*
X80805826Y-85577000D01*
X81254174Y-85577000D01*
X81668394Y-85405424D01*
X81985424Y-85088394D01*
X82157000Y-84674174D01*
X82157000Y-84225826D01*
X81985424Y-83811606D01*
X81668394Y-83494576D01*
X81254174Y-83323000D01*
X80805826Y-83323000D01*
X80391606Y-83494576D01*
X80074576Y-83811606D01*
X79903000Y-84225826D01*
X79617000Y-84225826D01*
X79445424Y-83811606D01*
X79128394Y-83494576D01*
X78714174Y-83323000D01*
X78265826Y-83323000D01*
X77851606Y-83494576D01*
X77534576Y-83811606D01*
X77363000Y-84225826D01*
X77077000Y-84225826D01*
X76905424Y-83811606D01*
X76588394Y-83494576D01*
X76174174Y-83323000D01*
X75725826Y-83323000D01*
X75311606Y-83494576D01*
X74994576Y-83811606D01*
X74823000Y-84225826D01*
X74537000Y-84225826D01*
X74365424Y-83811606D01*
X74048394Y-83494576D01*
X73634174Y-83323000D01*
X73185826Y-83323000D01*
X72771606Y-83494576D01*
X72454576Y-83811606D01*
X72283000Y-84225826D01*
X71997000Y-84225826D01*
X71825424Y-83811606D01*
X71508394Y-83494576D01*
X71094174Y-83323000D01*
X70645826Y-83323000D01*
X70231606Y-83494576D01*
X69914576Y-83811606D01*
X69743000Y-84225826D01*
X63293176Y-84225826D01*
X63460520Y-84058482D01*
X63677690Y-83534187D01*
X63677690Y-82966693D01*
X63460520Y-82442398D01*
X63059242Y-82041120D01*
X62534947Y-81823950D01*
X61967453Y-81823950D01*
X61443158Y-82041120D01*
X61041880Y-82442398D01*
X60824710Y-82966693D01*
X57373905Y-82966693D01*
X57370141Y-82865063D01*
X57167765Y-82376482D01*
X56900963Y-82277883D01*
X55928405Y-83250440D01*
X55569195Y-83250440D01*
X54596637Y-82277883D01*
X54329835Y-82376482D01*
X54103399Y-82986022D01*
X51502000Y-82986022D01*
X51502000Y-82098277D01*
X54776243Y-82098277D01*
X55748800Y-83070835D01*
X56721357Y-82098277D01*
X56622758Y-81831475D01*
X56013218Y-81605039D01*
X55363423Y-81629099D01*
X54874842Y-81831475D01*
X54776243Y-82098277D01*
X51502000Y-82098277D01*
X51502000Y-77502000D01*
X55033078Y-77502000D01*
X54940758Y-77540240D01*
G36*
X88650000Y-84270395D02*
X88664143Y-84256253D01*
X88843748Y-84435858D01*
X88829605Y-84450000D01*
X88843748Y-84464142D01*
X88664143Y-84643748D01*
X88650000Y-84629605D01*
X88635858Y-84643748D01*
X88456253Y-84464143D01*
X88470395Y-84450000D01*
X88456253Y-84435858D01*
X88635858Y-84256252D01*
X88650000Y-84270395D01*
X88650000Y-84270395D01*
G37*
X88650000Y-84270395D02*
X88664143Y-84256253D01*
X88843748Y-84435858D01*
X88829605Y-84450000D01*
X88843748Y-84464142D01*
X88664143Y-84643748D01*
X88650000Y-84629605D01*
X88635858Y-84643748D01*
X88456253Y-84464143D01*
X88470395Y-84450000D01*
X88456253Y-84435858D01*
X88635858Y-84256252D01*
X88650000Y-84270395D01*
G36*
X88843748Y-81895858D02*
X88829605Y-81910000D01*
X88843748Y-81924143D01*
X88664142Y-82103748D01*
X88650000Y-82089605D01*
X88635858Y-82103748D01*
X88456253Y-81924143D01*
X88470395Y-81910000D01*
X88456253Y-81895858D01*
X88635858Y-81716252D01*
X88650000Y-81730395D01*
X88664142Y-81716252D01*
X88843748Y-81895858D01*
X88843748Y-81895858D01*
G37*
X88843748Y-81895858D02*
X88829605Y-81910000D01*
X88843748Y-81924143D01*
X88664142Y-82103748D01*
X88650000Y-82089605D01*
X88635858Y-82103748D01*
X88456253Y-81924143D01*
X88470395Y-81910000D01*
X88456253Y-81895858D01*
X88635858Y-81716252D01*
X88650000Y-81730395D01*
X88664142Y-81716252D01*
X88843748Y-81895858D01*
G04 #@! TD*
M02*
