%FSLAX45Y45*%
G04 Gerber Fmt 4.5, Leading zero omitted, Abs format (unit mm)*
G04 Created by KiCad (PCBNEW 5.0.0-fee4fd1~66~ubuntu18.04.1) date Mon Oct  8 02:40:17 2018*
%MOMM*%
%LPD*%
G01*
G04 APERTURE LIST*
%ADD10C,0.150000*%
%ADD11C,0.200000*%
%ADD12C,0.300000*%
G04 APERTURE END LIST*
D10*
X12300000Y-13000000D02*
X12300000Y-7700000D01*
X5100000Y-7700000D02*
X5100000Y-13000000D01*
X12300000Y-7700000D02*
X5100000Y-7700000D01*
X5100000Y-13000000D02*
X12300000Y-13000000D01*
D11*
X6900000Y-10620000D02*
X6940000Y-10660000D01*
X6940000Y-10620000D02*
X6900000Y-10660000D01*
X7190000Y-9323000D02*
X7230000Y-9363000D01*
X7230000Y-9323000D02*
X7190000Y-9363000D01*
X7190000Y-10330000D02*
X7230000Y-10370000D01*
X7230000Y-10330000D02*
X7190000Y-10370000D01*
X7280000Y-8740000D02*
X7320000Y-8780000D01*
X7320000Y-8740000D02*
X7280000Y-8780000D01*
X7640000Y-9320000D02*
X7680000Y-9360000D01*
X7680000Y-9320000D02*
X7640000Y-9360000D01*
X7930000Y-9720000D02*
X7970000Y-9760000D01*
X7970000Y-9720000D02*
X7930000Y-9760000D01*
X7940000Y-8740000D02*
X7980000Y-8780000D01*
X7980000Y-8740000D02*
X7940000Y-8780000D01*
X7940000Y-9550000D02*
X7980000Y-9590000D01*
X7980000Y-9550000D02*
X7940000Y-9590000D01*
X7950000Y-11930000D02*
X7990000Y-11970000D01*
X7990000Y-11930000D02*
X7950000Y-11970000D01*
X8340000Y-9610000D02*
X8380000Y-9650000D01*
X8380000Y-9610000D02*
X8340000Y-9650000D01*
X8360000Y-12360000D02*
X8400000Y-12400000D01*
X8400000Y-12360000D02*
X8360000Y-12400000D01*
X8450000Y-9660000D02*
X8490000Y-9700000D01*
X8490000Y-9660000D02*
X8450000Y-9700000D01*
X8490000Y-9320000D02*
X8530000Y-9360000D01*
X8530000Y-9320000D02*
X8490000Y-9360000D01*
X8610000Y-8740000D02*
X8650000Y-8780000D01*
X8650000Y-8740000D02*
X8610000Y-8780000D01*
X8640000Y-12240000D02*
X8680000Y-12280000D01*
X8680000Y-12240000D02*
X8640000Y-12280000D01*
X8670000Y-9190000D02*
X8710000Y-9230000D01*
X8710000Y-9190000D02*
X8670000Y-9230000D01*
X8850000Y-11850000D02*
X8890000Y-11890000D01*
X8890000Y-11850000D02*
X8850000Y-11890000D01*
X8910000Y-9200000D02*
X8950000Y-9240000D01*
X8950000Y-9200000D02*
X8910000Y-9240000D01*
X9230000Y-9240000D02*
X9270000Y-9280000D01*
X9270000Y-9240000D02*
X9230000Y-9280000D01*
X9390000Y-9180000D02*
X9430000Y-9220000D01*
X9430000Y-9180000D02*
X9390000Y-9220000D01*
X10330000Y-9240000D02*
X10370000Y-9280000D01*
X10370000Y-9240000D02*
X10330000Y-9280000D01*
X10390000Y-8940000D02*
X10430000Y-8980000D01*
X10430000Y-8940000D02*
X10390000Y-8980000D01*
X10860000Y-10490000D02*
X10900000Y-10530000D01*
X10900000Y-10490000D02*
X10860000Y-10530000D01*
X11100000Y-12180000D02*
X11140000Y-12220000D01*
X11140000Y-12180000D02*
X11100000Y-12220000D01*
X11190000Y-12390000D02*
X11230000Y-12430000D01*
X11230000Y-12390000D02*
X11190000Y-12430000D01*
X11300000Y-9420000D02*
X11340000Y-9460000D01*
X11340000Y-9420000D02*
X11300000Y-9460000D01*
X11870000Y-9810000D02*
X11910000Y-9850000D01*
X11910000Y-9810000D02*
X11870000Y-9850000D01*
X7117000Y-8191000D02*
G75*
G03X7117000Y-8191000I-30000J0D01*
G01*
X7117000Y-10985000D02*
G75*
G03X7117000Y-10985000I-30000J0D01*
G01*
X7371000Y-8191000D02*
G75*
G03X7371000Y-8191000I-30000J0D01*
G01*
X7371000Y-10985000D02*
G75*
G03X7371000Y-10985000I-30000J0D01*
G01*
X7625000Y-8191000D02*
G75*
G03X7625000Y-8191000I-30000J0D01*
G01*
X7879000Y-8191000D02*
G75*
G03X7879000Y-8191000I-30000J0D01*
G01*
X8133000Y-8191000D02*
G75*
G03X8133000Y-8191000I-30000J0D01*
G01*
X8387000Y-8191000D02*
G75*
G03X8387000Y-8191000I-30000J0D01*
G01*
X8641000Y-8191000D02*
G75*
G03X8641000Y-8191000I-30000J0D01*
G01*
X8895000Y-8191000D02*
G75*
G03X8895000Y-8191000I-30000J0D01*
G01*
X9149000Y-8191000D02*
G75*
G03X9149000Y-8191000I-30000J0D01*
G01*
X9403000Y-8191000D02*
G75*
G03X9403000Y-8191000I-30000J0D01*
G01*
X9657000Y-8191000D02*
G75*
G03X9657000Y-8191000I-30000J0D01*
G01*
X9911000Y-8191000D02*
G75*
G03X9911000Y-8191000I-30000J0D01*
G01*
X10165000Y-8191000D02*
G75*
G03X10165000Y-8191000I-30000J0D01*
G01*
X10419000Y-8191000D02*
G75*
G03X10419000Y-8191000I-30000J0D01*
G01*
X10673000Y-8191000D02*
G75*
G03X10673000Y-8191000I-30000J0D01*
G01*
X10927000Y-8191000D02*
G75*
G03X10927000Y-8191000I-30000J0D01*
G01*
X11181000Y-8191000D02*
G75*
G03X11181000Y-8191000I-30000J0D01*
G01*
X11435000Y-8191000D02*
G75*
G03X11435000Y-8191000I-30000J0D01*
G01*
X11689000Y-8191000D02*
G75*
G03X11689000Y-8191000I-30000J0D01*
G01*
X11689000Y-10985000D02*
G75*
G03X11689000Y-10985000I-30000J0D01*
G01*
X11943000Y-8191000D02*
G75*
G03X11943000Y-8191000I-30000J0D01*
G01*
X11943000Y-10985000D02*
G75*
G03X11943000Y-10985000I-30000J0D01*
G01*
X7117000Y-8445000D02*
G75*
G03X7117000Y-8445000I-30000J0D01*
G01*
X7117000Y-12255000D02*
G75*
G03X7117000Y-12255000I-30000J0D01*
G01*
X7371000Y-8445000D02*
G75*
G03X7371000Y-8445000I-30000J0D01*
G01*
X7371000Y-12255000D02*
G75*
G03X7371000Y-12255000I-30000J0D01*
G01*
X7625000Y-8445000D02*
G75*
G03X7625000Y-8445000I-30000J0D01*
G01*
X7879000Y-8445000D02*
G75*
G03X7879000Y-8445000I-30000J0D01*
G01*
X8133000Y-8445000D02*
G75*
G03X8133000Y-8445000I-30000J0D01*
G01*
X8387000Y-8445000D02*
G75*
G03X8387000Y-8445000I-30000J0D01*
G01*
X8641000Y-8445000D02*
G75*
G03X8641000Y-8445000I-30000J0D01*
G01*
X8895000Y-8445000D02*
G75*
G03X8895000Y-8445000I-30000J0D01*
G01*
X9149000Y-8445000D02*
G75*
G03X9149000Y-8445000I-30000J0D01*
G01*
X9403000Y-8445000D02*
G75*
G03X9403000Y-8445000I-30000J0D01*
G01*
X9657000Y-8445000D02*
G75*
G03X9657000Y-8445000I-30000J0D01*
G01*
X9911000Y-8445000D02*
G75*
G03X9911000Y-8445000I-30000J0D01*
G01*
X10165000Y-8445000D02*
G75*
G03X10165000Y-8445000I-30000J0D01*
G01*
X10165000Y-12255000D02*
G75*
G03X10165000Y-12255000I-30000J0D01*
G01*
X10419000Y-8445000D02*
G75*
G03X10419000Y-8445000I-30000J0D01*
G01*
X10419000Y-12255000D02*
G75*
G03X10419000Y-12255000I-30000J0D01*
G01*
X7117000Y-8191000D02*
G75*
G03X7117000Y-8191000I-30000J0D01*
G01*
X7117000Y-12509000D02*
G75*
G03X7117000Y-12509000I-30000J0D01*
G01*
X7371000Y-8191000D02*
G75*
G03X7371000Y-8191000I-30000J0D01*
G01*
X7371000Y-12509000D02*
G75*
G03X7371000Y-12509000I-30000J0D01*
G01*
X7625000Y-8191000D02*
G75*
G03X7625000Y-8191000I-30000J0D01*
G01*
X7625000Y-12509000D02*
G75*
G03X7625000Y-12509000I-30000J0D01*
G01*
X7879000Y-8191000D02*
G75*
G03X7879000Y-8191000I-30000J0D01*
G01*
X8133000Y-8191000D02*
G75*
G03X8133000Y-8191000I-30000J0D01*
G01*
X8387000Y-8191000D02*
G75*
G03X8387000Y-8191000I-30000J0D01*
G01*
X8641000Y-8191000D02*
G75*
G03X8641000Y-8191000I-30000J0D01*
G01*
X8895000Y-8191000D02*
G75*
G03X8895000Y-8191000I-30000J0D01*
G01*
X9149000Y-8191000D02*
G75*
G03X9149000Y-8191000I-30000J0D01*
G01*
X9403000Y-8191000D02*
G75*
G03X9403000Y-8191000I-30000J0D01*
G01*
X9657000Y-8191000D02*
G75*
G03X9657000Y-8191000I-30000J0D01*
G01*
X9911000Y-8191000D02*
G75*
G03X9911000Y-8191000I-30000J0D01*
G01*
X10165000Y-8191000D02*
G75*
G03X10165000Y-8191000I-30000J0D01*
G01*
X10419000Y-8191000D02*
G75*
G03X10419000Y-8191000I-30000J0D01*
G01*
X10673000Y-8191000D02*
G75*
G03X10673000Y-8191000I-30000J0D01*
G01*
X10927000Y-8191000D02*
G75*
G03X10927000Y-8191000I-30000J0D01*
G01*
X11181000Y-8191000D02*
G75*
G03X11181000Y-8191000I-30000J0D01*
G01*
X11435000Y-8191000D02*
G75*
G03X11435000Y-8191000I-30000J0D01*
G01*
X11435000Y-12509000D02*
G75*
G03X11435000Y-12509000I-30000J0D01*
G01*
X11689000Y-8191000D02*
G75*
G03X11689000Y-8191000I-30000J0D01*
G01*
X11689000Y-12509000D02*
G75*
G03X11689000Y-12509000I-30000J0D01*
G01*
X11943000Y-8191000D02*
G75*
G03X11943000Y-8191000I-30000J0D01*
G01*
X11943000Y-12509000D02*
G75*
G03X11943000Y-12509000I-30000J0D01*
G01*
X7349600Y-7870000D02*
X7349600Y-7970000D01*
X7299600Y-7920000D02*
X7399600Y-7920000D01*
X7603600Y-7870000D02*
X7603600Y-7970000D01*
X7553600Y-7920000D02*
X7653600Y-7920000D01*
X7857600Y-7870000D02*
X7857600Y-7970000D01*
X7807600Y-7920000D02*
X7907600Y-7920000D01*
X8111600Y-7870000D02*
X8111600Y-7970000D01*
X8061600Y-7920000D02*
X8161600Y-7920000D01*
X8264000Y-12696000D02*
X8264000Y-12796000D01*
X8214000Y-12746000D02*
X8314000Y-12746000D01*
X8365600Y-7870000D02*
X8365600Y-7970000D01*
X8315600Y-7920000D02*
X8415600Y-7920000D01*
X8518000Y-12696000D02*
X8518000Y-12796000D01*
X8468000Y-12746000D02*
X8568000Y-12746000D01*
X8619600Y-7870000D02*
X8619600Y-7970000D01*
X8569600Y-7920000D02*
X8669600Y-7920000D01*
X8772000Y-12696000D02*
X8772000Y-12796000D01*
X8722000Y-12746000D02*
X8822000Y-12746000D01*
X8873600Y-7870000D02*
X8873600Y-7970000D01*
X8823600Y-7920000D02*
X8923600Y-7920000D01*
X9026000Y-12696000D02*
X9026000Y-12796000D01*
X8976000Y-12746000D02*
X9076000Y-12746000D01*
X9127600Y-7870000D02*
X9127600Y-7970000D01*
X9077600Y-7920000D02*
X9177600Y-7920000D01*
X9280000Y-12696000D02*
X9280000Y-12796000D01*
X9230000Y-12746000D02*
X9330000Y-12746000D01*
X9381600Y-7870000D02*
X9381600Y-7970000D01*
X9331600Y-7920000D02*
X9431600Y-7920000D01*
X9534000Y-12696000D02*
X9534000Y-12796000D01*
X9484000Y-12746000D02*
X9584000Y-12746000D01*
X9635600Y-7870000D02*
X9635600Y-7970000D01*
X9585600Y-7920000D02*
X9685600Y-7920000D01*
X9788000Y-12696000D02*
X9788000Y-12796000D01*
X9738000Y-12746000D02*
X9838000Y-12746000D01*
X10042000Y-7870000D02*
X10042000Y-7970000D01*
X9992000Y-7920000D02*
X10092000Y-7920000D01*
X10042000Y-12696000D02*
X10042000Y-12796000D01*
X9992000Y-12746000D02*
X10092000Y-12746000D01*
X10296000Y-7870000D02*
X10296000Y-7970000D01*
X10246000Y-7920000D02*
X10346000Y-7920000D01*
X10550000Y-7870000D02*
X10550000Y-7970000D01*
X10500000Y-7920000D02*
X10600000Y-7920000D01*
X10550000Y-12696000D02*
X10550000Y-12796000D01*
X10500000Y-12746000D02*
X10600000Y-12746000D01*
X10804000Y-7870000D02*
X10804000Y-7970000D01*
X10754000Y-7920000D02*
X10854000Y-7920000D01*
X10804000Y-12696000D02*
X10804000Y-12796000D01*
X10754000Y-12746000D02*
X10854000Y-12746000D01*
X11058000Y-7870000D02*
X11058000Y-7970000D01*
X11008000Y-7920000D02*
X11108000Y-7920000D01*
X11058000Y-12696000D02*
X11058000Y-12796000D01*
X11008000Y-12746000D02*
X11108000Y-12746000D01*
X11312000Y-7870000D02*
X11312000Y-7970000D01*
X11262000Y-7920000D02*
X11362000Y-7920000D01*
X11312000Y-12696000D02*
X11312000Y-12796000D01*
X11262000Y-12746000D02*
X11362000Y-12746000D01*
X11566000Y-7870000D02*
X11566000Y-7970000D01*
X11516000Y-7920000D02*
X11616000Y-7920000D01*
X11566000Y-12696000D02*
X11566000Y-12796000D01*
X11516000Y-12746000D02*
X11616000Y-12746000D01*
X11820000Y-7870000D02*
X11820000Y-7970000D01*
X11770000Y-7920000D02*
X11870000Y-7920000D01*
X11820000Y-12696000D02*
X11820000Y-12796000D01*
X11770000Y-12746000D02*
X11870000Y-12746000D01*
X5610262Y-10810339D02*
X5610262Y-10739574D01*
X5539498Y-10739574D01*
X5539498Y-10810339D01*
X5610262Y-10810339D01*
X5610262Y-11260426D02*
X5610262Y-11189661D01*
X5539498Y-11189661D01*
X5539498Y-11260426D01*
X5610262Y-11260426D01*
X6260502Y-10810339D02*
X6260502Y-10739574D01*
X6189737Y-10739574D01*
X6189737Y-10810339D01*
X6260502Y-10810339D01*
X6260502Y-11260426D02*
X6260502Y-11189661D01*
X6189737Y-11189661D01*
X6189737Y-11260426D01*
X6260502Y-11260426D01*
X5610262Y-12310338D02*
X5610262Y-12239573D01*
X5539498Y-12239573D01*
X5539498Y-12310338D01*
X5610262Y-12310338D01*
X5610262Y-12760426D02*
X5610262Y-12689661D01*
X5539498Y-12689661D01*
X5539498Y-12760426D01*
X5610262Y-12760426D01*
X6260502Y-12310338D02*
X6260502Y-12239573D01*
X6189737Y-12239573D01*
X6189737Y-12310338D01*
X6260502Y-12310338D01*
X6260502Y-12760426D02*
X6260502Y-12689661D01*
X6189737Y-12689661D01*
X6189737Y-12760426D01*
X6260502Y-12760426D01*
X5610262Y-7910338D02*
X5610262Y-7839573D01*
X5539498Y-7839573D01*
X5539498Y-7910338D01*
X5610262Y-7910338D01*
X5610262Y-8360426D02*
X5610262Y-8289661D01*
X5539498Y-8289661D01*
X5539498Y-8360426D01*
X5610262Y-8360426D01*
X6260502Y-7910338D02*
X6260502Y-7839573D01*
X6189737Y-7839573D01*
X6189737Y-7910338D01*
X6260502Y-7910338D01*
X6260502Y-8360426D02*
X6260502Y-8289661D01*
X6189737Y-8289661D01*
X6189737Y-8360426D01*
X6260502Y-8360426D01*
X5310339Y-9710263D02*
X5310339Y-9639498D01*
X5239574Y-9639498D01*
X5239574Y-9710263D01*
X5310339Y-9710263D01*
X5310339Y-10360503D02*
X5310339Y-10289738D01*
X5239574Y-10289738D01*
X5239574Y-10360503D01*
X5310339Y-10360503D01*
X5760426Y-9710263D02*
X5760426Y-9639498D01*
X5689661Y-9639498D01*
X5689661Y-9710263D01*
X5760426Y-9710263D01*
X5760426Y-10360503D02*
X5760426Y-10289738D01*
X5689661Y-10289738D01*
X5689661Y-10360503D01*
X5760426Y-10360503D01*
X6110338Y-9710263D02*
X6110338Y-9639498D01*
X6039573Y-9639498D01*
X6039573Y-9710263D01*
X6110338Y-9710263D01*
X6110338Y-10360503D02*
X6110338Y-10289738D01*
X6039573Y-10289738D01*
X6039573Y-10360503D01*
X6110338Y-10360503D01*
X6560426Y-9710263D02*
X6560426Y-9639498D01*
X6489661Y-9639498D01*
X6489661Y-9710263D01*
X6560426Y-9710263D01*
X6560426Y-10360503D02*
X6560426Y-10289738D01*
X6489661Y-10289738D01*
X6489661Y-10360503D01*
X6560426Y-10360503D01*
X5610262Y-8810339D02*
X5610262Y-8739574D01*
X5539498Y-8739574D01*
X5539498Y-8810339D01*
X5610262Y-8810339D01*
X5610262Y-9260427D02*
X5610262Y-9189662D01*
X5539498Y-9189662D01*
X5539498Y-9260427D01*
X5610262Y-9260427D01*
X6260502Y-8810339D02*
X6260502Y-8739574D01*
X6189737Y-8739574D01*
X6189737Y-8810339D01*
X6260502Y-8810339D01*
X6260502Y-9260427D02*
X6260502Y-9189662D01*
X6189737Y-9189662D01*
X6189737Y-9260427D01*
X6260502Y-9260427D01*
D12*
X5378928Y-13473214D02*
X5378928Y-13173214D01*
X5450357Y-13173214D01*
X5493214Y-13187500D01*
X5521786Y-13216071D01*
X5536071Y-13244643D01*
X5550357Y-13301786D01*
X5550357Y-13344643D01*
X5536071Y-13401786D01*
X5521786Y-13430357D01*
X5493214Y-13458929D01*
X5450357Y-13473214D01*
X5378928Y-13473214D01*
X5678928Y-13473214D02*
X5678928Y-13273214D01*
X5678928Y-13330357D02*
X5693214Y-13301786D01*
X5707500Y-13287500D01*
X5736071Y-13273214D01*
X5764643Y-13273214D01*
X5864643Y-13473214D02*
X5864643Y-13273214D01*
X5864643Y-13173214D02*
X5850357Y-13187500D01*
X5864643Y-13201786D01*
X5878928Y-13187500D01*
X5864643Y-13173214D01*
X5864643Y-13201786D01*
X6050357Y-13473214D02*
X6021786Y-13458929D01*
X6007500Y-13430357D01*
X6007500Y-13173214D01*
X6207500Y-13473214D02*
X6178928Y-13458929D01*
X6164643Y-13430357D01*
X6164643Y-13173214D01*
X6550357Y-13473214D02*
X6550357Y-13173214D01*
X6650357Y-13387500D01*
X6750357Y-13173214D01*
X6750357Y-13473214D01*
X7021786Y-13473214D02*
X7021786Y-13316071D01*
X7007500Y-13287500D01*
X6978928Y-13273214D01*
X6921786Y-13273214D01*
X6893214Y-13287500D01*
X7021786Y-13458929D02*
X6993214Y-13473214D01*
X6921786Y-13473214D01*
X6893214Y-13458929D01*
X6878928Y-13430357D01*
X6878928Y-13401786D01*
X6893214Y-13373214D01*
X6921786Y-13358929D01*
X6993214Y-13358929D01*
X7021786Y-13344643D01*
X7164643Y-13273214D02*
X7164643Y-13573214D01*
X7164643Y-13287500D02*
X7193214Y-13273214D01*
X7250357Y-13273214D01*
X7278928Y-13287500D01*
X7293214Y-13301786D01*
X7307500Y-13330357D01*
X7307500Y-13416071D01*
X7293214Y-13444643D01*
X7278928Y-13458929D01*
X7250357Y-13473214D01*
X7193214Y-13473214D01*
X7164643Y-13458929D01*
X7436071Y-13444643D02*
X7450357Y-13458929D01*
X7436071Y-13473214D01*
X7421786Y-13458929D01*
X7436071Y-13444643D01*
X7436071Y-13473214D01*
X7436071Y-13287500D02*
X7450357Y-13301786D01*
X7436071Y-13316071D01*
X7421786Y-13301786D01*
X7436071Y-13287500D01*
X7436071Y-13316071D01*
X5052500Y-13947500D02*
X5092500Y-13987500D01*
X5092500Y-13947500D02*
X5052500Y-13987500D01*
X5436071Y-13803214D02*
X5464643Y-13803214D01*
X5493214Y-13817500D01*
X5507500Y-13831786D01*
X5521786Y-13860357D01*
X5536071Y-13917500D01*
X5536071Y-13988929D01*
X5521786Y-14046071D01*
X5507500Y-14074643D01*
X5493214Y-14088929D01*
X5464643Y-14103214D01*
X5436071Y-14103214D01*
X5407500Y-14088929D01*
X5393214Y-14074643D01*
X5378928Y-14046071D01*
X5364643Y-13988929D01*
X5364643Y-13917500D01*
X5378928Y-13860357D01*
X5393214Y-13831786D01*
X5407500Y-13817500D01*
X5436071Y-13803214D01*
X5664643Y-14074643D02*
X5678928Y-14088929D01*
X5664643Y-14103214D01*
X5650357Y-14088929D01*
X5664643Y-14074643D01*
X5664643Y-14103214D01*
X5936071Y-13903214D02*
X5936071Y-14103214D01*
X5864643Y-13788929D02*
X5793214Y-14003214D01*
X5978928Y-14003214D01*
X6150357Y-13803214D02*
X6178928Y-13803214D01*
X6207500Y-13817500D01*
X6221786Y-13831786D01*
X6236071Y-13860357D01*
X6250357Y-13917500D01*
X6250357Y-13988929D01*
X6236071Y-14046071D01*
X6221786Y-14074643D01*
X6207500Y-14088929D01*
X6178928Y-14103214D01*
X6150357Y-14103214D01*
X6121786Y-14088929D01*
X6107500Y-14074643D01*
X6093214Y-14046071D01*
X6078928Y-13988929D01*
X6078928Y-13917500D01*
X6093214Y-13860357D01*
X6107500Y-13831786D01*
X6121786Y-13817500D01*
X6150357Y-13803214D01*
X6378928Y-14103214D02*
X6378928Y-13903214D01*
X6378928Y-13931786D02*
X6393214Y-13917500D01*
X6421786Y-13903214D01*
X6464643Y-13903214D01*
X6493214Y-13917500D01*
X6507500Y-13946071D01*
X6507500Y-14103214D01*
X6507500Y-13946071D02*
X6521786Y-13917500D01*
X6550357Y-13903214D01*
X6593214Y-13903214D01*
X6621786Y-13917500D01*
X6636071Y-13946071D01*
X6636071Y-14103214D01*
X6778928Y-14103214D02*
X6778928Y-13903214D01*
X6778928Y-13931786D02*
X6793214Y-13917500D01*
X6821786Y-13903214D01*
X6864643Y-13903214D01*
X6893214Y-13917500D01*
X6907500Y-13946071D01*
X6907500Y-14103214D01*
X6907500Y-13946071D02*
X6921786Y-13917500D01*
X6950357Y-13903214D01*
X6993214Y-13903214D01*
X7021786Y-13917500D01*
X7036071Y-13946071D01*
X7036071Y-14103214D01*
X7621786Y-13788929D02*
X7364643Y-14174643D01*
X8007500Y-13803214D02*
X8036071Y-13803214D01*
X8064643Y-13817500D01*
X8078928Y-13831786D01*
X8093214Y-13860357D01*
X8107500Y-13917500D01*
X8107500Y-13988929D01*
X8093214Y-14046071D01*
X8078928Y-14074643D01*
X8064643Y-14088929D01*
X8036071Y-14103214D01*
X8007500Y-14103214D01*
X7978928Y-14088929D01*
X7964643Y-14074643D01*
X7950357Y-14046071D01*
X7936071Y-13988929D01*
X7936071Y-13917500D01*
X7950357Y-13860357D01*
X7964643Y-13831786D01*
X7978928Y-13817500D01*
X8007500Y-13803214D01*
X8236071Y-14074643D02*
X8250357Y-14088929D01*
X8236071Y-14103214D01*
X8221786Y-14088929D01*
X8236071Y-14074643D01*
X8236071Y-14103214D01*
X8436071Y-13803214D02*
X8464643Y-13803214D01*
X8493214Y-13817500D01*
X8507500Y-13831786D01*
X8521786Y-13860357D01*
X8536071Y-13917500D01*
X8536071Y-13988929D01*
X8521786Y-14046071D01*
X8507500Y-14074643D01*
X8493214Y-14088929D01*
X8464643Y-14103214D01*
X8436071Y-14103214D01*
X8407500Y-14088929D01*
X8393214Y-14074643D01*
X8378928Y-14046071D01*
X8364643Y-13988929D01*
X8364643Y-13917500D01*
X8378928Y-13860357D01*
X8393214Y-13831786D01*
X8407500Y-13817500D01*
X8436071Y-13803214D01*
X8821786Y-14103214D02*
X8650357Y-14103214D01*
X8736071Y-14103214D02*
X8736071Y-13803214D01*
X8707500Y-13846071D01*
X8678928Y-13874643D01*
X8650357Y-13888929D01*
X9078928Y-13803214D02*
X9021786Y-13803214D01*
X8993214Y-13817500D01*
X8978928Y-13831786D01*
X8950357Y-13874643D01*
X8936071Y-13931786D01*
X8936071Y-14046071D01*
X8950357Y-14074643D01*
X8964643Y-14088929D01*
X8993214Y-14103214D01*
X9050357Y-14103214D01*
X9078928Y-14088929D01*
X9093214Y-14074643D01*
X9107500Y-14046071D01*
X9107500Y-13974643D01*
X9093214Y-13946071D01*
X9078928Y-13931786D01*
X9050357Y-13917500D01*
X8993214Y-13917500D01*
X8964643Y-13931786D01*
X8950357Y-13946071D01*
X8936071Y-13974643D01*
X9221786Y-13803214D02*
X9221786Y-13860357D01*
X9336071Y-13803214D02*
X9336071Y-13860357D01*
X9778928Y-14217500D02*
X9764643Y-14203214D01*
X9736071Y-14160357D01*
X9721786Y-14131786D01*
X9707500Y-14088929D01*
X9693214Y-14017500D01*
X9693214Y-13960357D01*
X9707500Y-13888929D01*
X9721786Y-13846071D01*
X9736071Y-13817500D01*
X9764643Y-13774643D01*
X9778928Y-13760357D01*
X9878928Y-13831786D02*
X9893214Y-13817500D01*
X9921786Y-13803214D01*
X9993214Y-13803214D01*
X10021786Y-13817500D01*
X10036071Y-13831786D01*
X10050357Y-13860357D01*
X10050357Y-13888929D01*
X10036071Y-13931786D01*
X9864643Y-14103214D01*
X10050357Y-14103214D01*
X10150357Y-13803214D02*
X10350357Y-13803214D01*
X10221786Y-14103214D01*
X10693214Y-14103214D02*
X10693214Y-13803214D01*
X10821786Y-14103214D02*
X10821786Y-13946071D01*
X10807500Y-13917500D01*
X10778928Y-13903214D01*
X10736071Y-13903214D01*
X10707500Y-13917500D01*
X10693214Y-13931786D01*
X11007500Y-14103214D02*
X10978928Y-14088929D01*
X10964643Y-14074643D01*
X10950357Y-14046071D01*
X10950357Y-13960357D01*
X10964643Y-13931786D01*
X10978928Y-13917500D01*
X11007500Y-13903214D01*
X11050357Y-13903214D01*
X11078928Y-13917500D01*
X11093214Y-13931786D01*
X11107500Y-13960357D01*
X11107500Y-14046071D01*
X11093214Y-14074643D01*
X11078928Y-14088929D01*
X11050357Y-14103214D01*
X11007500Y-14103214D01*
X11278928Y-14103214D02*
X11250357Y-14088929D01*
X11236071Y-14060357D01*
X11236071Y-13803214D01*
X11507500Y-14088929D02*
X11478928Y-14103214D01*
X11421786Y-14103214D01*
X11393214Y-14088929D01*
X11378928Y-14060357D01*
X11378928Y-13946071D01*
X11393214Y-13917500D01*
X11421786Y-13903214D01*
X11478928Y-13903214D01*
X11507500Y-13917500D01*
X11521786Y-13946071D01*
X11521786Y-13974643D01*
X11378928Y-14003214D01*
X11636071Y-14088929D02*
X11664643Y-14103214D01*
X11721786Y-14103214D01*
X11750357Y-14088929D01*
X11764643Y-14060357D01*
X11764643Y-14046071D01*
X11750357Y-14017500D01*
X11721786Y-14003214D01*
X11678928Y-14003214D01*
X11650357Y-13988929D01*
X11636071Y-13960357D01*
X11636071Y-13946071D01*
X11650357Y-13917500D01*
X11678928Y-13903214D01*
X11721786Y-13903214D01*
X11750357Y-13917500D01*
X11864643Y-14217500D02*
X11878928Y-14203214D01*
X11907500Y-14160357D01*
X11921786Y-14131786D01*
X11936071Y-14088929D01*
X11950357Y-14017500D01*
X11950357Y-13960357D01*
X11936071Y-13888929D01*
X11921786Y-13846071D01*
X11907500Y-13817500D01*
X11878928Y-13774643D01*
X11864643Y-13760357D01*
X5092500Y-14363500D02*
G75*
G03X5092500Y-14363500I-30000J0D01*
G01*
X5436071Y-14199214D02*
X5464643Y-14199214D01*
X5493214Y-14213500D01*
X5507500Y-14227786D01*
X5521786Y-14256357D01*
X5536071Y-14313500D01*
X5536071Y-14384929D01*
X5521786Y-14442071D01*
X5507500Y-14470643D01*
X5493214Y-14484929D01*
X5464643Y-14499214D01*
X5436071Y-14499214D01*
X5407500Y-14484929D01*
X5393214Y-14470643D01*
X5378928Y-14442071D01*
X5364643Y-14384929D01*
X5364643Y-14313500D01*
X5378928Y-14256357D01*
X5393214Y-14227786D01*
X5407500Y-14213500D01*
X5436071Y-14199214D01*
X5664643Y-14470643D02*
X5678928Y-14484929D01*
X5664643Y-14499214D01*
X5650357Y-14484929D01*
X5664643Y-14470643D01*
X5664643Y-14499214D01*
X5936071Y-14199214D02*
X5878928Y-14199214D01*
X5850357Y-14213500D01*
X5836071Y-14227786D01*
X5807500Y-14270643D01*
X5793214Y-14327786D01*
X5793214Y-14442071D01*
X5807500Y-14470643D01*
X5821786Y-14484929D01*
X5850357Y-14499214D01*
X5907500Y-14499214D01*
X5936071Y-14484929D01*
X5950357Y-14470643D01*
X5964643Y-14442071D01*
X5964643Y-14370643D01*
X5950357Y-14342071D01*
X5936071Y-14327786D01*
X5907500Y-14313500D01*
X5850357Y-14313500D01*
X5821786Y-14327786D01*
X5807500Y-14342071D01*
X5793214Y-14370643D01*
X6150357Y-14199214D02*
X6178928Y-14199214D01*
X6207500Y-14213500D01*
X6221786Y-14227786D01*
X6236071Y-14256357D01*
X6250357Y-14313500D01*
X6250357Y-14384929D01*
X6236071Y-14442071D01*
X6221786Y-14470643D01*
X6207500Y-14484929D01*
X6178928Y-14499214D01*
X6150357Y-14499214D01*
X6121786Y-14484929D01*
X6107500Y-14470643D01*
X6093214Y-14442071D01*
X6078928Y-14384929D01*
X6078928Y-14313500D01*
X6093214Y-14256357D01*
X6107500Y-14227786D01*
X6121786Y-14213500D01*
X6150357Y-14199214D01*
X6378928Y-14499214D02*
X6378928Y-14299214D01*
X6378928Y-14327786D02*
X6393214Y-14313500D01*
X6421786Y-14299214D01*
X6464643Y-14299214D01*
X6493214Y-14313500D01*
X6507500Y-14342071D01*
X6507500Y-14499214D01*
X6507500Y-14342071D02*
X6521786Y-14313500D01*
X6550357Y-14299214D01*
X6593214Y-14299214D01*
X6621786Y-14313500D01*
X6636071Y-14342071D01*
X6636071Y-14499214D01*
X6778928Y-14499214D02*
X6778928Y-14299214D01*
X6778928Y-14327786D02*
X6793214Y-14313500D01*
X6821786Y-14299214D01*
X6864643Y-14299214D01*
X6893214Y-14313500D01*
X6907500Y-14342071D01*
X6907500Y-14499214D01*
X6907500Y-14342071D02*
X6921786Y-14313500D01*
X6950357Y-14299214D01*
X6993214Y-14299214D01*
X7021786Y-14313500D01*
X7036071Y-14342071D01*
X7036071Y-14499214D01*
X7621786Y-14184929D02*
X7364643Y-14570643D01*
X8007500Y-14199214D02*
X8036071Y-14199214D01*
X8064643Y-14213500D01*
X8078928Y-14227786D01*
X8093214Y-14256357D01*
X8107500Y-14313500D01*
X8107500Y-14384929D01*
X8093214Y-14442071D01*
X8078928Y-14470643D01*
X8064643Y-14484929D01*
X8036071Y-14499214D01*
X8007500Y-14499214D01*
X7978928Y-14484929D01*
X7964643Y-14470643D01*
X7950357Y-14442071D01*
X7936071Y-14384929D01*
X7936071Y-14313500D01*
X7950357Y-14256357D01*
X7964643Y-14227786D01*
X7978928Y-14213500D01*
X8007500Y-14199214D01*
X8236071Y-14470643D02*
X8250357Y-14484929D01*
X8236071Y-14499214D01*
X8221786Y-14484929D01*
X8236071Y-14470643D01*
X8236071Y-14499214D01*
X8436071Y-14199214D02*
X8464643Y-14199214D01*
X8493214Y-14213500D01*
X8507500Y-14227786D01*
X8521786Y-14256357D01*
X8536071Y-14313500D01*
X8536071Y-14384929D01*
X8521786Y-14442071D01*
X8507500Y-14470643D01*
X8493214Y-14484929D01*
X8464643Y-14499214D01*
X8436071Y-14499214D01*
X8407500Y-14484929D01*
X8393214Y-14470643D01*
X8378928Y-14442071D01*
X8364643Y-14384929D01*
X8364643Y-14313500D01*
X8378928Y-14256357D01*
X8393214Y-14227786D01*
X8407500Y-14213500D01*
X8436071Y-14199214D01*
X8650357Y-14227786D02*
X8664643Y-14213500D01*
X8693214Y-14199214D01*
X8764643Y-14199214D01*
X8793214Y-14213500D01*
X8807500Y-14227786D01*
X8821786Y-14256357D01*
X8821786Y-14284929D01*
X8807500Y-14327786D01*
X8636071Y-14499214D01*
X8821786Y-14499214D01*
X9078928Y-14299214D02*
X9078928Y-14499214D01*
X9007500Y-14184929D02*
X8936071Y-14399214D01*
X9121786Y-14399214D01*
X9221786Y-14199214D02*
X9221786Y-14256357D01*
X9336071Y-14199214D02*
X9336071Y-14256357D01*
X9778928Y-14613500D02*
X9764643Y-14599214D01*
X9736071Y-14556357D01*
X9721786Y-14527786D01*
X9707500Y-14484929D01*
X9693214Y-14413500D01*
X9693214Y-14356357D01*
X9707500Y-14284929D01*
X9721786Y-14242071D01*
X9736071Y-14213500D01*
X9764643Y-14170643D01*
X9778928Y-14156357D01*
X10021786Y-14199214D02*
X9964643Y-14199214D01*
X9936071Y-14213500D01*
X9921786Y-14227786D01*
X9893214Y-14270643D01*
X9878928Y-14327786D01*
X9878928Y-14442071D01*
X9893214Y-14470643D01*
X9907500Y-14484929D01*
X9936071Y-14499214D01*
X9993214Y-14499214D01*
X10021786Y-14484929D01*
X10036071Y-14470643D01*
X10050357Y-14442071D01*
X10050357Y-14370643D01*
X10036071Y-14342071D01*
X10021786Y-14327786D01*
X9993214Y-14313500D01*
X9936071Y-14313500D01*
X9907500Y-14327786D01*
X9893214Y-14342071D01*
X9878928Y-14370643D01*
X10221786Y-14327786D02*
X10193214Y-14313500D01*
X10178928Y-14299214D01*
X10164643Y-14270643D01*
X10164643Y-14256357D01*
X10178928Y-14227786D01*
X10193214Y-14213500D01*
X10221786Y-14199214D01*
X10278928Y-14199214D01*
X10307500Y-14213500D01*
X10321786Y-14227786D01*
X10336071Y-14256357D01*
X10336071Y-14270643D01*
X10321786Y-14299214D01*
X10307500Y-14313500D01*
X10278928Y-14327786D01*
X10221786Y-14327786D01*
X10193214Y-14342071D01*
X10178928Y-14356357D01*
X10164643Y-14384929D01*
X10164643Y-14442071D01*
X10178928Y-14470643D01*
X10193214Y-14484929D01*
X10221786Y-14499214D01*
X10278928Y-14499214D01*
X10307500Y-14484929D01*
X10321786Y-14470643D01*
X10336071Y-14442071D01*
X10336071Y-14384929D01*
X10321786Y-14356357D01*
X10307500Y-14342071D01*
X10278928Y-14327786D01*
X10693214Y-14499214D02*
X10693214Y-14199214D01*
X10821786Y-14499214D02*
X10821786Y-14342071D01*
X10807500Y-14313500D01*
X10778928Y-14299214D01*
X10736071Y-14299214D01*
X10707500Y-14313500D01*
X10693214Y-14327786D01*
X11007500Y-14499214D02*
X10978928Y-14484929D01*
X10964643Y-14470643D01*
X10950357Y-14442071D01*
X10950357Y-14356357D01*
X10964643Y-14327786D01*
X10978928Y-14313500D01*
X11007500Y-14299214D01*
X11050357Y-14299214D01*
X11078928Y-14313500D01*
X11093214Y-14327786D01*
X11107500Y-14356357D01*
X11107500Y-14442071D01*
X11093214Y-14470643D01*
X11078928Y-14484929D01*
X11050357Y-14499214D01*
X11007500Y-14499214D01*
X11278928Y-14499214D02*
X11250357Y-14484929D01*
X11236071Y-14456357D01*
X11236071Y-14199214D01*
X11507500Y-14484929D02*
X11478928Y-14499214D01*
X11421786Y-14499214D01*
X11393214Y-14484929D01*
X11378928Y-14456357D01*
X11378928Y-14342071D01*
X11393214Y-14313500D01*
X11421786Y-14299214D01*
X11478928Y-14299214D01*
X11507500Y-14313500D01*
X11521786Y-14342071D01*
X11521786Y-14370643D01*
X11378928Y-14399214D01*
X11636071Y-14484929D02*
X11664643Y-14499214D01*
X11721786Y-14499214D01*
X11750357Y-14484929D01*
X11764643Y-14456357D01*
X11764643Y-14442071D01*
X11750357Y-14413500D01*
X11721786Y-14399214D01*
X11678928Y-14399214D01*
X11650357Y-14384929D01*
X11636071Y-14356357D01*
X11636071Y-14342071D01*
X11650357Y-14313500D01*
X11678928Y-14299214D01*
X11721786Y-14299214D01*
X11750357Y-14313500D01*
X11864643Y-14613500D02*
X11878928Y-14599214D01*
X11907500Y-14556357D01*
X11921786Y-14527786D01*
X11936071Y-14484929D01*
X11950357Y-14413500D01*
X11950357Y-14356357D01*
X11936071Y-14284929D01*
X11921786Y-14242071D01*
X11907500Y-14213500D01*
X11878928Y-14170643D01*
X11864643Y-14156357D01*
X5042500Y-14709500D02*
X5042500Y-14809500D01*
X4992500Y-14759500D02*
X5092500Y-14759500D01*
X5536071Y-14895214D02*
X5364643Y-14895214D01*
X5450357Y-14895214D02*
X5450357Y-14595214D01*
X5421786Y-14638071D01*
X5393214Y-14666643D01*
X5364643Y-14680929D01*
X5664643Y-14866643D02*
X5678928Y-14880929D01*
X5664643Y-14895214D01*
X5650357Y-14880929D01*
X5664643Y-14866643D01*
X5664643Y-14895214D01*
X5864643Y-14595214D02*
X5893214Y-14595214D01*
X5921786Y-14609500D01*
X5936071Y-14623786D01*
X5950357Y-14652357D01*
X5964643Y-14709500D01*
X5964643Y-14780929D01*
X5950357Y-14838071D01*
X5936071Y-14866643D01*
X5921786Y-14880929D01*
X5893214Y-14895214D01*
X5864643Y-14895214D01*
X5836071Y-14880929D01*
X5821786Y-14866643D01*
X5807500Y-14838071D01*
X5793214Y-14780929D01*
X5793214Y-14709500D01*
X5807500Y-14652357D01*
X5821786Y-14623786D01*
X5836071Y-14609500D01*
X5864643Y-14595214D01*
X6150357Y-14595214D02*
X6178928Y-14595214D01*
X6207500Y-14609500D01*
X6221786Y-14623786D01*
X6236071Y-14652357D01*
X6250357Y-14709500D01*
X6250357Y-14780929D01*
X6236071Y-14838071D01*
X6221786Y-14866643D01*
X6207500Y-14880929D01*
X6178928Y-14895214D01*
X6150357Y-14895214D01*
X6121786Y-14880929D01*
X6107500Y-14866643D01*
X6093214Y-14838071D01*
X6078928Y-14780929D01*
X6078928Y-14709500D01*
X6093214Y-14652357D01*
X6107500Y-14623786D01*
X6121786Y-14609500D01*
X6150357Y-14595214D01*
X6378928Y-14895214D02*
X6378928Y-14695214D01*
X6378928Y-14723786D02*
X6393214Y-14709500D01*
X6421786Y-14695214D01*
X6464643Y-14695214D01*
X6493214Y-14709500D01*
X6507500Y-14738071D01*
X6507500Y-14895214D01*
X6507500Y-14738071D02*
X6521786Y-14709500D01*
X6550357Y-14695214D01*
X6593214Y-14695214D01*
X6621786Y-14709500D01*
X6636071Y-14738071D01*
X6636071Y-14895214D01*
X6778928Y-14895214D02*
X6778928Y-14695214D01*
X6778928Y-14723786D02*
X6793214Y-14709500D01*
X6821786Y-14695214D01*
X6864643Y-14695214D01*
X6893214Y-14709500D01*
X6907500Y-14738071D01*
X6907500Y-14895214D01*
X6907500Y-14738071D02*
X6921786Y-14709500D01*
X6950357Y-14695214D01*
X6993214Y-14695214D01*
X7021786Y-14709500D01*
X7036071Y-14738071D01*
X7036071Y-14895214D01*
X7621786Y-14580929D02*
X7364643Y-14966643D01*
X8007500Y-14595214D02*
X8036071Y-14595214D01*
X8064643Y-14609500D01*
X8078928Y-14623786D01*
X8093214Y-14652357D01*
X8107500Y-14709500D01*
X8107500Y-14780929D01*
X8093214Y-14838071D01*
X8078928Y-14866643D01*
X8064643Y-14880929D01*
X8036071Y-14895214D01*
X8007500Y-14895214D01*
X7978928Y-14880929D01*
X7964643Y-14866643D01*
X7950357Y-14838071D01*
X7936071Y-14780929D01*
X7936071Y-14709500D01*
X7950357Y-14652357D01*
X7964643Y-14623786D01*
X7978928Y-14609500D01*
X8007500Y-14595214D01*
X8236071Y-14866643D02*
X8250357Y-14880929D01*
X8236071Y-14895214D01*
X8221786Y-14880929D01*
X8236071Y-14866643D01*
X8236071Y-14895214D01*
X8436071Y-14595214D02*
X8464643Y-14595214D01*
X8493214Y-14609500D01*
X8507500Y-14623786D01*
X8521786Y-14652357D01*
X8536071Y-14709500D01*
X8536071Y-14780929D01*
X8521786Y-14838071D01*
X8507500Y-14866643D01*
X8493214Y-14880929D01*
X8464643Y-14895214D01*
X8436071Y-14895214D01*
X8407500Y-14880929D01*
X8393214Y-14866643D01*
X8378928Y-14838071D01*
X8364643Y-14780929D01*
X8364643Y-14709500D01*
X8378928Y-14652357D01*
X8393214Y-14623786D01*
X8407500Y-14609500D01*
X8436071Y-14595214D01*
X8636071Y-14595214D02*
X8821786Y-14595214D01*
X8721786Y-14709500D01*
X8764643Y-14709500D01*
X8793214Y-14723786D01*
X8807500Y-14738071D01*
X8821786Y-14766643D01*
X8821786Y-14838071D01*
X8807500Y-14866643D01*
X8793214Y-14880929D01*
X8764643Y-14895214D01*
X8678928Y-14895214D01*
X8650357Y-14880929D01*
X8636071Y-14866643D01*
X8964643Y-14895214D02*
X9021786Y-14895214D01*
X9050357Y-14880929D01*
X9064643Y-14866643D01*
X9093214Y-14823786D01*
X9107500Y-14766643D01*
X9107500Y-14652357D01*
X9093214Y-14623786D01*
X9078928Y-14609500D01*
X9050357Y-14595214D01*
X8993214Y-14595214D01*
X8964643Y-14609500D01*
X8950357Y-14623786D01*
X8936071Y-14652357D01*
X8936071Y-14723786D01*
X8950357Y-14752357D01*
X8964643Y-14766643D01*
X8993214Y-14780929D01*
X9050357Y-14780929D01*
X9078928Y-14766643D01*
X9093214Y-14752357D01*
X9107500Y-14723786D01*
X9221786Y-14595214D02*
X9221786Y-14652357D01*
X9336071Y-14595214D02*
X9336071Y-14652357D01*
X9778928Y-15009500D02*
X9764643Y-14995214D01*
X9736071Y-14952357D01*
X9721786Y-14923786D01*
X9707500Y-14880929D01*
X9693214Y-14809500D01*
X9693214Y-14752357D01*
X9707500Y-14680929D01*
X9721786Y-14638071D01*
X9736071Y-14609500D01*
X9764643Y-14566643D01*
X9778928Y-14552357D01*
X9864643Y-14595214D02*
X10050357Y-14595214D01*
X9950357Y-14709500D01*
X9993214Y-14709500D01*
X10021786Y-14723786D01*
X10036071Y-14738071D01*
X10050357Y-14766643D01*
X10050357Y-14838071D01*
X10036071Y-14866643D01*
X10021786Y-14880929D01*
X9993214Y-14895214D01*
X9907500Y-14895214D01*
X9878928Y-14880929D01*
X9864643Y-14866643D01*
X10164643Y-14623786D02*
X10178928Y-14609500D01*
X10207500Y-14595214D01*
X10278928Y-14595214D01*
X10307500Y-14609500D01*
X10321786Y-14623786D01*
X10336071Y-14652357D01*
X10336071Y-14680929D01*
X10321786Y-14723786D01*
X10150357Y-14895214D01*
X10336071Y-14895214D01*
X10693214Y-14895214D02*
X10693214Y-14595214D01*
X10821786Y-14895214D02*
X10821786Y-14738071D01*
X10807500Y-14709500D01*
X10778928Y-14695214D01*
X10736071Y-14695214D01*
X10707500Y-14709500D01*
X10693214Y-14723786D01*
X11007500Y-14895214D02*
X10978928Y-14880929D01*
X10964643Y-14866643D01*
X10950357Y-14838071D01*
X10950357Y-14752357D01*
X10964643Y-14723786D01*
X10978928Y-14709500D01*
X11007500Y-14695214D01*
X11050357Y-14695214D01*
X11078928Y-14709500D01*
X11093214Y-14723786D01*
X11107500Y-14752357D01*
X11107500Y-14838071D01*
X11093214Y-14866643D01*
X11078928Y-14880929D01*
X11050357Y-14895214D01*
X11007500Y-14895214D01*
X11278928Y-14895214D02*
X11250357Y-14880929D01*
X11236071Y-14852357D01*
X11236071Y-14595214D01*
X11507500Y-14880929D02*
X11478928Y-14895214D01*
X11421786Y-14895214D01*
X11393214Y-14880929D01*
X11378928Y-14852357D01*
X11378928Y-14738071D01*
X11393214Y-14709500D01*
X11421786Y-14695214D01*
X11478928Y-14695214D01*
X11507500Y-14709500D01*
X11521786Y-14738071D01*
X11521786Y-14766643D01*
X11378928Y-14795214D01*
X11636071Y-14880929D02*
X11664643Y-14895214D01*
X11721786Y-14895214D01*
X11750357Y-14880929D01*
X11764643Y-14852357D01*
X11764643Y-14838071D01*
X11750357Y-14809500D01*
X11721786Y-14795214D01*
X11678928Y-14795214D01*
X11650357Y-14780929D01*
X11636071Y-14752357D01*
X11636071Y-14738071D01*
X11650357Y-14709500D01*
X11678928Y-14695214D01*
X11721786Y-14695214D01*
X11750357Y-14709500D01*
X11864643Y-15009500D02*
X11878928Y-14995214D01*
X11907500Y-14952357D01*
X11921786Y-14923786D01*
X11936071Y-14880929D01*
X11950357Y-14809500D01*
X11950357Y-14752357D01*
X11936071Y-14680929D01*
X11921786Y-14638071D01*
X11907500Y-14609500D01*
X11878928Y-14566643D01*
X11864643Y-14552357D01*
X5077844Y-15190883D02*
X5077844Y-15120118D01*
X5007079Y-15120118D01*
X5007079Y-15190883D01*
X5077844Y-15190883D01*
X5536071Y-15291214D02*
X5364643Y-15291214D01*
X5450357Y-15291214D02*
X5450357Y-14991214D01*
X5421786Y-15034071D01*
X5393214Y-15062643D01*
X5364643Y-15076929D01*
X5664643Y-15262643D02*
X5678928Y-15276929D01*
X5664643Y-15291214D01*
X5650357Y-15276929D01*
X5664643Y-15262643D01*
X5664643Y-15291214D01*
X5864643Y-14991214D02*
X5893214Y-14991214D01*
X5921786Y-15005500D01*
X5936071Y-15019786D01*
X5950357Y-15048357D01*
X5964643Y-15105500D01*
X5964643Y-15176929D01*
X5950357Y-15234071D01*
X5936071Y-15262643D01*
X5921786Y-15276929D01*
X5893214Y-15291214D01*
X5864643Y-15291214D01*
X5836071Y-15276929D01*
X5821786Y-15262643D01*
X5807500Y-15234071D01*
X5793214Y-15176929D01*
X5793214Y-15105500D01*
X5807500Y-15048357D01*
X5821786Y-15019786D01*
X5836071Y-15005500D01*
X5864643Y-14991214D01*
X6150357Y-14991214D02*
X6178928Y-14991214D01*
X6207500Y-15005500D01*
X6221786Y-15019786D01*
X6236071Y-15048357D01*
X6250357Y-15105500D01*
X6250357Y-15176929D01*
X6236071Y-15234071D01*
X6221786Y-15262643D01*
X6207500Y-15276929D01*
X6178928Y-15291214D01*
X6150357Y-15291214D01*
X6121786Y-15276929D01*
X6107500Y-15262643D01*
X6093214Y-15234071D01*
X6078928Y-15176929D01*
X6078928Y-15105500D01*
X6093214Y-15048357D01*
X6107500Y-15019786D01*
X6121786Y-15005500D01*
X6150357Y-14991214D01*
X6378928Y-15291214D02*
X6378928Y-15091214D01*
X6378928Y-15119786D02*
X6393214Y-15105500D01*
X6421786Y-15091214D01*
X6464643Y-15091214D01*
X6493214Y-15105500D01*
X6507500Y-15134071D01*
X6507500Y-15291214D01*
X6507500Y-15134071D02*
X6521786Y-15105500D01*
X6550357Y-15091214D01*
X6593214Y-15091214D01*
X6621786Y-15105500D01*
X6636071Y-15134071D01*
X6636071Y-15291214D01*
X6778928Y-15291214D02*
X6778928Y-15091214D01*
X6778928Y-15119786D02*
X6793214Y-15105500D01*
X6821786Y-15091214D01*
X6864643Y-15091214D01*
X6893214Y-15105500D01*
X6907500Y-15134071D01*
X6907500Y-15291214D01*
X6907500Y-15134071D02*
X6921786Y-15105500D01*
X6950357Y-15091214D01*
X6993214Y-15091214D01*
X7021786Y-15105500D01*
X7036071Y-15134071D01*
X7036071Y-15291214D01*
X7621786Y-14976929D02*
X7364643Y-15362643D01*
X8007500Y-14991214D02*
X8036071Y-14991214D01*
X8064643Y-15005500D01*
X8078928Y-15019786D01*
X8093214Y-15048357D01*
X8107500Y-15105500D01*
X8107500Y-15176929D01*
X8093214Y-15234071D01*
X8078928Y-15262643D01*
X8064643Y-15276929D01*
X8036071Y-15291214D01*
X8007500Y-15291214D01*
X7978928Y-15276929D01*
X7964643Y-15262643D01*
X7950357Y-15234071D01*
X7936071Y-15176929D01*
X7936071Y-15105500D01*
X7950357Y-15048357D01*
X7964643Y-15019786D01*
X7978928Y-15005500D01*
X8007500Y-14991214D01*
X8236071Y-15262643D02*
X8250357Y-15276929D01*
X8236071Y-15291214D01*
X8221786Y-15276929D01*
X8236071Y-15262643D01*
X8236071Y-15291214D01*
X8436071Y-14991214D02*
X8464643Y-14991214D01*
X8493214Y-15005500D01*
X8507500Y-15019786D01*
X8521786Y-15048357D01*
X8536071Y-15105500D01*
X8536071Y-15176929D01*
X8521786Y-15234071D01*
X8507500Y-15262643D01*
X8493214Y-15276929D01*
X8464643Y-15291214D01*
X8436071Y-15291214D01*
X8407500Y-15276929D01*
X8393214Y-15262643D01*
X8378928Y-15234071D01*
X8364643Y-15176929D01*
X8364643Y-15105500D01*
X8378928Y-15048357D01*
X8393214Y-15019786D01*
X8407500Y-15005500D01*
X8436071Y-14991214D01*
X8636071Y-14991214D02*
X8821786Y-14991214D01*
X8721786Y-15105500D01*
X8764643Y-15105500D01*
X8793214Y-15119786D01*
X8807500Y-15134071D01*
X8821786Y-15162643D01*
X8821786Y-15234071D01*
X8807500Y-15262643D01*
X8793214Y-15276929D01*
X8764643Y-15291214D01*
X8678928Y-15291214D01*
X8650357Y-15276929D01*
X8636071Y-15262643D01*
X8964643Y-15291214D02*
X9021786Y-15291214D01*
X9050357Y-15276929D01*
X9064643Y-15262643D01*
X9093214Y-15219786D01*
X9107500Y-15162643D01*
X9107500Y-15048357D01*
X9093214Y-15019786D01*
X9078928Y-15005500D01*
X9050357Y-14991214D01*
X8993214Y-14991214D01*
X8964643Y-15005500D01*
X8950357Y-15019786D01*
X8936071Y-15048357D01*
X8936071Y-15119786D01*
X8950357Y-15148357D01*
X8964643Y-15162643D01*
X8993214Y-15176929D01*
X9050357Y-15176929D01*
X9078928Y-15162643D01*
X9093214Y-15148357D01*
X9107500Y-15119786D01*
X9221786Y-14991214D02*
X9221786Y-15048357D01*
X9336071Y-14991214D02*
X9336071Y-15048357D01*
X9778928Y-15405500D02*
X9764643Y-15391214D01*
X9736071Y-15348357D01*
X9721786Y-15319786D01*
X9707500Y-15276929D01*
X9693214Y-15205500D01*
X9693214Y-15148357D01*
X9707500Y-15076929D01*
X9721786Y-15034071D01*
X9736071Y-15005500D01*
X9764643Y-14962643D01*
X9778928Y-14948357D01*
X9878928Y-15019786D02*
X9893214Y-15005500D01*
X9921786Y-14991214D01*
X9993214Y-14991214D01*
X10021786Y-15005500D01*
X10036071Y-15019786D01*
X10050357Y-15048357D01*
X10050357Y-15076929D01*
X10036071Y-15119786D01*
X9864643Y-15291214D01*
X10050357Y-15291214D01*
X10307500Y-15091214D02*
X10307500Y-15291214D01*
X10236071Y-14976929D02*
X10164643Y-15191214D01*
X10350357Y-15191214D01*
X10693214Y-15291214D02*
X10693214Y-14991214D01*
X10821786Y-15291214D02*
X10821786Y-15134071D01*
X10807500Y-15105500D01*
X10778928Y-15091214D01*
X10736071Y-15091214D01*
X10707500Y-15105500D01*
X10693214Y-15119786D01*
X11007500Y-15291214D02*
X10978928Y-15276929D01*
X10964643Y-15262643D01*
X10950357Y-15234071D01*
X10950357Y-15148357D01*
X10964643Y-15119786D01*
X10978928Y-15105500D01*
X11007500Y-15091214D01*
X11050357Y-15091214D01*
X11078928Y-15105500D01*
X11093214Y-15119786D01*
X11107500Y-15148357D01*
X11107500Y-15234071D01*
X11093214Y-15262643D01*
X11078928Y-15276929D01*
X11050357Y-15291214D01*
X11007500Y-15291214D01*
X11278928Y-15291214D02*
X11250357Y-15276929D01*
X11236071Y-15248357D01*
X11236071Y-14991214D01*
X11507500Y-15276929D02*
X11478928Y-15291214D01*
X11421786Y-15291214D01*
X11393214Y-15276929D01*
X11378928Y-15248357D01*
X11378928Y-15134071D01*
X11393214Y-15105500D01*
X11421786Y-15091214D01*
X11478928Y-15091214D01*
X11507500Y-15105500D01*
X11521786Y-15134071D01*
X11521786Y-15162643D01*
X11378928Y-15191214D01*
X11636071Y-15276929D02*
X11664643Y-15291214D01*
X11721786Y-15291214D01*
X11750357Y-15276929D01*
X11764643Y-15248357D01*
X11764643Y-15234071D01*
X11750357Y-15205500D01*
X11721786Y-15191214D01*
X11678928Y-15191214D01*
X11650357Y-15176929D01*
X11636071Y-15148357D01*
X11636071Y-15134071D01*
X11650357Y-15105500D01*
X11678928Y-15091214D01*
X11721786Y-15091214D01*
X11750357Y-15105500D01*
X11864643Y-15405500D02*
X11878928Y-15391214D01*
X11907500Y-15348357D01*
X11921786Y-15319786D01*
X11936071Y-15276929D01*
X11950357Y-15205500D01*
X11950357Y-15148357D01*
X11936071Y-15076929D01*
X11921786Y-15034071D01*
X11907500Y-15005500D01*
X11878928Y-14962643D01*
X11864643Y-14948357D01*
M02*
